<svg width="28" height="24" viewBox="0 0 28 24" fill="none" xmlns="http://www.w3.org/2000/svg">
<g clip-path="url(#clip0)">
<path d="M23.4457 0.667261C19.319 0.0280648 14.5344 0.0328172 10.2749 0.478354C7.3455 0.784883 4.0697 1.24824 2.3811 3.13494C1.18134 4.47511 0.527143 16.3288 1.55672 20.2376C1.82829 21.2712 2.20246 22.331 3.07633 23.1389C3.9502 23.9468 17.535 24.2248 20.4813 23.8054C21.6063 23.6451 22.7445 23.4264 23.704 22.9429C25.949 21.8106 27.045 19.5711 27.0559 17.4907C27.0957 10.519 27.1645 1.24468 23.4457 0.667261Z" fill="#DCA35B"/>
<path d="M18.2147 10.3501C18.1558 10.3501 18.0993 10.3271 18.0576 10.2861C18.016 10.2451 17.9926 10.1895 17.9926 10.1315V8.8246C17.9926 8.08441 18.4947 7.91214 18.8459 7.91214H20.7904C20.8487 7.91215 20.9046 7.8896 20.9462 7.84938C20.9877 7.80915 21.0115 7.75445 21.0125 7.69709V4.87774C21.0122 4.82006 20.9888 4.76482 20.9475 4.72392C20.9062 4.68302 20.8502 4.65975 20.7916 4.65913L18.03 4.64844C14.718 4.64844 13.966 7.07691 13.966 8.63213V10.1315C13.966 10.1893 13.9428 10.2447 13.9014 10.2857C13.86 10.3266 13.8038 10.3498 13.7451 10.3501H12.2726C12.214 10.3501 12.1578 10.373 12.1164 10.4138C12.075 10.4546 12.0517 10.5099 12.0517 10.5675V13.9322C12.0517 13.9899 12.075 14.0452 12.1164 14.086C12.1578 14.1267 12.214 14.1496 12.2726 14.1496H13.7608C13.8196 14.15 13.8759 14.1731 13.9175 14.214C13.9591 14.255 13.9826 14.3104 13.9829 14.3683V23.7827C13.9829 23.8404 14.0062 23.8957 14.0476 23.9365C14.089 23.9773 14.1452 24.0002 14.2038 24.0002H17.622C17.6806 24.0002 17.7368 23.9773 17.7782 23.9365C17.8196 23.8957 17.8429 23.8404 17.8429 23.7827V14.3683C17.8432 14.3104 17.8667 14.255 17.9083 14.214C17.9499 14.1731 18.0062 14.15 18.065 14.1496H20.5068C20.5621 14.1496 20.6154 14.1292 20.6562 14.0925C20.6971 14.0558 20.7225 14.0054 20.7276 13.9512L20.8483 12.6574L21.039 10.5877C21.0419 10.5575 21.0383 10.5271 21.0285 10.4983C21.0187 10.4696 21.0029 10.4431 20.9821 10.4208C20.9613 10.3984 20.9359 10.3805 20.9077 10.3684C20.8795 10.3562 20.849 10.35 20.8182 10.3501H18.2147Z" fill="#191919"/>
<path d="M17.9417 14.1442C17.8521 14.5146 17.8116 14.8947 17.821 15.2753C17.821 15.2844 17.8247 15.2932 17.8313 15.2997C17.8379 15.3061 17.8468 15.3098 17.8561 15.3098C17.8653 15.3098 17.8742 15.3061 17.8808 15.2997C17.8874 15.2932 17.8911 15.2844 17.8911 15.2753C17.9067 14.8987 17.9502 14.5256 17.9973 14.1514C17.9973 14.1181 17.9466 14.1122 17.9381 14.1442H17.9417Z" fill="#191919"/>
<path d="M17.9708 14.4014C17.8488 15.0597 17.7946 15.7284 17.8091 16.3974C17.8102 16.4018 17.8128 16.4057 17.8164 16.4084C17.82 16.4112 17.8244 16.4127 17.829 16.4127C17.8336 16.4127 17.8381 16.4112 17.8417 16.4084C17.8453 16.4057 17.8478 16.4018 17.8489 16.3974C17.861 15.7297 17.9214 15.0679 17.9829 14.4026C17.9829 14.4026 17.9721 14.3955 17.9708 14.4026V14.4014Z" fill="#191919"/>
<path d="M17.8707 14.1488C17.78 14.3999 17.7454 14.6674 17.7693 14.9329C17.7693 14.9398 17.7721 14.9465 17.7771 14.9514C17.7821 14.9563 17.7888 14.959 17.7959 14.959C17.8029 14.959 17.8097 14.9563 17.8146 14.9514C17.8196 14.9465 17.8224 14.9398 17.8224 14.9329C17.8288 14.6726 17.8558 14.4132 17.9033 14.1571C17.904 14.153 17.9031 14.1488 17.9008 14.1453C17.8985 14.1418 17.895 14.1393 17.8909 14.1382C17.8868 14.1372 17.8824 14.1377 17.8787 14.1396C17.875 14.1416 17.8721 14.1448 17.8707 14.1488Z" fill="#191919"/>
<path d="M17.7934 14.3415C17.8237 14.5056 17.8319 14.673 17.8176 14.8393C17.8176 14.8488 17.8308 14.8488 17.832 14.8393C17.8488 14.6721 17.8394 14.5035 17.8043 14.3391C17.8043 14.332 17.7922 14.3391 17.7934 14.3391V14.3415Z" fill="#191919"/>
<path d="M17.7897 16.2104C17.771 16.9799 17.8012 17.7497 17.8803 18.5154C17.8803 18.5284 17.902 18.5284 17.9008 18.5154C17.8274 17.7492 17.7932 16.98 17.7982 16.2104H17.7897Z" fill="#191919"/>
<path d="M17.8344 16.6721C17.9768 17.8745 17.9213 19.0828 17.9092 20.2899C17.9092 20.3255 17.9611 20.3243 17.9636 20.2899C18.0384 19.084 18.0637 17.8638 17.8525 16.6698C17.8525 16.6591 17.8332 16.6614 17.8344 16.6698V16.6721Z" fill="#191919"/>
<path d="M17.9346 18.4833C17.8091 19.4336 17.7667 20.3927 17.8079 21.3501C17.8079 21.3564 17.8104 21.3625 17.8149 21.3669C17.8195 21.3714 17.8256 21.3739 17.832 21.3739C17.8384 21.3739 17.8445 21.3714 17.8491 21.3669C17.8536 21.3625 17.8561 21.3564 17.8561 21.3501C17.8561 20.3925 17.8791 19.4373 17.9587 18.4833C17.9587 18.4678 17.937 18.4678 17.9346 18.4833Z" fill="#191919"/>
<path d="M17.8573 18.2355C17.7698 19.5632 17.7698 20.895 17.8573 22.2227C17.8573 22.2572 17.9128 22.2572 17.9116 22.2227C17.8959 21.5586 17.8718 20.8944 17.8682 20.2291C17.8646 19.5638 17.8778 18.9008 17.8803 18.2355C17.8803 18.2236 17.8621 18.2236 17.8609 18.2355H17.8573Z" fill="#191919"/>
<path d="M17.7814 20.4457C17.7721 21.3822 17.8197 22.3186 17.9238 23.2496C17.9238 23.284 17.9842 23.2852 17.9806 23.2496C17.8949 22.3169 17.8297 21.3819 17.8019 20.4457C17.8012 20.4436 17.7998 20.4417 17.798 20.4405C17.7961 20.4392 17.7939 20.4385 17.7917 20.4385C17.7894 20.4385 17.7872 20.4392 17.7854 20.4405C17.7835 20.4417 17.7822 20.4436 17.7814 20.4457Z" fill="#191919"/>
<path d="M17.8428 22.5028C17.8283 22.6246 17.8247 22.7474 17.8319 22.8699C17.8417 22.99 17.8611 23.1092 17.8899 23.2263C17.8983 23.2608 17.9514 23.2453 17.9454 23.2109C17.9237 23.0921 17.9104 22.9733 17.8983 22.8544C17.8863 22.7356 17.8766 22.6168 17.873 22.498C17.872 22.4948 17.8701 22.492 17.8673 22.4899C17.8646 22.4879 17.8613 22.4868 17.8579 22.4868C17.8545 22.4868 17.8512 22.4879 17.8484 22.4899C17.8457 22.492 17.8437 22.4948 17.8428 22.498V22.5028Z" fill="#191919"/>
<path d="M17.8453 23.1213C17.815 23.3214 17.8199 23.5252 17.8598 23.7237C17.8658 23.7486 17.9068 23.7427 17.9044 23.7177C17.8824 23.5205 17.8732 23.3221 17.8767 23.1237C17.8767 23.1071 17.8477 23.1023 17.8453 23.1237V23.1213Z" fill="#191919"/>
<path d="M17.8501 23.498V23.6299C17.8501 23.6739 17.8501 23.7178 17.8501 23.7618L17.8851 23.7523L17.8525 23.6751C17.8453 23.6584 17.8163 23.6751 17.8224 23.6869L17.8513 23.7665C17.8524 23.7706 17.8548 23.7743 17.8582 23.7768C17.8616 23.7794 17.8657 23.7808 17.87 23.7808C17.8743 23.7808 17.8785 23.7794 17.8819 23.7768C17.8853 23.7743 17.8877 23.7706 17.8887 23.7665C17.8887 23.7226 17.8887 23.6786 17.8815 23.6347L17.8743 23.5028C17.8736 23.5012 17.8725 23.4999 17.8711 23.499C17.8697 23.4981 17.8681 23.4976 17.8664 23.4976C17.8647 23.4976 17.8631 23.4981 17.8617 23.499C17.8603 23.4999 17.8592 23.5012 17.8586 23.5028L17.8501 23.498Z" fill="#191919"/>
<path d="M17.8211 23.6847C17.8174 23.7104 17.8211 23.7366 17.8319 23.7602C17.8364 23.7725 17.8434 23.7837 17.8525 23.7933C17.8622 23.8028 17.8732 23.8111 17.8851 23.818C17.8959 23.8251 17.9056 23.8074 17.8947 23.8003C17.8858 23.7938 17.8777 23.7863 17.8706 23.7779C17.8631 23.7694 17.8562 23.7603 17.8501 23.7508C17.8391 23.7308 17.8333 23.7086 17.8332 23.6859C17.8332 23.6788 17.8211 23.6765 17.8211 23.6859V23.6847Z" fill="#191919"/>
<path d="M13.9238 14.445C13.8943 14.5272 13.8852 14.6152 13.8973 14.7016C13.8973 14.8026 13.8973 14.9036 13.8973 15.0046L13.9081 15.7175C13.9166 16.1844 13.9262 16.6489 13.9576 17.1147C13.959 17.1217 13.9629 17.128 13.9685 17.1325C13.9741 17.137 13.9811 17.1395 13.9884 17.1395C13.9957 17.1395 14.0027 17.137 14.0083 17.1325C14.0139 17.128 14.0178 17.1217 14.0192 17.1147C14.03 16.6489 14.0192 16.1832 14.0071 15.7175C13.9999 15.4893 13.9938 15.2612 13.9878 15.0331C13.9878 14.9226 13.9878 14.8121 13.9769 14.7028C13.9851 14.6155 13.9719 14.5275 13.9383 14.4462C13.9373 14.4447 13.936 14.4435 13.9344 14.4427C13.9328 14.4418 13.9311 14.4414 13.9293 14.4414C13.9275 14.4414 13.9257 14.4418 13.9241 14.4427C13.9225 14.4435 13.9212 14.4447 13.9202 14.4462L13.9238 14.445Z" fill="#191919"/>
<path d="M13.9926 15.7751C13.8538 17.3081 13.8369 18.8494 13.9419 20.3849C13.9419 20.4099 13.983 20.4099 13.9818 20.3849C13.8999 18.8491 13.9091 17.3099 14.0095 15.7751C14.0095 15.7644 13.9938 15.7644 13.9926 15.7751Z" fill="#191919"/>
<path d="M13.9056 17.5488C13.7994 18.8332 13.733 20.1222 13.739 21.4113C13.7405 21.4186 13.7445 21.4252 13.7503 21.4299C13.7561 21.4347 13.7635 21.4373 13.771 21.4373C13.7786 21.4373 13.7859 21.4347 13.7917 21.4299C13.7976 21.4252 13.8015 21.4186 13.803 21.4113C13.8308 20.1234 13.8573 18.8367 13.9152 17.5488H13.9056Z" fill="#191919"/>
<path d="M13.7342 20.8513C13.7511 21.2362 13.7692 21.62 13.7945 22.0037C13.7945 22.0168 13.8163 22.0168 13.8151 22.0037C13.7994 21.62 13.7752 21.2362 13.7511 20.8513C13.7511 20.8406 13.733 20.8406 13.7342 20.8513Z" fill="#191919"/>
<path d="M13.7982 22.2528C13.7848 22.5381 13.8079 22.8239 13.867 23.1035C13.8778 23.151 13.9466 23.1296 13.9406 23.0833C13.9004 22.8078 13.8794 22.5299 13.8778 22.2516C13.8778 22.2412 13.8736 22.2312 13.8662 22.2239C13.8587 22.2165 13.8486 22.2124 13.838 22.2124C13.8274 22.2124 13.8173 22.2165 13.8098 22.2239C13.8024 22.2312 13.7982 22.2412 13.7982 22.2516V22.2528Z" fill="#191919"/>
<path d="M13.9128 23.4366C13.9019 22.9614 13.8923 22.4861 13.8766 22.0038C13.8759 22.0017 13.8745 21.9998 13.8726 21.9986C13.8708 21.9973 13.8686 21.9966 13.8663 21.9966C13.8641 21.9966 13.8619 21.9973 13.86 21.9986C13.8582 21.9998 13.8568 22.0017 13.8561 22.0038C13.8657 22.479 13.8826 22.9542 13.8971 23.4366C13.8971 23.4461 13.9128 23.4461 13.9128 23.4366Z" fill="#191919"/>
<path d="M13.9286 20.9453C13.8863 21.8578 13.8549 22.7726 13.8791 23.6863C13.8803 23.6918 13.8835 23.6968 13.888 23.7003C13.8925 23.7039 13.898 23.7058 13.9038 23.7058C13.9096 23.7058 13.9152 23.7039 13.9197 23.7003C13.9242 23.6968 13.9273 23.6918 13.9286 23.6863C13.9286 22.7726 13.9177 21.859 13.937 20.9453H13.9286Z" fill="#191919"/>
<path d="M12.6044 14.3426C12.7528 14.3247 12.9013 14.3068 13.0485 14.2842C12.9001 14.3009 12.7516 14.3224 12.6044 14.3426Z" fill="#191919"/>
<path d="M12.8652 14.1919L12.7783 14.1695C12.7494 14.1612 12.7228 14.1471 12.6938 14.1412V14.2061C12.7782 14.1812 12.8666 14.1716 12.9545 14.1778C12.9787 14.1778 12.9847 14.1388 12.9545 14.1353C12.8601 14.117 12.7629 14.117 12.6685 14.1353C12.6615 14.1376 12.6555 14.1419 12.6512 14.1477C12.6469 14.1536 12.6446 14.1606 12.6446 14.1677C12.6446 14.1749 12.6469 14.1819 12.6512 14.1877C12.6555 14.1935 12.6615 14.1979 12.6685 14.2002C12.6987 14.2072 12.73 14.2002 12.759 14.2108L12.8483 14.2249C12.8536 14.2263 12.8592 14.2256 12.864 14.223C12.8688 14.2203 12.8722 14.2159 12.8737 14.2108C12.8751 14.2056 12.8744 14.2001 12.8717 14.1955C12.869 14.1908 12.8645 14.1874 12.8592 14.186L12.8652 14.1919Z" fill="#191919"/>
<path d="M13.1464 14.0256C13.0636 13.989 12.9737 13.9708 12.8829 13.9722C12.7922 13.9737 12.7029 13.9947 12.6213 14.0339C12.6153 14.0379 12.6106 14.0434 12.6076 14.05C12.6047 14.0565 12.6036 14.0637 12.6047 14.0707C12.6057 14.0778 12.6087 14.0844 12.6133 14.0899C12.618 14.0954 12.6241 14.0994 12.631 14.1016C12.8395 14.1741 13.0611 14.2028 13.2816 14.186C13.4023 14.186 13.5121 14.1777 13.628 14.1789C13.7578 14.1696 13.8882 14.1853 14.0118 14.2252L14.0287 14.1836C13.7752 14.0933 13.4868 14.1729 13.2273 14.1943C13.0952 14.2068 12.9622 14.2068 12.8302 14.1943C12.6825 14.1728 12.5368 14.1399 12.3944 14.0957C12.3389 14.0802 12.3208 14.1575 12.3715 14.1777C12.6259 14.2664 12.8973 14.2981 13.1657 14.2703C13.3009 14.2585 13.4337 14.2347 13.5676 14.2204C13.7172 14.2042 13.8682 14.2082 14.0166 14.2323C14.02 14.2331 14.0235 14.2331 14.0269 14.2324C14.0303 14.2316 14.0334 14.2301 14.0361 14.228C14.0388 14.2259 14.041 14.2232 14.0425 14.2202C14.044 14.2171 14.0448 14.2137 14.0448 14.2103C14.0448 14.2069 14.044 14.2036 14.0425 14.2005C14.041 14.1975 14.0388 14.1948 14.0361 14.1926C14.0334 14.1905 14.0303 14.1891 14.0269 14.1883C14.0235 14.1876 14.02 14.1876 14.0166 14.1884C13.9032 14.1777 13.7946 14.1468 13.6799 14.1385C13.5652 14.1301 13.4494 14.1313 13.3335 14.1313C13.1001 14.1405 12.867 14.1079 12.6455 14.0351L12.6539 14.1028C12.7253 14.0593 12.8056 14.0317 12.889 14.022C12.9725 14.0124 13.057 14.0209 13.1367 14.047C13.1388 14.0472 13.1408 14.0467 13.1426 14.0457C13.1443 14.0447 13.1457 14.0431 13.1465 14.0413C13.1473 14.0394 13.1475 14.0374 13.1471 14.0354C13.1466 14.0334 13.1455 14.0317 13.144 14.0303L13.1464 14.0256Z" fill="#191919"/>
<path d="M12.1312 13.9781H11.9864H11.914H11.8802C11.8643 13.9801 11.8485 13.9832 11.8331 13.9875C11.8246 13.9899 11.8168 13.9945 11.8106 14.0007C11.8043 14.007 11.7998 14.0147 11.7975 14.0231C11.7952 14.0315 11.7952 14.0403 11.7974 14.0488C11.7996 14.0572 11.804 14.065 11.8102 14.0713C11.822 14.0814 11.8363 14.0884 11.8516 14.0918C11.867 14.0952 11.8829 14.0947 11.8981 14.0905C11.9132 14.0863 11.927 14.0784 11.9382 14.0676C11.9494 14.0568 11.9577 14.0435 11.9623 14.0288C11.9648 14.0227 11.9648 14.0158 11.9622 14.0098C11.9596 14.0037 11.9546 13.9989 11.9484 13.9963C11.9453 13.9951 11.942 13.9945 11.9386 13.9945C11.9353 13.9945 11.932 13.9952 11.9289 13.9964C11.9227 13.999 11.9177 14.0038 11.9152 14.0099H11.9067H11.8959C11.9055 14.0099 11.8959 14.0099 11.8959 14.0099C11.8959 14.0099 11.8959 14.017 11.8959 14.0099L11.8512 14.0854C11.8673 14.0866 11.8834 14.0866 11.8995 14.0854L11.9321 14.0783L12.0033 14.0618L12.1445 14.0311C12.151 14.0286 12.1565 14.024 12.16 14.0181C12.1635 14.0121 12.1649 14.0052 12.1639 13.9984C12.163 13.9916 12.1597 13.9854 12.1546 13.9806C12.1496 13.9758 12.143 13.9729 12.1361 13.9722L12.1312 13.9781Z" fill="#191919"/>
<path d="M12.0565 13.9478H12.0469H12.0167H12.0083L11.9926 13.9383C11.9841 13.9313 11.9774 13.9224 11.9732 13.9124C11.9724 13.9096 11.9705 13.9072 11.9679 13.9057C11.9653 13.9043 11.9622 13.9039 11.9594 13.9047C11.9565 13.9055 11.954 13.9074 11.9526 13.9099C11.9511 13.9124 11.9507 13.9154 11.9515 13.9183C11.9531 13.9327 11.9585 13.9466 11.9672 13.9584C11.9777 13.9701 11.9904 13.9797 12.0046 13.9867C12.0193 13.9937 12.0354 13.9973 12.0517 13.9973C12.068 13.9973 12.0841 13.9937 12.0988 13.9867C12.1003 13.9852 12.1016 13.9835 12.1025 13.9816C12.1033 13.9797 12.1038 13.9776 12.1038 13.9755C12.1038 13.9734 12.1033 13.9713 12.1025 13.9694C12.1016 13.9674 12.1003 13.9657 12.0988 13.9643C12.0957 13.9614 12.0916 13.9599 12.0873 13.9599C12.0831 13.9599 12.079 13.9614 12.0758 13.9643L12.0565 13.9478Z" fill="#191919"/>
<path d="M11.9611 11.5995C11.9442 11.8953 11.943 12.1936 11.9442 12.4882C11.9455 12.7829 11.9442 13.0823 11.9756 13.3757C11.9756 13.3849 11.9793 13.3936 11.9859 13.4001C11.9924 13.4065 12.0014 13.4102 12.0106 13.4102C12.0199 13.4102 12.0288 13.4065 12.0354 13.4001C12.0419 13.3936 12.0456 13.3849 12.0456 13.3757C12.0529 13.0799 12.0336 12.7817 12.0263 12.4882C12.0191 12.1947 12.0167 11.8942 12.0046 11.5995C12.0046 11.5938 12.0023 11.5884 11.9982 11.5844C11.9942 11.5804 11.9886 11.5781 11.9829 11.5781C11.9771 11.5781 11.9716 11.5804 11.9675 11.5844C11.9634 11.5884 11.9611 11.5938 11.9611 11.5995Z" fill="#191919"/>
<path d="M11.9189 12.188C11.9093 12.1467 11.8984 12.1054 11.8887 12.07C11.8887 12.063 11.8755 12.07 11.8767 12.07C11.8875 12.1113 11.8972 12.1526 11.908 12.188C11.908 12.1951 11.9213 12.188 11.9189 12.188Z" fill="#191919"/>
<path d="M11.9214 11.0354C11.7355 11.8397 11.6932 12.7368 11.9093 13.5399C11.9214 13.5839 11.9829 13.5637 11.9769 13.5221C11.9114 13.1126 11.8711 12.6996 11.8562 12.2853C11.8485 11.8687 11.8796 11.4523 11.9491 11.0413C11.9491 11.0259 11.9298 11.02 11.9262 11.0354H11.9214Z" fill="#191919"/>
<path d="M11.9684 13.1274C11.9442 12.6106 11.9092 12.0926 11.8996 11.5758C11.8929 11.3348 11.899 11.0937 11.9177 10.8534C11.9301 10.7196 11.951 10.5866 11.9804 10.4554C11.9804 10.4399 12.0118 10.3366 11.9877 10.3544C11.9925 10.4249 12.0034 10.4948 12.0203 10.5635C12.0203 10.5837 12.0565 10.5932 12.0613 10.5635C12.0765 10.4849 12.0874 10.4056 12.0939 10.3259L12.0275 10.3639C12.095 10.4136 12.1767 10.4411 12.2609 10.4426C12.3452 10.4441 12.4278 10.4195 12.497 10.3722C12.526 10.3532 12.5091 10.3033 12.4729 10.314C12.4079 10.3371 12.3388 10.3469 12.2699 10.3426C12.201 10.3383 12.1336 10.3201 12.0722 10.2891C12.0655 10.2854 12.058 10.2835 12.0503 10.2835C12.0427 10.2835 12.0352 10.2855 12.0285 10.2892C12.0218 10.2929 12.0162 10.2982 12.0123 10.3046C12.0083 10.311 12.0061 10.3184 12.0058 10.3259C12.0058 10.4031 12.0058 10.4792 12.0203 10.5564L12.0589 10.5457C12.0217 10.4671 12.0071 10.38 12.0166 10.2938C12.0166 10.2784 11.9961 10.2784 11.9913 10.2938C11.8211 10.7156 11.8477 11.1778 11.879 11.6221C11.9128 12.1211 11.9334 12.6225 11.9599 13.1227C11.9599 13.1298 11.972 13.1298 11.972 13.1227L11.9684 13.1274Z" fill="#191919"/>
<path d="M12.3823 10.277C12.3456 10.2857 12.3078 10.2897 12.27 10.2888C12.2341 10.2865 12.1987 10.2789 12.165 10.2663C12.158 10.2643 12.1506 10.2637 12.1433 10.2645C12.136 10.2654 12.129 10.2676 12.1226 10.2712C12.1162 10.2747 12.1106 10.2794 12.106 10.2851C12.1015 10.2908 12.0982 10.2973 12.0962 10.3043C12.0928 10.3183 12.0949 10.3331 12.102 10.3456C12.1092 10.3582 12.1209 10.3676 12.1349 10.372C12.1856 10.3886 12.235 10.4053 12.2869 10.4195L12.3111 10.3316C12.293 10.3316 12.2749 10.3197 12.2568 10.3162L12.1892 10.3102C12.1703 10.3084 12.1513 10.3084 12.1324 10.3102C12.1182 10.3104 12.1042 10.3137 12.0914 10.3197C12.0806 10.3273 12.0725 10.3382 12.0685 10.3506C12.0671 10.3559 12.0672 10.3614 12.0687 10.3666C12.0702 10.3718 12.073 10.3765 12.0769 10.3803C12.0843 10.3879 12.0934 10.3936 12.1035 10.3971C12.1135 10.4007 12.1243 10.4018 12.1349 10.4005C12.1518 10.4005 12.1687 10.4005 12.1856 10.4005C12.2153 10.4021 12.2446 10.4081 12.2725 10.4183C12.2777 10.4214 12.2835 10.4234 12.2895 10.4242C12.2955 10.4251 12.3016 10.4247 12.3075 10.4232C12.3134 10.4218 12.3189 10.4191 12.3238 10.4155C12.3286 10.412 12.3327 10.4075 12.3358 10.4023C12.3389 10.3972 12.341 10.3915 12.3418 10.3855C12.3427 10.3796 12.3423 10.3736 12.3408 10.3678C12.3393 10.362 12.3366 10.3566 12.333 10.3518C12.3293 10.347 12.3248 10.343 12.3195 10.3399C12.2725 10.3174 12.2242 10.296 12.1759 10.2758L12.1481 10.3768C12.1917 10.3765 12.2351 10.3709 12.2773 10.3601C12.3196 10.3505 12.3602 10.3349 12.398 10.3138C12.4002 10.3129 12.4022 10.3115 12.4039 10.3098C12.4056 10.3081 12.4069 10.3061 12.4078 10.3039C12.4087 10.3017 12.4092 10.2993 12.4091 10.2969C12.4091 10.2946 12.4086 10.2922 12.4076 10.29C12.4067 10.2878 12.4053 10.2859 12.4036 10.2842C12.4019 10.2825 12.3998 10.2812 12.3976 10.2804C12.3953 10.2795 12.3929 10.279 12.3905 10.2791C12.3881 10.2791 12.3857 10.2796 12.3835 10.2805L12.3823 10.277Z" fill="#191919"/>
<path d="M13.1066 10.4051C13.2102 10.4089 13.314 10.4037 13.4168 10.3897C13.4663 10.3897 13.517 10.3766 13.5665 10.3659C13.6159 10.3552 13.6666 10.335 13.7161 10.3184C13.7656 10.3018 13.7511 10.2376 13.7053 10.2436L13.5568 10.259C13.5073 10.259 13.4578 10.2744 13.4083 10.2804C13.3082 10.2923 13.2068 10.3041 13.1066 10.3125C13.0941 10.3125 13.0821 10.3173 13.0733 10.326C13.0645 10.3347 13.0595 10.3465 13.0595 10.3588C13.0595 10.3711 13.0645 10.3829 13.0733 10.3916C13.0821 10.4002 13.0941 10.4051 13.1066 10.4051Z" fill="#191919"/>
<path d="M13.7861 10.2343L13.9141 10.206C13.9195 10.2047 13.9245 10.2023 13.9289 10.199C13.9333 10.1956 13.937 10.1915 13.9397 10.1867C13.9424 10.182 13.9441 10.1768 13.9447 10.1714C13.9452 10.166 13.9447 10.1605 13.943 10.1553C13.94 10.1449 13.9328 10.136 13.9231 10.1307C13.9133 10.1254 13.9019 10.1241 13.8911 10.127L13.7704 10.16C13.7647 10.1607 13.7593 10.1625 13.7543 10.1654C13.7494 10.1683 13.7452 10.1722 13.742 10.1768C13.7388 10.1815 13.7366 10.1867 13.7357 10.1922C13.7347 10.1978 13.735 10.2034 13.7365 10.2088C13.738 10.2143 13.7406 10.2193 13.7443 10.2236C13.748 10.2279 13.7526 10.2314 13.7577 10.2338C13.7629 10.2362 13.7686 10.2375 13.7743 10.2376C13.78 10.2377 13.7857 10.2366 13.791 10.2343H13.7861Z" fill="#191919"/>
<path d="M15.3372 5.37841C14.911 5.69346 14.5604 6.09684 14.3101 6.56001C14.0599 7.02318 13.916 7.53482 13.8888 8.05875C13.8888 8.09202 13.9383 8.09083 13.9419 8.05875C14.0665 7.03465 14.5691 6.09132 15.3541 5.40811C15.3698 5.39385 15.3541 5.36652 15.3312 5.37841H15.3372Z" fill="#191919"/>
<path d="M14.2025 6.84621C14.072 7.19332 13.9731 7.55115 13.9068 7.91549C13.8308 8.26957 13.7984 8.63138 13.8103 8.9931C13.8103 8.99877 13.8126 9.00421 13.8166 9.00822C13.8207 9.01223 13.8262 9.01448 13.832 9.01448C13.8378 9.01448 13.8433 9.01223 13.8474 9.00822C13.8514 9.00421 13.8537 8.99877 13.8537 8.9931C13.8935 8.62479 13.908 8.25767 13.9744 7.89054C14.0361 7.53748 14.1192 7.18836 14.2231 6.84502C14.2231 6.84313 14.2223 6.84132 14.2209 6.83998C14.2196 6.83864 14.2177 6.83789 14.2158 6.83789C14.2139 6.83789 14.2121 6.83864 14.2107 6.83998C14.2093 6.84132 14.2086 6.84313 14.2086 6.84502L14.2025 6.84621Z" fill="#191919"/>
<path d="M13.8415 8.27202C13.8325 8.48387 13.8349 8.69605 13.8488 8.90765C13.8498 8.91174 13.8523 8.91537 13.8557 8.91795C13.859 8.92054 13.8632 8.92195 13.8675 8.92195C13.8718 8.92195 13.8759 8.92054 13.8793 8.91795C13.8827 8.91537 13.8851 8.91174 13.8862 8.90765C13.9003 8.69605 13.9023 8.48384 13.8922 8.27202C13.8922 8.2654 13.8896 8.25906 13.8848 8.25438C13.8801 8.2497 13.8736 8.24707 13.8669 8.24707C13.8602 8.24707 13.8537 8.2497 13.849 8.25438C13.8442 8.25906 13.8415 8.2654 13.8415 8.27202Z" fill="#191919"/>
<path d="M13.844 8.90703C13.8489 8.94649 13.8489 8.98639 13.844 9.02584C13.844 9.06505 13.8319 9.10545 13.8235 9.14465C13.8209 9.15048 13.8208 9.15708 13.8232 9.16298C13.8256 9.16888 13.8302 9.17362 13.8361 9.17614C13.8421 9.17866 13.8488 9.17876 13.8548 9.17642C13.8608 9.17408 13.8656 9.16949 13.8681 9.16366C13.8938 9.1245 13.9088 9.07949 13.9116 9.03297C13.913 8.98863 13.9065 8.94438 13.8923 8.90228C13.885 8.87971 13.8476 8.88208 13.85 8.90228L13.844 8.90703Z" fill="#191919"/>
<path d="M14.9074 5.65237C14.6919 5.80439 14.5123 6.00056 14.381 6.22739C14.2497 6.45422 14.1699 6.70633 14.147 6.96641C14.1471 6.97204 14.1492 6.97746 14.1529 6.9817C14.1567 6.98595 14.1619 6.98875 14.1675 6.98961C14.1732 6.99046 14.1789 6.98932 14.1838 6.98638C14.1887 6.98343 14.1923 6.97888 14.1941 6.97354C14.309 6.48139 14.5635 6.03147 14.928 5.67614C14.9412 5.66426 14.928 5.63812 14.9074 5.65V5.65237Z" fill="#191919"/>
<path d="M14.2315 6.91341C14.2641 6.8944 14.2702 6.854 14.2798 6.82192L14.3148 6.70311C14.3161 6.69645 14.315 6.68957 14.3117 6.6836C14.3085 6.67763 14.3032 6.67294 14.2969 6.67031C14.2906 6.66767 14.2835 6.66725 14.2769 6.66911C14.2703 6.67097 14.2645 6.67501 14.2605 6.68054C14.2207 6.75302 14.1857 6.82905 14.1483 6.90272C14.1302 6.93955 14.1133 6.97638 14.0939 7.01202C14.0728 7.04469 14.057 7.08035 14.0469 7.11776C14.0471 7.11987 14.0479 7.12188 14.0491 7.12359C14.0504 7.1253 14.0521 7.12665 14.0541 7.1275C14.056 7.12835 14.0582 7.12866 14.0603 7.12841C14.0624 7.12816 14.0645 7.12736 14.0662 7.12608C14.0809 7.11288 14.0924 7.09665 14.1 7.07855L14.1302 7.0239L14.1905 6.92172C14.2315 6.85163 14.2738 6.78272 14.3112 6.71024L14.2569 6.68767L14.2243 6.80648C14.2096 6.83897 14.2066 6.87545 14.2159 6.90984C14.218 6.91168 14.2208 6.9127 14.2237 6.9127C14.2266 6.9127 14.2294 6.91168 14.2315 6.90984V6.91341Z" fill="#191919"/>
<path d="M18.3921 4.59098C18.586 4.60985 18.7813 4.60985 18.9751 4.59098C19.1649 4.57906 19.3534 4.55224 19.5388 4.51077C19.5641 4.50369 19.5605 4.46004 19.5315 4.46358C19.3432 4.48364 19.1537 4.51077 18.9642 4.52492C18.7747 4.53908 18.5828 4.54379 18.3921 4.55913C18.3886 4.56009 18.3854 4.56216 18.3832 4.56504C18.3809 4.56792 18.3797 4.57143 18.3797 4.57505C18.3797 4.57867 18.3809 4.58219 18.3832 4.58506C18.3854 4.58794 18.3886 4.59002 18.3921 4.59098Z" fill="#191919"/>
<path d="M19.3698 4.50315C19.3825 4.51378 19.3979 4.52073 19.4144 4.5232L19.476 4.53972C19.5146 4.55033 19.5532 4.56095 19.5967 4.56921C19.6776 4.5869 19.7584 4.60459 19.8381 4.61993C19.8538 4.61993 19.861 4.60105 19.8453 4.59634C19.7657 4.57274 19.686 4.55387 19.6039 4.535C19.5653 4.52556 19.5267 4.5173 19.4832 4.51023L19.4205 4.49725C19.4043 4.4931 19.3872 4.4931 19.371 4.49725V4.50433L19.3698 4.50315Z" fill="#191919"/>
<path d="M20.4017 4.6569C20.3598 4.61543 20.3059 4.58745 20.2472 4.57669V4.5991C20.3571 4.6109 20.4681 4.61798 20.5779 4.63567C20.5793 4.63621 20.5807 4.63649 20.5822 4.63649C20.5836 4.63648 20.5851 4.6362 20.5864 4.63565C20.5878 4.63511 20.589 4.6343 20.59 4.6333C20.5911 4.63229 20.5919 4.63109 20.5924 4.62977C20.593 4.62846 20.5933 4.62705 20.5933 4.62562C20.5933 4.6242 20.593 4.62279 20.5924 4.62147C20.5918 4.62016 20.591 4.61897 20.59 4.61796C20.589 4.61696 20.5877 4.61616 20.5864 4.61562C20.5595 4.60153 20.5317 4.58931 20.5031 4.57905L20.4898 4.60264C20.5559 4.63299 20.6271 4.65138 20.6999 4.6569C20.7758 4.65731 20.8512 4.6437 20.9219 4.6168C20.9461 4.6168 20.9328 4.57551 20.9087 4.58495C20.8418 4.60832 20.7706 4.61717 20.6999 4.6109C20.6316 4.61184 20.5637 4.60065 20.4995 4.57787C20.4838 4.57079 20.4766 4.59674 20.4922 4.60382C20.52 4.61636 20.5487 4.627 20.5779 4.63567V4.61444C20.4669 4.60736 20.3546 4.58849 20.2448 4.57669C20.2419 4.57669 20.2392 4.57781 20.2371 4.5798C20.2351 4.58179 20.2339 4.58449 20.2339 4.58731C20.2339 4.59012 20.2351 4.59282 20.2371 4.59481C20.2392 4.59681 20.2419 4.59792 20.2448 4.59792C20.2993 4.60793 20.3494 4.63384 20.3884 4.67224C20.3907 4.67349 20.3933 4.67402 20.3958 4.67373C20.3984 4.67345 20.4008 4.67237 20.4027 4.67066C20.4046 4.66894 20.4058 4.66668 20.4063 4.66421C20.4068 4.66173 20.4065 4.65917 20.4053 4.6569H20.4017Z" fill="#191919"/>
<path d="M21.1404 4.72661C21.1345 4.715 21.1314 4.70218 21.1314 4.68918C21.1314 4.67618 21.1345 4.66336 21.1404 4.65176L21.0511 4.63988C21.0485 4.67944 21.0485 4.71912 21.0511 4.75869C21.0511 4.7967 21.0511 4.83354 21.0511 4.87037C21.0511 4.9464 21.0596 5.02125 21.0656 5.09729C21.0656 5.13056 21.1247 5.14482 21.1308 5.10561C21.1415 5.0268 21.148 4.94748 21.1501 4.86799C21.1554 4.7885 21.1505 4.70867 21.1356 4.63037C21.1247 4.57928 21.0499 4.59473 21.0463 4.64225C21.0448 4.65533 21.0461 4.66858 21.0503 4.68108C21.0545 4.69359 21.0613 4.70507 21.0704 4.71473C21.0859 4.7293 21.1051 4.73956 21.1259 4.74443C21.1344 4.74443 21.1453 4.7373 21.1392 4.72898L21.1404 4.72661Z" fill="#191919"/>
<path d="M21.0727 4.97037L21.0836 4.89195H21.0498C21.0268 5.09512 21.0437 5.30422 21.0389 5.50858C21.0341 5.71293 21.0136 5.91966 21.0196 6.12401C21.0196 6.13708 21.0389 6.14064 21.0413 6.12401C21.0743 5.91925 21.0917 5.71233 21.0932 5.50501C21.1111 5.29809 21.1079 5.08992 21.0836 4.88364C21.0836 4.86225 21.0474 4.87176 21.051 4.89314C21.0546 4.91453 21.0594 4.94542 21.063 4.97156H21.0727V4.97037Z" fill="#191919"/>
<path d="M21.1525 5.05874C21.08 5.7122 21.0318 6.37278 21.004 7.02861C21.004 7.07376 21.0692 7.07138 21.074 7.02861C21.1525 6.37634 21.2044 5.71576 21.2345 5.05874C21.2345 5.00528 21.1573 5.00766 21.1525 5.05874Z" fill="#191919"/>
<path d="M21.1295 5.7877C21.1523 6.0151 21.1623 6.24355 21.1597 6.47204C21.1537 6.70015 21.1271 6.92589 21.0994 7.15163C21.0994 7.16351 21.1163 7.16589 21.1199 7.15163C21.2348 6.70328 21.2598 6.23716 21.1935 5.77938C21.1935 5.74493 21.1295 5.75324 21.1332 5.7877H21.1295Z" fill="#191919"/>
<path d="M21.0595 6.95607C21.0357 7.02907 21.0231 7.10515 21.0221 7.1818C21.0209 7.21799 21.0233 7.2542 21.0293 7.28992C21.0316 7.30964 21.0356 7.32912 21.0414 7.34814C21.0414 7.36715 21.0595 7.38378 21.0667 7.40398L21.1054 7.38734C21.0896 7.35998 21.0802 7.32957 21.0776 7.29824C21.0789 7.27317 21.085 7.24857 21.0957 7.22576L21.045 7.21269C21.0333 7.2806 21.0277 7.34937 21.0281 7.41824C21.0281 7.4515 21.0281 7.48477 21.0281 7.51685C21.0263 7.53502 21.0263 7.55333 21.0281 7.5715C21.0339 7.58644 21.0412 7.60077 21.0498 7.61427C21.0515 7.61724 21.054 7.61972 21.0569 7.62144C21.0599 7.62317 21.0633 7.62408 21.0667 7.62408C21.0702 7.62408 21.0736 7.62317 21.0766 7.62144C21.0795 7.61972 21.082 7.61724 21.0836 7.61427C21.0836 7.6012 21.0993 7.59051 21.1042 7.57744C21.1072 7.55974 21.1072 7.54168 21.1042 7.52398C21.1042 7.48833 21.1042 7.45269 21.1042 7.41824C21.1046 7.34937 21.0989 7.2806 21.0873 7.21269C21.0863 7.20608 21.0827 7.20011 21.0773 7.1961C21.0718 7.19209 21.065 7.19036 21.0583 7.19131C21.0516 7.19225 21.0455 7.19579 21.0414 7.20114C21.0374 7.20648 21.0356 7.21321 21.0366 7.21982C21.0366 7.25071 21.0474 7.27923 21.0498 7.31012C21.0509 7.34154 21.0537 7.37287 21.0583 7.40398C21.0583 7.42655 21.1005 7.42061 21.0993 7.40398C21.0981 7.38734 21.0993 7.33626 21.0993 7.30299C21.0993 7.26972 21.0993 7.23052 21.0993 7.19368C21.1011 7.12275 21.1084 7.05205 21.1211 6.9822C21.1238 6.97275 21.1226 6.96262 21.1177 6.95404C21.1128 6.94546 21.1047 6.93914 21.0951 6.93646C21.0855 6.93378 21.0752 6.93497 21.0665 6.93976C21.0578 6.94455 21.0514 6.95255 21.0486 6.96201L21.0595 6.95607Z" fill="#191919"/>
<path d="M21.0403 7.47602C21.0232 7.54491 21.0103 7.61473 21.0016 7.68512C21.0016 7.71958 21.0016 7.75403 20.9944 7.78968C20.9914 7.82605 20.9914 7.86261 20.9944 7.89898L21.0704 7.87878C21.0394 7.83213 21.0188 7.77947 21.0101 7.72433C21.0101 7.69344 20.9666 7.66849 20.9425 7.69582C20.9208 7.72041 20.9051 7.74961 20.8967 7.78114C20.8884 7.81267 20.8875 7.84568 20.8942 7.8776C20.8998 7.90668 20.9109 7.93448 20.9268 7.95957C20.9447 7.98574 20.9699 8.00634 20.9992 8.01898C21.0185 8.02848 21.0487 8.01185 21.0391 7.98928C21.0294 7.9667 21.0294 7.94769 21.0234 7.9275C21.0163 7.90497 21.011 7.88193 21.0077 7.85859C21.0059 7.83882 21.0059 7.81894 21.0077 7.79918C21.0052 7.77786 21.0052 7.75634 21.0077 7.73502L20.9353 7.74453C20.9665 7.79491 20.9866 7.85117 20.9944 7.90967C21.0041 7.95482 21.0729 7.94175 21.0741 7.89898C21.0753 7.85621 21.0741 7.82888 21.0741 7.79443C21.0741 7.75997 21.0741 7.72433 21.0741 7.68988C21.0741 7.62097 21.0741 7.55087 21.0861 7.48196C21.0861 7.45701 21.0475 7.45226 21.0415 7.48196L21.0403 7.47602Z" fill="#191919"/>
<path d="M20.952 7.99562C20.736 7.97674 20.5187 7.95787 20.3003 7.94489C20.1 7.92079 19.8979 7.91644 19.6968 7.93192C19.6835 7.93192 19.6859 7.95197 19.6968 7.95433C19.8957 7.99049 20.0979 8.00748 20.3003 8.00505C20.5175 8.01449 20.7348 8.01685 20.952 8.02157C20.9556 8.02157 20.9589 8.0202 20.9614 8.01777C20.9639 8.01533 20.9653 8.01203 20.9653 8.00859C20.9653 8.00515 20.9639 8.00185 20.9614 7.99942C20.9589 7.99698 20.9556 7.99562 20.952 7.99562Z" fill="#191919"/>
<path d="M20.3919 7.8305C19.8717 7.83644 19.3503 7.88872 18.8313 7.92674C18.8229 7.92825 18.8154 7.93259 18.81 7.93899C18.8046 7.94539 18.8016 7.95346 18.8016 7.96179C18.8016 7.97011 18.8046 7.97818 18.81 7.98458C18.8154 7.99099 18.8229 7.99532 18.8313 7.99683C18.9109 8.00396 18.9906 8.00872 19.0727 8.01347C19.0765 8.01246 19.0799 8.01023 19.0824 8.00711C19.0848 8.00399 19.0861 8.00017 19.0861 7.99624C19.0861 7.99231 19.0848 7.98849 19.0824 7.98537C19.0799 7.98226 19.0765 7.98002 19.0727 7.97901C18.9954 7.96119 18.9182 7.94337 18.8397 7.92792L18.8301 7.99683C19.3503 7.96476 19.8741 7.94575 20.3907 7.87802C20.4221 7.87802 20.4245 7.82812 20.3907 7.82812L20.3919 7.8305Z" fill="#191919"/>
<path d="M19.6872 7.96039C19.5543 7.92245 19.4174 7.89911 19.2792 7.89079C19.2093 7.88666 19.1392 7.88666 19.0692 7.89079L18.9654 7.89905C18.9339 7.89881 18.9028 7.9061 18.8749 7.92028C18.8715 7.92156 18.8685 7.92383 18.8665 7.92678C18.8644 7.92973 18.8633 7.93322 18.8633 7.93679C18.8633 7.94037 18.8644 7.94386 18.8665 7.94681C18.8685 7.94976 18.8715 7.95203 18.8749 7.95331C18.9031 7.9592 18.9323 7.9592 18.9606 7.95331C18.998 7.95331 19.0354 7.94269 19.074 7.93915C19.1386 7.93324 19.2035 7.93088 19.2684 7.93208C19.407 7.93321 19.5451 7.94984 19.68 7.98162C19.6819 7.98162 19.6837 7.98087 19.6851 7.97955C19.6864 7.97822 19.6872 7.97642 19.6872 7.97454C19.6872 7.97266 19.6864 7.97086 19.6851 7.96954C19.6837 7.96821 19.6819 7.96746 19.68 7.96746L19.6872 7.96039Z" fill="#191919"/>
<path d="M18.9774 7.87723C18.8924 7.8643 18.8064 7.85838 18.7203 7.85954C18.6343 7.85768 18.5488 7.87169 18.4681 7.90082C18.4379 7.9138 18.4572 7.95036 18.4826 7.9539C18.5227 7.95784 18.5631 7.95784 18.6033 7.9539C18.6443 7.9539 18.6853 7.9539 18.724 7.94801C18.8072 7.94801 18.8893 7.94801 18.9726 7.94801C18.9816 7.94801 18.9902 7.94453 18.9965 7.93833C19.0028 7.93214 19.0064 7.92374 19.0064 7.91498C19.0064 7.90622 19.0028 7.89782 18.9965 7.89162C18.9902 7.88543 18.9816 7.88195 18.9726 7.88195L18.9774 7.87723Z" fill="#191919"/>
<path d="M18.1843 8.1777C18.1279 8.25717 18.0887 8.34724 18.0691 8.4423C18.0496 8.53735 18.0502 8.63534 18.0709 8.73016C18.0709 8.73615 18.0733 8.74189 18.0776 8.74612C18.0819 8.75036 18.0877 8.75274 18.0938 8.75274C18.0999 8.75274 18.1057 8.75036 18.11 8.74612C18.1143 8.74189 18.1167 8.73615 18.1167 8.73016C18.1073 8.55108 18.1532 8.37338 18.2483 8.22047C18.2725 8.17888 18.2121 8.14681 18.1843 8.18364V8.1777Z" fill="#191919"/>
<path d="M18.0746 8.1167C17.9645 8.61533 17.9408 9.12869 18.0046 9.63509C18.0046 9.64934 18.0311 9.65053 18.0287 9.63509C17.9741 9.12971 17.9928 8.61926 18.0842 8.11908H18.0746V8.1167Z" fill="#191919"/>
<path d="M17.9346 9.05694C17.9117 9.28314 17.9069 9.51077 17.9201 9.73772C17.9274 9.84227 17.9383 9.94682 17.9527 10.0514C17.9584 10.1627 17.9855 10.2719 18.0324 10.3734C18.0348 10.3768 18.0382 10.3794 18.0421 10.3809C18.0461 10.3824 18.0504 10.3826 18.0545 10.3816C18.0586 10.3805 18.0623 10.3783 18.065 10.3751C18.0678 10.3719 18.0694 10.368 18.0698 10.3638C18.0716 10.2596 18.0606 10.1555 18.0372 10.0538C18.0215 9.93494 18.0095 9.82683 18.0022 9.71277C17.9877 9.49439 17.9877 9.27532 18.0022 9.05694C18.0022 9.01298 17.9383 9.01417 17.9346 9.05694Z" fill="#191919"/>
<path d="M18.0324 10.0288C18.0324 9.97416 18.0251 9.91832 18.0179 9.86248C18.0166 9.85635 18.0131 9.85086 18.0082 9.84691C18.0032 9.84297 17.9971 9.84082 17.9907 9.84082C17.9844 9.84082 17.9782 9.84297 17.9732 9.84691C17.9683 9.85086 17.9649 9.85635 17.9636 9.86248C17.9613 9.93551 17.9682 10.0085 17.9841 10.0799C17.9928 10.1152 18.0045 10.1498 18.0191 10.1833C18.034 10.2163 18.0531 10.2475 18.0758 10.2759C18.0818 10.2843 18.0963 10.2759 18.0927 10.2688C18.0722 10.2035 18.0529 10.1369 18.0372 10.0692C18.0217 10.0014 18.0152 9.93192 18.0179 9.86248L17.9648 9.86961C17.9768 9.92426 17.9937 9.97773 18.0082 10.0324C18.0082 10.0355 18.0095 10.0386 18.0118 10.0408C18.014 10.043 18.0171 10.0443 18.0203 10.0443C18.0235 10.0443 18.0266 10.043 18.0288 10.0408C18.0311 10.0386 18.0324 10.0355 18.0324 10.0324V10.0288Z" fill="#191919"/>
<path d="M18.0553 10.2124C18.0652 10.2231 18.0761 10.233 18.0879 10.2419L18.106 10.2572C18.1124 10.2618 18.1193 10.2658 18.1265 10.269L18.2062 10.3127C18.2267 10.3245 18.2436 10.295 18.2243 10.282L18.1482 10.2336L18.1301 10.2218L18.1072 10.2124L18.0649 10.1971C18.0629 10.1966 18.0608 10.1967 18.0589 10.1975C18.057 10.1982 18.0554 10.1996 18.0544 10.2013C18.0533 10.203 18.0528 10.205 18.0529 10.207C18.0531 10.209 18.0539 10.2109 18.0553 10.2124Z" fill="#191919"/>
<path d="M18.3292 10.1201C18.3184 10.2271 18.4572 10.2389 18.5332 10.2508C18.6817 10.277 18.8313 10.2983 18.981 10.3173C19.2854 10.363 19.5928 10.3857 19.9007 10.3851C19.9394 10.3851 19.9526 10.3221 19.9104 10.3162C19.663 10.2781 19.4119 10.2556 19.162 10.2306C19.0365 10.2172 18.911 10.2029 18.7855 10.1878L18.6056 10.1665C18.5634 10.1665 18.4028 10.1665 18.3932 10.1118C18.3835 10.0572 18.3328 10.0869 18.3292 10.1201Z" fill="#191919"/>
<path d="M19.0548 10.3888V10.3793C19.0527 10.3727 19.0485 10.3669 19.0429 10.3629C19.0372 10.3588 19.0304 10.3566 19.0234 10.3567C18.9558 10.3567 18.9474 10.4315 19.0041 10.4589C19.0608 10.4862 19.1876 10.4517 19.2564 10.4446C19.3517 10.4351 19.4459 10.428 19.5412 10.4208C19.7452 10.4066 19.9492 10.3971 20.1532 10.3935C20.3462 10.3981 20.5393 10.3902 20.7313 10.3698L20.7193 10.327C20.4742 10.3557 20.226 10.3457 19.9842 10.2973L19.9975 10.3947C20.3228 10.3429 20.6558 10.3645 20.9715 10.4577C20.9804 10.4599 20.9897 10.4592 20.9982 10.4557C21.0066 10.4522 21.0137 10.4462 21.0183 10.4384C21.023 10.4306 21.0249 10.4216 21.0239 10.4126C21.0228 10.4037 21.0188 10.3953 21.0126 10.3888C20.9799 10.348 20.936 10.3175 20.886 10.3009C20.8361 10.2842 20.7824 10.2821 20.7313 10.2949C20.6722 10.3068 20.6891 10.3911 20.7446 10.3935C20.8448 10.3935 21.0005 10.4018 21.0319 10.5123C21.0632 10.6228 20.9812 10.8105 20.9474 10.9305C20.9474 10.94 20.9594 10.9448 20.9631 10.9305C21.0029 10.8248 21.05 10.7226 21.0898 10.6169C21.1041 10.5876 21.1116 10.5555 21.1116 10.523C21.1116 10.4905 21.1041 10.4584 21.0898 10.4292C21.0258 10.3175 20.8665 10.289 20.747 10.283L20.7615 10.3828C20.7956 10.3723 20.8321 10.3719 20.8664 10.3816C20.9007 10.3913 20.9314 10.4107 20.9546 10.4375L21.0065 10.3721C20.6806 10.2338 20.3175 10.205 19.9733 10.2901C19.919 10.302 19.9299 10.3935 19.9866 10.3864C20.2257 10.344 20.47 10.3384 20.7108 10.3698C20.7398 10.3698 20.7518 10.3329 20.7229 10.327C20.4392 10.284 20.151 10.2784 19.8659 10.3103C19.7162 10.3175 19.5666 10.3294 19.4181 10.3436L19.2141 10.3662L19.0934 10.3804H19.0536C19.0286 10.3757 19.0214 10.3876 19.0319 10.4161L18.9956 10.4018L19.0017 10.4101C19.0198 10.4363 19.0705 10.4208 19.0584 10.3864L19.0548 10.3888Z" fill="#191919"/>
<path d="M21.0993 10.5991C21.0535 10.8854 21.0293 11.1765 21.0064 11.4652C20.9835 11.7539 20.9569 12.0593 20.9424 12.3622C20.9424 12.3848 20.9738 12.3836 20.9762 12.3622C21.0148 12.07 21.0414 11.7765 21.0691 11.4831C21.0969 11.1896 21.1259 10.8961 21.1307 10.6027C21.1307 10.586 21.1017 10.5801 21.0993 10.6027V10.5991Z" fill="#191919"/>
<path d="M20.9316 11.0595C20.8351 12.029 20.7578 12.9985 20.6504 13.9679C20.6504 13.9893 20.6806 13.9881 20.6842 13.9679C20.8121 13.0056 20.9256 12.029 20.9546 11.0595C20.9546 11.044 20.934 11.0452 20.9316 11.0595Z" fill="#191919"/>
<path d="M20.73 12.7224C20.73 12.7224 20.7529 13.2261 20.7577 13.2725C20.7758 13.4542 20.7951 13.6289 20.8181 13.8154C20.8189 13.8178 20.8204 13.8199 20.8225 13.8213C20.8245 13.8228 20.827 13.8236 20.8295 13.8236C20.8321 13.8236 20.8346 13.8228 20.8366 13.8213C20.8387 13.8199 20.8402 13.8178 20.841 13.8154C20.841 13.5576 20.8253 13.301 20.806 13.0443C20.806 12.9826 20.7976 12.9255 20.7903 12.859C20.7921 12.8107 20.7839 12.7626 20.7662 12.7176C20.7408 12.6808 20.6841 12.7045 20.7106 12.7426C20.7123 12.7453 20.7149 12.7475 20.7179 12.7488C20.721 12.7501 20.7243 12.7504 20.7275 12.7497C20.7432 12.7497 20.7384 12.7247 20.7275 12.7236L20.73 12.7224Z" fill="#191919"/>
<path d="M20.7638 13.1195L20.7939 12.8818L20.7625 13.1195H20.7638Z" fill="#191919"/>
<path d="M20.8133 12.8764C20.8133 13.114 20.8013 13.341 20.8133 13.5738C20.8133 13.5776 20.8149 13.5812 20.8176 13.5839C20.8203 13.5866 20.824 13.5881 20.8278 13.5881C20.8317 13.5881 20.8354 13.5866 20.8381 13.5839C20.8408 13.5812 20.8423 13.5776 20.8423 13.5738C20.8508 13.3362 20.8423 13.1093 20.8423 12.8764C20.8423 12.8736 20.8412 12.8709 20.8391 12.8689C20.8371 12.8668 20.8343 12.8657 20.8315 12.8657C20.8286 12.8657 20.8258 12.8668 20.8238 12.8689C20.8217 12.8709 20.8206 12.8736 20.8206 12.8764H20.8133Z" fill="#191919"/>
<path d="M20.8109 13.4221C20.8094 13.4006 20.8037 13.3797 20.794 13.3603C20.784 13.3428 20.7714 13.3268 20.7566 13.3128C20.7531 13.3096 20.7489 13.3072 20.7443 13.3061C20.7397 13.3049 20.7349 13.3049 20.7302 13.3061C20.7256 13.3073 20.7214 13.3096 20.718 13.3129C20.7146 13.3161 20.7121 13.3202 20.7107 13.3247C20.71 13.3366 20.71 13.3485 20.7107 13.3603C20.7101 13.3702 20.7101 13.3802 20.7107 13.39C20.7107 13.4114 20.7107 13.4316 20.7107 13.4518C20.7106 13.4576 20.7127 13.4631 20.7164 13.4675C20.7202 13.4719 20.7255 13.4747 20.7312 13.4756C20.7368 13.4764 20.7424 13.4751 20.7471 13.472C20.7518 13.469 20.7551 13.4643 20.7566 13.459L20.7674 13.3984C20.7674 13.3865 20.7674 13.3746 20.7674 13.3627C20.7681 13.3524 20.7681 13.3421 20.7674 13.3318L20.7276 13.3544C20.7317 13.3559 20.7354 13.3584 20.7385 13.3615C20.742 13.3644 20.7452 13.3676 20.7481 13.371C20.7529 13.3782 20.7569 13.3857 20.7602 13.3936C20.76 13.396 20.76 13.3984 20.7602 13.4007C20.7608 13.4047 20.7608 13.4087 20.7602 13.4126C20.7613 13.4167 20.7637 13.4203 20.7671 13.4229C20.7704 13.4255 20.7746 13.4269 20.7789 13.4269C20.7832 13.4269 20.7874 13.4255 20.7907 13.4229C20.7941 13.4203 20.7965 13.4167 20.7976 13.4126L20.8109 13.4221Z" fill="#191919"/>
<path d="M19.3298 14.2145C19.4827 14.2849 19.6512 14.3166 19.8199 14.3065C19.8609 14.3065 19.8996 14.3183 19.9406 14.316C19.9816 14.3136 20.0299 14.3089 20.0746 14.303C20.1601 14.2974 20.243 14.2715 20.316 14.2275C20.3204 14.2248 20.3238 14.2209 20.3257 14.2161C20.3276 14.2114 20.3279 14.2062 20.3266 14.2013C20.3252 14.1964 20.3223 14.1921 20.3182 14.1889C20.3141 14.1858 20.3091 14.184 20.3039 14.1839C20.2252 14.1835 20.1467 14.1914 20.0697 14.2075C20.0287 14.2075 19.9865 14.2181 19.949 14.2204C19.9116 14.2228 19.8682 14.2358 19.8283 14.2346C19.6666 14.2275 19.5097 14.1886 19.3455 14.1709C19.3214 14.1709 19.3142 14.2039 19.3335 14.2145H19.3298Z" fill="#191919"/>
<path d="M20.363 14.2414C20.4198 14.2343 20.4753 14.2284 20.5308 14.2167C20.5586 14.2167 20.5863 14.2037 20.6129 14.1954C20.6262 14.1908 20.64 14.1872 20.6539 14.1848H20.6853C20.6965 14.185 20.7075 14.1819 20.7168 14.1757C20.7261 14.1696 20.7332 14.1608 20.7372 14.1506C20.7403 14.1401 20.7391 14.1289 20.734 14.1192C20.7288 14.1096 20.72 14.1022 20.7095 14.0987C20.7007 14.0955 20.6911 14.0954 20.6822 14.0984C20.6734 14.1014 20.666 14.1074 20.6612 14.1152C20.659 14.1189 20.6577 14.1231 20.6574 14.1273C20.6571 14.1316 20.6577 14.1359 20.6594 14.1399C20.661 14.1438 20.6635 14.1474 20.6668 14.1503C20.67 14.1532 20.6739 14.1553 20.6781 14.1565C20.681 14.1572 20.684 14.1573 20.6869 14.1567C20.6899 14.1561 20.6926 14.1548 20.695 14.153C20.6973 14.1511 20.6992 14.1488 20.7004 14.1461C20.7017 14.1435 20.7023 14.1406 20.7022 14.1376C20.6942 14.1526 20.6845 14.1573 20.6732 14.1518C20.6784 14.1533 20.6838 14.1533 20.6889 14.1518C20.6844 14.1498 20.6807 14.1464 20.6783 14.1421C20.6759 14.1379 20.675 14.133 20.6757 14.1282L20.6636 14.1388C20.6453 14.143 20.6263 14.143 20.6081 14.1388H20.561C20.526 14.1388 20.491 14.1447 20.4572 14.1506L20.357 14.1695C20.3232 14.1695 20.3305 14.232 20.3642 14.2273L20.363 14.2414Z" fill="#191919"/>
<path d="M26.9727 7.99247C27.0596 9.45264 27.1634 10.9116 27.196 12.373C27.2286 13.8343 27.2117 15.2755 27.1187 16.7226C27.0692 17.4972 26.963 18.2743 26.6782 19.0026C26.6432 19.0929 26.7868 19.1273 26.8242 19.0418C27.0779 18.4044 27.2278 17.7315 27.2684 17.0481C27.3288 16.327 27.3469 15.5999 27.3613 14.8751C27.3903 13.4035 27.3613 11.9322 27.2744 10.4613C27.225 9.62966 27.1453 8.8075 27.033 7.98534C27.033 7.95564 26.9775 7.96276 26.9787 7.99247H26.9727Z" fill="#DCA35B"/>
<path d="M25.2105 1.50889C25.6269 2.25977 26.0385 3.00114 26.304 3.81974C26.528 4.54252 26.6657 5.28852 26.7144 6.04267C26.7313 6.26999 26.7446 6.49731 26.7542 6.72463C26.7651 6.96938 26.7397 7.24265 26.7989 7.48145C26.803 7.49666 26.812 7.5101 26.8247 7.51969C26.8374 7.52929 26.8529 7.53449 26.8689 7.53449C26.8849 7.53449 26.9004 7.52929 26.913 7.51969C26.9257 7.5101 26.9348 7.49666 26.9389 7.48145C26.9608 7.26123 26.958 7.0393 26.9304 6.81968C26.9196 6.60464 26.9063 6.38959 26.8894 6.17455C26.858 5.78723 26.8158 5.4011 26.7518 5.01734C26.629 4.26189 26.3956 3.52794 26.059 2.83837C25.8294 2.36535 25.5597 1.91226 25.2527 1.48394C25.2493 1.47843 25.2439 1.47445 25.2375 1.47289C25.2312 1.47133 25.2245 1.47231 25.2189 1.47562C25.2133 1.47893 25.2093 1.4843 25.2077 1.49053C25.2061 1.49677 25.2071 1.50338 25.2105 1.50889Z" fill="#DCA35B"/>
<path d="M23.9817 0.0522776C24.0819 0.120613 24.1917 0.174242 24.3076 0.211483C24.421 0.265223 24.5307 0.326347 24.6359 0.394449C24.8443 0.531945 25.0369 0.69129 25.2104 0.869688C25.5448 1.20592 25.7958 1.60512 26.1133 1.95561C26.1471 1.99363 26.2026 1.94492 26.1809 1.90333C25.9481 1.47368 25.646 1.08407 25.2865 0.74969C25.1064 0.575085 24.9077 0.420131 24.6938 0.287521C24.5867 0.221946 24.4754 0.163213 24.3607 0.111682C24.2512 0.045582 24.1268 0.00721171 23.9986 1.30998e-06C23.9924 -5.46664e-05 23.9864 0.00168442 23.9812 0.00500072C23.976 0.00831703 23.9719 0.0130631 23.9695 0.0186444C23.967 0.0242257 23.9663 0.0303941 23.9674 0.0363769C23.9685 0.0423597 23.9714 0.0478909 23.9757 0.0522776H23.9817Z" fill="#DCA35B"/>
<path d="M25.2478 0.110261C25.5058 0.292052 25.7303 0.515858 25.9117 0.772031C25.9443 0.81599 26.0155 0.772031 25.9865 0.729259C25.8147 0.447415 25.5746 0.211883 25.2877 0.0437275C25.2442 0.0175893 25.208 0.0817466 25.2478 0.110261Z" fill="#DCA35B"/>
<path d="M26.4245 21.3897C25.7798 21.9833 25.0502 22.4808 24.2592 22.8665C23.4143 23.2835 22.515 23.5104 21.6038 23.7552C21.547 23.7706 21.5555 23.8669 21.6194 23.8609C22.5525 23.773 23.4831 23.4225 24.3135 23.0055C25.1211 22.6121 25.8485 22.0761 26.4595 21.4241C26.4801 21.4016 26.4475 21.3683 26.4245 21.3897Z" fill="#DCA35B"/>
<path d="M3.03305 2.53076C2.4899 2.95848 2.06745 3.54896 1.73552 4.14895C1.42035 4.7144 1.21565 5.33299 1.13202 5.97268C1.13202 6.00476 1.18271 6.01189 1.18996 5.97981C1.32833 5.35809 1.55378 4.75831 1.85984 4.19766C2.18815 3.60361 2.62991 3.09273 3.06685 2.57116C3.06995 2.56637 3.0713 2.56068 3.07068 2.55503C3.07005 2.54938 3.06748 2.54411 3.0634 2.54009C3.05932 2.53607 3.05397 2.53355 3.04823 2.53293C3.04249 2.53231 3.03671 2.53364 3.03184 2.5367L3.03305 2.53076Z" fill="#DCA35B"/>
<path d="M1.14757 6.61768C1.04136 6.82559 1.02687 7.09291 0.995492 7.33053C0.96411 7.56815 0.935142 7.77963 0.913416 8.00537C0.866968 8.50219 0.853662 9.00147 0.873585 9.5C0.873585 9.51008 0.877654 9.51975 0.884898 9.52688C0.892141 9.53401 0.901965 9.53802 0.912209 9.53802C0.922453 9.53802 0.932277 9.53401 0.939521 9.52688C0.946764 9.51975 0.950833 9.51008 0.950833 9.5C0.958075 9.02476 0.983422 8.54002 1.02084 8.06121C1.04015 7.82359 1.0655 7.58597 1.09688 7.34836C1.12706 7.12024 1.20068 6.8648 1.17534 6.6355C1.17534 6.62243 1.15482 6.61292 1.14757 6.62837V6.61768Z" fill="#DCA35B"/>
<path d="M0.915854 9.97828C0.860745 10.3236 0.843748 10.6737 0.86516 11.0226C0.86516 11.6083 0.884472 12.1929 0.900163 12.7786C0.933959 14.0511 0.993102 15.3223 1.06673 16.5924C1.09087 17.0118 1.11622 17.4336 1.16691 17.8506C1.16691 17.8767 1.21278 17.8779 1.21036 17.8506C1.13553 16.918 1.12467 15.9758 1.08966 15.0408C1.04742 13.7707 0.995516 12.5006 0.968962 11.2293C0.960513 10.8159 0.968962 10.3977 0.931545 9.98422C0.931545 9.96996 0.908612 9.96521 0.904991 9.98422L0.915854 9.97828Z" fill="#DCA35B"/>
<path d="M0.581498 17.7157C0.583365 18.9557 0.781268 20.1879 1.1681 21.3679C1.16937 21.3726 1.17156 21.377 1.17455 21.3808C1.17754 21.3847 1.18128 21.3879 1.18554 21.3903C1.18979 21.3928 1.1945 21.3944 1.19938 21.395C1.20425 21.3956 1.20921 21.3953 1.21397 21.3941C1.21872 21.3928 1.22318 21.3907 1.22709 21.3877C1.231 21.3848 1.23428 21.3811 1.23674 21.3769C1.23921 21.3727 1.24081 21.3681 1.24146 21.3633C1.24211 21.3585 1.24179 21.3536 1.24052 21.3489C1.10534 20.7549 0.965325 20.1608 0.865144 19.5596C0.764963 18.9585 0.698578 18.3323 0.646676 17.7157C0.646676 17.6741 0.580291 17.6729 0.581498 17.7157Z" fill="#DCA35B"/>
<path d="M1.68833 13.8281C1.53384 15.3097 1.58091 16.8174 1.98163 18.2597C1.99129 18.2966 2.0444 18.2799 2.03836 18.2443C1.77644 16.7877 1.61229 15.3097 1.71127 13.8281C1.71127 13.8139 1.69075 13.8151 1.68833 13.8281Z" fill="#191919"/>
<path d="M2.12292 18.8435C2.12683 18.9328 2.13936 19.0215 2.16034 19.1085C2.17965 19.2047 2.19897 19.301 2.22311 19.396C2.27018 19.5825 2.31846 19.7679 2.37157 19.9532C2.37383 19.9576 2.37753 19.961 2.38206 19.963C2.38659 19.965 2.39167 19.9654 2.39646 19.9641C2.40125 19.9629 2.40547 19.9601 2.4084 19.9561C2.41134 19.9522 2.41282 19.9474 2.41261 19.9425C2.37881 19.7524 2.34139 19.5635 2.30277 19.3746C2.27325 19.1903 2.22306 19.0098 2.1531 18.8364C2.14586 18.821 2.12292 18.8293 2.12292 18.8435Z" fill="#191919"/>
<path d="M2.72627 20.6542C2.72756 20.6537 2.72866 20.6528 2.72944 20.6516C2.73021 20.6504 2.73062 20.6491 2.73062 20.6477C2.73062 20.6463 2.73021 20.6449 2.72944 20.6438C2.72866 20.6426 2.72756 20.6417 2.72627 20.6411C2.72498 20.6417 2.72388 20.6426 2.72311 20.6438C2.72234 20.6449 2.72192 20.6463 2.72192 20.6477C2.72192 20.6491 2.72234 20.6504 2.72311 20.6516C2.72388 20.6528 2.72498 20.6537 2.72627 20.6542Z" fill="#191919"/>
<path d="M1.36488 15.3005C1.35863 15.7534 1.38202 16.2062 1.43489 16.6562C1.48679 17.0946 1.50127 17.5306 1.59421 17.9631C1.60145 17.9975 1.6618 17.9904 1.65697 17.9547C1.6099 17.5151 1.51938 17.0827 1.48558 16.6324C1.45178 16.1821 1.43006 15.7461 1.40592 15.3029C1.40592 15.2976 1.40376 15.2924 1.39991 15.2886C1.39606 15.2848 1.39084 15.2827 1.3854 15.2827C1.37996 15.2827 1.37474 15.2848 1.37089 15.2886C1.36704 15.2924 1.36488 15.2976 1.36488 15.3029V15.3005Z" fill="#191919"/>
<path d="M3.07044 20.9496C3.16794 21.2893 3.29515 21.62 3.45064 21.9381C3.59954 22.2679 3.78666 22.5797 4.00828 22.8672C4.01914 22.8791 4.03604 22.8672 4.04087 22.8589L4.0807 22.7615C4.0807 22.7484 4.06742 22.7353 4.06018 22.7496L4.00587 22.8434H4.03846C3.86103 22.5369 3.66911 22.2399 3.50858 21.9239C3.34671 21.6066 3.20639 21.2792 3.08854 20.9437C3.08774 20.9408 3.08583 20.9384 3.08323 20.937C3.08063 20.9355 3.07754 20.9352 3.07466 20.936C3.07178 20.9367 3.06934 20.9386 3.06787 20.9412C3.06639 20.9437 3.06602 20.9468 3.06682 20.9496H3.07044Z" fill="#191919"/>
<path d="M3.97559 22.4957C3.97661 22.564 3.99575 22.6307 4.03111 22.6894C4.05893 22.7534 4.09681 22.8128 4.14336 22.8652C4.17474 22.8973 4.24354 22.9199 4.27613 22.8759C4.28262 22.869 4.28667 22.8602 4.28768 22.8508C4.28869 22.8414 4.2866 22.8319 4.28173 22.8238C4.27686 22.8157 4.26946 22.8093 4.26062 22.8057C4.25179 22.802 4.24199 22.8012 4.23268 22.8035C4.22899 22.8046 4.2256 22.8065 4.22275 22.8091C4.21989 22.8116 4.21764 22.8148 4.21615 22.8183C4.21465 22.8218 4.21395 22.8256 4.2141 22.8294C4.21424 22.8332 4.21523 22.8369 4.21699 22.8403C4.25458 22.9211 4.30421 22.996 4.36424 23.0625C4.36791 23.0668 4.37301 23.0697 4.37864 23.0706C4.38426 23.0716 4.39005 23.0705 4.39497 23.0677C4.39989 23.0648 4.40363 23.0603 4.40551 23.055C4.4074 23.0497 4.40732 23.044 4.40528 23.0387C4.36842 22.9576 4.31962 22.8824 4.26044 22.8153L4.24596 22.851C4.2544 22.851 4.23268 22.851 4.23992 22.851C4.23166 22.8493 4.22435 22.8446 4.2194 22.8379C4.20854 22.8269 4.19921 22.8145 4.19164 22.8011C4.16629 22.7666 4.14215 22.731 4.11922 22.6953C4.08134 22.6238 4.03817 22.5551 3.99007 22.4898C3.98889 22.4886 3.98737 22.4878 3.98572 22.4875C3.98406 22.4871 3.98234 22.4873 3.98079 22.4879C3.97923 22.4886 3.9779 22.4897 3.97697 22.4911C3.97604 22.4924 3.97556 22.4941 3.97559 22.4957Z" fill="#191919"/>
<path d="M2.5816 3.70327C2.42549 4.50642 2.28186 5.31195 2.1507 6.11986C2.1507 6.13531 2.17242 6.14243 2.17484 6.12699C2.32692 5.32146 2.46733 4.51474 2.59608 3.70684C2.59608 3.70494 2.59532 3.70313 2.59396 3.70179C2.5926 3.70046 2.59076 3.69971 2.58884 3.69971C2.58692 3.69971 2.58508 3.70046 2.58372 3.70179C2.58236 3.70313 2.5816 3.70494 2.5816 3.70684V3.70327Z" fill="#191919"/>
<path d="M2.03842 7.16106C1.98049 7.62917 1.95031 8.09371 1.93824 8.5642C1.92617 9.03469 1.90445 9.50161 1.93824 9.97091C1.93824 9.97469 1.93977 9.97831 1.94249 9.98099C1.9452 9.98366 1.94889 9.98516 1.95273 9.98516C1.95657 9.98516 1.96025 9.98366 1.96297 9.98099C1.96569 9.97831 1.96721 9.97469 1.96721 9.97091C1.96721 9.5028 1.93945 9.03231 1.96721 8.5642C1.99497 8.09609 2.0336 7.62679 2.08188 7.16106C2.08188 7.13967 2.05049 7.13967 2.04808 7.16106H2.03842Z" fill="#191919"/>
<path d="M2.01427 10.8617C2.01551 10.8779 2.01551 10.8942 2.01427 10.9104C2.01726 10.9265 2.01726 10.943 2.01427 10.9592C2.00563 10.9935 1.98671 11.0246 1.95995 11.0483C1.94909 11.0578 1.95995 11.0732 1.97564 11.0637C2.00658 11.0375 2.03025 11.004 2.04444 10.9663C2.05106 10.9484 2.05472 10.9295 2.05531 10.9104C2.05486 10.8898 2.0486 10.8696 2.0372 10.8522C2.02996 10.838 2.01065 10.8522 2.01306 10.8617H2.01427Z" fill="#191919"/>
<path d="M24.5164 1.23461C24.7095 1.82866 24.8978 2.42271 25.0981 3.01676C25.0981 3.02389 25.1114 3.01676 25.109 3.01676C24.9231 2.42271 24.724 1.82866 24.5284 1.23461C24.5284 1.22748 24.5139 1.23461 24.5164 1.23461Z" fill="#191919"/>
<path d="M25.5086 4.74144C25.5853 5.06609 25.6358 5.39623 25.6594 5.72875C25.6594 5.74182 25.6812 5.74182 25.6812 5.72875C25.6679 5.393 25.6123 5.06017 25.5158 4.73787C25.5158 4.7363 25.5152 4.73479 25.514 4.73367C25.5129 4.73256 25.5114 4.73193 25.5098 4.73193C25.5082 4.73193 25.5066 4.73256 25.5055 4.73367C25.5044 4.73479 25.5037 4.7363 25.5037 4.73787L25.5086 4.74144Z" fill="#191919"/>
<path d="M25.6835 6.32082C25.6835 6.61665 25.6726 6.91487 25.6835 7.20833C25.6842 7.21042 25.6856 7.21224 25.6875 7.21353C25.6893 7.21481 25.6915 7.2155 25.6938 7.2155C25.696 7.2155 25.6982 7.21481 25.7001 7.21353C25.7019 7.21224 25.7033 7.21042 25.704 7.20833C25.7125 6.91249 25.704 6.61428 25.704 6.32082C25.704 6.31861 25.7031 6.3165 25.7016 6.31494C25.7 6.31338 25.6978 6.3125 25.6956 6.3125C25.6933 6.3125 25.6912 6.31338 25.6896 6.31494C25.688 6.3165 25.6871 6.31861 25.6871 6.32082H25.6835Z" fill="#191919"/>
<path d="M25.6714 7.40443C25.7511 6.09753 25.704 4.72052 25.1657 3.50035L25.1065 3.53361C25.3799 4.00235 25.5731 4.5121 25.6786 5.04249C25.6847 5.06626 25.7197 5.05556 25.7161 5.03299C25.5974 4.50176 25.4125 3.98699 25.1657 3.50035C25.15 3.46589 25.0884 3.49084 25.1029 3.52648C25.3461 4.14767 25.5009 4.79897 25.5628 5.46189C25.634 6.10822 25.6255 6.75692 25.6593 7.40443C25.6593 7.40601 25.66 7.40752 25.6611 7.40863C25.6622 7.40975 25.6638 7.41037 25.6654 7.41037C25.667 7.41037 25.6685 7.40975 25.6696 7.40863C25.6708 7.40752 25.6714 7.40601 25.6714 7.40443Z" fill="#191919"/>
<path d="M26.0759 7.94721C26.0554 8.05177 26.0372 8.15632 26.024 8.26206C26.0107 8.3678 25.9998 8.47948 25.9902 8.58879C25.9902 8.60304 26.0143 8.60661 26.0167 8.58879C26.0336 8.48344 26.0481 8.3777 26.0602 8.27156C26.0722 8.16226 26.0807 8.05414 26.0867 7.94484C26.0867 7.9389 26.0771 7.93652 26.0759 7.94484V7.94721Z" fill="#191919"/>
<path d="M25.9878 8.687C26.0101 8.93381 25.9946 9.18251 25.942 9.42481C25.9414 9.42684 25.9413 9.42895 25.9415 9.43104C25.9418 9.43312 25.9425 9.43513 25.9436 9.43695C25.9457 9.44063 25.9493 9.44331 25.9534 9.44441C25.9576 9.44552 25.962 9.44495 25.9658 9.44283C25.9695 9.44071 25.9722 9.43722 25.9733 9.43313C26.0498 9.19054 26.0659 8.93344 26.0204 8.68344C26.0204 8.66443 25.9854 8.66918 25.9878 8.68344V8.687Z" fill="#191919"/>
<path d="M26.1422 5.43185C26.268 6.14797 26.3037 6.87661 26.2485 7.60132H26.2581C26.3108 6.87583 26.2719 6.14672 26.1422 5.43066V5.43185Z" fill="#191919"/>
<path d="M25.5629 4.1513C25.807 4.74886 25.9524 5.38098 25.9938 6.02374C25.9938 6.04275 26.0251 6.04394 26.0239 6.02374C25.9822 5.37768 25.8278 4.7435 25.5677 4.14893C25.5677 4.14893 25.5617 4.14893 25.5677 4.14893L25.5629 4.1513Z" fill="#191919"/>
<path d="M26.4862 11.4499C26.4766 12.0237 26.5333 12.6011 26.5381 13.1762C26.5429 13.7512 26.5128 14.3263 26.491 14.9013C26.491 14.9179 26.514 14.9167 26.5164 14.9013C26.5791 14.3184 26.6094 13.7326 26.6069 13.1465C26.6271 12.5782 26.5964 12.0093 26.5152 11.4463C26.5152 11.4297 26.4862 11.4344 26.4862 11.4463V11.4499Z" fill="#191919"/>
<path d="M26.4657 16.283C26.4631 16.2245 26.4671 16.1659 26.4778 16.1083L26.4162 16.1C26.4368 16.3737 26.4368 16.6485 26.4162 16.9222C26.3888 17.206 26.335 17.4868 26.2557 17.761C26.2497 17.7812 26.2811 17.7895 26.2883 17.7693C26.4855 17.2328 26.5496 16.6576 26.4754 16.0917C26.4693 16.0525 26.4018 16.0691 26.415 16.1083C26.4291 16.1656 26.4372 16.2241 26.4392 16.283C26.4392 16.2861 26.4404 16.2892 26.4427 16.2914C26.445 16.2936 26.448 16.2949 26.4512 16.2949C26.4544 16.2949 26.4575 16.2936 26.4598 16.2914C26.462 16.2892 26.4633 16.2861 26.4633 16.283H26.4657Z" fill="#191919"/>
<path d="M25.3419 12.0923C25.3393 12.2845 25.3906 12.4736 25.4904 12.6388C25.491 12.6398 25.4919 12.6406 25.493 12.6412C25.4941 12.6417 25.4952 12.642 25.4964 12.642C25.4976 12.642 25.4988 12.6417 25.4998 12.6412C25.5009 12.6406 25.5018 12.6398 25.5025 12.6388C25.4572 12.5545 25.4212 12.4657 25.395 12.3739C25.3721 12.2833 25.3564 12.1912 25.348 12.0982L25.3419 12.0923Z" fill="#191919"/>
<path d="M24.5527 20.5558C24.2594 20.898 23.9685 21.2437 23.6836 21.593C23.6595 21.6227 23.7017 21.6655 23.7259 21.6358C24.0148 21.2857 24.2984 20.9317 24.5768 20.5737C24.5877 20.5606 24.5647 20.5439 24.5527 20.5558Z" fill="#191919"/>
<path d="M22.7107 22.5474C22.9313 22.4852 23.1439 22.3983 23.3444 22.2884C23.4405 22.2349 23.5336 22.1762 23.6232 22.1126L23.7584 22.0199C23.803 21.989 23.8513 21.9653 23.8923 21.932C23.9334 21.8987 23.8754 21.8477 23.8404 21.8809C23.6691 22.0413 23.5001 22.2053 23.3323 22.3692C23.313 22.3871 23.3407 22.4132 23.3601 22.3978C23.5387 22.2433 23.7222 22.09 23.8923 21.932L23.8404 21.8809C23.8054 21.9189 23.7789 21.9617 23.7427 21.9997C23.7027 22.0411 23.6591 22.0789 23.6123 22.1126C23.5261 22.1758 23.4358 22.2333 23.342 22.2849C23.1424 22.3955 22.9306 22.4832 22.7107 22.5463V22.5474Z" fill="#191919"/>
<path d="M23.3335 22.5172L23.4542 22.3271L23.3335 22.5172Z" fill="#191919"/>
<path d="M24.6648 20.9359L24.5441 21.1022C24.5031 21.158 24.4657 21.2151 24.4234 21.2721C24.4174 21.2828 24.4331 21.2959 24.4415 21.2864C24.485 21.2317 24.5284 21.1782 24.5695 21.1224C24.6105 21.0666 24.6527 21.0095 24.6902 20.9537C24.7034 20.9347 24.6733 20.9169 24.66 20.9359H24.6648Z" fill="#191919"/>
<path d="M24.6939 20.9516C24.7579 20.8923 24.8168 20.8279 24.8701 20.7591C24.8954 20.7258 24.9208 20.6926 24.9437 20.6569C24.9559 20.6397 24.9672 20.6219 24.9775 20.6035C24.9835 20.5951 24.9872 20.5856 24.9932 20.5761C25.0011 20.5678 25.008 20.5587 25.0137 20.5488C25.0176 20.5422 25.0189 20.5345 25.0173 20.527C25.0158 20.5196 25.0115 20.5129 25.0053 20.5084C24.9997 20.5033 24.9924 20.5005 24.9847 20.5005C24.9771 20.5005 24.9698 20.5033 24.9642 20.5084C24.9244 20.5536 24.887 20.5987 24.852 20.6462C24.8387 20.6641 24.8665 20.6819 24.8809 20.6688C24.9256 20.632 24.9678 20.5928 25.0089 20.55L24.9594 20.512C24.9509 20.531 24.9485 20.55 24.9401 20.569C24.9316 20.588 24.922 20.6082 24.9135 20.6272C24.895 20.6645 24.874 20.7007 24.8508 20.7353C24.8022 20.8077 24.7473 20.8756 24.6866 20.9385C24.6866 20.9444 24.6866 20.9516 24.6939 20.9468V20.9516Z" fill="#191919"/>
<path d="M24.9932 20.3718C24.986 20.2364 25.0289 20.1031 25.1139 19.9964C25.1199 19.9893 25.1139 19.9809 25.103 19.9869C25.0567 20.0394 25.0214 20.1005 24.9992 20.1666C24.977 20.2327 24.9684 20.3024 24.9739 20.3718C24.9739 20.3813 24.9896 20.3813 24.9896 20.3718H24.9932Z" fill="#191919"/>
<path d="M24.7855 15.9419C24.7562 16.427 24.6629 16.9062 24.5079 17.3676C24.6669 16.9072 24.7607 16.4275 24.7867 15.9419H24.7855Z" fill="#191919"/>
<path d="M24.1918 18.3242C24.148 18.368 24.1141 18.4203 24.0923 18.4779C24.0705 18.5354 24.0612 18.5968 24.0651 18.6581C24.0607 18.5976 24.0692 18.5369 24.09 18.4798C24.1108 18.4228 24.1434 18.3706 24.1858 18.3266L24.1918 18.3242Z" fill="#191919"/>
<path d="M24.6636 17.418L24.6057 17.9431L24.6636 17.418Z" fill="#191919"/>
<path d="M4.52606 2.65442C4.80677 2.41645 5.11036 2.20596 5.43252 2.02591C5.43976 2.02591 5.43252 2.01166 5.43252 2.01522C5.1102 2.19718 4.80697 2.41009 4.52727 2.65085L4.52606 2.65442Z" fill="#191919"/>
<path d="M4.2074 3.1685C4.77832 2.82514 5.35406 2.47465 5.92376 2.12179C5.931 2.12179 5.92376 2.10634 5.91652 2.10991C5.34319 2.45683 4.77349 2.8097 4.20258 3.16137C4.20258 3.16137 4.20258 3.17207 4.20258 3.1685H4.2074Z" fill="#191919"/>
<path d="M8.87128 1.26962L9.05595 1.2207L8.87248 1.26843L8.87128 1.26962Z" fill="#191919"/>
<path d="M13.4687 0.787471L13.7101 0.739746L13.4687 0.788664V0.787471Z" fill="#191919"/>
<path d="M13.7718 0.735352C12.747 0.838716 11.7199 0.959902 10.706 1.16069C10.6855 1.16069 10.6951 1.19396 10.7144 1.19158C11.7331 1.03594 12.7446 0.864854 13.7718 0.741292V0.735352Z" fill="#191919"/>
<path d="M8.62488 1.83684L8.93146 1.74365L8.62488 1.83802V1.83684Z" fill="#191919"/>
<path d="M17.2104 0.88632L17.5725 0.837402L17.2104 0.885127V0.88632Z" fill="#191919"/>
<path d="M19.0487 0.902885L19.5943 0.744868C19.6003 0.744868 19.5943 0.731799 19.5943 0.734175L19.0475 0.886252C19.0453 0.886252 19.0431 0.887128 19.0415 0.888688C19.04 0.890247 19.0391 0.892363 19.0391 0.894569C19.0391 0.896774 19.04 0.89889 19.0415 0.900449C19.0431 0.902009 19.0453 0.902885 19.0475 0.902885H19.0487Z" fill="#191919"/>
<path d="M20.5175 0.696651C20.5175 0.688299 20.5586 0.687106 20.567 0.685913H20.6105L20.6998 0.672788L20.8796 0.648926L20.6998 0.673981L20.6141 0.687106H20.5707C20.561 0.687106 20.5236 0.697844 20.5175 0.687106C20.5169 0.686344 20.516 0.685734 20.5151 0.685316C20.5142 0.684898 20.5131 0.684682 20.5121 0.684682C20.5111 0.684682 20.5101 0.684898 20.5091 0.685316C20.5082 0.685734 20.5074 0.686344 20.5067 0.687106C20.5067 0.693071 20.5151 0.695458 20.5175 0.687106V0.696651Z" fill="#191919"/>
<path d="M20.433 1.29043C20.866 1.27452 21.2989 1.27929 21.7318 1.30475C21.2997 1.27969 20.8664 1.27611 20.433 1.29162V1.29043Z" fill="#191919"/>
<path d="M22.1314 1.38324C22.5116 1.49698 22.8838 1.63551 23.2454 1.79788C23.2454 1.79788 23.2514 1.79788 23.2454 1.79788C22.889 1.62007 22.5143 1.48027 22.1277 1.38086C22.1277 1.38086 22.1205 1.38086 22.1277 1.38799L22.1314 1.38324Z" fill="#191919"/>
<path d="M23.0958 0.791016C23.1342 0.796713 23.1713 0.808675 23.2056 0.826403C23.2374 0.843189 23.2663 0.864675 23.2913 0.8901L23.3022 0.871227L23.2672 0.86179C23.2561 0.858993 23.2445 0.858993 23.2334 0.86179C23.2321 0.862664 23.2311 0.863815 23.2304 0.865148C23.2297 0.866481 23.2294 0.867958 23.2294 0.869457C23.2294 0.870956 23.2297 0.872433 23.2304 0.873766C23.2311 0.8751 23.2321 0.876251 23.2334 0.877124C23.2434 0.882974 23.2545 0.886972 23.266 0.88892L23.301 0.898357C23.3118 0.898357 23.3191 0.887741 23.3118 0.879484C23.2861 0.852023 23.2543 0.830644 23.2189 0.816966C23.1806 0.801332 23.1397 0.792926 23.0982 0.792195L23.0958 0.791016Z" fill="#191919"/>
<path d="M4.03595 15.5459V16.0544H4.04319V15.5459H4.03595Z" fill="#191919"/>
<path d="M4.23389 17.8533V17.8914C4.23389 17.8914 4.23389 17.8986 4.23992 17.8974L4.24596 17.8914V17.8533C4.24596 17.8533 4.24596 17.8461 4.23992 17.8473C4.23832 17.8473 4.23679 17.8479 4.23565 17.849C4.23452 17.8502 4.23389 17.8517 4.23389 17.8533Z" fill="#191919"/>
<path d="M4.4837 18.5186C4.55569 18.8591 4.67128 19.1892 4.8277 19.5011C4.8277 19.5011 4.84097 19.5011 4.83856 19.5011C4.77097 19.3395 4.69975 19.1803 4.64061 19.0164C4.58233 18.8542 4.53238 18.6892 4.49094 18.5221C4.49094 18.5221 4.48249 18.5221 4.4837 18.5221V18.5186Z" fill="#191919"/>
<path d="M6.45838 15.272C6.45608 15.2372 6.45934 15.2023 6.46803 15.1686C6.47769 15.1448 6.43786 15.133 6.42941 15.1579C6.3674 15.3498 6.35414 15.5538 6.39078 15.752C6.39078 15.7564 6.39256 15.7606 6.39573 15.7637C6.3989 15.7668 6.4032 15.7686 6.40768 15.7686C6.41216 15.7686 6.41646 15.7668 6.41963 15.7637C6.4228 15.7606 6.42458 15.7564 6.42458 15.752C6.41794 15.657 6.41794 15.5617 6.42458 15.4668C6.43278 15.3701 6.4477 15.274 6.46924 15.1793H6.43303C6.44352 15.2112 6.44921 15.2444 6.44993 15.2779C6.44993 15.2838 6.45838 15.2838 6.45958 15.2779L6.45838 15.272Z" fill="#191919"/>
<path d="M6.55609 16.2123C6.55282 16.2074 6.54999 16.2022 6.54764 16.1969L6.53919 16.1885V16.1802C6.53904 16.1775 6.53904 16.1747 6.53919 16.1719V16.16C6.53919 16.16 6.53919 16.16 6.53919 16.1529V16.1458C6.54264 16.1409 6.54719 16.1368 6.55247 16.1339L6.5223 16.122L6.55247 16.2064C6.55305 16.2127 6.55305 16.2191 6.55247 16.2254C6.55247 16.2254 6.55247 16.2254 6.55247 16.2337C6.55247 16.242 6.55247 16.2337 6.55247 16.2337C6.55182 16.2376 6.55182 16.2416 6.55247 16.2456C6.55554 16.2648 6.56589 16.2822 6.58144 16.2943C6.58471 16.2973 6.58882 16.2993 6.59324 16.3001C6.59766 16.3008 6.60221 16.3003 6.60632 16.2985C6.61044 16.2967 6.61393 16.2938 6.61637 16.2901C6.61881 16.2864 6.6201 16.2821 6.62006 16.2777C6.622 16.268 6.62193 16.2581 6.61985 16.2485C6.61778 16.2389 6.61374 16.2298 6.60799 16.2218C6.60572 16.2189 6.60284 16.2164 6.59955 16.2147V16.204L6.58989 16.1885L6.55851 16.1054C6.55851 16.0947 6.53919 16.0852 6.52833 16.0935C6.5138 16.1024 6.50212 16.1151 6.49464 16.1303C6.48717 16.1454 6.4842 16.1623 6.48609 16.179C6.48749 16.1957 6.49332 16.2117 6.50298 16.2254C6.50851 16.2338 6.5165 16.2405 6.52592 16.2444C6.53386 16.2462 6.54211 16.2462 6.55006 16.2444C6.5513 16.2435 6.55232 16.2423 6.55302 16.241C6.55372 16.2397 6.55408 16.2382 6.55408 16.2367C6.55408 16.2352 6.55372 16.2337 6.55302 16.2323C6.55232 16.231 6.5513 16.2298 6.55006 16.2289L6.55609 16.2123Z" fill="#191919"/>
<path d="M21.435 13.9475C21.4471 13.9594 21.4459 13.9974 21.4471 14.0128C21.4483 14.0283 21.4471 14.0532 21.4471 14.0734C21.4471 14.1126 21.4471 14.1519 21.4471 14.1922C21.4471 14.2326 21.4362 14.2766 21.4278 14.3182C21.4278 14.336 21.4205 14.355 21.4157 14.3728C21.4069 14.3959 21.3968 14.4185 21.3855 14.4406L21.406 14.4489C21.4519 14.3301 21.4676 14.2029 21.5267 14.0924C21.529 14.0864 21.5291 14.0798 21.5269 14.0738C21.5247 14.0678 21.5204 14.0627 21.5148 14.0594C21.5092 14.0561 21.5026 14.0549 21.4962 14.056C21.4898 14.057 21.4839 14.0603 21.4797 14.0651C21.4497 14.105 21.4293 14.1511 21.4201 14.1999C21.4109 14.2487 21.4131 14.2989 21.4266 14.3467C21.4284 14.3523 21.4322 14.3571 21.4373 14.3603C21.4424 14.3634 21.4484 14.3646 21.4544 14.3638C21.4603 14.3629 21.4658 14.36 21.4697 14.3556C21.4737 14.3512 21.4759 14.3455 21.4761 14.3396C21.4749 14.2997 21.4781 14.2599 21.4857 14.2208C21.4942 14.1796 21.508 14.1397 21.5267 14.102L21.4761 14.0877C21.464 14.2136 21.4109 14.3324 21.3891 14.456C21.3891 14.4703 21.4085 14.4762 21.4109 14.456C21.4133 14.4358 21.4169 14.418 21.4205 14.399C21.4242 14.38 21.4314 14.3503 21.4362 14.3253C21.4411 14.3004 21.4495 14.2481 21.4531 14.2065C21.4555 14.1646 21.4555 14.1225 21.4531 14.0806V14.0152C21.4531 13.9986 21.4411 13.9689 21.4531 13.9534C21.4652 13.938 21.4326 13.9451 21.4435 13.9534L21.435 13.9475Z" fill="#191919"/>
<path d="M10.3558 3.58125C10.3558 3.74996 10.3474 3.91986 10.3558 4.08976C10.3569 4.09385 10.3593 4.09747 10.3627 4.10006C10.3661 4.10265 10.3702 4.10405 10.3745 4.10405C10.3788 4.10405 10.383 4.10265 10.3864 4.10006C10.3897 4.09747 10.3922 4.09385 10.3932 4.08976C10.4029 3.91986 10.3932 3.74996 10.3932 3.58125C10.3921 3.57688 10.3896 3.57299 10.386 3.57021C10.3823 3.56743 10.3779 3.56592 10.3733 3.56592C10.3687 3.56592 10.3643 3.56743 10.3607 3.57021C10.3571 3.57299 10.3545 3.57688 10.3534 3.58125H10.3558Z" fill="#191919"/>
<path d="M10.6213 3.77588L10.5718 4.0135L10.6225 3.77588H10.6213Z" fill="#191919"/>
<path d="M10.6708 3.89472V4.14066C10.6708 4.14779 10.6816 4.15373 10.6865 4.14066C10.7138 4.10661 10.7328 4.06683 10.742 4.02438C10.7512 3.98194 10.7504 3.93798 10.7396 3.89591C10.7396 3.88047 10.7106 3.88403 10.7106 3.89591C10.7106 4.02423 10.7239 4.15254 10.7335 4.28086C10.7432 4.40917 10.7589 4.53749 10.7722 4.6658C10.7722 4.68956 10.8144 4.69075 10.812 4.6658C10.8035 4.53392 10.7951 4.40323 10.783 4.27254C10.771 4.14185 10.7625 4.0171 10.7396 3.89116L10.7106 3.89948C10.724 3.93726 10.7275 3.97776 10.7207 4.01723C10.714 4.05669 10.6972 4.09383 10.672 4.12522H10.6889V3.87928C10.6883 3.87801 10.6874 3.87692 10.6862 3.87616C10.685 3.8754 10.6837 3.875 10.6822 3.875C10.6808 3.875 10.6795 3.8754 10.6783 3.87616C10.6771 3.87692 10.6762 3.87801 10.6756 3.87928L10.6708 3.89472Z" fill="#191919"/>
<path d="M6.95091 22.5254C6.98952 22.4717 7.03731 22.4251 7.09213 22.3875C7.1496 22.3466 7.2131 22.3145 7.28042 22.2925L7.26956 22.2818L7.22852 22.4161C7.21404 22.46 7.19714 22.504 7.18748 22.5479C7.17783 22.5919 7.21886 22.6667 7.26714 22.6311C7.27559 22.6311 7.26714 22.6109 7.2587 22.6168C7.25025 22.6228 7.21766 22.6062 7.21162 22.586C7.20875 22.5563 7.21374 22.5264 7.22611 22.4992L7.28766 22.2866C7.28766 22.2806 7.28766 22.2735 7.2768 22.2759C7.20508 22.2974 7.13741 22.3303 7.07644 22.3733C7.02151 22.4127 6.97411 22.4614 6.93643 22.517C6.9357 22.518 6.93518 22.5191 6.93491 22.5202C6.93464 22.5214 6.93462 22.5225 6.93485 22.5237C6.93509 22.5249 6.93557 22.526 6.93626 22.5269C6.93696 22.5279 6.93785 22.5287 6.93888 22.5293C6.93992 22.5299 6.94107 22.5302 6.94226 22.5304C6.94345 22.5305 6.94466 22.5304 6.94579 22.53C6.94693 22.5296 6.94798 22.529 6.94886 22.5282C6.94974 22.5274 6.95044 22.5264 6.95091 22.5254Z" fill="#191919"/>
</g>
<defs>
<clipPath id="clip0">
<rect width="28" height="24" fill="white"/>
</clipPath>
</defs>
</svg>
