<svg width="16" height="16" viewBox="0 0 16 16" fill="none" xmlns="http://www.w3.org/2000/svg">
<path fill-rule="evenodd" clip-rule="evenodd" d="M9.8488 14.1318C10.8616 12.4897 11.4504 10.6633 11.6056 8.80255H14.344C14.0264 11.3343 12.2312 13.4104 9.8488 14.1318ZM8.004 14.0045C6.852 12.4456 6.1752 10.6465 5.996 8.80255H10.0048C9.82801 10.6457 9.1536 12.4448 8.004 14.0045ZM1.6552 8.80255H4.39441C4.55121 10.6641 5.1432 12.492 6.1592 14.1342C3.7728 13.4152 1.9736 11.3375 1.6552 8.80255ZM5.8304 1.98341C4.9408 3.61036 4.45921 5.39649 4.37361 7.20118H1.6552C1.9584 4.78477 3.6096 2.78808 5.8304 1.98341ZM7.97361 1.59747C7.98081 1.58786 7.98799 1.57817 7.99519 1.56856C8.00239 1.57817 8.00879 1.58786 8.01599 1.59747C9.24399 3.27006 9.91441 5.22033 10.0256 7.20118H5.97361C6.08241 5.22113 6.74961 3.27166 7.97361 1.59747ZM14.344 7.20118H11.6256C11.5376 5.39488 11.0528 3.60786 10.1592 1.97931C12.3856 2.78237 14.0408 4.78077 14.344 7.20118ZM8.68401 0.029697C3.95361 -0.372239 0 3.35891 0 8.00196C0 12.3512 3.46799 15.874 7.76799 15.9965C12.3096 16.1278 16 12.4761 16 8.00196C16 3.87213 12.8544 0.385993 8.68401 0.029697Z" fill="#DCA35B"/>
</svg>
