<svg width="50" height="41" viewBox="0 0 50 41" fill="none" xmlns="http://www.w3.org/2000/svg">
<g clip-path="url(#clip0)">
<path d="M34.8028 26.3682L34.5116 25.9308C34.6796 25.6211 34.7173 25.2488 34.6096 24.91C34.5681 24.7801 34.4354 24.4256 34.3333 24.3233C33.805 23.7945 33.3372 23.8941 32.3121 24.1124C32.124 24.1524 31.9108 24.1978 31.6677 24.2465C28.1346 24.9537 25.6171 21.4763 24.3377 20.1321L23.5819 17.1058C23.5385 16.9317 23.3822 16.8096 23.203 16.8096H16.1718C15.9561 16.8096 15.7812 16.9846 15.7812 17.2006V21.0393C15.2948 22.0465 15.0179 23.1179 15.0008 24.0681C14.9828 25.0691 15.2541 25.8985 15.7903 26.5015C15.7844 26.5284 15.7812 26.5563 15.7812 26.585V28.9311C15.7812 29.1471 15.9561 29.3221 16.1718 29.3221H21.6405C21.8562 29.3221 22.0311 29.1471 22.0311 28.9311C22.0311 28.8863 22.0311 28.8104 22.0311 28.7253C24.1345 29.0424 26.4556 29.3721 28.6373 29.3721C30.8519 29.372 32.9234 29.0323 34.4776 27.9947C34.7381 27.8211 34.9154 27.5562 34.9769 27.2489C35.0383 26.9417 34.9765 26.6288 34.8028 26.3682ZM30.7154 25.1245C31.0724 25.1245 31.4411 25.0894 31.8208 25.0134C32.0687 24.9638 32.2843 24.9179 32.4746 24.8773C33.4131 24.6775 33.5515 24.6638 33.7385 24.8355C33.7698 24.8997 33.8239 25.0182 33.8653 25.1478C33.9137 25.3001 33.8889 25.4696 33.7986 25.6017L33.7648 25.6512L33.1779 26.0427C32.0057 26.8248 30.084 27.1441 27.4653 26.9916C25.9263 26.9021 24.226 26.6657 22.559 26.4236C22.977 25.7321 23.2846 25.412 24.1111 25.412H25.5466C25.7046 25.412 25.8471 25.3167 25.9075 25.1706C25.968 25.0246 25.9345 24.8563 25.8228 24.7445L25.226 24.147C24.4232 23.3434 24.0556 22.2383 24.1966 21.1424C25.8967 23.0725 27.9182 25.1246 30.7154 25.1245ZM22.8979 17.5916L23.5786 20.3168C23.3531 21.0589 23.3273 21.8468 23.5057 22.6032C23.6855 23.3658 24.0649 24.0646 24.6052 24.6299H24.1112C22.7498 24.6299 22.2718 25.3579 21.7238 26.3019C21.597 26.2835 20.1434 26.0707 20.0582 26.0749L19.797 26.0882C19.7546 23.788 18.524 22.0047 16.5624 20.883V19.1557H19.2968C19.5125 19.1557 19.6874 18.9806 19.6874 18.7646C19.6874 18.5487 19.5125 18.3736 19.2968 18.3736H16.5624V17.5916H22.8979ZM16.352 21.6681C18.4672 22.9707 18.9926 24.7421 19.0158 26.1281L17.7242 26.194H16.5939C16.0384 25.7321 15.765 25.0226 15.782 24.0822C15.7952 23.3432 16.0003 22.4824 16.352 21.6681ZM34.2108 27.0955C34.1903 27.1978 34.1313 27.2861 34.0443 27.344C30.3596 29.8038 22.6993 27.8798 21.6402 27.8798C21.5462 27.8798 21.4545 27.9141 21.3827 27.9768C21.2962 28.0524 21.2474 28.1629 21.2491 28.2778C21.2494 28.2951 21.2495 28.4053 21.2497 28.5402H16.5624V26.9761H17.7342C17.7409 26.9761 17.7475 26.9759 17.7542 26.9756L20.0621 26.8578C22.2514 27.1484 25.0688 27.6355 27.42 27.7723C30.2116 27.9349 32.2946 27.5719 33.6112 26.6934L33.9361 26.4767L34.1528 26.8021C34.2107 26.8889 34.2313 26.9931 34.2108 27.0955Z" fill="#2B2B2B"/>
<path fill-rule="evenodd" clip-rule="evenodd" d="M19.7858 0.103889C19.7418 0.156971 19.6842 0.186965 19.6576 0.170573C19.5245 0.0881247 19.0404 0.0843582 18.8906 0.164574C18.7757 0.226236 18.6554 0.235722 18.5116 0.194429C18.2467 0.118328 16.7265 0.18564 16.615 0.278342C16.5595 0.324519 16.5234 0.32131 16.5059 0.268576C16.4756 0.177409 15.3348 0.317822 15.3348 0.412687C15.3348 0.443099 15.2698 0.450911 15.1905 0.430125C15.0188 0.385134 14.5147 0.533011 14.3423 0.678795C14.2487 0.757895 14.1823 0.764871 14.0589 0.70858C13.872 0.623272 13.5056 0.673215 13.5687 0.775403C13.5949 0.817953 13.5544 0.826532 13.4639 0.797794C13.3486 0.761104 13.3255 0.774706 13.3581 0.860083C13.3829 0.924605 13.363 0.969247 13.3096 0.969247C13.2559 0.969247 13.274 1.01075 13.3544 1.07165C13.4822 1.16853 13.4773 1.17418 13.2632 1.17628C13.1388 1.17753 13.0369 1.15102 13.0369 1.11747C13.0369 1.02121 12.6715 1.04639 12.5683 1.1497C12.5005 1.21764 12.4272 1.22475 12.2989 1.17586C12.0541 1.0826 11.9903 1.09173 12.0369 1.21338C12.0634 1.28251 12.0344 1.31801 11.9518 1.31801C11.8345 1.31801 11.8349 1.32415 11.9585 1.41469C12.061 1.48975 12.1301 1.49393 12.2678 1.43352C12.3653 1.39077 12.4637 1.32966 12.4866 1.29785C12.5094 1.26598 12.5769 1.3146 12.6365 1.40583C12.7378 1.56069 12.7353 1.57798 12.5982 1.66364C12.4927 1.7297 12.4439 1.73325 12.425 1.67627C12.3946 1.58496 12.2013 1.56752 12.2013 1.65604C12.2013 1.68854 12.2506 1.8141 12.3109 1.93505C12.4055 2.12506 12.4572 2.15505 12.6897 2.15505C12.8379 2.15505 12.9804 2.12052 13.0064 2.07825C13.0337 2.03417 13.1406 2.01889 13.2577 2.04233C13.3699 2.06479 13.446 2.05782 13.4268 2.02678C13.3634 1.92389 13.6968 1.97865 13.7833 2.0853C13.8299 2.14285 13.8691 2.15708 13.8703 2.11697C13.8717 2.07184 14.1178 2.0431 14.5166 2.04163C15.7033 2.03717 16.3094 1.98709 16.3096 1.89348C16.3097 1.78913 16.4968 1.77573 16.5307 1.87771C16.5658 1.98297 17.0797 2.05203 17.137 1.95919C17.1705 1.90485 17.3197 1.90143 17.6446 1.94754C18.2647 2.0355 19.0837 2.00564 19.1268 1.89348C19.1736 1.77155 19.3038 1.78438 19.3038 1.91092C19.3038 1.96846 19.3501 2.01555 19.4066 2.01555C19.478 2.01555 19.5019 1.95716 19.4852 1.82372C19.4719 1.71819 19.475 1.67117 19.492 1.71909C19.509 1.76708 19.5677 1.80629 19.6223 1.80629C19.6769 1.80629 19.7216 1.85337 19.7216 1.91092C19.7216 1.98646 19.799 2.01555 20.0002 2.01555C20.2013 2.01555 20.2787 1.98646 20.2787 1.91092C20.2787 1.77894 20.3412 1.77824 20.4849 1.90847C20.5533 1.97055 20.7709 2.01757 21.0382 2.02817C21.4442 2.04421 21.4918 2.03033 21.6457 1.851L21.8128 1.65646L21.6648 1.44838C21.5835 1.33392 21.5325 1.22461 21.5516 1.2055C21.6005 1.15653 21.9499 1.4917 21.9499 1.58761C21.9499 1.63114 21.9812 1.66678 22.0195 1.66678C22.1625 1.66678 22.0827 1.80524 21.9155 1.8473C21.5823 1.931 21.8231 2.01555 22.395 2.01555C22.7119 2.01555 22.9927 2.0371 23.019 2.06347C23.0831 2.12778 23.3425 2.14417 23.3425 2.08397C23.3425 2.01827 24.053 2.03919 24.1612 2.10818C24.2154 2.14264 24.2647 2.12227 24.2905 2.05482C24.3443 1.91433 24.5263 1.9128 24.5263 2.05286C24.5263 2.13873 24.5542 2.14501 24.667 2.08453C24.7444 2.04303 24.8384 2.0281 24.8759 2.05133C24.9134 2.07456 24.9441 2.03068 24.9441 1.95381C24.9441 1.82805 24.9666 1.83482 25.1704 2.02189C25.3449 2.18205 25.4018 2.20506 25.4192 2.12255C25.4474 1.98848 25.4838 1.98827 25.6167 2.12143C25.7474 2.25229 26.2669 2.23611 26.2159 2.10274C26.1697 1.98185 26.3245 1.99336 26.4511 2.12018C26.5125 2.1817 26.6826 2.22481 26.8639 2.22481C27.0455 2.22481 27.1723 2.25696 27.1723 2.30307C27.1723 2.36068 27.197 2.36082 27.2657 2.3037C27.3171 2.26101 27.372 2.23799 27.3876 2.25257C27.4496 2.3106 28.0809 2.3761 28.8013 2.39926C29.307 2.41558 29.5778 2.45255 29.6134 2.51024C29.6736 2.60782 29.9332 2.62058 30.33 2.5456C30.5343 2.50696 30.5854 2.5154 30.5449 2.58097C30.5082 2.64053 30.5268 2.65358 30.6054 2.62337C30.668 2.59931 30.7368 2.60831 30.7584 2.64332C30.7799 2.67834 30.8421 2.68985 30.8965 2.66899C30.9509 2.64807 31.0355 2.65581 31.0846 2.68615C31.2179 2.76874 31.4199 2.76951 31.4199 2.68748C31.4199 2.64437 31.4534 2.64904 31.5034 2.69913C31.5494 2.74516 31.6709 2.78283 31.7735 2.78283C31.876 2.78283 32.0779 2.83222 32.222 2.89255C32.3662 2.95289 32.5558 2.98421 32.6435 2.96217C32.7311 2.94012 32.8906 2.95554 32.9977 2.99635C33.1341 3.04824 33.1999 3.04845 33.2171 2.99697C33.2341 2.94584 33.2827 2.94557 33.3766 2.99586C33.4509 3.03569 33.5424 3.04929 33.5799 3.02606C33.6174 3.00283 33.6481 3.03283 33.6481 3.09261C33.6481 3.16208 33.7109 3.20135 33.8222 3.20135C33.9179 3.20135 33.9963 3.16773 33.9963 3.12664C33.9963 3.08549 34.0455 3.10118 34.1057 3.16152C34.2162 3.27215 34.3795 3.31561 34.321 3.21879C34.3036 3.19005 34.3331 3.12602 34.3865 3.07656C34.4677 3.00137 34.4837 3.01574 34.4837 3.16375C34.4837 3.34218 34.578 3.40036 34.6578 3.2711C34.6814 3.23274 34.7381 3.20386 34.7837 3.20686C34.8435 3.21084 34.8424 3.22221 34.7796 3.24753C34.6194 3.31233 34.6904 3.41061 34.8974 3.41061C35.01 3.41061 35.1219 3.44249 35.1459 3.48148C35.17 3.52047 35.2202 3.53351 35.2575 3.51036C35.2948 3.48727 35.3679 3.50373 35.42 3.54698C35.472 3.59022 35.6889 3.6327 35.902 3.64135C36.1151 3.65 36.3281 3.69576 36.3753 3.74305C36.4226 3.79042 36.5114 3.82913 36.5727 3.82913C36.6339 3.82913 36.7238 3.8684 36.7723 3.91632C36.843 3.98621 36.8785 3.97924 36.9506 3.88144C37.045 3.75352 37.1694 3.70839 37.0949 3.82913C37.0712 3.86749 37.0851 3.90279 37.1256 3.9076C37.3513 3.93432 37.6896 4.11679 37.6457 4.18808C37.6121 4.24263 37.6582 4.25581 37.9654 4.2796C38.0229 4.28406 38.109 4.31196 38.1569 4.34154C38.2047 4.37118 38.2438 4.37676 38.2438 4.35395C38.2438 4.33114 38.3144 4.3527 38.4005 4.4018C38.4866 4.45091 38.6042 4.49276 38.6616 4.49471C38.7191 4.49667 38.7607 4.52861 38.7542 4.56572C38.7476 4.60283 38.8181 4.66903 38.9108 4.71283C39.0511 4.77917 39.0794 4.77429 39.0794 4.68368C39.0794 4.58742 39.0942 4.58818 39.2068 4.69023C39.2768 4.75371 39.3708 4.80567 39.4157 4.80567C39.4605 4.80567 39.4972 4.83427 39.4972 4.86922C39.4972 4.96499 40.0721 5.22419 40.2845 5.22419C40.3955 5.22419 40.5061 5.28062 40.5579 5.3637C40.6057 5.44043 40.7018 5.50321 40.7715 5.50321C40.8411 5.50321 40.8787 5.47182 40.855 5.43345C40.8314 5.39509 40.839 5.3637 40.8718 5.3637C40.9734 5.3637 41.0988 5.52476 41.0988 5.65534C41.0988 5.76373 41.1749 5.80649 41.5166 5.89006C41.5357 5.89473 41.6396 5.93512 41.7474 5.9799C41.8552 6.02461 41.9884 6.06123 42.0433 6.06123C42.0983 6.06123 42.1432 6.11166 42.1432 6.17333C42.1432 6.24552 42.1813 6.27077 42.2503 6.24426C42.3113 6.22083 42.3745 6.24768 42.3971 6.30655C42.4188 6.36347 42.4681 6.41 42.5066 6.41C42.545 6.41 42.7646 6.59791 42.9946 6.82761C43.2246 7.05731 43.4363 7.23064 43.4651 7.21293C43.4938 7.19514 43.5743 7.24369 43.644 7.32091C43.7138 7.39805 43.8081 7.44688 43.8536 7.42937C43.8991 7.41193 43.9757 7.48141 44.0238 7.58387C44.0747 7.69234 44.1243 7.73377 44.1427 7.68299C44.2009 7.52186 44.3018 7.59392 44.3018 7.79655C44.3018 7.9069 44.347 8.03476 44.4022 8.08066C44.4573 8.12649 44.5121 8.24737 44.524 8.34914C44.5373 8.46367 44.6119 8.56719 44.7196 8.62062C44.9831 8.75133 45.3463 9.13337 45.3463 9.27965C45.3463 9.42627 45.4557 9.4548 45.5091 9.3222C45.5336 9.26151 45.5459 9.26618 45.5497 9.33754C45.5527 9.3939 45.6468 9.51946 45.7586 9.61655C45.8959 9.73562 45.9695 9.87248 45.9849 10.0372C46.0012 10.2108 46.0481 10.2922 46.1471 10.319C46.2311 10.3416 46.2947 10.4267 46.3072 10.5331C46.3187 10.6301 46.4831 10.8795 46.6728 11.0872C46.8624 11.2949 47.0175 11.5046 47.0175 11.5532C47.0175 11.6017 47.0419 11.6415 47.0717 11.6415C47.1015 11.6415 47.1817 11.8298 47.2499 12.06C47.3205 12.2982 47.4136 12.4785 47.4661 12.4785C47.5168 12.4785 47.5772 12.5492 47.6003 12.6355C47.6638 12.8729 47.6567 12.8867 47.4875 12.8509C47.3495 12.8216 47.3453 12.827 47.4527 12.8957C47.5197 12.9386 47.5746 13.013 47.5746 13.061C47.5746 13.2289 47.7497 13.5179 47.8705 13.5496C47.9662 13.5747 47.9924 13.6569 47.9924 13.9335C47.9924 14.1271 48.0297 14.3677 48.0754 14.4682C48.1432 14.6171 48.14 14.6631 48.058 14.717C47.9726 14.7731 47.9761 14.7973 48.0814 14.8781C48.193 14.9637 48.1942 14.9774 48.0928 15.0164C47.996 15.0536 48.0054 15.0897 48.1604 15.2742C48.2595 15.3921 48.3427 15.5254 48.3453 15.5705C48.348 15.6155 48.3675 15.7465 48.3887 15.8616C48.4562 16.2278 48.4226 16.6216 48.3173 16.6987C48.2295 16.763 48.2293 16.7977 48.3155 16.9624C48.37 17.0667 48.4455 17.152 48.4833 17.152C48.5211 17.152 48.535 17.2226 48.5141 17.3089C48.4933 17.3953 48.4654 17.6004 48.4522 17.7649C48.439 17.9294 48.4083 18.0838 48.3841 18.1081C48.3599 18.1324 48.3898 18.2284 48.4507 18.3214C48.5543 18.4799 48.5517 18.5007 48.4088 18.6532C48.3249 18.7426 48.2754 18.8468 48.2988 18.8847C48.3223 18.9226 48.3024 18.9667 48.2547 18.9826C48.1857 19.0057 48.1856 19.0501 48.2546 19.2018C48.3168 19.3385 48.3206 19.4306 48.2682 19.5286C48.2125 19.6328 48.2189 19.6743 48.295 19.7035C48.3537 19.7261 48.3802 19.7975 48.3595 19.8769C48.3156 20.0452 48.2014 20.0545 48.2008 19.8898C48.2006 19.809 48.1646 19.8366 48.0943 19.9716C48.0161 20.1218 48.0093 20.1886 48.0688 20.2254C48.1132 20.2528 48.1295 20.3076 48.1051 20.3472C48.0807 20.3868 48.1079 20.4665 48.1656 20.5242C48.2733 20.6322 48.2412 20.8395 48.1019 20.9351C48.0494 20.9711 48.0502 20.9866 48.1045 20.9874C48.1494 20.988 48.168 21.0617 48.1487 21.1628C48.1279 21.2717 48.0684 21.3372 47.9903 21.3372C47.8973 21.3372 47.8704 21.3832 47.8851 21.5172C47.8964 21.6207 47.8642 21.7128 47.8093 21.7339C47.7554 21.7547 47.7138 21.8698 47.7138 21.9986C47.7138 22.3221 47.6369 22.6662 47.5734 22.6269C47.5438 22.6086 47.5016 22.6405 47.4796 22.6978C47.4576 22.7551 47.4711 22.802 47.5096 22.802C47.5542 22.802 47.5519 22.8536 47.5031 22.9449C47.4503 23.0438 47.3852 23.0745 47.2918 23.0448C47.1382 22.9959 47.1149 23.0784 47.2438 23.2153C47.3134 23.2892 47.3134 23.3141 47.2438 23.3397C47.1959 23.3572 47.1568 23.4091 47.1568 23.455C47.1568 23.5008 47.0917 23.5941 47.0121 23.6624C46.892 23.7654 46.8753 23.834 46.9143 24.065C46.9532 24.2958 46.9365 24.365 46.8165 24.4692C46.737 24.5383 46.6922 24.6152 46.717 24.6401C46.7419 24.665 46.7139 24.6853 46.6549 24.6853C46.5911 24.6853 46.5304 24.7708 46.5056 24.8954C46.4804 25.0215 46.3989 25.135 46.3016 25.1793C46.1229 25.2609 45.9385 25.5111 46.0068 25.5794C46.0307 25.6034 46.0793 25.5768 46.115 25.5204C46.1589 25.4509 46.1801 25.4459 46.1809 25.5049C46.1814 25.5529 46.1192 25.6549 46.0427 25.7316C45.9661 25.8084 45.9034 25.9025 45.9034 25.9409C45.9034 25.9793 45.8677 26.0107 45.824 26.0107C45.6875 26.0107 45.5575 26.2433 45.6391 26.3418C45.6905 26.4037 45.6866 26.4292 45.6259 26.4292C45.5784 26.4292 45.5581 26.4758 45.5804 26.5338C45.6024 26.5913 45.5901 26.6384 45.5531 26.6384C45.516 26.6384 45.4856 26.6819 45.4856 26.7349C45.4856 26.788 45.4229 26.8478 45.3463 26.8679C45.263 26.8898 45.2071 26.9631 45.2071 27.0504C45.2071 27.1307 45.1738 27.1965 45.1333 27.1965C45.0928 27.1965 45.0776 27.2257 45.0996 27.2614C45.1217 27.2971 45.1044 27.3482 45.0612 27.375C45.0179 27.4017 44.9601 27.3872 44.9326 27.3426C44.903 27.2945 44.8451 27.3758 44.79 27.5429C44.7334 27.7149 44.6543 27.8242 44.5864 27.8242C44.5254 27.8242 44.3867 27.9184 44.2783 28.0335C44.1699 28.1486 44.0525 28.2428 44.0174 28.2428C43.9824 28.2428 43.9537 28.3017 43.9537 28.3738C43.9537 28.4457 43.9067 28.5437 43.8492 28.5915C43.7918 28.6393 43.7448 28.7216 43.7448 28.7744C43.7448 28.8273 43.7012 28.8705 43.6479 28.8705C43.5946 28.8705 43.5312 28.9493 43.5071 29.0455C43.4644 29.2161 42.9674 29.6378 42.8091 29.6378C42.7077 29.6378 41.6931 30.6257 41.6327 30.7833C41.6077 30.8487 41.558 30.8842 41.5224 30.8621C41.4867 30.84 41.3883 30.9194 41.3037 31.0385C41.1864 31.2034 41.1355 31.2327 41.0898 31.1614C41.0442 31.0899 40.9876 31.1213 40.8504 31.2945C40.7516 31.4191 40.6284 31.5212 40.5765 31.5212C40.5246 31.5212 40.4205 31.5996 40.3453 31.6955C40.2699 31.7914 40.1775 31.8699 40.1399 31.8699C40.1022 31.8699 40.0327 31.9165 39.9855 31.9735C39.9383 32.0304 39.7622 32.1459 39.594 32.23C39.4259 32.3141 39.2883 32.4088 39.2883 32.4403C39.2883 32.4719 39.2428 32.4977 39.1873 32.4977C39.1318 32.4977 39.0613 32.5369 39.0307 32.5849C39 32.6329 38.7933 32.7946 38.5713 32.9444C38.3493 33.0942 38.1374 33.2734 38.1004 33.3425C38.0635 33.4117 37.9287 33.4879 37.8008 33.5119C37.673 33.5359 37.4784 33.6393 37.3683 33.7416C37.2583 33.8439 37.1193 33.9309 37.0594 33.9348C36.9994 33.9388 36.819 34.0252 36.6584 34.1266C36.4979 34.2282 36.3371 34.3113 36.3012 34.3113C36.2067 34.3113 35.8077 34.5468 35.8071 34.6028C35.8061 34.72 35.5695 34.8693 35.385 34.8693C35.2734 34.8693 35.0293 34.9635 34.8426 35.0786C34.6559 35.1937 34.4473 35.2878 34.3792 35.2878C34.3111 35.2878 34.1005 35.3833 33.9112 35.5C33.7218 35.6166 33.4678 35.7314 33.3465 35.7548C33.2251 35.7783 33.0511 35.8712 32.9597 35.9612C32.7955 36.1229 32.7064 36.1509 32.4245 36.1292C32.3452 36.1231 32.1259 36.1939 31.9371 36.2865C31.7484 36.3791 31.4216 36.5126 31.211 36.5831C31.0003 36.6537 30.7786 36.7521 30.718 36.8018C30.6576 36.8515 30.531 36.8922 30.4367 36.8922C30.1874 36.8922 29.48 37.0859 29.1522 37.2439C28.9965 37.319 28.7537 37.3804 28.6126 37.3804C28.431 37.3804 28.356 37.411 28.356 37.4851C28.356 37.5653 28.2675 37.5897 27.9772 37.5897C27.7688 37.5897 27.5789 37.6211 27.5553 37.6594C27.5316 37.6978 27.4537 37.7292 27.382 37.7292C27.3104 37.7292 27.2017 37.7794 27.1404 37.8409C27.0707 37.9107 26.9683 37.9373 26.8672 37.9119C26.7783 37.8896 26.6835 37.8933 26.6567 37.9202C26.6298 37.9472 26.4985 37.9597 26.365 37.9482C26.1312 37.9281 26.124 37.9344 26.1682 38.1247C26.2083 38.2976 26.2022 38.3081 26.1187 38.2098C26.0126 38.0849 25.7796 37.9842 25.7796 38.0634C25.7796 38.0913 25.7145 38.1549 25.635 38.2047C25.5233 38.2746 25.4676 38.2765 25.3913 38.213C25.2757 38.1169 24.8975 38.2419 24.7548 38.4234C24.6916 38.5038 24.6694 38.5078 24.6678 38.4388C24.6651 38.3283 24.173 38.3456 24.0911 38.4591C24.0567 38.5067 24.0179 38.4989 23.9776 38.4363C23.935 38.37 23.9083 38.3656 23.8896 38.4218C23.8746 38.4668 23.688 38.5112 23.4676 38.5223C23.2502 38.5332 23.0313 38.5762 22.9811 38.6178C22.931 38.6594 22.4678 38.7138 21.9519 38.7387C21.4361 38.7636 20.9791 38.8129 20.9366 38.8482C20.894 38.8836 20.5392 38.925 20.1481 38.9401C19.7569 38.9553 19.4177 38.987 19.3942 39.0105C19.3707 39.0341 19.3132 39.0215 19.2665 38.9827C19.2153 38.9401 19.1158 38.9354 19.0164 38.9707C18.9255 39.003 18.6789 39.0234 18.4683 39.016C18.2576 39.0087 18.0493 39.0312 18.0053 39.0661C17.9613 39.101 17.836 39.1111 17.7268 39.0887C17.2967 39.0002 17.176 38.9808 17.0756 38.9844C17.0182 38.9865 16.7518 38.9919 16.4837 38.9966C16.215 39.0013 15.9733 39.0396 15.9451 39.0821C15.9093 39.1361 15.8937 39.1337 15.8929 39.0741C15.8923 39.0274 15.8449 39.0072 15.7874 39.0293C15.73 39.0514 15.683 39.1121 15.683 39.1642C15.683 39.2163 15.6209 39.2921 15.5451 39.3327C15.4193 39.4003 15.4108 39.3889 15.448 39.2027C15.4798 39.0433 15.4604 38.9901 15.3595 38.9588C15.1832 38.9042 14.8752 38.9446 14.7642 39.0368C14.6973 39.0924 14.6368 39.0862 14.5379 39.0138C14.4576 38.955 14.232 38.9141 13.9811 38.9128C13.7204 38.9114 13.5074 38.8713 13.4235 38.8079C13.349 38.7513 13.233 38.7225 13.1659 38.7439C13.0988 38.7652 12.9499 38.734 12.835 38.6745C12.72 38.6149 12.5428 38.5662 12.4411 38.5662C12.2949 38.5662 12.2651 38.5918 12.2992 38.6883C12.3314 38.7793 12.3112 38.7721 12.2197 38.6603C12.1266 38.5465 12.0168 38.5092 11.7661 38.5059C11.5545 38.5031 11.4329 38.5321 11.4284 38.5862C11.4246 38.6328 11.3997 38.5924 11.3731 38.4965C11.3465 38.4006 11.2947 38.3194 11.2582 38.3161C11.2216 38.3127 11.1383 38.2865 11.0732 38.2576C11.008 38.2287 10.9218 38.2254 10.8817 38.2502C10.8416 38.2751 10.8087 38.2622 10.8087 38.2216C10.8087 38.097 10.5424 38.1398 10.5085 38.2698C10.4814 38.3738 10.4755 38.375 10.4686 38.2777C10.463 38.1979 10.3664 38.1494 10.1472 38.1165C9.94651 38.0863 9.83385 38.0341 9.83385 37.9712C9.83385 37.9119 9.79179 37.8892 9.72759 37.9139C9.6457 37.9454 9.63971 37.9768 9.70134 38.0512C9.74562 38.1047 9.75126 38.1477 9.71387 38.1477C9.62349 38.1477 9.41605 37.9131 9.41605 37.8109C9.41605 37.6912 9.09031 37.7113 8.88921 37.8432C8.69313 37.9719 8.58583 37.9257 8.71597 37.7686C8.78727 37.6826 8.77119 37.6576 8.6205 37.6197C8.52093 37.5946 8.40903 37.5227 8.37199 37.4598C8.31259 37.3594 8.29595 37.3582 8.2337 37.4502C8.18196 37.5266 8.17458 37.4937 8.20626 37.3281C8.2401 37.1516 8.22597 37.1014 8.14234 37.1014C8.08329 37.1014 8.02438 37.0695 8.01143 37.0305C7.99841 36.9915 7.89396 36.9452 7.77928 36.9277C7.37276 36.8656 7.33203 36.8481 7.15969 36.6619C7.06394 36.5583 6.93665 36.4736 6.87684 36.4736C6.7194 36.4736 6.48982 36.3279 6.29548 36.1045C6.20231 35.9974 6.09076 35.9217 6.04766 35.9363C6.00456 35.9508 5.93109 35.9129 5.88444 35.852C5.80694 35.7509 5.79942 35.7509 5.7974 35.8521C5.79322 36.059 5.41749 35.9604 5.1361 35.6786C4.99308 35.5353 4.89336 35.4007 4.91446 35.3795C4.93563 35.3583 4.90875 35.2967 4.85479 35.2426C4.80075 35.1886 4.7658 35.106 4.77708 35.0591C4.78829 35.0122 4.78432 34.9974 4.7683 35.0263C4.70167 35.1456 4.61142 35.0654 4.61135 34.8867C4.61135 34.7272 4.57946 34.693 4.42202 34.6839C4.31792 34.6778 4.22134 34.6386 4.20735 34.5967C4.19342 34.5548 4.14997 34.5205 4.11077 34.5205C4.07156 34.5205 4.0575 34.5676 4.07957 34.6252C4.10157 34.6827 4.09294 34.7298 4.06028 34.7298C3.93439 34.7298 3.93703 34.4706 4.06376 34.3914C4.26619 34.2647 4.23214 34.0784 4.01412 34.1202C3.88544 34.1448 3.78565 34.1055 3.66171 33.9814C3.56666 33.8861 3.50594 33.7911 3.52683 33.7702C3.54772 33.7493 3.5104 33.6924 3.44397 33.6437C3.37761 33.5951 3.32183 33.5134 3.32009 33.4625C3.31835 33.4114 3.28103 33.3768 3.23723 33.3857C3.1935 33.3944 3.13821 33.3403 3.11447 33.2654C3.09072 33.1904 2.99679 33.0704 2.90571 32.9986C2.79228 32.9093 2.73323 32.7823 2.71833 32.5957C2.70238 32.3962 2.63136 32.2564 2.45282 32.073C2.22763 31.8417 2.2089 31.7893 2.20632 31.3844C2.20382 30.9988 2.18139 30.9271 2.01908 30.7873C1.84117 30.634 1.83978 30.6271 1.97869 30.5906C2.08823 30.562 2.10905 30.5226 2.06567 30.4267C2.03433 30.3573 1.9961 30.12 1.98085 29.8994C1.9608 29.6103 1.92515 29.4983 1.85301 29.4983C1.79807 29.4983 1.71848 29.412 1.67621 29.3065C1.57859 29.0628 1.55025 28.5915 1.63325 28.5915C1.66786 28.5915 1.676 28.5209 1.65121 28.4346C1.62642 28.3482 1.59168 28.2252 1.57399 28.1613C1.55589 28.0958 1.63436 27.9393 1.75364 27.8033C1.9858 27.5385 2.00975 27.4755 1.87835 27.4755C1.81624 27.4755 1.79229 27.327 1.79466 26.9569C1.79668 26.6488 1.7714 26.4548 1.73234 26.479C1.69327 26.5032 1.68506 26.4378 1.71207 26.3175C1.737 26.2062 1.77697 26.0133 1.80092 25.8886C1.82481 25.7639 1.87285 25.6619 1.90767 25.6619C1.97166 25.6619 1.98148 25.5271 1.98057 24.6632C1.98016 24.2994 2.00146 24.196 2.07138 24.2229C2.19825 24.2716 2.25305 24.0908 2.17429 23.8832C2.10689 23.7055 2.14512 23.4995 2.2456 23.4995C2.27658 23.4995 2.3153 23.5387 2.33159 23.5867C2.34782 23.6347 2.37636 23.5719 2.39496 23.4472C2.41348 23.3225 2.41062 23.2205 2.38855 23.2205C2.36648 23.2205 2.34447 23.1341 2.33981 23.0286C2.33507 22.9232 2.34614 22.878 2.36439 22.9283C2.39008 22.9991 2.42761 22.9926 2.5297 22.9001C2.70183 22.744 2.69827 22.5927 2.52245 22.5927C2.44224 22.5927 2.38319 22.6393 2.38319 22.7023C2.38319 22.7998 2.37156 22.8003 2.27874 22.7073C2.14651 22.5749 2.14651 22.523 2.27874 22.523C2.33619 22.523 2.38319 22.488 2.38319 22.4451C2.38319 22.4022 2.44043 22.3822 2.51034 22.4005C2.67906 22.4447 2.9633 22.0314 2.95543 21.7534C2.95174 21.6221 2.98432 21.5464 3.04463 21.5464C3.141 21.5464 3.24015 21.3389 3.20381 21.2135C3.19287 21.1759 3.27476 21.0422 3.38569 20.9164C3.56784 20.7098 3.57627 20.6795 3.47273 20.6037C3.31132 20.4854 3.32831 20.448 3.56694 20.3955C3.77674 20.3493 3.85898 20.1413 3.70509 20.0461C3.66616 20.0219 3.65447 19.9695 3.67919 19.9295C3.70384 19.8895 3.68998 19.8357 3.64827 19.8099C3.60001 19.7799 3.62202 19.732 3.70899 19.6775C3.82186 19.6069 3.84547 19.6104 3.84547 19.6974C3.84547 19.8789 3.9933 19.8121 4.07567 19.5934C4.12511 19.4622 4.2038 19.3841 4.28666 19.3841C4.38477 19.3841 4.40935 19.348 4.38212 19.2437C4.35747 19.1493 4.39125 19.0787 4.48497 19.0284C4.57292 18.9813 4.61212 18.9061 4.59102 18.8253C4.57097 18.7485 4.58935 18.7083 4.6367 18.7253C4.75591 18.7678 4.9678 18.2456 4.98194 17.8743C4.9905 17.6502 5.02734 17.538 5.09885 17.5185C5.18916 17.494 5.18958 17.4997 5.10205 17.5607C5.01418 17.6219 5.0139 17.6556 5.09989 17.8167L5.19898 18.0021L5.35962 17.8038C5.44799 17.6947 5.50606 17.548 5.48872 17.4778C5.46748 17.3919 5.48775 17.362 5.55104 17.3863C5.6761 17.4344 6.00407 17.1235 6.00407 16.9568C6.00407 16.8059 6.22487 16.5242 6.34297 16.5242C6.38635 16.5242 6.42186 16.4928 6.42186 16.4545C6.42186 16.4161 6.46531 16.3847 6.51837 16.3847C6.65423 16.3847 6.85713 15.9257 6.80442 15.7377C6.77406 15.6295 6.78068 15.6111 6.82622 15.6769C6.90393 15.7892 7.14611 15.6874 7.21226 15.5147C7.23468 15.4562 7.30292 15.4082 7.36385 15.4082C7.42471 15.4082 7.45542 15.3771 7.43202 15.3392C7.40765 15.2997 7.43557 15.288 7.49754 15.3118C7.58556 15.3457 7.60561 15.2938 7.60561 15.032C7.60561 14.6856 7.50263 14.6145 7.29777 14.8197C7.23788 14.8797 7.15732 14.9092 7.11874 14.8854C6.98352 14.8017 7.05078 14.7258 7.30174 14.6785C7.441 14.6524 7.64489 14.5644 7.75483 14.483C7.9097 14.3683 7.97348 14.3537 8.03782 14.4182C8.0835 14.4639 8.15376 14.5009 8.19401 14.5003C8.23418 14.4997 8.22687 14.4737 8.17771 14.4424C8.08454 14.3831 8.13252 14.1526 8.23801 14.1526C8.2713 14.1526 8.26768 14.0715 8.23008 13.9724C8.15891 13.7849 8.19038 13.6643 8.31043 13.6643C8.34887 13.6643 8.37052 13.7257 8.35855 13.8007C8.34657 13.8757 8.36029 13.9385 8.38898 13.9402C8.54983 13.95 8.58046 13.9337 8.58046 13.8387C8.58046 13.7812 8.54391 13.7341 8.4992 13.7341C8.45457 13.7341 8.44141 13.7106 8.4701 13.6819C8.49879 13.6532 8.56368 13.6864 8.61431 13.7558C8.67913 13.8446 8.72119 13.8579 8.75657 13.8006C8.79396 13.7399 8.82097 13.7422 8.86241 13.8093C8.90112 13.8721 8.9461 13.8781 9.01037 13.8292C9.06114 13.7904 9.17728 13.7549 9.26843 13.7501C9.35958 13.7453 9.5072 13.6726 9.59654 13.5885C9.68588 13.5045 9.83064 13.4 9.91831 13.3564C10.0059 13.3128 10.0876 13.2074 10.0998 13.122C10.112 13.0366 10.153 12.9668 10.191 12.9668C10.2289 12.9668 10.2423 12.9383 10.2209 12.9035C10.1993 12.8688 10.2445 12.8567 10.3212 12.8768C10.3978 12.8969 10.4605 12.8846 10.4605 12.8494C10.4605 12.7379 10.308 12.6275 10.2076 12.6661C10.141 12.6917 10.1242 12.6682 10.1539 12.5909C10.1776 12.5291 10.2282 12.4785 10.2665 12.4785C10.3048 12.4785 10.3181 12.4314 10.2961 12.3739C10.2691 12.3034 10.2994 12.2693 10.389 12.2693C10.4621 12.2693 10.54 12.24 10.5621 12.2042C10.6131 12.1215 11.0388 12.1291 11.0938 12.2137C11.1166 12.2487 11.2185 12.2564 11.3201 12.2309C11.4724 12.1926 11.505 12.1447 11.505 11.9594C11.505 11.6721 11.5759 11.601 11.6729 11.791C11.7462 11.9349 11.9145 11.957 11.8621 11.8159C11.8149 11.6887 11.7813 11.4656 11.8221 11.5504C11.8441 11.5962 11.9081 11.616 11.9642 11.5945C12.0515 11.5609 12.05 11.5434 11.9542 11.4732C11.8797 11.4187 11.8499 11.3123 11.8651 11.1555C11.89 10.8992 12.0621 10.7683 12.0621 11.0057C12.0621 11.1077 12.0938 11.1366 12.1726 11.1063C12.2659 11.0705 12.2559 11.0367 12.1084 10.8889C11.9462 10.7264 11.9255 10.7221 11.8191 10.8287C11.748 10.8998 11.7213 10.9968 11.7488 11.0836C11.7778 11.1753 11.7569 11.2376 11.6883 11.264C11.6306 11.2861 11.5998 11.347 11.6198 11.3992C11.6888 11.5792 11.3572 11.477 11.1773 11.2628C11.0171 11.0722 10.9947 11.0646 10.9152 11.1735C10.8673 11.2391 10.7925 11.2927 10.7488 11.2927C10.7052 11.2927 10.6694 11.3379 10.6694 11.393C10.6694 11.4695 10.731 11.4836 10.9306 11.4523L11.1917 11.4114L11.0176 11.559C10.8744 11.6805 10.8651 11.707 10.9654 11.7089C11.0474 11.7105 11.0872 11.7667 11.0872 11.881C11.0872 12.0244 11.0548 12.0498 10.8783 12.0447C10.6692 12.0388 10.5959 11.9567 10.7529 11.9042C10.8052 11.8868 10.7921 11.8593 10.7181 11.8309C10.6399 11.8008 10.5998 11.8201 10.5998 11.8878C10.5998 12.0221 10.4173 12.0203 10.3657 11.8856C10.3437 11.8281 10.2915 11.781 10.2497 11.781C10.208 11.781 10.1964 11.8177 10.2241 11.8626C10.258 11.9175 10.2365 11.9296 10.1586 11.8996C10.0781 11.8687 10.0427 11.8919 10.0427 11.9757C10.0427 12.1125 9.79297 12.2954 9.69173 12.2326C9.65294 12.2086 9.62495 12.321 9.62495 12.5008C9.62495 12.671 9.5792 12.92 9.52329 13.0541C9.4673 13.1881 9.4391 13.3154 9.46055 13.3368C9.48193 13.3583 9.43262 13.3584 9.35102 13.337C9.21586 13.3015 9.2114 13.2845 9.30165 13.1466C9.40721 12.9852 9.48638 12.2691 9.39864 12.2692C9.3217 12.2693 9.06789 12.537 9.06789 12.618C9.06789 12.6564 8.97389 12.6878 8.85899 12.6878C8.72335 12.6878 8.6501 12.7231 8.6501 12.7884C8.6501 12.8438 8.55609 12.9448 8.4412 13.0128C8.30604 13.0927 8.2323 13.1927 8.2323 13.2958C8.2323 13.3909 8.19025 13.4551 8.12785 13.4551C8.00126 13.4551 7.98963 13.3427 8.11045 13.2872C8.15835 13.2651 8.11929 13.2671 8.02368 13.2915C7.77252 13.3556 7.55771 13.6629 7.76228 13.6654C7.82342 13.6661 7.82628 13.6817 7.77168 13.7177C7.72893 13.7459 7.67051 13.8444 7.64175 13.9364C7.59914 14.0732 7.61021 14.096 7.70205 14.0607C7.76389 14.037 7.81451 14.0502 7.81451 14.0902C7.81451 14.1301 7.75971 14.1515 7.69265 14.1376C7.6256 14.1237 7.57511 14.0586 7.58048 13.993C7.58744 13.9067 7.53668 13.8736 7.39748 13.8736C7.12334 13.8736 7.00503 14.0363 7.11053 14.2683C7.21971 14.5082 7.18225 14.53 6.87893 14.4031C6.60813 14.2897 6.62881 14.2783 6.53279 14.5949C6.51712 14.6463 6.53418 14.7327 6.57067 14.7867C6.62484 14.8672 6.6568 14.8566 6.74677 14.7281C6.8907 14.5224 6.97892 14.5291 6.97892 14.7455C6.97892 14.9168 6.92635 14.9484 6.68298 14.9235C6.51336 14.9063 6.53084 15.0466 6.7178 15.2028C6.91423 15.367 6.96068 15.3692 7.00058 15.2163C7.02892 15.1077 7.0333 15.1071 7.04048 15.2114C7.05169 15.3736 6.8611 15.5477 6.67219 15.5477C6.46162 15.5477 6.41434 15.4881 6.50688 15.3396C6.57011 15.2382 6.54358 15.177 6.3578 14.9951C6.17892 14.8199 6.14131 14.8036 6.17711 14.9166C6.21895 15.0488 6.16046 15.0952 5.98666 15.0676C5.9579 15.0631 5.94112 15.0829 5.9492 15.1117C5.95735 15.1405 5.92385 15.2367 5.87476 15.3255C5.80297 15.4552 5.76593 15.4707 5.68585 15.4041C5.60647 15.3381 5.58628 15.3443 5.58628 15.4345C5.58628 15.4967 5.55494 15.5477 5.51664 15.5477C5.47835 15.5477 5.44652 15.6496 5.44597 15.7744C5.44513 15.9492 5.42891 15.9771 5.37501 15.8964C5.31415 15.8052 5.29605 15.8074 5.23338 15.9139C5.1939 15.981 5.11681 16.0359 5.06215 16.0359C5.00749 16.0359 4.91063 16.1157 4.84685 16.2132C4.75403 16.3551 4.74644 16.4246 4.80897 16.562C4.85945 16.6729 4.86203 16.7335 4.81635 16.7335C4.77011 16.7335 4.76879 16.7765 4.81252 16.8583C4.87164 16.969 4.852 16.9801 4.64088 16.9554C4.3973 16.9268 4.30393 16.8041 4.52438 16.8022C4.62834 16.8013 4.63085 16.7913 4.54179 16.7347C4.48003 16.6953 4.42836 16.6942 4.41541 16.7318C4.40336 16.7667 4.34856 16.7781 4.29355 16.757C4.23861 16.7358 4.19363 16.7533 4.19363 16.7958C4.19363 16.8382 4.12894 16.9378 4.04984 17.017C3.94135 17.1257 3.91705 17.2114 3.95089 17.3658C3.97826 17.4906 3.96732 17.5705 3.92283 17.5705C3.88265 17.5705 3.86789 17.5234 3.88989 17.4659C3.91197 17.4083 3.89532 17.3613 3.85292 17.3613C3.81051 17.3613 3.77583 17.4397 3.77583 17.5356C3.77583 17.6442 3.73635 17.71 3.67139 17.71C3.61394 17.71 3.56694 17.7496 3.56694 17.7979C3.56694 17.8462 3.48108 17.9786 3.37615 18.0919C3.27128 18.2053 3.19489 18.3541 3.20645 18.4225C3.22052 18.5056 3.18368 18.5471 3.09567 18.5471C2.96211 18.5471 2.77696 18.8126 2.76289 19.0244C2.74263 19.3286 2.72578 19.3841 2.65357 19.3841C2.60768 19.3841 2.59202 19.3198 2.61534 19.2272C2.65239 19.0797 2.64898 19.078 2.55859 19.199C2.50567 19.2699 2.47872 19.3706 2.49878 19.4228C2.52162 19.4826 2.46828 19.5346 2.35471 19.5632C2.17172 19.6091 2.14143 19.6849 2.16823 20.0293C2.17868 20.1632 2.15034 20.2211 2.0743 20.2211C2.01442 20.2211 1.96539 20.2682 1.96539 20.3258C1.96539 20.3833 1.93197 20.4304 1.8911 20.4304C1.84793 20.4304 1.83567 20.4902 1.86185 20.5728C1.89465 20.6762 1.85774 20.7542 1.72732 20.8569C1.54872 20.9977 1.4841 21.1977 1.61723 21.1977C1.74891 21.1977 1.68666 21.3149 1.51278 21.3942C1.41704 21.438 1.3387 21.5323 1.3387 21.6039C1.3387 21.6755 1.27617 21.7908 1.19972 21.8601C1.0936 21.9562 1.07911 22.0084 1.13858 22.0802C1.19909 22.1532 1.18816 22.1742 1.08956 22.1742C0.993049 22.1742 0.982117 22.1937 1.04374 22.2554C1.10537 22.3171 1.09179 22.3653 0.986991 22.4563C0.841321 22.5829 0.866179 22.802 1.02626 22.802C1.16093 22.802 0.989568 23.1347 0.83387 23.1755C0.666543 23.2193 0.666543 23.5666 0.83387 23.5764C0.900856 23.5803 0.858241 23.615 0.739031 23.6535C0.540718 23.7175 0.523728 23.7467 0.537932 23.9989C0.550049 24.2143 0.531457 24.2659 0.452772 24.2356C0.36796 24.203 0.358699 24.29 0.394072 24.7899C0.417538 25.1225 0.408625 25.3829 0.373809 25.3829C0.270196 25.3829 0.212262 25.8204 0.308007 25.8797C0.371581 25.9191 0.360509 25.9685 0.264417 26.0748C0.157113 26.1936 0.150777 26.2355 0.226258 26.3266C0.291016 26.4047 0.330846 26.4128 0.366428 26.3553C0.402358 26.2971 0.429236 26.2962 0.463704 26.352C0.510567 26.428 0.422064 26.4587 0.232525 26.4322C0.172015 26.4237 0.151403 26.4588 0.177307 26.5263C0.199937 26.5856 0.190537 26.6513 0.156347 26.6725C0.122158 26.6936 0.0968118 26.7652 0.100084 26.8316C0.103288 26.898 0.0862277 27.0676 0.0620653 27.2084C0.0338642 27.3728 0.0536397 27.5329 0.117353 27.6559C0.175218 27.7675 0.19945 27.9326 0.175636 28.052C0.148479 28.1881 0.167349 28.2779 0.231898 28.3196C0.313925 28.3725 0.314204 28.3919 0.233639 28.4439C0.155164 28.4946 0.158506 28.5168 0.252718 28.5696C0.325902 28.6107 0.38307 28.7684 0.411341 29.0072C0.442815 29.2734 0.433205 29.3668 0.377917 29.3326C0.335233 29.3062 0.317964 29.2385 0.33955 29.1822C0.387039 29.0581 0.152796 29.0401 0.0344212 29.1587C-0.0242092 29.2174 -0.00965603 29.3022 0.0913109 29.49C0.175148 29.6461 0.212053 29.8114 0.187891 29.9232C0.162545 30.0402 0.186637 30.1354 0.256339 30.1933C0.315457 30.2424 0.363852 30.3594 0.363852 30.4532C0.363852 30.547 0.445879 30.7314 0.546219 30.8632C0.646489 30.9949 0.693491 31.1026 0.650667 31.1026C0.607774 31.1026 0.572749 31.1531 0.572749 31.2147C0.572749 31.2839 0.611325 31.312 0.673646 31.288C0.744532 31.2608 0.761731 31.2827 0.731441 31.3618C0.702752 31.4367 0.715565 31.4575 0.769808 31.4239C0.870009 31.3618 0.870288 31.3759 0.774891 31.6501C0.70881 31.8399 0.72204 31.9098 0.872934 32.1676C0.968817 32.3315 1.22249 32.6624 1.43668 32.9028C1.85217 33.3693 1.88567 33.423 1.72168 33.36C1.66027 33.3363 1.61765 33.3588 1.61828 33.4145C1.61981 33.5491 1.70128 33.6513 1.85148 33.7069C1.94639 33.742 1.97208 33.8032 1.94715 33.934C1.9255 34.0474 1.94813 34.1265 2.00885 34.1499C2.06156 34.1701 2.10466 34.2357 2.10466 34.2955C2.10466 34.3553 2.12297 34.386 2.14526 34.3636C2.18397 34.3249 2.45282 34.5528 2.45282 34.6244C2.45282 34.7182 2.70802 34.9391 2.81644 34.9391C2.88454 34.9391 2.94025 34.9861 2.94025 35.0437C2.94025 35.1896 3.13194 35.1751 3.1708 35.0263C3.19608 34.9293 3.20429 34.9347 3.2107 35.0526C3.21516 35.1342 3.17101 35.2407 3.11266 35.2892C2.98871 35.3923 3.02339 35.4451 3.23632 35.4776C3.41709 35.5053 3.53094 35.6735 3.53163 35.9141C3.53198 36.0304 3.57717 36.0958 3.66965 36.1141C3.74527 36.129 3.84616 36.1924 3.89372 36.2551C3.94135 36.3177 3.98132 36.3332 3.9825 36.2893C3.98376 36.2454 4.02818 36.1929 4.08131 36.1724C4.14906 36.1464 4.16738 36.1754 4.1428 36.2696C4.11592 36.3726 4.14405 36.4039 4.26326 36.4039C4.39111 36.4039 4.4129 36.4346 4.38588 36.5762C4.36778 36.6709 4.3801 36.7317 4.41318 36.7111C4.54207 36.6314 4.75069 36.7642 4.75069 36.9261C4.75069 37.0388 4.82826 37.138 4.99865 37.2436C5.16124 37.3442 5.23289 37.4329 5.20678 37.5012C5.179 37.5736 5.19933 37.5928 5.2737 37.5642C5.33358 37.5411 5.44339 37.5861 5.52361 37.6664C5.60382 37.7468 5.71363 37.7917 5.77352 37.7687C5.85102 37.7389 5.86829 37.759 5.83646 37.842C5.79984 37.9376 5.82769 37.9494 6.0063 37.9136C6.12377 37.89 6.20475 37.8953 6.18623 37.9254C6.1677 37.9554 6.18128 38.0256 6.21652 38.0813C6.26958 38.1653 6.28065 38.1618 6.28155 38.0605C6.28323 37.8696 6.48544 37.9174 6.57673 38.1303C6.68793 38.3897 6.6999 38.4008 6.76083 38.3021C6.8329 38.1853 7.11819 38.4986 7.11819 38.6945C7.11819 38.7602 7.42694 38.915 7.55791 38.915C7.60471 38.915 7.69237 38.8335 7.75268 38.7339L7.86235 38.5529L7.8558 38.856C7.84974 39.1394 7.86228 39.1606 8.0482 39.1819C8.17569 39.1965 8.23063 39.178 8.20125 39.1304C8.17319 39.0849 8.19728 39.0722 8.2635 39.0976C8.32296 39.1205 8.37157 39.1808 8.37157 39.2317C8.37157 39.2825 8.43424 39.344 8.51083 39.3684C8.58743 39.3927 8.6501 39.4419 8.6501 39.4777C8.6501 39.5135 8.74946 39.5428 8.8709 39.5428C8.99234 39.5428 9.15096 39.5965 9.22331 39.6621C9.33047 39.7592 9.36564 39.764 9.41285 39.6875C9.48568 39.5694 9.83385 39.6447 9.83385 39.7785C9.83385 39.8745 10.2374 39.882 10.3878 39.7889C10.4278 39.764 10.4605 39.7928 10.4605 39.8525C10.4605 39.9817 10.5758 39.9983 10.6169 39.8751C10.6351 39.8203 10.7113 39.8598 10.8256 39.9834C10.9246 40.0904 11.0945 40.1884 11.2031 40.2012C11.3117 40.2139 11.4006 40.2318 11.4006 40.2409C11.4006 40.2499 11.5494 40.2653 11.7313 40.2748C11.9133 40.2845 12.0621 40.2705 12.0621 40.2438C12.0621 40.2171 12.2045 40.193 12.3787 40.1903C12.6603 40.1858 12.6815 40.1958 12.5702 40.2803C12.4575 40.3659 12.4715 40.3756 12.7108 40.3776C12.8569 40.3788 13.0371 40.4123 13.1112 40.452C13.2118 40.506 13.2461 40.5015 13.2469 40.4346C13.2477 40.3663 13.2625 40.3679 13.3088 40.4411C13.3422 40.4939 13.4028 40.5166 13.4434 40.4914C13.4841 40.4662 13.5514 40.5093 13.5929 40.5871C13.6879 40.7649 13.8057 40.7665 13.9921 40.5924C14.1371 40.4572 14.1391 40.4573 14.319 40.6244C14.4971 40.7897 14.5794 40.823 14.7688 40.8066C14.8422 40.8003 14.8458 40.7759 14.7845 40.7019C14.7225 40.627 14.7306 40.5954 14.8208 40.5607C14.8846 40.5361 14.9534 40.5325 14.9734 40.5525C14.9935 40.5726 14.9742 40.5891 14.9308 40.5891C14.8873 40.5891 14.8685 40.6329 14.8891 40.6864C14.9348 40.806 15.2647 40.8802 15.2662 40.7712C15.2668 40.7247 15.2904 40.7301 15.3248 40.7846C15.3565 40.8345 15.4108 40.8701 15.4457 40.8635C15.4804 40.8569 15.5324 40.8592 15.5611 40.8686C15.5898 40.8779 15.6369 40.8922 15.6656 40.9002C15.6942 40.9084 15.7779 40.9413 15.8513 40.9733C15.9407 41.0123 16.0553 40.9911 16.1976 40.9092C16.3245 40.8364 16.4199 40.8158 16.4341 40.8585C16.4472 40.8978 16.5029 40.9127 16.5579 40.8916C16.6128 40.8705 16.6578 40.8814 16.6578 40.9159C16.6578 40.9649 18.1145 40.9925 18.3464 40.9479C18.4518 40.9276 18.3946 40.8064 18.2594 40.7635C18.0704 40.7034 18.0826 40.5886 18.2768 40.5993C18.363 40.6041 18.4961 40.5819 18.5727 40.5501C18.7026 40.4961 18.7042 40.5001 18.5963 40.6092C18.5327 40.6735 18.4965 40.7866 18.5157 40.8606C18.546 40.9764 18.6175 40.9957 19.0318 40.9996C19.426 41.0033 19.5127 40.9842 19.5127 40.8936C19.5127 40.8078 19.5554 40.7941 19.7042 40.8323C19.8095 40.8593 20.0919 40.8961 20.3316 40.9141C20.7017 40.9419 20.7961 40.9243 20.9566 40.7978C21.0668 40.711 21.1561 40.68 21.1706 40.7236C21.2084 40.8368 21.7359 40.8134 21.856 40.6931C21.9138 40.6352 21.9977 40.6108 22.0426 40.6388C22.1762 40.7225 22.3225 40.7254 22.4177 40.6462C22.467 40.6052 22.5933 40.5889 22.6986 40.6099C22.8966 40.6494 23.1336 40.5294 23.1336 40.3896C23.1336 40.3458 23.1842 40.3101 23.2462 40.3101C23.3245 40.3101 23.3477 40.3525 23.3223 40.4496C23.2757 40.6284 23.5166 40.6422 23.705 40.4715C23.794 40.3908 23.9338 40.3592 24.1516 40.3704C24.3328 40.3798 24.5158 40.3479 24.5784 40.2962C24.6653 40.2244 24.6943 40.2236 24.7175 40.2926C24.7532 40.399 25.0574 40.4086 25.1211 40.3053C25.1463 40.2643 25.2073 40.2462 25.2564 40.2651C25.3057 40.284 25.408 40.2559 25.484 40.2026C25.56 40.1494 25.6402 40.1239 25.6624 40.1461C25.6845 40.1683 25.814 40.1175 25.95 40.0334C26.0861 39.9491 26.1974 39.9084 26.1974 39.9429C26.1974 40.0225 26.7221 39.9836 26.8943 39.8913C26.9656 39.853 27.0965 39.8216 27.1851 39.8214C27.2738 39.8211 27.4345 39.7748 27.5423 39.7186C27.6501 39.6622 27.8941 39.5954 28.0845 39.5701C28.3212 39.5387 28.4631 39.478 28.5327 39.3784C28.5931 39.292 28.6346 39.2712 28.6346 39.3271C28.6346 39.4396 29.1167 39.3852 29.1914 39.2643C29.2165 39.2234 29.3444 39.1771 29.4755 39.1612C29.9109 39.1084 30.1308 39.0395 30.219 38.9281C30.2867 38.8425 30.3249 38.8365 30.3896 38.9013C30.5192 39.0312 30.7326 39 30.773 38.8452C30.7959 38.7576 30.868 38.7057 30.9669 38.7057C31.0535 38.7057 31.23 38.6627 31.3591 38.6102C31.4883 38.5576 31.6351 38.5295 31.6854 38.5477C31.7357 38.5659 31.8239 38.5226 31.8812 38.4514C31.9562 38.3586 31.9959 38.3468 32.0219 38.4093C32.0733 38.5329 32.1241 38.5195 32.3534 38.322C32.4646 38.2261 32.6134 38.1477 32.6841 38.1477C32.7547 38.1477 32.8125 38.1006 32.8125 38.0431C32.8125 37.9654 32.894 37.9385 33.1288 37.9385C33.4074 37.9385 34.0017 37.7258 34.5001 37.4479C34.5666 37.4108 34.6636 37.3804 34.7156 37.3804C34.7677 37.3804 34.868 37.3165 34.9385 37.2385C35.0091 37.1604 35.1079 37.1123 35.1582 37.1316C35.2085 37.1509 35.2496 37.1242 35.2496 37.0721C35.2496 37.0189 35.3579 36.9571 35.497 36.9309C35.633 36.9054 35.761 36.8411 35.7813 36.7881C35.8016 36.7351 35.8626 36.7088 35.9169 36.7296C35.9712 36.7505 36.0156 36.7328 36.0156 36.6904C36.0156 36.6479 36.0705 36.6106 36.1375 36.6076C36.2102 36.6044 36.2243 36.588 36.1723 36.567C36.1244 36.5476 36.0852 36.4873 36.0852 36.433C36.0852 36.3098 36.4097 36.2995 36.4523 36.4213C36.4745 36.4852 36.5194 36.4759 36.6202 36.3864C36.6958 36.3193 36.8082 36.2644 36.87 36.2644C36.9317 36.2644 37.0016 36.233 37.0253 36.1946C37.0489 36.1563 37.1482 36.1249 37.2457 36.1249C37.3748 36.1249 37.4122 36.0963 37.383 36.0202C37.3532 35.9423 37.3936 35.9156 37.5412 35.9156C37.6501 35.9156 37.7783 35.8685 37.826 35.811C37.8737 35.7534 37.9752 35.7063 38.0516 35.7063C38.152 35.7063 38.1812 35.6709 38.1571 35.5784C38.1296 35.4735 38.2112 35.4202 38.6109 35.282C38.9582 35.1619 39.1847 35.0282 39.3989 34.817C39.5643 34.654 39.7442 34.5205 39.7987 34.5205C39.8533 34.5205 39.9369 34.4735 39.9846 34.4159C40.0323 34.3584 40.1081 34.3113 40.1531 34.3113C40.1981 34.3113 40.3118 34.2184 40.4057 34.105C40.4996 33.9915 40.6437 33.8974 40.7258 33.8957C40.808 33.8941 40.9758 33.7986 41.0988 33.6835C41.2217 33.5684 41.3368 33.4742 41.3544 33.4742C41.446 33.4742 41.8647 33.0954 41.8647 33.0125C41.8647 32.9596 41.9102 32.9162 41.9657 32.9162C42.0212 32.9162 42.0917 32.8737 42.1224 32.8216C42.153 32.7696 42.3034 32.6683 42.4566 32.5965C42.7533 32.4573 43.0787 32.122 43.0904 31.9432C43.0943 31.8837 43.1021 31.763 43.1078 31.675C43.117 31.5321 43.1434 31.5196 43.3526 31.5589C43.5566 31.5973 43.6178 31.5717 43.8226 31.362C43.9521 31.2294 44.1287 31.0991 44.2148 31.0722C44.3009 31.0454 44.3715 30.9838 44.3715 30.9352C44.3715 30.8867 44.4946 30.7479 44.6451 30.6267C44.7956 30.5055 44.9387 30.3434 44.9631 30.2662C44.9876 30.1891 45.0461 30.1261 45.0933 30.1261C45.1405 30.1261 45.2188 30.0162 45.2672 29.882C45.3157 29.7477 45.3832 29.6378 45.4173 29.6378C45.4856 29.6378 45.8244 29.3158 45.8411 29.2351C45.8723 29.0836 45.9298 29.011 46.0491 28.9731C46.1222 28.9499 46.1819 28.8843 46.1819 28.8275C46.1819 28.7039 46.6141 28.2428 46.7299 28.2428C46.7817 28.2428 46.7955 28.18 46.7681 28.0705C46.7202 27.8795 46.8397 27.7158 47.0573 27.6739C47.1585 27.6544 47.1933 27.5862 47.1988 27.3973C47.2078 27.082 47.2875 26.9313 47.3733 27.0669C47.4171 27.1361 47.4335 27.1192 47.4343 27.0046C47.4348 26.9183 47.4666 26.8477 47.5049 26.8477C47.5432 26.8477 47.5746 26.8076 47.5746 26.7585C47.5746 26.7095 47.6366 26.6162 47.7124 26.5512C47.7882 26.4862 47.8348 26.3927 47.8158 26.3434C47.797 26.2941 47.8525 26.2226 47.9392 26.1845C48.0675 26.1282 48.1009 26.0504 48.1187 25.767C48.1308 25.5755 48.1893 25.3649 48.2488 25.299C48.3183 25.2221 48.3414 25.1168 48.3134 25.0048C48.2808 24.8752 48.304 24.812 48.4033 24.7588C48.496 24.7091 48.5248 24.6409 48.4973 24.5359C48.4702 24.432 48.4831 24.4002 48.5384 24.4344C48.5863 24.4641 48.619 24.4402 48.619 24.3756C48.619 24.3158 48.6494 24.2668 48.6865 24.2668C48.7236 24.2668 48.7369 24.2222 48.7159 24.1676C48.695 24.113 48.743 24.0032 48.8226 23.9234C48.9155 23.8303 48.9672 23.6886 48.9672 23.5269C48.9672 23.3231 48.9887 23.2837 49.0806 23.3189C49.1754 23.3554 49.1869 23.3268 49.1507 23.1454C49.1146 22.9644 49.1315 22.9219 49.2524 22.8902C49.3691 22.8596 49.3888 22.8166 49.3527 22.6702C49.328 22.57 49.3078 22.4315 49.3076 22.3623C49.3074 22.2931 49.2621 22.2191 49.2069 22.1979C49.0741 22.1469 49.0781 22.0347 49.2127 22.0347C49.3652 22.0347 49.473 21.7136 49.3739 21.5545C49.3106 21.4531 49.3273 21.3698 49.4572 21.1383C49.5465 20.9791 49.6417 20.8489 49.6688 20.8489C49.6958 20.8489 49.7304 20.7413 49.7458 20.6097C49.7619 20.472 49.746 20.3876 49.7085 20.4108C49.6698 20.4347 49.6628 20.369 49.6914 20.249C49.7178 20.1377 49.7458 19.886 49.7537 19.6896C49.7647 19.4143 49.7905 19.3411 49.8664 19.3701C49.9331 19.3956 49.9471 19.3789 49.9098 19.3184C49.879 19.2686 49.8886 19.2079 49.9315 19.1814C49.9869 19.1471 49.9877 19.0588 49.9345 18.8656C49.8784 18.6622 49.8813 18.5847 49.9463 18.5445C50.0657 18.4705 49.9668 18.2436 49.8371 18.2935C49.7214 18.3379 49.6934 18.2311 49.803 18.1633C49.848 18.1354 49.8493 18.0761 49.8066 17.9962C49.7431 17.8774 49.7614 17.4492 49.8331 17.3774C49.852 17.3585 49.8369 17.2856 49.7995 17.2155C49.7463 17.116 49.7628 17.0712 49.8749 17.0112C49.9806 16.9545 50.0059 16.8948 49.971 16.7847C49.9449 16.7024 49.9159 16.5553 49.9063 16.4576C49.8968 16.3599 49.8706 16.233 49.8481 16.1754C49.8256 16.1179 49.8112 16.0237 49.816 15.9662C49.8343 15.7481 49.8004 15.6107 49.738 15.6493C49.7023 15.6714 49.6548 15.6597 49.6324 15.6234C49.61 15.587 49.6235 15.5376 49.6624 15.5135C49.7755 15.4435 49.7441 15.3193 49.6249 15.3651C49.5301 15.4015 49.5225 15.3369 49.5635 14.8494C49.598 14.4396 49.5886 14.2921 49.5279 14.2921C49.4776 14.2921 49.4622 14.2388 49.4884 14.1559C49.5121 14.0809 49.4854 13.8639 49.429 13.6737C49.3726 13.4834 49.3449 13.3093 49.3673 13.2868C49.3898 13.2642 49.3683 13.2458 49.3195 13.2458C49.2702 13.2458 49.2482 13.2004 49.27 13.1434C49.318 13.0183 49.2026 12.9305 49.1519 13.0536C49.1321 13.1018 49.1334 13.0391 49.1547 12.9145C49.1843 12.7414 49.1686 12.6878 49.0881 12.6878C49.0221 12.6878 48.9651 12.5933 48.9354 12.4351C48.8759 12.1173 48.7556 11.9208 48.6197 11.9195C48.5335 11.9185 48.5318 11.9075 48.6098 11.8579C48.6874 11.8087 48.6782 11.7606 48.56 11.5974C48.4802 11.4874 48.382 11.2463 48.3417 11.0618C48.3014 10.8772 48.2063 10.6594 48.1304 10.5778C48.0545 10.4961 47.9924 10.3735 47.9924 10.3052C47.9924 10.2235 47.9566 10.1948 47.8879 10.2212C47.809 10.2515 47.7835 10.2088 47.7835 10.0468C47.7835 9.87492 47.7603 9.84116 47.6669 9.87708C47.5786 9.91105 47.5612 9.89361 47.5951 9.80517C47.6197 9.74092 47.6094 9.6884 47.5724 9.6884C47.5353 9.6884 47.5049 9.64132 47.5049 9.58377C47.5049 9.52622 47.5353 9.47914 47.5724 9.47914C47.6094 9.47914 47.6218 9.43206 47.5998 9.37451C47.5777 9.31696 47.516 9.26988 47.4627 9.26988C47.4093 9.26988 47.3657 9.2228 47.3657 9.16525C47.3657 9.1077 47.3187 9.06062 47.2612 9.06062C47.2038 9.06062 47.1568 9.01354 47.1568 8.95599C47.1568 8.89844 47.1019 8.79556 47.0349 8.72734C46.8516 8.54082 46.5301 8.02988 46.5301 7.92511C46.5301 7.79369 46.3846 7.66556 46.2355 7.66556C46.1653 7.66556 46.0899 7.61847 46.0679 7.56093C46.0458 7.50338 45.9909 7.4563 45.9459 7.4563C45.901 7.4563 45.8225 7.31505 45.7716 7.14241C45.7122 6.94089 45.6382 6.82663 45.565 6.82315C45.3894 6.81499 45.1981 6.77306 45.1594 6.73428C45.1403 6.7151 45.0837 6.58013 45.0336 6.43434C44.9635 6.23003 44.9053 6.16886 44.7799 6.16754C44.6541 6.16628 44.6089 6.11829 44.5807 5.9566C44.5529 5.79715 44.5029 5.74288 44.3708 5.72872C43.4575 5.63051 43.4663 5.63267 43.5674 5.53146C43.6212 5.47754 43.6978 5.43345 43.7376 5.43345C43.7774 5.43345 43.792 5.38637 43.77 5.32882C43.7438 5.2606 43.6355 5.22419 43.4588 5.22419C43.2312 5.22419 43.1877 5.20104 43.1877 5.08001C43.1877 4.9675 43.1571 4.94553 43.0485 4.98006C42.9556 5.00956 42.9092 4.99261 42.9092 4.929C42.9092 4.83846 42.4505 4.62027 42.3301 4.65354C42.2988 4.66219 42.279 4.61364 42.2859 4.54563C42.2929 4.47762 42.2949 4.38618 42.2905 4.34237C42.2822 4.25951 41.9639 4.14448 41.8125 4.16959C41.7647 4.17755 41.725 4.12767 41.7244 4.0589C41.7235 3.95238 41.7131 3.94931 41.6548 4.03839C41.5938 4.13137 41.5783 4.13137 41.5152 4.03839C41.4537 3.94771 41.4305 3.95183 41.3411 4.06915C41.2185 4.23021 41.2031 4.1622 41.3199 3.97498C41.3854 3.86973 41.3795 3.82139 41.29 3.73175C41.2286 3.67023 41.1481 3.61987 41.1111 3.61987C41.0742 3.61987 41.026 3.57279 41.0039 3.51524C40.9819 3.45769 40.8906 3.41061 40.8009 3.41061C40.7113 3.41061 40.5771 3.3645 40.5028 3.30821C40.4285 3.25185 40.2884 3.20477 40.1916 3.20358C40.0948 3.20233 39.9604 3.13683 39.893 3.05794C39.7991 2.94808 39.7163 2.92317 39.5385 2.95149C39.3631 2.9794 39.2757 2.95421 39.1798 2.84812C39.0823 2.74014 39.0042 2.71852 38.8413 2.75437C38.6513 2.79622 38.6392 2.78932 38.7237 2.68727C38.8065 2.58745 38.7972 2.57357 38.6485 2.57357C38.5552 2.57357 38.4155 2.51435 38.338 2.44202C38.2296 2.34087 38.1056 2.3136 37.8004 2.32385C37.5105 2.33362 37.4126 2.31409 37.4367 2.25124C37.4548 2.20395 37.4323 2.13461 37.3867 2.09723C37.2718 2.00292 36.7043 1.84849 36.5497 1.86941C36.4797 1.8789 36.3131 1.83475 36.1796 1.77127C36.046 1.70779 35.8527 1.64139 35.7499 1.62374C35.4421 1.57073 35.2873 1.5129 35.2336 1.43066C35.1978 1.37591 35.1176 1.38972 34.963 1.47712C34.8422 1.54548 34.7267 1.58468 34.7064 1.56431C34.686 1.54394 34.706 1.52727 34.7506 1.52727C34.7953 1.52727 34.8318 1.49588 34.8318 1.45752C34.8318 1.41916 34.7525 1.38777 34.6555 1.38777C34.5585 1.38777 34.3632 1.33922 34.2215 1.27986C34.0797 1.2205 33.8848 1.16051 33.7885 1.14642C33.6921 1.1324 33.4321 1.08497 33.2106 1.04109C32.9891 0.997218 32.7423 0.982152 32.6622 1.00761C32.58 1.03377 32.4955 1.01968 32.468 0.975246C32.4414 0.931999 32.2602 0.885195 32.0654 0.871314C31.8707 0.857363 31.6702 0.820464 31.6198 0.789354C31.5695 0.758174 31.4403 0.73941 31.3326 0.747572C31.225 0.755802 31.075 0.729296 30.9992 0.6887C30.9235 0.648103 30.6033 0.603182 30.2877 0.588953C29.9721 0.574653 29.6243 0.528337 29.5149 0.485997C29.3477 0.421266 27.7159 0.321798 27.0898 0.33812C26.987 0.340771 26.8844 0.31287 26.8617 0.27611C26.839 0.23935 26.6345 0.210123 26.4074 0.211239C26.1802 0.212355 25.9289 0.192406 25.8489 0.166946C25.7688 0.141486 25.6585 0.157948 25.6037 0.203497C25.5281 0.266344 25.4492 0.267251 25.277 0.207124C25.1252 0.154111 25.0421 0.151461 25.0262 0.199242C25.0109 0.245139 24.9592 0.247371 24.8813 0.205589C24.8146 0.169875 24.4489 0.136813 24.0687 0.132069C23.1214 0.120421 23.1479 0.116863 23.1588 0.254277C23.1704 0.401107 22.9317 0.385762 22.8126 0.232026C22.7598 0.163807 22.5934 0.132209 22.2869 0.132209C22.0309 0.132209 21.8026 0.0962859 21.7549 0.0485049C21.6905 -0.0160168 21.6713 -0.0161563 21.6713 0.0480167C21.6713 0.099355 21.5713 0.127535 21.4102 0.121606C21.2666 0.116375 21.0513 0.133883 20.9316 0.160598C20.7667 0.197428 20.7039 0.182571 20.672 0.099355C20.6375 0.00902462 20.606 0.00456037 20.4946 0.0742438C20.393 0.137789 20.2976 0.140021 20.1126 0.0831027C19.917 0.0229754 19.8493 0.0273001 19.7858 0.103889ZM23.9692 0.934371C23.9692 0.991917 23.9184 1.039 23.8563 1.039C23.7637 1.039 23.7589 1.0201 23.8299 0.934371C23.8776 0.876824 23.9285 0.829741 23.9429 0.829741C23.9574 0.829741 23.9692 0.876824 23.9692 0.934371ZM13.5023 1.47063C13.4801 1.52623 13.4636 1.5097 13.4602 1.42843C13.4572 1.35491 13.4737 1.31376 13.4968 1.33692C13.5199 1.36007 13.5224 1.42027 13.5023 1.47063ZM11.1456 1.47412C11.1931 1.52169 11.2828 1.56089 11.345 1.56131C11.515 1.56257 11.5334 1.71812 11.3696 1.77022C11.1734 1.83258 11.1902 1.91747 11.4216 2.03305C11.5834 2.11397 11.6314 2.1148 11.7028 2.03822C11.7542 1.98311 11.7598 1.94579 11.7166 1.94579C11.6769 1.94579 11.6443 1.91078 11.6443 1.86788C11.6443 1.82505 11.7042 1.80573 11.7776 1.82491C11.8672 1.84842 11.9218 1.81766 11.9445 1.73102C11.9836 1.58084 11.8222 1.4082 11.7508 1.52385C11.726 1.5641 11.7407 1.59703 11.7836 1.59703C11.8264 1.59703 11.842 1.62842 11.8184 1.66678C11.7391 1.79526 11.6443 1.73828 11.6443 1.56215C11.6443 1.40381 11.6173 1.38777 11.3518 1.38777C11.1193 1.38777 11.0771 1.40548 11.1456 1.47412ZM13.1066 1.6319C13.1066 1.75355 13.0697 1.80461 12.9847 1.80078C12.9119 1.7975 12.8979 1.7811 12.9499 1.76011C12.9978 1.74072 13.0369 1.66476 13.0369 1.59124C13.0369 1.51765 13.0526 1.45752 13.0717 1.45752C13.0909 1.45752 13.1066 1.53599 13.1066 1.6319ZM41.238 3.89477C41.238 3.9309 41.2067 3.9798 41.1684 4.00351C41.1301 4.02723 41.0988 3.99765 41.0988 3.93787C41.0988 3.8781 41.1301 3.82913 41.1684 3.82913C41.2067 3.82913 41.238 3.85863 41.238 3.89477ZM43.1181 5.15856C43.1181 5.23752 43.0882 5.28362 43.0515 5.26095C43.0149 5.23828 43.0026 5.17362 43.0242 5.11733C43.0794 4.97315 43.1181 4.9901 43.1181 5.15856ZM44.7672 6.42311C44.745 6.47871 44.7285 6.46217 44.7251 6.38091C44.7221 6.30739 44.7386 6.26624 44.7617 6.28939C44.7848 6.31255 44.7873 6.37275 44.7672 6.42311ZM20.075 7.75275C20.0993 7.93976 20.0667 8.08408 20.0002 8.08408C19.9619 8.08408 19.9305 8.04034 19.9305 7.98691C19.9305 7.93348 19.8861 7.87265 19.8319 7.8518C19.7125 7.8059 19.6247 7.99102 19.7429 8.03915C19.8047 8.06434 19.8037 8.07445 19.739 8.07857C19.6912 8.08156 19.652 8.13116 19.652 8.18871C19.652 8.24625 19.6207 8.29333 19.5824 8.29333C19.5441 8.29333 19.5127 8.24625 19.5127 8.18871C19.5127 8.13116 19.4667 8.08408 19.4104 8.08408C19.3515 8.08408 19.324 8.04278 19.3456 7.98649C19.4013 7.84119 19.2609 7.78825 19.1403 7.90906C19.0826 7.96696 18.9704 8.01432 18.891 8.01432C18.7881 8.01432 18.7465 8.05938 18.7457 8.17127C18.7449 8.29522 18.731 8.30666 18.6799 8.2256C18.5923 8.08701 18.5061 8.18557 18.5775 8.34265C18.6088 8.41143 18.637 8.49911 18.6402 8.53747C18.6434 8.57584 18.6719 8.64852 18.7034 8.69909C18.8149 8.87759 18.6767 8.86998 18.4946 8.68758C18.3037 8.49632 18.1201 8.444 18.1201 8.58086C18.1201 8.63499 18.0878 8.63234 18.0156 8.57235C17.8599 8.44289 17.8891 8.31398 18.0853 8.26467C18.2706 8.21807 18.3263 8.08408 18.1603 8.08408C18.1059 8.08408 17.954 8.20963 17.8229 8.36309C17.6918 8.51655 17.5508 8.6421 17.5097 8.6421C17.4685 8.6421 17.4142 8.73627 17.389 8.85136C17.3507 9.0256 17.3091 9.06062 17.1397 9.06062C17.0278 9.06062 16.9363 9.09327 16.9363 9.13309C16.9363 9.17495 16.8954 9.16755 16.8396 9.11566C16.7295 9.01333 16.8294 8.91114 16.9822 8.96994C17.0336 8.98961 17.0756 8.97106 17.0756 8.92858C17.0756 8.8861 17.0409 8.85136 16.9985 8.85136C16.9554 8.85136 16.9401 8.79765 16.9638 8.72929C16.998 8.63115 16.9852 8.63457 16.899 8.74638C16.8068 8.8658 16.7822 8.87075 16.7258 8.78126C16.6674 8.68877 16.6589 8.68884 16.6506 8.78161C16.6455 8.83915 16.6435 8.90514 16.6461 8.92823C16.6488 8.95139 16.6588 9.10275 16.6683 9.26472L16.6857 9.55922L16.9327 9.51276C17.0686 9.48723 17.1954 9.44175 17.2147 9.41176C17.2339 9.38169 17.3459 9.33629 17.4635 9.31076C17.654 9.26932 17.6752 9.23982 17.6579 9.04039C17.6472 8.91721 17.6554 8.87264 17.676 8.94134C17.7091 9.05113 17.7396 9.04067 17.9301 8.85415C18.1702 8.61901 18.2594 8.58993 18.2594 8.74673C18.2594 8.80428 18.294 8.85136 18.3364 8.85136C18.3788 8.85136 18.3964 8.89607 18.3755 8.95069C18.3426 9.03656 18.3694 9.03656 18.5747 8.95069C18.8734 8.82562 18.9106 8.82632 18.8608 8.95599C18.8388 9.01354 18.8512 9.06062 18.8882 9.06062C18.9253 9.06062 18.9557 9.01354 18.9557 8.95599C18.9557 8.87564 19.0447 8.85136 19.3387 8.85136C19.5493 8.85136 19.7216 8.81997 19.7216 8.78161C19.7216 8.74324 19.8156 8.71185 19.9305 8.71185C20.0698 8.71185 20.1394 8.67698 20.1394 8.60722C20.1394 8.48634 20.249 8.46772 20.3164 8.57709C20.3417 8.61811 20.4054 8.63513 20.4578 8.61497C20.5103 8.59481 20.6011 8.62627 20.6597 8.68493C20.7526 8.77805 20.7661 8.7784 20.7661 8.68779C20.7661 8.54647 20.9186 8.50587 21.03 8.61748C21.0802 8.6677 21.1845 8.75322 21.262 8.80763C21.3395 8.86203 21.4104 8.94902 21.4196 9.00098C21.4629 9.24784 21.5505 9.40939 21.6412 9.40939C21.6961 9.40939 21.741 9.4488 21.741 9.497C21.741 9.5452 21.8341 9.6259 21.9481 9.6764C22.1281 9.7562 22.1826 9.75194 22.3659 9.64355C22.6027 9.50334 22.6186 9.46142 22.4789 9.34528C22.4252 9.30071 22.3609 9.18269 22.336 9.08308C22.2765 8.84592 21.9597 8.43284 21.8371 8.43284C21.7843 8.43284 21.741 8.38918 21.741 8.33574C21.741 8.28238 21.6662 8.21988 21.5748 8.19694C21.4835 8.17399 21.3347 8.07696 21.2441 7.98133C21.1536 7.8857 21.0168 7.80939 20.9402 7.81176C20.8636 7.81413 20.8401 7.83192 20.888 7.85124C21.0172 7.90348 20.9935 7.99326 20.8397 8.0335C20.7344 8.06106 20.6944 8.02395 20.66 7.86728C20.6203 7.6862 20.5876 7.66556 20.3398 7.66556C20.1593 7.66556 20.0676 7.69576 20.075 7.75275ZM20.5224 8.15383C20.5461 8.19219 20.5341 8.22358 20.4958 8.22358C20.4575 8.22358 20.4068 8.19219 20.3831 8.15383C20.3595 8.11546 20.3714 8.08408 20.4097 8.08408C20.448 8.08408 20.4987 8.11546 20.5224 8.15383ZM15.8751 8.95195C15.7701 9.00684 15.5821 9.06313 15.4573 9.07715L15.2304 9.10254L15.4741 9.22454C15.6977 9.3365 15.7014 9.34312 15.5196 9.30518C15.4069 9.28167 15.278 9.29994 15.2207 9.34766C15.1444 9.41106 15.1004 9.41176 15.0394 9.35065C14.926 9.23703 14.8442 9.25021 14.8918 9.37451C14.9139 9.43206 14.9789 9.47914 15.0364 9.47914C15.1006 9.47914 15.1253 9.51946 15.1007 9.58377C15.0755 9.64962 15.1015 9.6884 15.1708 9.6884C15.2536 9.6884 15.2734 9.74037 15.2503 9.89766C15.2153 10.1367 15.2466 10.159 15.3736 9.98506C15.436 9.89954 15.4409 9.83711 15.3902 9.7758C15.3351 9.7094 15.3634 9.6884 15.5078 9.6884C15.6376 9.6884 15.6866 9.7179 15.6622 9.78138C15.6201 9.89145 15.8164 9.9107 15.9449 9.80914C16.0127 9.75557 16.0141 9.71693 15.9509 9.64076C15.8868 9.56347 15.8942 9.5166 15.9849 9.42585C16.0586 9.35198 16.1008 9.34061 16.1008 9.39446C16.1008 9.44105 16.1624 9.47914 16.2379 9.47914C16.3311 9.47914 16.3621 9.44566 16.3349 9.37451C16.3125 9.31613 16.209 9.26988 16.1008 9.26988C15.9925 9.26988 15.889 9.22363 15.8667 9.16525C15.8429 9.10331 15.866 9.06062 15.9231 9.06062C15.9761 9.06062 16.0353 9.09989 16.0547 9.14781C16.0739 9.1958 16.0923 9.14865 16.0953 9.04318C16.1017 8.819 16.1172 8.82541 15.8751 8.95195ZM16.24 9.06062C16.1773 9.10122 16.1686 9.12863 16.2185 9.12933C16.2641 9.12989 16.3208 9.09899 16.3445 9.06062C16.3979 8.97399 16.3738 8.97399 16.24 9.06062ZM14.4484 9.38518C14.3061 9.44419 14.2072 9.54373 14.1789 9.65638C14.1245 9.87366 14.2055 9.97725 14.299 9.80991C14.3363 9.74309 14.4358 9.68791 14.5201 9.68735C14.7268 9.68589 14.9068 9.5657 14.8056 9.49658C14.7635 9.46784 14.7165 9.41001 14.7011 9.36809C14.6817 9.31501 14.6052 9.32017 14.4484 9.38518ZM14.4296 10.0405C14.4296 10.0852 14.3826 10.1038 14.3251 10.0817C14.2677 10.0596 14.2207 10.0729 14.2207 10.1113C14.2207 10.1497 14.2657 10.1984 14.3207 10.2195C14.3767 10.2411 14.4028 10.3051 14.3798 10.3649C14.3457 10.4539 14.3634 10.4588 14.4841 10.394C14.564 10.3512 14.6881 10.3162 14.7598 10.3162C14.8316 10.3162 14.9512 10.2699 15.0256 10.2134C15.1495 10.1191 15.1331 10.113 14.8285 10.1394C14.6458 10.1551 14.5131 10.1407 14.5337 10.1074C14.5543 10.0741 14.5393 10.0271 14.5003 10.003C14.4614 9.97892 14.4296 9.9958 14.4296 10.0405ZM12.7757 10.3333C12.7916 10.3811 12.8491 10.4234 12.9034 10.4273C13.216 10.4498 13.2396 10.4605 13.2011 10.5611C13.171 10.6395 13.1924 10.6543 13.2843 10.619C13.3654 10.5878 13.3916 10.5979 13.3606 10.6483C13.3345 10.6905 13.349 10.7473 13.3928 10.7743C13.4416 10.8046 13.3882 10.859 13.2546 10.9153C13.1349 10.9657 13.0369 11.0399 13.0369 11.0801C13.0369 11.1829 13.1485 11.171 13.2632 11.0561C13.3165 11.0027 13.4171 10.9478 13.4866 10.9341C13.5562 10.9203 13.6402 10.8356 13.6733 10.7456C13.722 10.6137 13.7076 10.5755 13.5989 10.5469C13.5249 10.5275 13.4797 10.4718 13.4983 10.4231C13.5371 10.3218 13.3215 10.2488 12.9789 10.2474C12.8243 10.2468 12.7565 10.2754 12.7757 10.3333ZM13.9889 10.391C13.8373 10.5682 13.8681 10.6299 14.0439 10.5012C14.1134 10.4503 14.1578 10.3714 14.1427 10.3259C14.1253 10.2736 14.0687 10.2974 13.9889 10.391ZM12.3407 10.4556C12.2651 10.5025 12.2647 10.5512 12.3389 10.7305C12.3884 10.8503 12.4454 10.932 12.4655 10.9119C12.4854 10.8919 12.5435 10.9101 12.5944 10.9524C12.6453 10.9947 12.7367 11.0102 12.7975 10.9869C12.8981 10.9482 12.8982 10.9345 12.7984 10.8345C12.7381 10.7742 12.6888 10.6875 12.6888 10.6419C12.6888 10.519 12.4472 10.3897 12.3407 10.4556ZM11.4359 11.0817C11.3575 11.1314 11.3518 11.1671 11.4125 11.2279C11.5078 11.3234 11.6443 11.2565 11.6443 11.1142C11.6443 10.9982 11.5829 10.9886 11.4359 11.0817ZM12.3047 11.2977C12.2515 11.5403 12.3251 11.6811 12.385 11.4515C12.4089 11.36 12.4617 11.3169 12.5216 11.3399C12.6411 11.3858 12.6495 11.2813 12.5356 11.1672C12.4059 11.0373 12.3556 11.0657 12.3047 11.2977ZM9.96824 12.8796C9.97088 13.0043 9.94178 13.1063 9.90348 13.1063C9.86518 13.1063 9.83385 13.0749 9.83385 13.0366C9.83385 12.9982 9.78086 12.9668 9.7161 12.9668C9.6129 12.9668 9.61506 12.9533 9.73351 12.8578C9.82939 12.7805 9.84339 12.7382 9.78162 12.7125C9.73378 12.6925 9.69458 12.6343 9.69458 12.5832C9.69458 12.4446 9.86149 12.4132 9.91601 12.5415C9.94205 12.6028 9.96552 12.755 9.96824 12.8796ZM9.17234 12.9126C9.2121 12.9423 9.18968 12.9651 9.12012 12.9658C9.05236 12.9663 8.99826 12.9152 8.99826 12.8505C8.99826 12.7866 9.02179 12.7627 9.05048 12.7974C9.07917 12.8321 9.13404 12.884 9.17234 12.9126ZM8.16267 14.0172C8.16267 14.0533 8.13134 14.0829 8.09304 14.0829C8.05474 14.0829 8.02341 14.0339 8.02341 13.9741C8.02341 13.9143 8.05474 13.8848 8.09304 13.9085C8.13134 13.9322 8.16267 13.9811 8.16267 14.0172ZM8.62169 14.1177C8.52378 14.2674 8.52232 14.2921 8.61124 14.2921C8.70162 14.2921 8.85899 14.0956 8.85899 13.9828C8.85899 13.8836 8.72502 13.9597 8.62169 14.1177ZM7.71006 14.6409C7.68639 14.6792 7.71591 14.7106 7.77558 14.7106C7.83526 14.7106 7.88414 14.6792 7.88414 14.6409C7.88414 14.6025 7.85469 14.5711 7.81862 14.5711C7.78255 14.5711 7.73374 14.6025 7.71006 14.6409ZM7.95377 14.8153C7.86381 14.9112 7.80678 14.9896 7.82704 14.9896C7.84724 14.9896 7.94834 14.9112 8.05161 14.8153C8.15494 14.7194 8.21197 14.6409 8.17841 14.6409C8.14478 14.6409 8.04374 14.7194 7.95377 14.8153ZM48.2391 16.0311C48.217 16.0668 48.2308 16.1157 48.2698 16.1399C48.3087 16.1639 48.3405 16.1347 48.3405 16.0749C48.3405 15.9524 48.2987 15.9344 48.2391 16.0311ZM4.80145 17.1244C4.77833 17.1475 4.71824 17.15 4.66803 17.1299C4.61247 17.1076 4.62897 17.0911 4.71009 17.0878C4.78348 17.0848 4.82457 17.1012 4.80145 17.1244ZM4.20762 17.8709C4.11655 17.9731 4.11118 18.0222 4.17928 18.1315C4.28875 18.307 4.28909 18.3061 4.10749 18.3199C3.98431 18.3291 3.97338 18.3176 4.05527 18.265C4.14134 18.2095 4.14287 18.188 4.06418 18.1371C3.98592 18.0866 3.98487 18.0335 4.05792 17.831C4.12636 17.6415 4.16605 17.604 4.23311 17.6654C4.30191 17.7284 4.29661 17.771 4.20762 17.8709ZM3.98473 17.8495C3.98473 17.8879 3.9534 17.9193 3.9151 17.9193C3.8768 17.9193 3.84547 17.8879 3.84547 17.8495C3.84547 17.8112 3.8768 17.7798 3.9151 17.7798C3.9534 17.7798 3.98473 17.8112 3.98473 17.8495ZM2.52245 19.6241C2.52245 19.6411 2.49112 19.6743 2.45282 19.698C2.41452 19.7217 2.38319 19.7078 2.38319 19.6672C2.38319 19.6266 2.41452 19.5934 2.45282 19.5934C2.49112 19.5934 2.52245 19.6072 2.52245 19.6241ZM2.88454 20.8629C2.81957 20.9279 2.80098 20.9094 2.80098 20.7792C2.80098 20.6489 2.81957 20.6304 2.88454 20.6955C2.94951 20.7605 2.94951 20.7978 2.88454 20.8629ZM1.61723 22.8652C1.61723 22.9 1.55456 22.912 1.47797 22.892C1.40137 22.8719 1.3387 22.8434 1.3387 22.8287C1.3387 22.8141 1.40137 22.802 1.47797 22.802C1.55456 22.802 1.61723 22.8305 1.61723 22.8652ZM1.7565 23.2246C1.7565 23.3036 1.72656 23.3497 1.68993 23.327C1.6533 23.3044 1.64098 23.2397 1.66256 23.1834C1.71778 23.0392 1.7565 23.0562 1.7565 23.2246ZM43.1177 29.7572C43.0419 29.8758 43.0399 29.8756 43.078 29.7542C43.1001 29.6839 43.1206 29.5898 43.1236 29.5449C43.1276 29.4861 43.1386 29.4869 43.1634 29.548C43.1822 29.5945 43.1617 29.6887 43.1177 29.7572ZM40.6872 32.5859C40.6145 32.7775 40.4721 32.9037 40.4721 32.7765C40.4721 32.6949 40.7014 32.3582 40.7351 32.3902C40.7458 32.4003 40.7242 32.4884 40.6872 32.5859ZM36.8323 34.2837C36.8092 34.3068 36.7491 34.3093 36.6989 34.2892C36.6433 34.2669 36.6598 34.2504 36.741 34.247C36.8143 34.244 36.8554 34.2605 36.8323 34.2837ZM35.6674 35.6291C35.6674 35.6634 35.6204 35.7095 35.563 35.7316C35.4993 35.756 35.4585 35.7317 35.4585 35.6693C35.4585 35.6129 35.5055 35.5668 35.563 35.5668C35.6204 35.5668 35.6674 35.5949 35.6674 35.6291ZM36.4809 35.859C36.4587 35.9146 36.4422 35.898 36.4389 35.8168C36.4359 35.7432 36.4523 35.7021 36.4754 35.7253C36.4986 35.7484 36.5011 35.8086 36.4809 35.859ZM4.92477 35.8459C4.94844 35.8842 4.93459 35.9156 4.89406 35.9156C4.85353 35.9156 4.82032 35.8842 4.82032 35.8459C4.82032 35.8075 4.83411 35.7761 4.85103 35.7761C4.86795 35.7761 4.90109 35.8075 4.92477 35.8459ZM35.8444 36.3388C35.9158 36.4546 35.8517 36.4706 35.7518 36.362C35.7023 36.3083 35.6926 36.2644 35.7302 36.2644C35.7678 36.2644 35.8192 36.2979 35.8444 36.3388ZM4.08918 36.6131C4.11286 36.6515 4.146 36.6829 4.16292 36.6829C4.17984 36.6829 4.19363 36.6515 4.19363 36.6131C4.19363 36.5748 4.16041 36.5434 4.11989 36.5434C4.07936 36.5434 4.06551 36.5748 4.08918 36.6131ZM32.2206 37.4502C32.2443 37.4885 32.2148 37.5199 32.1551 37.5199C32.0954 37.5199 32.0466 37.4885 32.0466 37.4502C32.0466 37.4118 32.076 37.3804 32.1121 37.3804C32.1481 37.3804 32.197 37.4118 32.2206 37.4502ZM32.4992 38.078C32.5228 38.1163 32.4915 38.1477 32.4295 38.1477C32.3676 38.1477 32.3362 38.1163 32.3599 38.078C32.3836 38.0396 32.4149 38.0082 32.4295 38.0082C32.4442 38.0082 32.4755 38.0396 32.4992 38.078ZM29.8971 38.6598C29.8545 38.7113 29.8401 38.7741 29.8653 38.7993C29.8905 38.8246 29.8746 38.8452 29.8299 38.8452C29.7368 38.8452 29.7328 38.8283 29.791 38.6766C29.8142 38.6159 29.865 38.5662 29.9039 38.5662C29.9484 38.5662 29.9458 38.601 29.8971 38.6598ZM12.828 38.8452C12.828 38.8836 12.7967 38.915 12.7584 38.915C12.7201 38.915 12.6888 38.8836 12.6888 38.8452C12.6888 38.8069 12.7201 38.7755 12.7584 38.7755C12.7967 38.7755 12.828 38.8069 12.828 38.8452ZM24.2477 39.2638C24.2477 39.3021 24.2339 39.3335 24.217 39.3335C24.2001 39.3335 24.167 39.3021 24.1433 39.2638C24.1196 39.2254 24.1335 39.194 24.174 39.194C24.2145 39.194 24.2477 39.2254 24.2477 39.2638ZM14.1859 39.3335C14.2095 39.3719 14.1957 39.4033 14.1552 39.4033C14.1146 39.4033 14.0814 39.3719 14.0814 39.3335C14.0814 39.2952 14.0952 39.2638 14.1121 39.2638C14.129 39.2638 14.1622 39.2952 14.1859 39.3335ZM14.5863 39.3797C14.5384 39.3991 14.4601 39.3991 14.4122 39.3797C14.3643 39.3604 14.4035 39.3445 14.4992 39.3445C14.595 39.3445 14.6342 39.3604 14.5863 39.3797ZM24.1085 39.5702C24.1085 39.6236 24.065 39.684 24.0119 39.7045C23.9441 39.7306 23.9258 39.7015 23.9504 39.6073C23.9907 39.4529 24.1085 39.4252 24.1085 39.5702ZM15.6133 39.6823C15.6133 39.7206 15.582 39.752 15.5437 39.752C15.5054 39.752 15.4741 39.7206 15.4741 39.6823C15.4741 39.6439 15.5054 39.6125 15.5437 39.6125C15.582 39.6125 15.6133 39.6439 15.6133 39.6823ZM23.6141 40.0136C23.6671 40.1157 23.6704 40.1706 23.6235 40.1706C23.5839 40.1706 23.5514 40.1235 23.5514 40.0659C23.5514 40.0084 23.5182 39.9613 23.4777 39.9613C23.4371 39.9613 23.4246 39.9278 23.4498 39.8869C23.5025 39.8015 23.5048 39.8033 23.6141 40.0136ZM23.8299 39.8915C23.8299 39.9299 23.7967 39.9613 23.7562 39.9613C23.7157 39.9613 23.7018 39.9299 23.7255 39.8915C23.7492 39.8532 23.7823 39.8218 23.7992 39.8218C23.8162 39.8218 23.8299 39.8532 23.8299 39.8915ZM12.271 40.3101C12.271 40.3484 12.3023 40.3798 12.3406 40.3798C12.3789 40.3798 12.4102 40.3484 12.4102 40.3101C12.4102 40.2717 12.3789 40.2403 12.3406 40.2403C12.3023 40.2403 12.271 40.2717 12.271 40.3101ZM15.1955 40.4106C15.1955 40.4275 15.1642 40.4607 15.1259 40.4844C15.0876 40.5082 15.0563 40.4943 15.0563 40.4537C15.0563 40.4131 15.0876 40.3798 15.1259 40.3798C15.1642 40.3798 15.1955 40.3936 15.1955 40.4106ZM13.8725 40.5617C13.8725 40.5767 13.8255 40.5891 13.7681 40.5891C13.7106 40.5891 13.6636 40.5587 13.6636 40.5215C13.6636 40.4844 13.7106 40.472 13.7681 40.4941C13.8255 40.5162 13.8725 40.5466 13.8725 40.5617Z" fill="#DCA35B"/>
</g>
<defs>
<clipPath id="clip0">
<rect width="50" height="41" fill="white"/>
</clipPath>
</defs>
</svg>
