<svg width="16" height="14" viewBox="0 0 16 14" fill="none" xmlns="http://www.w3.org/2000/svg">
<path d="M5.83333 0.5H9.27777V2.04548H5.83333V0.5Z" fill="#2B2B2B" stroke="#DCA35B"/>
<path d="M5.83333 0.5H13.7636V2.10468H5.83333V0.5Z" fill="#2B2B2B" stroke="#DCA35B"/>
<path d="M9.77777 8.90912V7.63638H9.11111V6.36363H9.77777V5.09089H6.44444V3.81815H9.77777V2.54541H5.33333H4.44444L4.44441 11.4546H5.33333V8.90912H9.77777ZM6.44444 6.36363H7.77777V7.63638H6.44444V6.36363Z" fill="#DCA35B"/>
<path d="M16 2.54541H14.2222H9.77777V3.81815H13.1111V5.09089H9.77777V6.36363H10.4444V7.63638H9.77777V8.90912H14.2222V11.4546H16V2.54541ZM13.1111 7.63638H11.7778V6.36363H13.1111V7.63638Z" fill="#DCA35B"/>
<path d="M5.83333 11.4547V9.40918H9.27777V11.4547V13.5001H5.83333V11.4547Z" fill="#2B2B2B" stroke="#DCA35B"/>
<path d="M5.83333 11.4254V9.37988H13.7636V11.4254V13.4708H5.83333V11.4254Z" fill="#2B2B2B" stroke="#DCA35B"/>
<path d="M6.44444 5.0911H9.77778H13.1111V3.81836H9.77778H6.44444V5.0911Z" fill="#2B2B2B"/>
<path d="M9.11111 7.63651H9.77778H10.4444V6.36377H9.77778H9.11111V7.63651Z" fill="#2B2B2B"/>
<path d="M13.1111 6.36377H11.7778V7.63651H13.1111V6.36377Z" fill="#2B2B2B"/>
<path d="M7.77778 6.36377H6.44444V7.63651H7.77778V6.36377Z" fill="#2B2B2B"/>
<path d="M1.77778 0.4375C0.795956 0.4375 0 1.248 0 2.24787V11.7523C0 12.7521 0.795956 13.5626 1.77778 13.5626C2.7596 13.5626 3.55556 12.7521 3.55556 11.7523V2.24787C3.55556 1.248 2.7596 0.4375 1.77778 0.4375Z" fill="#DCA35B"/>
</svg>
