<svg width="16" height="12" viewBox="0 0 16 12" fill="none" xmlns="http://www.w3.org/2000/svg">
<path fill-rule="evenodd" clip-rule="evenodd" d="M14.0308 9.49038L10.24 6L14.0308 2.50962L13.5138 1.95433L8 7.03125L2.48615 1.95433L1.96923 2.50962L5.76 6L1.96923 9.49038L2.48615 10.0457L6.32 6.51562L8 8.0625L9.68 6.51562L13.5138 10.0457L14.0308 9.49038ZM1.2823 0.5C0.574106 0.5 0 1.11498 0 1.87092V10.1291C0 10.8862 0.569448 11.5 1.2823 11.5H14.7177C15.4259 11.5 16 10.885 16 10.1291V1.87092C16 1.11378 15.4306 0.5 14.7177 0.5H1.2823Z" fill="#DCA35B"/>
</svg>
