<svg width="28" height="24" viewBox="0 0 28 24" fill="none" xmlns="http://www.w3.org/2000/svg">
<g clip-path="url(#clip0)">
<path d="M5.08995 23.275C9.13516 23.6024 23.6419 24.1695 25.5751 21.9976C26.7492 20.6732 27.6348 7.53089 26.6068 3.73725C26.3379 2.73315 25.8963 0.722552 24.3269 0.273478C23.1942 -0.0467725 10.6438 -0.133457 7.702 0.274682C6.57908 0.429992 5.44155 0.641887 4.48287 1.11745C3.48235 1.60516 2.63904 2.35924 2.04761 3.29499C1.45619 4.23075 1.14008 5.31113 1.13477 6.41483C1.09462 13.169 1.3416 22.9728 5.08995 23.275Z" fill="#DCA35B"/>
<path d="M18.43 19.911H9.34924C7.46715 19.911 5.94275 18.4313 5.94275 16.6122V7.35618C5.94275 5.53701 7.47324 4.05615 9.35532 4.05615H18.43C20.3108 4.05615 21.8365 5.53701 21.8365 7.35618V16.6146C21.8425 18.4313 20.3121 19.911 18.43 19.911ZM9.34924 5.41782C8.2251 5.41782 7.31021 6.28587 7.31021 7.35618V16.6146C7.31021 17.6837 8.2251 18.5541 9.34924 18.5541H18.43C19.5541 18.5541 20.469 17.6837 20.469 16.6146V7.35618C20.4702 6.28587 19.5553 5.41782 18.43 5.41782H9.34924Z" fill="#191919"/>
<path d="M5.93308 7.19145C5.871 8.50981 5.90027 9.83083 6.02067 11.1452C6.02067 11.1705 6.06204 11.1717 6.06204 11.1452C6.06204 10.4855 6.01702 9.8269 5.99878 9.16834C5.98053 8.50978 5.96228 7.84399 5.94525 7.19145C5.94525 7.18423 5.93308 7.18423 5.93308 7.19145Z" fill="#191919"/>
<path d="M5.89914 9.36077C5.87602 10.0651 5.88575 10.7694 5.8821 11.4737C5.87846 12.178 5.8821 12.8823 5.90279 13.5866C5.90279 13.5901 5.9042 13.5935 5.90671 13.596C5.90922 13.5985 5.91262 13.5999 5.91617 13.5999C5.91972 13.5999 5.92312 13.5985 5.92563 13.596C5.92814 13.5935 5.92955 13.5901 5.92955 13.5866C5.9697 12.8835 5.977 12.178 5.97092 11.4737C5.96483 10.7694 5.9624 10.0651 5.91495 9.36077C5.91432 9.3592 5.91323 9.35786 5.91182 9.35692C5.91041 9.35597 5.90875 9.35547 5.90704 9.35547C5.90534 9.35547 5.90368 9.35597 5.90227 9.35692C5.90086 9.35786 5.89977 9.3592 5.89914 9.36077Z" fill="#191919"/>
<path d="M5.88329 12.6176C5.76896 13.9716 5.75432 15.332 5.83949 16.6881C5.83878 16.6908 5.83869 16.6936 5.83924 16.6963C5.83979 16.699 5.84097 16.7016 5.84267 16.7038C5.84437 16.706 5.84656 16.7077 5.84907 16.709C5.85158 16.7102 5.85434 16.7108 5.85713 16.7108C5.85993 16.7108 5.86268 16.7102 5.86519 16.709C5.8677 16.7077 5.86989 16.706 5.87159 16.7038C5.8733 16.7016 5.87447 16.699 5.87502 16.6963C5.87557 16.6936 5.87549 16.6908 5.87477 16.6881C5.91249 15.3325 5.89424 13.9744 5.8991 12.6176C5.8991 12.6079 5.88451 12.6079 5.88329 12.6176Z" fill="#191919"/>
<path d="M6.47943 18.3088C6.57433 18.4629 6.67287 18.6146 6.77142 18.7663C6.85414 18.8867 6.93201 19.0203 7.02447 19.1371C7.17655 19.3309 7.38945 19.532 7.64859 19.52C7.65472 19.52 7.6606 19.5176 7.66493 19.5133C7.66927 19.509 7.6717 19.5032 7.6717 19.4971C7.6717 19.491 7.66927 19.4852 7.66493 19.4809C7.6606 19.4766 7.65472 19.4742 7.64859 19.4742C7.38093 19.4417 7.19358 19.2551 7.04029 19.0528C6.8505 18.812 6.6826 18.5484 6.49646 18.3004C6.49646 18.2919 6.47578 18.3004 6.48186 18.3088H6.47943Z" fill="#191919"/>
<path d="M7.42227 7.96631C7.33346 10.054 7.31278 12.1488 7.37482 14.2377C7.39307 14.8336 7.39551 15.4416 7.45269 16.0292C7.45405 16.0357 7.45764 16.0415 7.46284 16.0457C7.46805 16.0499 7.47456 16.0522 7.48128 16.0522C7.48799 16.0522 7.4945 16.0499 7.49971 16.0457C7.50492 16.0415 7.5085 16.0357 7.50987 16.0292C7.52082 15.5018 7.49162 14.9733 7.48188 14.4472C7.47215 13.921 7.45999 13.4118 7.45025 12.8941C7.43322 11.8507 7.42633 10.8072 7.42957 9.76381C7.42957 9.16183 7.42957 8.56949 7.42957 7.97233H7.41862L7.42227 7.96631Z" fill="#191919"/>
<path d="M10.6099 9.5477C10.1712 10.1473 9.87958 10.8398 9.75824 11.5703C9.75824 11.5872 9.78135 11.5956 9.78622 11.5776C9.94197 10.8598 10.2249 10.175 10.622 9.55493C10.622 9.5465 10.6147 9.53927 10.6086 9.5477H10.6099Z" fill="#191919"/>
<path d="M9.76062 11.5687C9.65447 12.0229 9.65248 12.4948 9.7548 12.9498C9.85711 13.4048 10.0611 13.8314 10.3519 14.1981C10.3628 14.2114 10.386 14.1981 10.3774 14.1789C9.87555 13.4091 9.66802 12.4873 9.79225 11.5795C9.79225 11.5555 9.76062 11.5446 9.75575 11.5687H9.76062Z" fill="#191919"/>
<path d="M10.3871 14.3777C10.4195 14.4823 10.4679 14.5814 10.5306 14.6715C10.6504 14.862 10.8086 15.0259 10.9954 15.153C11.0852 15.2186 11.1845 15.2706 11.2898 15.3071C11.3239 15.318 11.3397 15.2722 11.3129 15.2542C11.2253 15.1952 11.1316 15.1434 11.0465 15.0808C10.9609 15.0166 10.8796 14.9471 10.8032 14.8725C10.7295 14.8001 10.6608 14.7229 10.5975 14.6414C10.5294 14.5547 10.4759 14.4596 10.4138 14.3705C10.4122 14.3666 10.4091 14.3636 10.4053 14.362C10.4014 14.3604 10.397 14.3604 10.3932 14.362C10.3893 14.3636 10.3862 14.3667 10.3846 14.3705C10.383 14.3744 10.383 14.3787 10.3846 14.3825L10.3871 14.3777Z" fill="#191919"/>
<path d="M12.0806 10.0663C12.673 9.60009 13.3939 9.32186 14.1489 9.26811C14.161 9.26811 14.161 9.24884 14.1489 9.24884C13.373 9.23094 12.621 9.51544 12.0551 10.041C12.0381 10.0567 12.0624 10.0808 12.0806 10.0663Z" fill="#191919"/>
<path d="M14.2938 9.37046C14.4934 9.39499 14.6907 9.43525 14.8838 9.49086C15.076 9.55544 15.2585 9.64534 15.4264 9.75813C15.5951 9.87159 15.7498 10.0041 15.8875 10.153C16.0245 10.3223 16.13 10.5143 16.199 10.7201C16.2075 10.7406 16.2415 10.7321 16.2342 10.7105C16.2024 10.6138 16.1617 10.5203 16.1126 10.4311C16.0578 10.336 15.9909 10.2518 15.9228 10.1627C15.8063 9.99306 15.6644 9.84203 15.5018 9.71479C15.1734 9.46557 14.7305 9.25849 14.3059 9.29341C14.2682 9.29341 14.2536 9.35722 14.2962 9.36444L14.2938 9.37046Z" fill="#191919"/>
<path d="M16.5091 11.2563C16.5445 11.3916 16.5892 11.5244 16.6429 11.6537C16.6429 11.6621 16.6587 11.6537 16.6563 11.6537C16.6173 11.5198 16.5694 11.3887 16.5127 11.2612L16.5091 11.2563Z" fill="#191919"/>
<path d="M16.6538 11.9194C16.6942 12.1312 16.6974 12.3483 16.6636 12.5611C16.6235 12.7669 16.564 12.9684 16.4859 13.1631C16.4799 13.1812 16.5066 13.1908 16.5176 13.1752C16.6263 12.9914 16.6912 12.7855 16.7074 12.5732C16.7273 12.3568 16.7104 12.1387 16.6575 11.9279L16.6538 11.9194Z" fill="#191919"/>
<path d="M16.2183 13.6182L15.9044 13.9095C15.801 14.007 15.6915 14.0985 15.5893 14.1985C15.582 14.2069 15.5893 14.2177 15.6015 14.2105C15.7086 14.1166 15.8071 14.0143 15.9117 13.9167L16.2232 13.6242L16.2183 13.6182Z" fill="#191919"/>
<path d="M14.8107 14.6208C14.6103 14.7012 14.4007 14.757 14.1865 14.787C14.1792 14.787 14.1805 14.8002 14.1865 14.8002C14.4035 14.7789 14.6157 14.724 14.8155 14.6377C14.8253 14.6377 14.8155 14.616 14.8082 14.6208H14.8107Z" fill="#191919"/>
<path d="M13.6853 14.809C13.6172 14.7921 13.5527 14.7668 13.487 14.7439C13.4217 14.72 13.358 14.6922 13.296 14.6609C13.2814 14.6548 13.2644 14.6729 13.2777 14.6837C13.3055 14.707 13.3352 14.728 13.3665 14.7463C13.3984 14.7643 13.4313 14.7804 13.4651 14.7945C13.5343 14.8204 13.6067 14.837 13.6804 14.8439C13.7011 14.8439 13.7048 14.8126 13.6804 14.809H13.6853Z" fill="#191919"/>
<path d="M12.9481 14.4645C12.8561 14.3854 12.7562 14.3156 12.65 14.2563C12.5977 14.2298 12.5442 14.2057 12.4895 14.1828C12.4301 14.16 12.3691 14.1415 12.307 14.1274C12.2924 14.1274 12.2814 14.1467 12.296 14.1539C12.3508 14.178 12.4031 14.2069 12.4566 14.231C12.5101 14.2551 12.5649 14.2815 12.6184 14.3104C12.7243 14.367 12.8301 14.42 12.9299 14.4862C12.9433 14.4959 12.9603 14.4742 12.9481 14.4645Z" fill="#191919"/>
<path d="M12.0038 14.0029C11.9098 13.9005 11.8213 13.7932 11.7386 13.6815C11.6456 13.5694 11.5641 13.4484 11.4953 13.3203C11.4296 13.1919 11.3762 13.0577 11.3359 12.9194C11.2958 12.7833 11.2824 12.6425 11.2496 12.5052C11.2496 12.502 11.2483 12.4989 11.246 12.4967C11.2437 12.4944 11.2406 12.4932 11.2374 12.4932C11.2342 12.4932 11.2311 12.4944 11.2288 12.4967C11.2265 12.4989 11.2252 12.502 11.2252 12.5052C11.227 12.6486 11.2517 12.7908 11.2982 12.9266C11.338 13.0645 11.3901 13.1987 11.4539 13.3275C11.5164 13.4591 11.59 13.5852 11.6741 13.7043C11.7663 13.8215 11.8735 13.9263 11.9929 14.0162C12.0002 14.0162 12.0111 14.0162 12.0038 14.0053V14.0029Z" fill="#191919"/>
<path d="M17.508 9.67796C17.6187 9.86819 17.7087 10.0692 17.8085 10.2643C17.817 10.2799 17.8425 10.2643 17.8364 10.2535C17.7633 10.0422 17.6653 9.84011 17.5445 9.65148C17.541 9.64802 17.5365 9.6458 17.5316 9.64519C17.5267 9.64458 17.5218 9.64561 17.5176 9.64811C17.5134 9.65061 17.5101 9.65444 17.5084 9.65898C17.5066 9.66352 17.5065 9.66851 17.508 9.67315V9.67796Z" fill="#191919"/>
<path d="M17.9532 10.7951C18.0148 11.0098 18.0463 11.2318 18.0469 11.4549C18.0469 11.4549 18.0554 11.4549 18.0566 11.4549C18.0623 11.2303 18.0277 11.0066 17.9544 10.7939L17.9532 10.7951Z" fill="#191919"/>
<path d="M17.632 13.7778C17.577 13.8321 17.5273 13.8913 17.4836 13.9548C17.4382 14.0177 17.4048 14.0883 17.385 14.1631C17.3839 14.1655 17.3838 14.1682 17.3847 14.1707C17.3856 14.1732 17.3875 14.1752 17.3899 14.1763C17.3923 14.1775 17.3951 14.1776 17.3976 14.1767C17.4001 14.1758 17.4022 14.1739 17.4033 14.1715C17.4398 14.1053 17.4702 14.0367 17.5067 13.9717C17.5434 13.904 17.587 13.8403 17.6369 13.7814L17.632 13.7778Z" fill="#191919"/>
<path d="M17.1526 14.5822C17.0677 14.6605 17.0013 14.7562 16.9579 14.8627C16.9565 14.866 16.9564 14.8698 16.9578 14.8732C16.9592 14.8766 16.9618 14.8793 16.9652 14.8807C16.9686 14.8822 16.9724 14.8822 16.9758 14.8809C16.9793 14.8795 16.982 14.8769 16.9835 14.8735C17.0102 14.8254 17.037 14.7772 17.0674 14.7314C17.099 14.6857 17.1348 14.643 17.1745 14.6038C17.1765 14.6008 17.1773 14.5972 17.177 14.5936C17.1766 14.5901 17.175 14.5867 17.1724 14.5842C17.1699 14.5816 17.1665 14.58 17.1629 14.5797C17.1592 14.5793 17.1556 14.5802 17.1526 14.5822Z" fill="#191919"/>
<path d="M16.4508 15.2436C16.22 15.4273 15.9719 15.5885 15.7099 15.7252C15.5882 15.7914 15.4556 15.8456 15.3255 15.9034C15.1953 15.9612 15.0359 16.0021 14.8899 16.0527C14.8867 16.0527 14.8836 16.0539 14.8813 16.0562C14.879 16.0585 14.8777 16.0615 14.8777 16.0647C14.8777 16.0679 14.879 16.071 14.8813 16.0732C14.8836 16.0755 14.8867 16.0768 14.8899 16.0768C15.0366 16.0422 15.1805 15.9971 15.3206 15.9419C15.4601 15.8921 15.5956 15.8317 15.7257 15.7613C15.9904 15.6223 16.2358 15.4499 16.4557 15.2484L16.4496 15.2412L16.4508 15.2436Z" fill="#191919"/>
<path d="M14.6587 16.1327C14.4517 16.1702 14.2414 16.1867 14.031 16.182C13.8225 16.1691 13.6156 16.1372 13.4129 16.0869C13.3874 16.0869 13.3679 16.1182 13.3947 16.1303C13.592 16.2154 13.8048 16.2597 14.02 16.2603C14.2401 16.2689 14.4596 16.2324 14.6648 16.1531C14.667 16.1524 14.6688 16.151 14.6701 16.1492C14.6715 16.1473 14.6722 16.1451 14.6722 16.1429C14.6722 16.1406 14.6715 16.1385 14.6701 16.1366C14.6688 16.1348 14.667 16.1334 14.6648 16.1327H14.6587Z" fill="#191919"/>
<path d="M10.5964 9.52329C10.7117 9.37548 10.8365 9.23513 10.9699 9.10311C11.1025 8.96861 11.2532 8.85276 11.4176 8.75878C11.4176 8.75878 11.4176 8.74794 11.4176 8.75035C11.2543 8.84888 11.0981 8.95871 10.9504 9.07903C10.8023 9.2037 10.6736 9.34934 10.5684 9.51125C10.5563 9.5281 10.5842 9.54375 10.5964 9.5269V9.52329Z" fill="#191919"/>
<path d="M11.6049 8.62779C11.7131 8.50985 11.846 8.4166 11.9942 8.35449C11.8453 8.41656 11.7116 8.50979 11.6025 8.62779H11.6049Z" fill="#191919"/>
<path d="M12.4602 8.06603C12.6184 8.03593 12.7765 8.00102 12.9335 7.9637C13.0904 7.92638 13.2559 7.92878 13.4104 7.88664C13.4128 7.88585 13.4149 7.88432 13.4164 7.88227C13.4179 7.88021 13.4187 7.87774 13.4187 7.87521C13.4187 7.87267 13.4179 7.8702 13.4164 7.86815C13.4149 7.86609 13.4128 7.86456 13.4104 7.86377C13.2511 7.87523 13.0931 7.90061 12.9383 7.93962C12.7756 7.96522 12.6155 8.00552 12.4602 8.06001V8.06724V8.06603Z" fill="#191919"/>
<path d="M13.6002 7.85266C13.8508 7.72264 14.1744 7.74792 14.4397 7.82136C14.5735 7.85868 14.7085 7.89962 14.8411 7.94176C14.983 8.00096 15.1305 8.04573 15.2816 8.07539C15.3132 8.07539 15.3253 8.02964 15.2974 8.0164C15.1438 7.9592 14.9855 7.91569 14.8241 7.88637C14.672 7.84544 14.52 7.8033 14.3654 7.76598C14.2306 7.73041 14.0913 7.71379 13.9518 7.71662C13.8248 7.72727 13.7024 7.76862 13.5953 7.83701C13.5953 7.83701 13.5953 7.84544 13.5953 7.84424L13.6002 7.85266Z" fill="#191919"/>
<path d="M17.5871 7.0264C17.4791 7.15289 17.4091 7.30679 17.3851 7.47064C17.361 7.6345 17.3838 7.80175 17.4508 7.95344C17.5124 8.09414 17.6077 8.21783 17.7286 8.31373C17.8494 8.40963 17.9922 8.47483 18.1443 8.50364C18.1613 8.50364 18.1699 8.47957 18.1516 8.47595C18.0049 8.44533 17.8679 8.37976 17.7526 8.28493C17.6373 8.19011 17.5471 8.06888 17.4898 7.93177C17.4384 7.78552 17.4234 7.62917 17.4461 7.47596C17.4687 7.32276 17.5284 7.17722 17.62 7.05168C17.6333 7.03242 17.6029 7.00834 17.5871 7.0264Z" fill="#191919"/>
<path d="M19.2172 7.05689C19.3271 7.19576 19.3838 7.3686 19.3774 7.54485C19.3709 7.7211 19.3017 7.88941 19.182 8.02005C19.1515 8.05256 19.2014 8.10192 19.2318 8.06941C19.3604 7.92555 19.4328 7.74103 19.4362 7.54903C19.4395 7.35702 19.3735 7.17014 19.2501 7.02198C19.2306 6.9991 19.199 7.03161 19.2172 7.05328V7.05689Z" fill="#191919"/>
<path d="M20.345 9.20647C20.3097 9.71935 20.345 10.2455 20.345 10.7596C20.345 11.2737 20.334 11.795 20.3292 12.3127C20.3206 13.3384 20.3292 14.3594 20.3292 15.39C20.3292 15.9775 20.3292 16.565 20.345 17.1525C20.345 17.1615 20.3486 17.1701 20.355 17.1764C20.3613 17.1827 20.37 17.1863 20.379 17.1863C20.3881 17.1863 20.3967 17.1827 20.4031 17.1764C20.4095 17.1701 20.4131 17.1615 20.4131 17.1525C20.4253 16.1172 20.407 15.0818 20.4131 14.0464C20.4192 13.011 20.3705 11.9996 20.3681 10.9691C20.3681 10.3851 20.4009 9.78798 20.3571 9.20647C20.3565 9.20491 20.3554 9.20357 20.354 9.20262C20.3526 9.20168 20.3509 9.20117 20.3492 9.20117C20.3475 9.20117 20.3459 9.20168 20.3445 9.20262C20.3431 9.20357 20.342 9.20491 20.3413 9.20647H20.345Z" fill="#191919"/>
<path d="M21.9241 7.54002C21.8584 8.42974 21.8535 9.32307 21.7732 10.214C21.7732 10.2272 21.7927 10.226 21.7939 10.214C21.9095 9.3327 22.0068 8.42853 21.9472 7.54002C21.9464 7.53761 21.9448 7.53551 21.9427 7.53403C21.9407 7.53254 21.9382 7.53174 21.9356 7.53174C21.933 7.53174 21.9306 7.53254 21.9285 7.53403C21.9264 7.53551 21.9249 7.53761 21.9241 7.54002Z" fill="#191919"/>
<path d="M21.7709 10.5635L21.76 10.8537C21.7533 10.9507 21.7533 11.048 21.76 11.145C21.76 11.1514 21.7625 11.1575 21.7671 11.162C21.7717 11.1666 21.7778 11.1691 21.7843 11.1691C21.7908 11.1691 21.7969 11.1666 21.8015 11.162C21.8061 11.1575 21.8086 11.1514 21.8086 11.145C21.8153 11.048 21.8153 10.9507 21.8086 10.8537L21.7977 10.5635C21.7977 10.5594 21.796 10.5554 21.793 10.5524C21.7901 10.5495 21.7861 10.5479 21.7819 10.5479C21.7777 10.5479 21.7736 10.5495 21.7707 10.5524C21.7677 10.5554 21.766 10.5594 21.766 10.5635H21.7709Z" fill="#191919"/>
<path d="M21.828 11.7246L21.8682 12.3061H21.8779L21.8365 11.7246H21.828Z" fill="#191919"/>
<path d="M21.9071 13.4312C21.8949 13.9416 21.8839 14.4521 21.8608 14.9626C21.8377 15.4731 21.8146 15.9847 21.8365 16.494C21.8365 16.4985 21.8383 16.5028 21.8415 16.5059C21.8447 16.5091 21.849 16.5109 21.8535 16.5109C21.858 16.5109 21.8624 16.5091 21.8656 16.5059C21.8688 16.5028 21.8706 16.4985 21.8706 16.494C21.9119 15.9859 21.9083 15.4718 21.9046 14.9626C21.901 14.4533 21.9046 13.9416 21.9168 13.4312H21.9071Z" fill="#191919"/>
<path d="M12.7643 18.6375C12.9054 18.5996 13.0501 18.5766 13.1961 18.5689C13.3272 18.5511 13.4593 18.5422 13.5915 18.5424C13.6585 18.5424 13.7254 18.5629 13.7911 18.5641C13.8568 18.5653 13.9237 18.5532 13.9906 18.5508C14.1135 18.5614 14.2374 18.5487 14.3556 18.5135C14.3702 18.5075 14.3629 18.4834 14.3471 18.4834C14.2047 18.4834 14.0721 18.5412 13.9273 18.534C13.8611 18.527 13.7944 18.5241 13.7278 18.5255C13.6609 18.5255 13.5964 18.5255 13.5295 18.5255C13.3982 18.5107 13.2662 18.5031 13.1341 18.5027C13.001 18.5116 12.8703 18.5421 12.7472 18.593C12.7229 18.6026 12.7314 18.6399 12.7582 18.6327L12.7643 18.6375Z" fill="#191919"/>
<path d="M14.6415 18.5419H14.7024H14.7328H14.7632C14.7741 18.5419 14.7839 18.5346 14.7839 18.5224C14.7836 18.5171 14.7812 18.5122 14.7774 18.5086C14.7736 18.5049 14.7685 18.5029 14.7632 18.5029H14.7328H14.7024H14.6415C14.6357 18.5029 14.6301 18.5052 14.626 18.5093C14.6219 18.5135 14.6196 18.519 14.6196 18.5248C14.6196 18.5306 14.6219 18.5362 14.626 18.5403C14.6301 18.5444 14.6357 18.5467 14.6415 18.5467V18.5419Z" fill="#191919"/>
<path d="M19.6113 18.093L19.4897 18.1821C19.4897 18.1821 19.4897 18.1893 19.4897 18.1821L19.6113 18.0918V18.093Z" fill="#191919"/>
<path d="M19.1468 18.3755L19.0981 18.4032L19.075 18.4176C19.0673 18.4206 19.0606 18.4256 19.0555 18.4321V18.4429C19.0531 18.4465 19.0518 18.4507 19.0518 18.4549C19.0518 18.4592 19.0531 18.4634 19.0555 18.467C19.0583 18.4699 19.0617 18.4721 19.0655 18.4733C19.0694 18.4746 19.0734 18.4749 19.0774 18.4742H19.0908C19.0972 18.4725 19.1031 18.4692 19.1078 18.4646L19.1297 18.4489L19.1735 18.4152C19.1784 18.412 19.1823 18.4074 19.1845 18.402C19.1862 18.3965 19.1862 18.3906 19.1845 18.3851C19.1812 18.3804 19.1763 18.377 19.1707 18.3756C19.1651 18.3743 19.1591 18.3751 19.1541 18.3779L19.1468 18.3755Z" fill="#191919"/>
<path d="M19.0018 19.9067C19.0154 19.9147 19.0297 19.9216 19.0444 19.9272L19.1126 19.9404C19.161 19.947 19.2101 19.947 19.2585 19.9404C19.3542 19.9283 19.4458 19.8945 19.5262 19.8417C19.5408 19.832 19.5262 19.8032 19.5128 19.8116C19.4311 19.8435 19.3457 19.8653 19.2585 19.8766C19.2158 19.883 19.1728 19.8871 19.1296 19.8886H19.0663C19.0546 19.8874 19.0428 19.8874 19.031 19.8886H19.0055C19.0055 19.8886 18.997 19.8959 19.0055 19.8983L19.0018 19.9067Z" fill="#191919"/>
<path d="M19.9544 19.6067C20.087 19.5212 20.2172 19.4357 20.3449 19.343C20.4735 19.2591 20.5955 19.1657 20.7099 19.0637C20.7208 19.0529 20.7099 19.036 20.6929 19.0432C20.557 19.1226 20.4277 19.2124 20.306 19.3117C20.1843 19.4032 20.0627 19.4995 19.941 19.5959C19.9349 19.5959 19.941 19.6103 19.9495 19.6067H19.9544Z" fill="#191919"/>
<path d="M20.794 18.9332L20.968 18.79C20.996 18.7671 21.0228 18.7418 21.0507 18.7177C21.0787 18.6937 21.1079 18.6672 21.1335 18.6395C21.1335 18.6395 21.1335 18.6274 21.1262 18.631C21.0968 18.6522 21.0688 18.6752 21.0422 18.6997C21.013 18.7238 20.9826 18.7478 20.9546 18.7731C20.8987 18.8225 20.8427 18.8742 20.7867 18.926C20.7806 18.926 20.7867 18.9381 20.794 18.9332Z" fill="#191919"/>
<path d="M21.2198 18.5165L21.3305 18.4563L21.3098 18.4298C21.2101 18.5382 21.1286 18.6646 21.0325 18.7778C20.9374 18.888 20.8358 18.9925 20.7283 19.0908C20.4987 19.2842 20.2547 19.46 19.9983 19.6169C19.9777 19.6302 19.9898 19.6699 20.0166 19.6591C20.2906 19.5332 20.5408 19.3618 20.7563 19.1522C20.8689 19.0488 20.9749 18.9387 21.0738 18.8223C21.1771 18.7108 21.2644 18.5856 21.333 18.4503C21.3351 18.4468 21.3359 18.4426 21.3351 18.4385C21.3343 18.4345 21.3321 18.4308 21.3288 18.4283C21.3255 18.4258 21.3213 18.4246 21.3172 18.4248C21.313 18.4251 21.3091 18.4269 21.3062 18.4298L21.2137 18.5117C21.2137 18.5117 21.2137 18.5177 21.2137 18.5117L21.2198 18.5165Z" fill="#191919"/>
<path d="M16.1271 19.9559C15.9556 19.939 15.7841 19.9186 15.6125 19.9102C15.6103 19.9102 15.6081 19.911 15.6065 19.9126C15.6049 19.9142 15.604 19.9163 15.604 19.9186C15.604 19.9208 15.6049 19.9229 15.6065 19.9245C15.6081 19.9261 15.6103 19.927 15.6125 19.927C15.7841 19.9438 15.9556 19.9498 16.1271 19.9583V19.9559Z" fill="#191919"/>
<path d="M13.369 19.9214C12.8824 19.9635 12.3957 19.9912 11.9091 19.9924C11.4224 19.9936 10.9358 19.9406 10.4492 19.9033C10.4321 19.9033 10.4333 19.925 10.4492 19.9274C10.9339 19.98 11.4215 20.003 11.9091 19.996C12.3967 20.0017 12.8842 19.9788 13.369 19.9274V19.9214Z" fill="#191919"/>
<path d="M8.18868 5.86217C8.28116 5.79914 8.38411 5.75269 8.49283 5.72492C8.59878 5.69474 8.70864 5.68014 8.81888 5.68157C8.81888 5.68157 8.81888 5.67315 8.81888 5.67194C8.70339 5.6548 8.58552 5.6626 8.47336 5.69482C8.36542 5.72853 8.26447 5.78114 8.1753 5.85013C8.168 5.85013 8.1753 5.86698 8.18381 5.86217H8.18868Z" fill="#191919"/>
<path d="M9.21678 5.59371C9.21839 5.59371 9.21994 5.59307 9.22108 5.59193C9.22222 5.59079 9.22286 5.58924 9.22286 5.58763C9.22286 5.58601 9.22222 5.58447 9.22108 5.58332C9.21994 5.58218 9.21839 5.58154 9.21678 5.58154C9.21516 5.58154 9.21362 5.58218 9.21247 5.58332C9.21133 5.58447 9.21069 5.58601 9.21069 5.58763C9.21069 5.58924 9.21133 5.59079 9.21247 5.59193C9.21362 5.59307 9.21516 5.59371 9.21678 5.59371Z" fill="#191919"/>
<path d="M9.82385 5.48457C10.2886 5.49552 10.7521 5.51256 11.2169 5.49674C11.2189 5.49737 11.221 5.49751 11.2231 5.49717C11.2251 5.49682 11.2271 5.49599 11.2288 5.49475C11.2305 5.4935 11.2318 5.49188 11.2328 5.49001C11.2337 5.48813 11.2342 5.48606 11.2342 5.48397C11.2342 5.48187 11.2337 5.4798 11.2328 5.47792C11.2318 5.47605 11.2305 5.47443 11.2288 5.47319C11.2271 5.47194 11.2251 5.47111 11.2231 5.47077C11.221 5.47042 11.2189 5.47057 11.2169 5.47119C10.7521 5.45416 10.2886 5.47119 9.82385 5.47849V5.48457Z" fill="#191919"/>
<path d="M12.5819 5.50708C12.6829 5.49856 12.7839 5.49005 12.8848 5.4791C12.8848 5.4791 12.8848 5.47058 12.8848 5.4718C12.7839 5.4791 12.6829 5.49005 12.5819 5.49978C12.5819 5.49978 12.5819 5.5083 12.5819 5.50708Z" fill="#191919"/>
<path d="M13.4322 5.44478C13.5045 5.41742 13.5802 5.39982 13.6573 5.39247C13.7326 5.38653 13.8083 5.38653 13.8836 5.39247C13.8945 5.39247 13.897 5.37701 13.8836 5.37464C13.7278 5.3469 13.5669 5.37031 13.4261 5.44122C13.4261 5.44122 13.4261 5.44954 13.4261 5.44835L13.4322 5.44478Z" fill="#191919"/>
<path d="M14.8545 5.46025C15.2195 5.46025 15.5845 5.46025 15.9494 5.46025C16.3144 5.46025 16.6794 5.4858 17.0444 5.46025C17.0465 5.4595 17.0484 5.45811 17.0497 5.45625C17.051 5.4544 17.0517 5.45218 17.0517 5.44991C17.0517 5.44764 17.051 5.44542 17.0497 5.44357C17.0484 5.44171 17.0465 5.44032 17.0444 5.43957C16.6794 5.41889 16.3144 5.43957 15.9494 5.44809C15.5845 5.4566 15.2195 5.44809 14.8545 5.44809V5.46025Z" fill="#191919"/>
<path d="M9.3725 4.04191C9.75584 3.93672 10.1556 3.90284 10.5514 3.94198C10.5535 3.94124 10.5554 3.93986 10.5567 3.93802C10.558 3.93619 10.5587 3.93399 10.5587 3.93174C10.5587 3.92949 10.558 3.9273 10.5567 3.92547C10.5554 3.92363 10.5535 3.92225 10.5514 3.92151C10.3539 3.88329 10.1522 3.87194 9.95161 3.8878C9.75143 3.90656 9.55466 3.9515 9.36642 4.02144C9.35425 4.02144 9.35912 4.04552 9.36642 4.04191H9.3725Z" fill="#191919"/>
<path d="M10.9736 4.00439L11.1244 4.03603L10.9724 4.00561L10.9736 4.00439Z" fill="#191919"/>
<path d="M11.5515 3.99775C12.2182 4.02781 12.8824 4.05066 13.5515 4.04225V4.03262C12.8849 4.01338 12.2133 4.00857 11.5515 3.99414V3.99775Z" fill="#191919"/>
<path d="M14.0041 4.0344C14.0778 4.05168 14.1526 4.06347 14.228 4.06968C14.3052 4.07759 14.3831 4.07759 14.4603 4.06968C14.4701 4.06968 14.4701 4.05387 14.4603 4.05387C14.3086 4.063 14.1563 4.05443 14.0065 4.02832C13.9992 4.02832 13.9968 4.03805 14.0065 4.03927L14.0041 4.0344Z" fill="#191919"/>
<path d="M14.734 4.07468C15.2048 4.07468 15.672 4.04733 16.1428 4.03663C16.6136 4.02593 17.082 4.03663 17.5516 4.02712C17.5538 4.02639 17.5557 4.02503 17.557 4.02322C17.5583 4.0214 17.559 4.01924 17.559 4.01702C17.559 4.01479 17.5583 4.01263 17.557 4.01082C17.5557 4.00901 17.5538 4.00764 17.5516 4.00691C17.0833 3.99026 16.6112 4.00691 16.1428 4.00691C15.6744 4.00691 15.2036 4.01404 14.734 4.0616C14.7279 4.0616 14.7279 4.06992 14.734 4.07111V4.07468Z" fill="#191919"/>
<path d="M20.4982 4.75074C20.6236 4.81269 20.7454 4.88142 20.8632 4.95661C20.9896 5.03116 21.103 5.12549 21.199 5.23593C21.3654 5.46636 21.5015 5.71678 21.6041 5.98118C21.6047 5.98274 21.6058 5.98408 21.6072 5.98503C21.6086 5.98597 21.6103 5.98648 21.612 5.98648C21.6137 5.98648 21.6154 5.98597 21.6168 5.98503C21.6182 5.98408 21.6193 5.98274 21.6199 5.98118C21.5764 5.69248 21.4389 5.42573 21.2282 5.22148C21.1307 5.1058 21.0254 4.99679 20.9131 4.89521C20.8003 4.80137 20.6724 4.7269 20.5347 4.67489C20.4897 4.65803 20.4593 4.73027 20.5019 4.75074H20.4982Z" fill="#191919"/>
<path d="M21.7015 6.4277C21.7222 6.49031 21.7405 6.5481 21.7551 6.61793C21.7728 6.6811 21.7858 6.74548 21.794 6.81056C21.7912 6.93472 21.7956 7.05893 21.8074 7.18258C21.8088 7.18626 21.8113 7.18944 21.8145 7.19169C21.8178 7.19393 21.8217 7.19514 21.8256 7.19514C21.8296 7.19514 21.8335 7.19393 21.8367 7.19169C21.84 7.18944 21.8425 7.18626 21.8439 7.18258C21.8594 7.05694 21.8465 6.92946 21.8062 6.80935C21.7903 6.74554 21.783 6.67933 21.7672 6.61552C21.7514 6.55171 21.7307 6.4879 21.7088 6.42529C21.7088 6.42529 21.7003 6.42529 21.7015 6.42529V6.4277Z" fill="#191919"/>
<path d="M6.79821 5.09396C6.5184 5.46839 6.28116 5.87171 6.0281 6.2642C5.91813 6.40549 5.8518 6.57525 5.8371 6.753C5.84561 6.97453 5.89549 7.19485 5.92348 7.41518C5.92348 7.4236 5.93808 7.4236 5.93686 7.41518C5.91983 7.21412 5.90888 7.01426 5.89063 6.8132C5.8696 6.69961 5.8858 6.58234 5.93686 6.4785C5.99161 6.3858 6.06582 6.30393 6.12422 6.21243C6.35902 5.84522 6.61086 5.49006 6.83228 5.11442C6.83502 5.10995 6.83586 5.10459 6.8346 5.09951C6.83335 5.09443 6.83011 5.09005 6.82559 5.08734C6.82107 5.08462 6.81565 5.08379 6.81052 5.08504C6.80538 5.08628 6.80096 5.08949 6.79821 5.09396Z" fill="#191919"/>
<path d="M13.8897 16.0984C13.0672 16.0984 12.2632 15.857 11.5794 15.4048C10.8955 14.9525 10.3625 14.3098 10.0478 13.5578C9.73311 12.8058 9.65083 11.9783 9.81138 11.18C9.97193 10.3817 10.3681 9.64849 10.9498 9.07303C11.5314 8.49757 12.2725 8.10574 13.0792 7.94709C13.886 7.78844 14.7221 7.87011 15.4819 8.18176C16.2417 8.4934 16.8911 9.02103 17.3479 9.69792C17.8047 10.3748 18.0483 11.1705 18.0481 11.9845C18.0468 13.0754 17.6082 14.1212 16.8286 14.8925C16.049 15.6637 14.9921 16.0974 13.8897 16.0984ZM13.8897 9.22863C13.339 9.22863 12.8005 9.39026 12.3426 9.69307C11.8846 9.99589 11.5277 10.4263 11.3169 10.9299C11.1061 11.4334 11.051 11.9875 11.1584 12.5221C11.2659 13.0567 11.5311 13.5477 11.9206 13.9332C12.31 14.3186 12.8063 14.581 13.3465 14.6874C13.8866 14.7937 14.4466 14.7391 14.9554 14.5305C15.4643 14.322 15.8992 13.9687 16.2052 13.5155C16.5112 13.0623 16.6745 12.5295 16.6745 11.9845C16.6739 11.2538 16.3803 10.5532 15.8582 10.0365C15.3361 9.51982 14.6281 9.22927 13.8897 9.22863Z" fill="#191919"/>
<path d="M19.3256 7.66238C19.3256 7.85287 19.2685 8.03909 19.1616 8.19748C19.0546 8.35587 18.9026 8.47932 18.7248 8.55222C18.5469 8.62512 18.3512 8.6442 18.1624 8.60703C17.9736 8.56987 17.8002 8.47814 17.6641 8.34344C17.528 8.20874 17.4353 8.03712 17.3977 7.85028C17.3602 7.66345 17.3795 7.46979 17.4531 7.29379C17.5268 7.1178 17.6515 6.96737 17.8116 6.86154C17.9716 6.75571 18.1598 6.69922 18.3523 6.69922C18.6104 6.69922 18.858 6.80069 19.0405 6.98132C19.2231 7.16195 19.3256 7.40693 19.3256 7.66238Z" fill="#191919"/>
<path d="M1.21757 15.6215C1.14701 14.4537 1.03508 13.2882 0.988848 12.1192C0.929194 10.6824 0.959667 9.24333 1.08009 7.81026C1.16282 6.82423 1.293 5.84301 1.44507 4.8654C1.45846 4.77149 1.31611 4.72935 1.29787 4.82567C0.774583 7.77982 0.655503 10.7902 0.943834 13.7758C1.00101 14.3971 1.07644 15.0123 1.16891 15.6287C1.16891 15.6588 1.22487 15.6516 1.22244 15.6215H1.21757Z" fill="#DCA35B"/>
<path d="M3.91353 22.7678C3.27603 22.2404 2.87333 21.4687 2.53877 20.7331C2.10843 19.7772 1.7928 18.7747 1.59833 17.7461C1.5448 17.4676 1.50141 17.1867 1.46816 16.9033C1.45797 16.6399 1.43442 16.3771 1.39759 16.1159C1.38178 16.0497 1.2662 16.0449 1.25647 16.1159C1.23679 16.3524 1.24824 16.5903 1.29053 16.8239C1.31973 17.0743 1.35704 17.3235 1.40246 17.5715C1.50037 18.1045 1.62913 18.6315 1.78812 19.1499C2.08254 20.1131 2.46699 21.057 3.03271 21.8925C3.25312 22.2495 3.54251 22.5601 3.88433 22.8063C3.90745 22.8207 3.93543 22.7858 3.91353 22.7678Z" fill="#DCA35B"/>
<path d="M4.65078 23.9458C4.54797 23.8781 4.43565 23.8258 4.31743 23.7905C4.20317 23.7377 4.09261 23.6773 3.98651 23.6099C3.78173 23.4795 3.59166 23.3277 3.41957 23.1572C3.08744 22.8309 2.83439 22.442 2.51807 22.1037C2.48279 22.0664 2.42683 22.1146 2.44872 22.1567C2.68287 22.5765 2.98541 22.9552 3.34415 23.2776C3.52285 23.4441 3.71856 23.5918 3.92812 23.7182C4.04106 23.7859 4.15854 23.8458 4.27971 23.8976C4.38575 23.9598 4.50573 23.995 4.62888 23.9999C4.635 23.9998 4.64094 23.9978 4.64597 23.9944C4.65101 23.9909 4.65492 23.9861 4.65724 23.9805C4.65956 23.9749 4.66018 23.9687 4.65904 23.9628C4.65789 23.9568 4.65502 23.9513 4.65078 23.947V23.9458Z" fill="#DCA35B"/>
<path d="M3.10939 23.895C2.85355 23.7194 2.6294 23.5025 2.44634 23.2533C2.41349 23.2099 2.34171 23.2533 2.37091 23.2978C2.54527 23.572 2.78563 23.7991 3.07046 23.9588C3.11426 23.9841 3.15075 23.9203 3.10939 23.8914V23.895Z" fill="#DCA35B"/>
<path d="M1.7627 2.62009C2.41149 2.04269 3.14081 1.56059 3.92825 1.18859C4.77987 0.782862 5.67408 0.567355 6.58045 0.326564C6.63884 0.310913 6.62911 0.214597 6.56585 0.219413C5.63636 0.300078 4.70688 0.643204 3.87472 1.04894C3.07171 1.42775 2.34527 1.94835 1.73106 2.58518C1.72793 2.59003 1.72657 2.5958 1.7272 2.60152C1.72783 2.60725 1.73042 2.61259 1.73453 2.61666C1.73865 2.62073 1.74404 2.62329 1.74983 2.62391C1.75561 2.62454 1.76144 2.62319 1.76635 2.62009H1.7627Z" fill="#DCA35B"/>
<path d="M25.4341 22.1645C26.0315 21.6925 26.2772 20.8847 26.4427 20.1755C26.6155 19.4399 26.686 18.6826 26.7797 17.9338C26.7797 17.9013 26.7286 17.894 26.7213 17.9253C26.4074 19.3508 26.4147 20.9665 25.3988 22.1295C25.3957 22.1344 25.3944 22.1402 25.395 22.1459C25.3956 22.1516 25.3982 22.1569 25.4023 22.161C25.4064 22.1651 25.4118 22.1677 25.4176 22.1683C25.4234 22.1689 25.4292 22.1676 25.4341 22.1645Z" fill="#DCA35B"/>
<path d="M27.0144 16.9569C27.1215 16.7571 27.1361 16.491 27.1677 16.2695C27.1993 16.0479 27.2261 15.8324 27.248 15.6133C27.2954 15.1312 27.3088 14.6465 27.2881 14.1625C27.2881 14.1523 27.284 14.1425 27.2767 14.1353C27.2694 14.1281 27.2595 14.124 27.2492 14.124C27.2389 14.124 27.229 14.1281 27.2217 14.1353C27.2144 14.1425 27.2103 14.1523 27.2103 14.1625C27.203 14.6297 27.1794 15.0956 27.1397 15.5603C27.1202 15.8059 27.0935 16.0511 27.0594 16.296C27.0302 16.5054 26.9621 16.739 26.9864 16.9497C26.9864 16.9629 27.0071 16.9714 27.0144 16.9569Z" fill="#DCA35B"/>
<path d="M27.2516 13.6938C27.3049 13.3611 27.32 13.0234 27.2966 12.6873C27.2966 12.1215 27.2771 11.5556 27.2625 10.9898C27.2285 9.7533 27.1701 8.51564 27.0959 7.28038C27.0715 6.87224 27.0472 6.4617 26.9949 6.05596C26.9949 6.02948 26.9486 6.02827 26.9511 6.05596C27.0265 6.96254 27.0375 7.87995 27.0727 8.78893C27.1141 10.0182 27.1664 11.2486 27.1944 12.479C27.2041 12.88 27.1944 13.2905 27.2333 13.6902C27.2333 13.7047 27.2552 13.7095 27.2589 13.6902L27.2516 13.6938Z" fill="#DCA35B"/>
<path d="M27.5815 6.18618C27.5784 4.98091 27.3804 3.78389 26.995 2.64054C26.9925 2.63096 26.9861 2.62279 26.9775 2.61782C26.9688 2.61286 26.9585 2.6115 26.9488 2.61406C26.9391 2.61661 26.9309 2.62286 26.9259 2.63144C26.9208 2.64002 26.9195 2.65023 26.9221 2.65981C27.0559 3.2365 27.1958 3.81078 27.2968 4.3947C27.3977 4.97862 27.4622 5.58661 27.5145 6.18618C27.5145 6.22711 27.5815 6.22832 27.5815 6.18618Z" fill="#DCA35B"/>
<path d="M26.4743 9.95801C26.63 8.51929 26.5813 7.05408 26.1823 5.6563C26.1812 5.65258 26.1795 5.6491 26.1771 5.64606C26.1747 5.64302 26.1717 5.64048 26.1683 5.63858C26.1649 5.63668 26.1612 5.63546 26.1573 5.63499C26.1535 5.63451 26.1495 5.6348 26.1458 5.63583C26.142 5.63686 26.1385 5.63861 26.1354 5.64098C26.1324 5.64335 26.1298 5.64629 26.1279 5.64965C26.126 5.653 26.1247 5.6567 26.1242 5.66052C26.1238 5.66435 26.1241 5.66823 26.1251 5.67195C26.3855 7.08539 26.5497 8.51929 26.4511 9.95801C26.4511 9.97246 26.473 9.97126 26.4743 9.95801Z" fill="#191919"/>
<path d="M26.04 5.09001C26.036 5.00311 26.0233 4.91681 26.0023 4.83236C25.9828 4.73846 25.9645 4.64575 25.9402 4.55305C25.8928 4.37246 25.8441 4.19186 25.7918 4.01247C25.7902 4.00689 25.7864 4.00216 25.7812 3.99934C25.7761 3.99652 25.7701 3.99583 25.7644 3.99743C25.7588 3.99902 25.754 4.00277 25.7511 4.00785C25.7483 4.01293 25.7476 4.01893 25.7492 4.02451C25.7833 4.20872 25.8198 4.3857 25.8587 4.57592C25.8782 4.66502 25.9013 4.75411 25.9244 4.8432C25.9449 4.93067 25.9734 5.0161 26.0096 5.09844C26.0169 5.11289 26.04 5.09844 26.04 5.09001Z" fill="#191919"/>
<path d="M25.4377 3.34639C25.439 3.34582 25.4401 3.34489 25.4409 3.3437C25.4416 3.34251 25.4421 3.34112 25.4421 3.3397C25.4421 3.33828 25.4416 3.33689 25.4409 3.3357C25.4401 3.33451 25.439 3.33358 25.4377 3.33301C25.4364 3.33358 25.4353 3.33451 25.4345 3.3357C25.4337 3.33689 25.4333 3.33828 25.4333 3.3397C25.4333 3.34112 25.4337 3.34251 25.4345 3.3437C25.4353 3.34489 25.4364 3.34582 25.4377 3.34639Z" fill="#191919"/>
<path d="M26.7979 8.52657C26.8042 8.08686 26.7807 7.64723 26.7274 7.21065C26.6763 6.78566 26.6617 6.36789 26.5692 5.94169C26.5607 5.90678 26.5011 5.914 26.5047 5.95012C26.5522 6.37993 26.6483 6.80492 26.6775 7.23594C26.7067 7.66695 26.7322 8.09676 26.7566 8.52657C26.7566 8.532 26.7588 8.53721 26.7626 8.54105C26.7665 8.54488 26.7718 8.54704 26.7773 8.54704C26.7827 8.54704 26.788 8.54488 26.7919 8.54105C26.7958 8.53721 26.7979 8.532 26.7979 8.52657Z" fill="#191919"/>
<path d="M25.0935 3.04676C24.9981 2.7152 24.8727 2.39284 24.7188 2.0836C24.5687 1.76256 24.3813 1.45993 24.1603 1.18184C24.1506 1.1698 24.1336 1.18184 24.1287 1.19027L24.0886 1.28418C24.0886 1.29862 24.1019 1.31066 24.1092 1.29622L24.164 1.20472H24.1311C24.3063 1.50329 24.4961 1.79104 24.6604 2.09805C24.8186 2.40572 24.956 2.72346 25.0716 3.04917C25.0716 3.06241 25.0983 3.05639 25.0935 3.04315V3.04676Z" fill="#191919"/>
<path d="M24.1907 1.54715C24.1894 1.48034 24.1701 1.41509 24.1348 1.35813C24.1082 1.29501 24.0717 1.23648 24.0265 1.18476C23.9936 1.15225 23.9231 1.13419 23.8926 1.17874C23.8872 1.18606 23.8842 1.19484 23.8839 1.20392C23.8837 1.213 23.8862 1.22194 23.8913 1.22954C23.8963 1.23714 23.9035 1.24303 23.9121 1.24643C23.9206 1.24983 23.9299 1.25058 23.9389 1.24857C23.9426 1.24741 23.946 1.24547 23.9489 1.24287C23.9518 1.24028 23.954 1.23709 23.9555 1.23354C23.957 1.22999 23.9578 1.22615 23.9576 1.2223C23.9575 1.21845 23.9565 1.21468 23.9547 1.21124C23.9168 1.13215 23.8672 1.0591 23.8075 0.994534C23.7905 0.980086 23.7564 0.994534 23.7661 1.01861C23.8008 1.09785 23.8476 1.17135 23.9048 1.23653L23.9194 1.20041C23.9272 1.20229 23.9347 1.20555 23.9413 1.21004C23.9519 1.21944 23.9609 1.23041 23.9681 1.24255C23.9948 1.27746 24.0192 1.31358 24.0435 1.3497C24.0826 1.42029 24.1269 1.4879 24.1761 1.55196C24.1761 1.55196 24.1895 1.55196 24.1907 1.55196V1.54715Z" fill="#191919"/>
<path d="M25.5826 19.7846C25.7383 19.0052 25.8815 18.2235 26.0121 17.4393C26.0121 17.4236 25.9914 17.4164 25.9889 17.4321C25.8373 18.2138 25.697 18.9968 25.568 19.781C25.568 19.7829 25.5688 19.7847 25.5701 19.7861C25.5715 19.7874 25.5734 19.7882 25.5753 19.7882C25.5772 19.7882 25.5791 19.7874 25.5805 19.7861C25.5818 19.7847 25.5826 19.7829 25.5826 19.781V19.7846Z" fill="#191919"/>
<path d="M26.1252 16.4294C26.1824 15.9755 26.2128 15.5252 26.225 15.0665C26.2371 14.6078 26.259 14.1575 26.225 13.7024C26.225 13.6986 26.2234 13.6949 26.2207 13.6922C26.218 13.6895 26.2143 13.688 26.2104 13.688C26.2065 13.688 26.2028 13.6895 26.2001 13.6922C26.1973 13.6949 26.1958 13.6986 26.1958 13.7024C26.1958 14.1563 26.2238 14.6126 26.1958 15.0665C26.1678 15.5204 26.1301 15.9779 26.0814 16.4294C26.0814 16.4511 26.1131 16.4511 26.1155 16.4294H26.1252Z" fill="#191919"/>
<path d="M26.1482 12.837C26.1482 12.8213 26.1482 12.8057 26.1482 12.79C26.1458 12.7745 26.1458 12.7586 26.1482 12.7431C26.1571 12.7093 26.1762 12.679 26.203 12.6564C26.2139 12.6467 26.203 12.6323 26.186 12.6407C26.1553 12.6663 26.1314 12.699 26.1166 12.7358C26.1104 12.7537 26.1071 12.7724 26.1069 12.7912C26.1071 12.8113 26.113 12.8309 26.1239 12.8478C26.1255 12.8507 26.1282 12.8529 26.1314 12.854C26.1346 12.855 26.1381 12.8549 26.1411 12.8535C26.1442 12.8521 26.1466 12.8497 26.148 12.8466C26.1493 12.8435 26.1494 12.8401 26.1482 12.837Z" fill="#191919"/>
<path d="M3.67146 22.1797C3.47923 21.6006 3.29066 21.0215 3.08992 20.446C3.08992 20.44 3.07654 20.446 3.07897 20.446C3.26511 21.0263 3.46463 21.6018 3.65929 22.1797C3.65929 22.1869 3.67389 22.1797 3.67146 22.1797Z" fill="#191919"/>
<path d="M2.6811 18.7815C2.60245 18.4652 2.54997 18.143 2.52416 17.8183C2.52341 17.8162 2.52202 17.8143 2.52016 17.813C2.51831 17.8117 2.51609 17.811 2.51382 17.811C2.51155 17.811 2.50933 17.8117 2.50748 17.813C2.50562 17.8143 2.50423 17.8162 2.50348 17.8183C2.51658 18.145 2.57177 18.4686 2.66772 18.7815C2.66829 18.7828 2.66922 18.7839 2.67041 18.7846C2.6716 18.7854 2.67299 18.7858 2.67441 18.7858C2.67583 18.7858 2.67722 18.7854 2.67841 18.7846C2.6796 18.7839 2.68054 18.7828 2.6811 18.7815Z" fill="#191919"/>
<path d="M2.50591 17.2446C2.50591 16.958 2.51686 16.6703 2.50591 16.3837C2.50517 16.3816 2.50377 16.3798 2.50192 16.3785C2.50006 16.3772 2.49784 16.3765 2.49557 16.3765C2.4933 16.3765 2.49108 16.3772 2.48923 16.3785C2.48737 16.3798 2.48598 16.3816 2.48523 16.3837C2.47671 16.6703 2.48523 16.958 2.48523 17.2446C2.48523 17.2468 2.48613 17.2489 2.48772 17.2505C2.48932 17.2521 2.49149 17.253 2.49375 17.253C2.49601 17.253 2.49817 17.2521 2.49977 17.2505C2.50137 17.2489 2.50226 17.2468 2.50226 17.2446H2.50591Z" fill="#191919"/>
<path d="M2.51813 16.1938C2.43783 17.4676 2.4865 18.8028 3.02302 19.9827L3.08142 19.949C2.81017 19.4957 2.61694 19.0009 2.50961 18.485C2.50961 18.4621 2.46825 18.4717 2.47312 18.4958C2.59159 19.0138 2.77639 19.5146 3.02302 19.9863C3.03884 20.0212 3.10088 19.9959 3.08507 19.9598C2.84333 19.3579 2.68891 18.7252 2.62641 18.0804C2.55584 17.4544 2.56314 16.8247 2.52908 16.1975H2.51813V16.1938Z" fill="#191919"/>
<path d="M2.11422 15.6654C2.13369 15.5631 2.15194 15.462 2.16532 15.3596C2.1787 15.2573 2.18965 15.1489 2.19938 15.043C2.19938 15.0285 2.17505 15.0249 2.17262 15.043C2.1568 15.1453 2.14099 15.2477 2.12882 15.3512C2.11665 15.4547 2.10935 15.5619 2.10327 15.6678H2.11422V15.6654Z" fill="#191919"/>
<path d="M2.20299 14.948C2.17957 14.7087 2.19477 14.4673 2.24801 14.2328C2.24914 14.2287 2.24855 14.2242 2.24639 14.2205C2.24422 14.2168 2.24064 14.2141 2.23645 14.213C2.23225 14.2118 2.22778 14.2124 2.22402 14.2146C2.22025 14.2167 2.2175 14.2202 2.21638 14.2244C2.14131 14.4578 2.12502 14.7057 2.16893 14.9468C2.16893 14.966 2.20421 14.9612 2.20299 14.9468V14.948Z" fill="#191919"/>
<path d="M2.62633 19.35C2.38257 18.7717 2.23745 18.1573 2.19686 17.532C2.19686 17.5128 2.16402 17.5128 2.16645 17.532C2.2069 18.1609 2.36101 18.7774 2.62146 19.3524L2.62633 19.35Z" fill="#191919"/>
<path d="M1.70406 12.2659C1.71136 11.7085 1.65783 11.1486 1.65175 10.5912C1.64566 10.0338 1.6773 9.47516 1.69798 8.91652C1.69798 8.90087 1.67608 8.90087 1.67365 8.91652C1.6108 9.48262 1.58074 10.0518 1.58362 10.6213C1.56363 11.1723 1.59376 11.7239 1.67365 12.2695C1.67459 12.2728 1.67658 12.2757 1.67933 12.2777C1.68207 12.2798 1.68542 12.2809 1.68885 12.2809C1.69229 12.2809 1.69563 12.2798 1.69838 12.2777C1.70112 12.2757 1.70312 12.2728 1.70406 12.2695V12.2659Z" fill="#191919"/>
<path d="M1.72473 7.57542C1.72638 7.63232 1.72189 7.68923 1.71135 7.74518L1.77461 7.75361C1.75332 7.48795 1.75332 7.22105 1.77461 6.95539C1.80123 6.67946 1.85377 6.40659 1.93155 6.14031C1.93155 6.11985 1.906 6.11142 1.8987 6.13189C1.70154 6.65171 1.63719 7.21168 1.71135 7.76204C1.71135 7.80177 1.78677 7.78371 1.77339 7.74518C1.75858 7.68974 1.75041 7.63276 1.74906 7.57542C1.74906 7.57223 1.74778 7.56917 1.7455 7.56691C1.74321 7.56465 1.74012 7.56338 1.73689 7.56338C1.73367 7.56338 1.73057 7.56465 1.72829 7.56691C1.72601 7.56917 1.72473 7.57223 1.72473 7.57542Z" fill="#191919"/>
<path d="M2.84659 11.6434C2.85041 11.4559 2.79882 11.2714 2.69817 11.1125C2.69702 11.1114 2.69551 11.1106 2.69389 11.1104C2.69226 11.1102 2.69062 11.1105 2.68921 11.1114C2.68781 11.1122 2.68673 11.1135 2.68615 11.115C2.68556 11.1165 2.68551 11.1182 2.686 11.1197C2.73177 11.2009 2.7681 11.2869 2.79428 11.3762C2.81627 11.464 2.83172 11.5534 2.84051 11.6434H2.84659Z" fill="#191919"/>
<path d="M3.63484 3.42894C3.92926 3.09825 4.21881 2.76315 4.5035 2.42364C4.52783 2.39354 4.48525 2.3502 4.46092 2.3803C4.17258 2.71981 3.89154 3.06173 3.60929 3.40847C3.59834 3.42292 3.61781 3.44459 3.63119 3.42894H3.63484Z" fill="#191919"/>
<path d="M5.4745 1.49658C5.25498 1.55738 5.04284 1.64176 4.84186 1.74821C4.74332 1.806 4.65207 1.86018 4.56083 1.92639C4.51703 1.95529 4.47445 1.98539 4.43065 2.01308C4.38404 2.03902 4.33895 2.06756 4.29561 2.09856C4.25911 2.12866 4.31264 2.18283 4.34792 2.15033C4.51946 1.99502 4.68857 1.8361 4.85646 1.67597C4.87471 1.65791 4.84673 1.63142 4.82848 1.64828C4.64842 1.79637 4.4708 1.94566 4.29561 2.09856L4.34792 2.15033C4.38442 2.11421 4.41118 2.07087 4.44768 2.02993C4.48306 1.993 4.52086 1.95841 4.56083 1.92639C4.64946 1.86122 4.743 1.80285 4.84065 1.75182C5.04079 1.6439 5.2526 1.55869 5.47206 1.49779L5.4745 1.49658Z" fill="#191919"/>
<path d="M4.8539 1.52588C4.81253 1.58728 4.77117 1.64627 4.73224 1.71008L4.8539 1.52588Z" fill="#191919"/>
<path d="M3.52417 3.06085L3.64584 2.89952C3.6872 2.84534 3.72491 2.78996 3.7675 2.73458C3.7748 2.72374 3.75776 2.7105 3.74925 2.72013C3.70667 2.7731 3.66287 2.82487 3.6215 2.87905L3.49984 3.04279C3.48646 3.06085 3.51688 3.07891 3.53147 3.06085H3.52417Z" fill="#191919"/>
<path d="M3.49745 3.04334C3.43308 3.10058 3.37404 3.16344 3.32105 3.23115C3.2955 3.26366 3.26995 3.29617 3.24683 3.32988L3.21399 3.38165C3.20943 3.3905 3.20414 3.39895 3.19817 3.40693C3.19062 3.41566 3.1837 3.42492 3.17749 3.43462C3.16289 3.46472 3.20304 3.50204 3.22858 3.47315C3.25413 3.44425 3.30523 3.38526 3.34051 3.33831C3.35389 3.31904 3.32591 3.30339 3.3101 3.31543C3.2663 3.35035 3.22493 3.38887 3.18844 3.4274L3.23953 3.46593C3.24805 3.44787 3.25048 3.4274 3.259 3.40814L3.28455 3.35637C3.30185 3.31969 3.32177 3.28429 3.34416 3.25042C3.3929 3.17958 3.4483 3.11347 3.50962 3.05297C3.50962 3.04695 3.50962 3.03973 3.5011 3.04454L3.49745 3.04334Z" fill="#191919"/>
<path d="M3.19579 3.61217C3.2021 3.74336 3.15872 3.87215 3.07413 3.97336C3.06804 3.98058 3.07413 3.99142 3.08508 3.98419C3.12978 3.9331 3.16359 3.8736 3.1845 3.80926C3.20541 3.74492 3.21297 3.67706 3.20674 3.60976C3.20674 3.60013 3.19092 3.60013 3.19214 3.60976L3.19579 3.61217Z" fill="#191919"/>
<path d="M3.40252 7.90645C3.43136 7.43308 3.52467 6.96574 3.67991 6.51709C3.52116 6.96485 3.42736 7.43263 3.40131 7.90645H3.40252Z" fill="#191919"/>
<path d="M3.99628 5.59317C4.03869 5.55112 4.0715 5.50056 4.09249 5.4449C4.11348 5.38924 4.12216 5.32977 4.11794 5.27051C4.12206 5.32958 4.11333 5.38884 4.09234 5.4443C4.07136 5.49975 4.0386 5.5501 3.99628 5.59196V5.59317Z" fill="#191919"/>
<path d="M3.52429 6.4734L3.58756 5.96533L3.52916 6.4734H3.52429Z" fill="#191919"/>
<path d="M23.9584 20.3022C23.3854 20.6394 22.8123 20.9753 22.2442 21.3184C22.243 21.3195 22.2423 21.321 22.2421 21.3226C22.2419 21.3242 22.2422 21.3259 22.243 21.3272C22.2439 21.3286 22.2452 21.3297 22.2467 21.3303C22.2482 21.3309 22.2499 21.3309 22.2515 21.3304C22.8245 20.9945 23.3927 20.6526 23.9632 20.3107V20.3022H23.9584Z" fill="#191919"/>
<path d="M19.2986 22.1526L19.1149 22.1988L19.2986 22.1514V22.1526Z" fill="#191919"/>
<path d="M14.7098 22.6137L14.4665 22.6594L14.7098 22.6113V22.6137Z" fill="#191919"/>
<path d="M14.4044 22.6644C15.4275 22.5644 16.4568 22.4477 17.4665 22.2526C17.4872 22.2526 17.4787 22.2189 17.458 22.2213C16.4397 22.3706 15.4263 22.538 14.4044 22.6596V22.6644Z" fill="#191919"/>
<path d="M19.5457 21.5942L19.2391 21.6857L19.5457 21.5942Z" fill="#191919"/>
<path d="M10.976 22.5146L10.611 22.5609L10.976 22.5146Z" fill="#191919"/>
<path d="M9.13288 22.5024L8.58906 22.6553C8.58176 22.6553 8.58906 22.6685 8.58906 22.6661L9.13775 22.5144C9.14001 22.5144 9.14217 22.5135 9.14377 22.5119C9.14537 22.5104 9.14626 22.5082 9.14626 22.506C9.14626 22.5038 9.14537 22.5016 9.14377 22.5C9.14217 22.4984 9.14001 22.4976 9.13775 22.4976L9.13288 22.5024Z" fill="#191919"/>
<path d="M7.65466 22.7088C7.64354 22.7111 7.62692 22.7116 7.61936 22.7122C7.61506 22.713 7.61158 22.7137 7.60963 22.7137L7.56583 22.7198L7.48067 22.7307L7.30426 22.7478L7.48432 22.7246L7.57313 22.7125H7.61693C7.61757 22.7124 7.61839 22.7123 7.61936 22.7122C7.62973 22.7102 7.64485 22.707 7.65466 22.7088Z" fill="#191919"/>
<path d="M7.74942 22.1259C7.31712 22.1405 6.88522 22.1357 6.45374 22.1113V22.1174C6.88563 22.1405 7.31752 22.1454 7.74942 22.1296V22.1259Z" fill="#191919"/>
<path d="M6.05363 22.0325C5.67351 21.922 5.30088 21.7877 4.93801 21.6304C4.93801 21.6304 4.93192 21.6304 4.93801 21.6304C5.29464 21.8033 5.66854 21.9389 6.05363 22.0349C6.05363 22.0349 6.06093 22.0289 6.05363 22.0277V22.0325Z" fill="#191919"/>
<path d="M5.09117 22.6119C5.05272 22.6057 5.01541 22.594 4.98046 22.577C4.94915 22.5608 4.92045 22.5401 4.8953 22.5156L4.88435 22.5336L4.91963 22.5432C4.9308 22.5461 4.94253 22.5461 4.9537 22.5432C4.95495 22.5424 4.95598 22.5412 4.95668 22.5398C4.95739 22.5385 4.95776 22.537 4.95776 22.5354C4.95776 22.5339 4.95739 22.5324 4.95668 22.531C4.95598 22.5297 4.95495 22.5285 4.9537 22.5276C4.9464 22.5192 4.93302 22.5192 4.92207 22.5156L4.88678 22.5059C4.88442 22.5057 4.88204 22.5061 4.87993 22.5072C4.87782 22.5083 4.87608 22.5099 4.87491 22.512C4.87375 22.514 4.87322 22.5164 4.87338 22.5187C4.87354 22.5211 4.8744 22.5233 4.87584 22.5252C4.9322 22.5797 5.00752 22.6107 5.08631 22.6119V22.6059L5.09117 22.6119Z" fill="#191919"/>
<path d="M24.1299 8.29027V7.79785H24.1226V8.29027H24.1299Z" fill="#191919"/>
<path d="M23.9315 6.05358V6.02073C23.9315 6.01912 23.9309 6.01757 23.9298 6.01643C23.9286 6.01529 23.9271 6.01465 23.9255 6.01465C23.9238 6.01465 23.9223 6.01529 23.9212 6.01643C23.92 6.01757 23.9194 6.01912 23.9194 6.02073V6.05966H23.9255L23.9315 6.05358Z" fill="#191919"/>
<path d="M23.6822 5.40479C23.6103 5.0745 23.4945 4.75508 23.3379 4.45487C23.3379 4.44765 23.3257 4.45487 23.3281 4.45487C23.3963 4.61379 23.4693 4.77151 23.5289 4.93645C23.5885 5.10139 23.6335 5.24948 23.6749 5.4084C23.6749 5.4084 23.6834 5.4084 23.6822 5.4084V5.40479Z" fill="#191919"/>
<path d="M21.7149 8.55661C21.7173 8.5907 21.7136 8.62494 21.7039 8.65774C21.6942 8.68062 21.7343 8.69266 21.7428 8.66858C21.7736 8.57619 21.7924 8.48031 21.7988 8.38324C21.8059 8.2874 21.8002 8.19105 21.7818 8.0967C21.7818 8.07864 21.7477 8.08225 21.7489 8.0967C21.755 8.1889 21.755 8.2814 21.7489 8.37361C21.7405 8.46764 21.7255 8.56098 21.7039 8.65293H21.7416C21.7305 8.62201 21.7247 8.58944 21.7246 8.55661H21.7149Z" fill="#191919"/>
<path d="M21.6115 7.64559C21.6148 7.65013 21.6176 7.65497 21.62 7.66003C21.6222 7.66342 21.6251 7.6663 21.6285 7.66846V7.67568C21.6291 7.67806 21.6291 7.68053 21.6285 7.68291V7.70578C21.6285 7.70578 21.6285 7.71421 21.6285 7.70578C21.6291 7.70897 21.6291 7.71223 21.6285 7.71542C21.6289 7.71821 21.6289 7.72105 21.6285 7.72384L21.6212 7.73107L21.6516 7.74311L21.6212 7.66124C21.6205 7.65524 21.6205 7.64918 21.6212 7.64318V7.63475C21.6218 7.63076 21.6218 7.6267 21.6212 7.62271C21.6176 7.60372 21.6073 7.58663 21.592 7.57455C21.5887 7.57149 21.5846 7.56945 21.5801 7.56869C21.5757 7.56793 21.5711 7.56848 21.5669 7.57028C21.5628 7.57207 21.5593 7.57503 21.5568 7.57879C21.5544 7.58254 21.5531 7.58693 21.5531 7.59141C21.5519 7.59979 21.5519 7.60831 21.5531 7.61669C21.5546 7.62757 21.5588 7.63791 21.5653 7.64679L21.5738 7.65401C21.5738 7.65401 21.5738 7.66244 21.5811 7.66365C21.585 7.66841 21.5883 7.67367 21.5908 7.6793L21.6224 7.75876C21.6233 7.76177 21.6249 7.76455 21.627 7.76687C21.6291 7.7692 21.6317 7.77101 21.6347 7.77218C21.6376 7.77334 21.6408 7.77382 21.6439 7.77358C21.6471 7.77334 21.6501 7.77239 21.6529 7.7708C21.6671 7.76235 21.6786 7.75002 21.6859 7.73528C21.6932 7.72055 21.6961 7.70404 21.6942 7.68772C21.6931 7.67097 21.6867 7.65497 21.676 7.64197C21.6712 7.63319 21.6634 7.62637 21.6541 7.62271C21.646 7.62145 21.6378 7.62145 21.6297 7.62271C21.6285 7.6236 21.6275 7.62478 21.6268 7.62614C21.6261 7.6275 21.6257 7.62901 21.6257 7.63054C21.6257 7.63207 21.6261 7.63357 21.6268 7.63493C21.6275 7.6363 21.6285 7.63747 21.6297 7.63836L21.6115 7.64559Z" fill="#191919"/>
<path d="M6.75065 9.84243C6.73849 9.83159 6.74092 9.79427 6.7397 9.77862C6.73849 9.76296 6.7397 9.74009 6.7397 9.71962C6.7397 9.69916 6.7397 9.64498 6.7397 9.60645C6.74331 9.56599 6.74941 9.52578 6.75795 9.48606C6.75795 9.468 6.76525 9.44994 6.77012 9.43188C6.77851 9.40945 6.78868 9.38771 6.80053 9.36687L6.77985 9.35844C6.73362 9.47161 6.71902 9.59923 6.65819 9.70758C6.64602 9.73287 6.68131 9.76658 6.70199 9.74009C6.73353 9.70152 6.75521 9.65599 6.76516 9.60736C6.77512 9.55874 6.77306 9.50845 6.75917 9.46077C6.75733 9.45507 6.7535 9.45019 6.74836 9.44702C6.74323 9.44385 6.73712 9.44258 6.73113 9.44345C6.72514 9.44432 6.71966 9.44726 6.71566 9.45176C6.71166 9.45625 6.7094 9.46201 6.70929 9.468C6.71069 9.50831 6.70784 9.54866 6.70077 9.58839C6.69162 9.6301 6.67732 9.67054 6.65819 9.70879L6.7105 9.72203C6.72145 9.60164 6.77498 9.48124 6.79567 9.36085C6.79567 9.3464 6.77742 9.34038 6.77498 9.36085C6.77255 9.38131 6.77498 9.40298 6.76404 9.42465C6.75309 9.44633 6.7543 9.46679 6.74944 9.48726C6.7417 9.52461 6.73642 9.56241 6.73362 9.60043C6.73065 9.64051 6.73065 9.68075 6.73362 9.72083V9.78464C6.73362 9.80029 6.74579 9.83039 6.73362 9.84483C6.72145 9.85928 6.75552 9.85326 6.74335 9.84483L6.75065 9.84243Z" fill="#191919"/>
<path d="M17.8217 19.904C17.8217 19.7391 17.8302 19.5741 17.8217 19.4104C17.8217 19.4053 17.8197 19.4004 17.816 19.3968C17.8124 19.3931 17.8074 19.3911 17.8022 19.3911C17.7971 19.3911 17.7921 19.3931 17.7885 19.3968C17.7848 19.4004 17.7828 19.4053 17.7828 19.4104C17.7743 19.5741 17.7828 19.7391 17.7828 19.904C17.7828 19.9091 17.7848 19.914 17.7885 19.9176C17.7921 19.9212 17.7971 19.9233 17.8022 19.9233C17.8074 19.9233 17.8124 19.9212 17.816 19.9176C17.8197 19.914 17.8217 19.9091 17.8217 19.904Z" fill="#191919"/>
<path d="M17.5504 19.7149L17.6015 19.4873L17.5504 19.7149Z" fill="#191919"/>
<path d="M17.5018 19.6007C17.5018 19.5213 17.5018 19.4418 17.5018 19.3599C17.502 19.3579 17.5015 19.3559 17.5005 19.3541C17.4994 19.3524 17.4979 19.351 17.496 19.3502C17.4941 19.3494 17.492 19.3492 17.49 19.3496C17.4879 19.3501 17.4861 19.3512 17.4848 19.3527C17.4568 19.3856 17.4374 19.4247 17.4283 19.4667C17.4192 19.5086 17.4206 19.5522 17.4325 19.5935C17.4325 19.6092 17.4605 19.6055 17.4617 19.5935C17.4617 19.4731 17.4471 19.3443 17.4373 19.2203C17.4276 19.0963 17.413 18.9711 17.3996 18.8471C17.3996 18.8218 17.357 18.8206 17.3595 18.8471C17.368 18.9735 17.3753 19.1011 17.3887 19.2275C17.4021 19.3539 17.4094 19.4755 17.4325 19.5983L17.4592 19.5863C17.4463 19.5502 17.4432 19.5114 17.4503 19.4738C17.4573 19.4362 17.4743 19.4011 17.4994 19.372H17.4824C17.4824 19.4514 17.4824 19.5309 17.4824 19.6128C17.4829 19.6141 17.4839 19.6152 17.485 19.6159C17.4862 19.6167 17.4876 19.6171 17.489 19.6171C17.4905 19.6171 17.4919 19.6167 17.493 19.6159C17.4942 19.6152 17.4952 19.6141 17.4957 19.6128L17.5018 19.6007Z" fill="#191919"/>
<path d="M20.3085 1.48009C20.2707 1.53318 20.2233 1.5789 20.1686 1.61493C20.1108 1.65468 20.0472 1.68553 19.9801 1.70643L19.991 1.71727L20.0324 1.58724C20.0487 1.54525 20.0621 1.50221 20.0725 1.45842C20.081 1.41869 20.0409 1.33802 19.9934 1.37896C19.9849 1.38498 19.9934 1.39942 20.002 1.3934C20.0105 1.38738 20.0421 1.40183 20.0482 1.4223C20.0518 1.4512 20.0467 1.48052 20.0336 1.50658L19.974 1.71245C19.9734 1.71396 19.9733 1.71561 19.9736 1.71718C19.974 1.71876 19.9748 1.72021 19.9759 1.72135C19.9771 1.72249 19.9786 1.72328 19.9802 1.72362C19.9817 1.72397 19.9834 1.72385 19.9849 1.72329C20.0556 1.70237 20.1225 1.67069 20.1832 1.62938C20.238 1.5916 20.2854 1.54428 20.3231 1.48972C20.3304 1.48009 20.3146 1.47166 20.3085 1.48009Z" fill="#191919"/>
</g>
<defs>
<clipPath id="clip0">
<rect width="28" height="24" fill="white"/>
</clipPath>
</defs>
</svg>
