<svg width="41" height="48" viewBox="0 0 41 48" fill="none" xmlns="http://www.w3.org/2000/svg">
<g clip-path="url(#clip0)">
<path d="M12.2808 17.0727C12.6038 16.3925 12.9787 15.738 13.4022 15.1152C13.6679 14.7297 13.9768 14.3758 14.323 14.0604C14.4733 13.9259 14.635 13.8048 14.8064 13.6984C15.0616 13.5177 15.3553 13.3987 15.6644 13.3508C15.7394 13.3379 15.8155 13.3322 15.8916 13.3339C15.9676 13.3304 16.0438 13.3352 16.1188 13.3484H16.2323L16.3459 13.3798L16.5731 13.4425C17.1918 13.6969 17.7495 14.0795 18.2093 14.5649C18.8416 15.1223 19.3902 15.7678 19.8383 16.4814C19.503 15.855 19.0976 15.2688 18.6298 14.7338C18.1737 14.1894 17.6216 13.7329 17.0009 13.387C16.5031 13.1162 15.9207 13.0445 15.372 13.1867C14.8351 13.3698 14.3587 13.6962 13.9944 14.1304C13.6208 14.5587 13.2965 15.0275 13.0276 15.528C12.7511 16.0272 12.5042 16.5422 12.2881 17.0703" fill="#2B2B2B"/>
<path d="M18.5767 14.4102C19.8666 15.833 20.7161 17.5986 21.0225 19.4934C20.8738 18.9183 20.6715 18.3583 20.4183 17.8207C20.0346 16.5742 19.4088 15.4153 18.5767 14.4102Z" fill="#2B2B2B"/>
<path d="M16.8366 42.4475L16.7592 42.7274L16.6601 42.9953L16.4354 43.5504C16.2831 43.9197 16.1236 44.2745 15.952 44.6292C15.7829 44.9716 15.5882 45.3008 15.3695 45.6139C15.1743 45.9071 14.9288 46.1636 14.6445 46.3718C14.4252 46.5429 14.148 46.6225 13.8711 46.5938C13.6205 46.5058 13.4023 46.3443 13.2452 46.1304C12.8026 45.5733 12.5016 44.9175 12.3678 44.219C12.213 43.4944 12.1714 42.7503 12.2446 42.0131C12.2564 41.8261 12.279 41.6399 12.3123 41.4555C12.3388 41.2697 12.3678 41.0863 12.4089 40.8908C12.4839 40.5071 12.5733 40.1209 12.6627 39.7347C12.9044 38.5884 13.221 37.4299 13.4748 36.2304C13.7102 35.1779 13.8461 34.1056 13.8808 33.0277C13.9354 31.8446 13.8421 30.6593 13.6028 29.4993C13.4681 28.9161 13.2912 28.3434 13.0736 27.7857L13.0421 27.7061C12.9237 28.2081 12.7304 28.6714 12.5878 29.1179C12.6987 29.4753 12.7891 29.8387 12.8585 30.2064C12.998 31.0033 13.0659 31.8109 13.0615 32.6199C13.0739 33.4273 13.0205 34.2345 12.902 35.0333C12.6603 36.6286 12.247 38.1853 11.9352 39.7565C11.7641 40.5301 11.6558 41.3162 11.6114 42.1072C11.5778 42.8995 11.6659 43.6922 11.8724 44.4579C11.9207 44.6485 11.9957 44.8296 12.0585 45.0178C12.1292 45.1991 12.2099 45.3764 12.3002 45.5488C12.4743 45.8959 12.7009 46.2142 12.9721 46.4924C13.1021 46.6284 13.2501 46.7462 13.4119 46.8424C13.4888 46.8875 13.5697 46.9255 13.6536 46.9558C13.7369 46.9792 13.8234 46.989 13.9098 46.9848C14.2773 46.9815 14.6311 46.8451 14.9055 46.601C15.488 46.1183 15.8722 45.3943 16.1985 44.6847C16.3604 44.3251 16.5079 43.9607 16.6456 43.5794C16.7892 43.2106 16.9126 42.8344 17.0154 42.4523C17.4045 40.9125 17.6607 39.3148 17.9435 37.7412C17.6003 39.322 17.2837 40.9222 16.8341 42.4426" fill="#2B2B2B"/>
<path d="M12.8342 31.7872C12.8342 31.8814 12.8342 32.1662 12.8052 32.5982C12.781 33.1504 12.7253 33.7007 12.6384 34.2466C12.4378 35.5547 11.9448 37.1886 11.4856 38.8321C11.372 39.2448 11.2633 39.6624 11.1642 40.0751C11.0651 40.4878 10.9757 40.8932 10.9104 41.3156C10.7823 42.0801 10.7474 42.8572 10.8065 43.6301C10.8588 44.191 10.969 44.745 11.1352 45.2833C11.2004 45.4812 11.2633 45.6333 11.3019 45.7395C11.3211 45.7931 11.3437 45.8455 11.3696 45.8963C11.6628 46.5301 12.0958 47.0895 12.636 47.5327C12.8074 47.664 12.9951 47.7727 13.1943 47.8561C13.3132 47.9091 13.4382 47.9472 13.5665 47.9695C13.684 47.9946 13.8042 48.0044 13.9242 47.9985C14.147 48.0038 14.3693 47.9761 14.584 47.9164C14.6874 47.8882 14.7884 47.8519 14.8861 47.8078C14.9838 47.7712 15.0777 47.7251 15.1665 47.6702C15.7673 47.2907 16.2653 46.7694 16.6165 46.1522C16.9327 45.6309 17.2066 45.0854 17.4359 44.5207C17.5494 44.2479 17.6558 43.9752 17.7549 43.7073C17.866 43.4235 17.9628 43.1344 18.0449 42.8409C18.2092 42.2617 18.3349 41.7042 18.4582 41.1515C18.6999 40.034 18.9005 38.9238 19.1107 37.8209C19.1953 37.1451 19.2751 36.4525 19.3862 35.8274C19.4974 35.2023 19.6714 34.5265 19.843 33.8701C20.1935 32.5547 20.5681 31.2442 21.0152 29.9458C20.5681 30.9956 20.1572 32.0551 19.7633 33.1267C19.3573 34.1836 19.0199 35.2655 18.753 36.3656C18.5113 37.4734 18.2938 38.6029 18.057 39.7251C17.9386 40.285 17.8153 40.8474 17.6824 41.4145C17.5494 41.9817 17.4093 42.532 17.2159 43.0871C16.9248 43.9679 16.5551 44.8208 16.1114 45.6357C15.8824 46.0527 15.5915 46.4327 15.2486 46.7628C14.8881 47.1186 14.4021 47.3188 13.8952 47.3203C13.7624 47.3226 13.6303 47.2996 13.5061 47.2527L13.3297 47.1731C13.274 47.1429 13.2199 47.1099 13.1677 47.0741C12.9659 46.9379 12.783 46.7756 12.6239 46.5914C12.3166 46.2292 12.0664 45.8222 11.882 45.3847C11.5178 44.5171 11.3297 43.5861 11.3285 42.6454C11.3319 41.7164 11.4372 40.7905 11.6427 39.8844C11.824 38.9818 12.0391 38.0912 12.2421 37.1982C12.4451 36.3052 12.6288 35.4147 12.7448 34.5145C12.8496 33.6134 12.8795 32.7053 12.8342 31.7993" fill="#2B2B2B"/>
<path d="M22.0762 22.6646C21.8627 21.5713 21.5513 20.4994 21.1458 19.4617C21.4321 20.4931 21.6126 21.5509 21.6847 22.6188L22.0762 22.6646Z" fill="#2B2B2B"/>
<path d="M21.2642 27.1147C21.1651 27.5973 21.0902 27.9618 20.9693 28.43C20.8449 28.9171 20.6833 29.3939 20.486 29.8563C20.2854 30.339 20.092 30.7976 19.9035 31.273C19.5217 32.2119 19.1761 33.1773 18.8329 34.1427C18.6709 34.6253 18.5114 35.108 18.3761 35.6124C18.2407 36.1169 18.1344 36.6164 18.0329 37.1136C18.161 36.6189 18.2746 36.1241 18.4413 35.6293C18.6081 35.1346 18.7773 34.664 18.9634 34.1813C19.3356 33.2304 19.7368 32.2939 20.1525 31.3648C20.3603 30.9014 20.573 30.438 20.7929 29.9843C21.02 29.5166 21.2115 29.0326 21.3657 28.5362C21.4986 28.0969 21.6074 27.5708 21.7137 27.146L21.2642 27.1147Z" fill="#2B2B2B"/>
<path d="M11.1545 19.9039C11.3962 18.9384 11.6911 18.4557 12.0439 17.5095C12.3875 16.5625 12.8341 15.656 13.3756 14.8062C13.6505 14.3802 13.9813 13.993 14.3592 13.6549C14.741 13.3075 15.22 13.0852 15.732 13.0176C16.2478 12.9885 16.761 13.1101 17.2087 13.3676C17.6533 13.6112 18.0604 13.9176 18.4171 14.2776C18.0644 13.8978 17.6571 13.5724 17.2087 13.3121C17.0992 13.2486 16.9853 13.193 16.8679 13.1456C16.8075 13.1214 16.7495 13.0901 16.6867 13.0683L16.4957 13.0104C16.2372 12.9217 15.9636 12.8856 15.6909 12.9042C15.1461 12.9644 14.6326 13.1892 14.2191 13.5487C13.8149 13.8893 13.4588 14.2831 13.1605 14.7193C12.9448 15.037 12.7471 15.3666 12.5684 15.7065C12.4089 15.9986 12.2711 16.2834 12.1382 16.5899C11.8482 17.2344 11.5968 17.8933 11.372 18.5595C11.2004 19.1919 11.053 19.3463 10.9249 19.986L11.1545 19.9039Z" fill="#2B2B2B"/>
<path d="M12.4744 29.5789C12.3208 28.843 12.0941 28.1243 11.7976 27.4333C11.6405 27.0641 11.469 26.7093 11.3143 26.3352C11.1596 25.9611 11.0001 25.5918 10.872 25.2105C10.6072 24.4476 10.4502 23.6515 10.4055 22.8453C10.3721 22.0352 10.4427 21.2241 10.6158 20.4319C10.8575 20.3402 11.0992 20.2533 11.3409 20.176C11.1353 21.1231 11.0879 22.0976 11.2007 23.0601C11.3445 24.0006 11.6373 24.9123 12.0683 25.7608C12.1167 25.8815 12.1674 26.0021 12.223 26.1228L12.3874 26.5017C12.5034 26.7672 12.6169 27.0375 12.7209 27.3126C12.7789 27.4623 12.8345 27.6167 12.8876 27.7688C13.4435 25.3553 14.2266 22.0272 14.7172 20.666C14.9226 20.0988 16.363 16.9999 16.4621 13.0781C16.3872 13.0443 16.3099 13.0105 16.2204 12.9815L15.9933 12.9188L15.8797 12.8874H15.7661C15.6911 12.8742 15.6149 12.8693 15.5389 12.8729C15.4628 12.8712 15.3867 12.8769 15.3117 12.8898C15.0027 12.9381 14.7091 13.0571 14.4537 13.2373C14.2824 13.3437 14.1206 13.4649 13.9704 13.5994C13.6248 13.9154 13.316 14.2691 13.0496 14.654C12.6271 15.2774 12.2522 15.9317 11.9282 16.6114C12.1451 16.0832 12.3928 15.5683 12.6701 15.0692C12.9389 14.5687 13.2632 14.0999 13.6369 13.6718C14.0012 13.2376 14.4776 12.9112 15.0144 12.7281C15.4964 12.5953 16.0098 12.6363 16.4645 12.844V12.7305C16.122 12.5865 15.7498 12.5269 15.3794 12.5567C14.8683 12.6247 14.3901 12.8471 14.009 13.1939C13.6298 13.5307 13.2988 13.9181 13.0254 14.3451C12.4847 15.1957 12.0389 16.103 11.6961 17.0506C11.3481 17.9726 11.2007 18.9379 10.959 19.9033L10.5844 19.995C10.7125 19.3555 10.8575 18.7183 11.0315 18.086C11.2537 17.4171 11.5094 16.7598 11.7976 16.1166C11.9306 15.8197 12.0732 15.5277 12.2278 15.2381C12.4048 14.8978 12.6017 14.5682 12.8175 14.251C13.1159 13.8149 13.4719 13.4211 13.8761 13.0805C14.2896 12.721 14.8031 12.4962 15.348 12.4361C15.6197 12.4128 15.8933 12.444 16.1528 12.5278L16.3437 12.5857C16.3866 12.6009 16.4286 12.6186 16.4694 12.6388C16.4726 11.5849 16.3665 10.5334 16.1528 9.50131C14.9975 4.03 11.817 0.503931 8.39716 0.0695083C3.12847 -0.59902 2.25841 3.73314 1.84513 5.42256C1.43185 7.11198 1.00649 10.8673 1.23609 12.967C1.42218 14.6709 2.61851 20.5598 2.12065 23.4511C1.62278 26.3424 0.271769 31.5096 0.018002 34.6737C-0.235766 37.8377 2.2294 40.2415 5.13927 40.466C8.04914 40.6904 9.86901 37.9053 10.495 36.73C11.1209 35.5546 11.9668 31.7051 12.368 30.023C12.3994 29.895 12.4333 29.7406 12.4744 29.5692" fill="#2B2B2B"/>
<path d="M15.0094 27.5466C14.9819 27.5349 14.9523 27.5292 14.9224 27.5297H14.8523C14.8346 27.5304 14.8169 27.5276 14.8003 27.5213C14.7837 27.5151 14.7685 27.5057 14.7556 27.4935C14.7506 27.4807 14.7425 27.4693 14.7319 27.4604C14.7214 27.4516 14.7087 27.4455 14.6952 27.4428C14.6276 27.4428 14.4874 27.2521 14.4535 27.1218C14.4535 27.0349 14.4366 26.948 14.4366 26.8515C14.4313 26.6884 14.4517 26.5256 14.497 26.3688C14.6445 25.8861 14.7387 25.6448 14.8451 25.3262C14.9152 25.1355 14.9925 24.8918 15.0288 24.788C15.0799 24.6326 15.1437 24.4816 15.2197 24.3367C15.2366 24.3367 15.2463 24.2932 15.2535 24.257C15.2608 24.2208 15.3333 24.0398 15.4106 23.8323C15.4879 23.6247 15.5774 23.4244 15.5774 23.4147C15.5861 23.3647 15.6068 23.3175 15.6378 23.2772C15.6644 23.2144 15.7417 23.0358 15.8021 22.8428C15.9326 22.4518 16.2855 21.4164 16.3773 21.1992C16.4168 21.1005 16.4483 20.9988 16.4716 20.8951L16.6021 20.4872C16.6448 20.3745 16.6772 20.2582 16.6988 20.1397C16.6966 20.1036 16.7066 20.0678 16.7272 20.038C16.7478 20.0083 16.7778 19.9863 16.8124 19.9756C16.8459 19.9516 16.885 19.9367 16.926 19.9321L16.9767 19.949C17.0426 19.9701 17.1096 19.9878 17.1773 20.0021C17.2547 20.0021 17.3852 20.0359 17.4649 20.0528C17.5439 20.0738 17.6249 20.0859 17.7066 20.089L18.1054 20.0697H18.2286C18.2823 20.0832 18.3377 20.0889 18.393 20.0866L19.002 20.1228C19.0782 20.1236 19.1543 20.1171 19.2292 20.1035H19.35C19.3766 20.1035 19.3936 20.1035 19.3936 20.1035C19.3936 20.1035 19.4467 20.1228 19.4806 20.1228H19.4975C19.5772 20.1228 19.7392 20.2531 19.7392 20.3207C19.7138 20.3839 19.6724 20.4394 19.619 20.4818C19.5656 20.5241 19.502 20.5518 19.4346 20.562C19.4241 20.5638 19.4133 20.5621 19.4038 20.5573C19.3942 20.5526 19.3864 20.5449 19.3815 20.5355C19.3645 20.492 19.2945 20.4655 19.2075 20.4655H19.1204C19.086 20.4711 19.0509 20.4711 19.0165 20.4655H18.8328C18.7871 20.4607 18.7409 20.4607 18.6951 20.4655C18.6506 20.4597 18.6054 20.4664 18.5646 20.4848C18.5332 20.4945 18.5007 20.5002 18.4679 20.5017H18.3712C18.144 20.5053 17.9176 20.5288 17.6945 20.5717C17.6945 20.5717 17.6945 20.5886 17.6945 20.6055V20.6851C17.5651 21.3495 17.3931 22.0049 17.1797 22.6473L17.042 23.0576C17.042 23.0576 17.0686 23.0576 17.1193 23.0576C17.2155 23.0585 17.3115 23.0529 17.4069 23.0407H17.6969C17.761 23.0394 17.825 23.045 17.8879 23.0576L18.0957 23.101C18.1194 23.1016 18.1427 23.1073 18.164 23.1177C18.1852 23.1281 18.204 23.143 18.219 23.1613L18.2891 23.241C18.306 23.241 18.3132 23.2579 18.3132 23.2651C18.3132 23.2723 18.2963 23.3013 18.2697 23.3351C18.1847 23.4123 18.0728 23.4531 17.958 23.4485C17.9164 23.447 17.8751 23.4413 17.8347 23.4316C17.7507 23.4033 17.6622 23.391 17.5737 23.3954C17.4185 23.396 17.2641 23.4171 17.1145 23.4582L16.897 23.5016C16.7737 23.8661 16.6964 24.0398 16.6553 24.2257L16.2396 25.2948L16.0462 25.8065C16.0027 25.9634 15.9423 26.1299 15.9254 26.1806C15.9085 26.2313 15.8481 26.3978 15.7949 26.5547C15.5532 27.3535 15.5532 27.3704 15.2825 27.4935C15.2131 27.5297 15.1402 27.5588 15.065 27.5804C15.0457 27.5804 15.0384 27.5804 15.0215 27.5538" fill="#2B2B2B"/>
<path d="M18.741 26.8691C18.6897 26.8551 18.6371 26.8463 18.584 26.8426C18.5561 26.8435 18.5285 26.8368 18.5043 26.8232C18.48 26.8096 18.4599 26.7896 18.4462 26.7653C18.434 26.745 18.4175 26.7276 18.3979 26.7143C18.3783 26.701 18.356 26.692 18.3326 26.6881C18.179 26.5834 18.0537 26.4424 17.9677 26.2778C17.9483 26.2343 17.9242 26.2005 17.9048 26.2005C17.8855 26.2005 17.871 26.174 17.871 26.1402C17.871 26.1064 17.871 26.0798 17.8541 26.0798C17.7719 25.9011 17.7189 25.7105 17.697 25.515C17.6708 25.3653 17.6595 25.2133 17.6631 25.0613C17.6604 24.8993 17.675 24.7374 17.7066 24.5785C17.8004 24.2819 17.9134 23.9916 18.045 23.7096C18.0798 23.6508 18.1035 23.5862 18.1151 23.5189C18.1267 23.4821 18.1475 23.4489 18.1755 23.4224C18.2704 23.3077 18.347 23.179 18.4027 23.041C18.4291 22.9815 18.4641 22.9262 18.5066 22.8769C18.5191 22.8697 18.5296 22.8596 18.5372 22.8474C18.5448 22.8351 18.5492 22.8212 18.5501 22.8069C18.5505 22.8033 18.5501 22.7997 18.5489 22.7963C18.5477 22.7929 18.5457 22.7898 18.5432 22.7873C18.5406 22.7847 18.5375 22.7828 18.5341 22.7816C18.5307 22.7804 18.5271 22.7799 18.5235 22.7803H18.4897C18.4781 22.7808 18.4666 22.7789 18.4558 22.7748C18.445 22.7706 18.4351 22.7643 18.4269 22.7562C18.4213 22.7504 18.4169 22.7436 18.414 22.7362C18.4111 22.7287 18.4097 22.7207 18.4099 22.7127C18.4126 22.6764 18.428 22.6423 18.4534 22.6162C18.4966 22.5581 18.5498 22.5083 18.6105 22.469C18.654 22.4424 18.6975 22.399 18.6975 22.3821C18.6975 22.3652 18.741 22.3217 18.7942 22.3024C18.9459 22.2324 19.1105 22.1946 19.2776 22.1914C19.4012 22.1886 19.5238 22.2151 19.6353 22.2686C19.6999 22.2979 19.767 22.3213 19.8359 22.3386C20.0219 22.4044 20.1952 22.5015 20.3482 22.6258C20.5899 22.8431 20.6697 22.9372 20.7059 23.0676C20.7192 23.1253 20.7395 23.1813 20.7664 23.2341L20.8606 23.4513C20.9166 23.6058 20.9405 23.7701 20.9307 23.9341C20.9307 24.2116 20.9307 24.2478 20.8437 24.3854C20.8167 24.4192 20.7962 24.4577 20.7833 24.4989L20.8679 24.4892C20.802 24.6831 20.7049 24.8649 20.5803 25.0275C20.4518 25.1907 20.3438 25.369 20.2588 25.5585C20.1941 25.6568 20.1213 25.7497 20.0413 25.8361C19.9633 25.9098 19.9008 25.9985 19.8576 26.0967C19.8037 26.1871 19.7361 26.2686 19.657 26.3381C19.5792 26.3996 19.5143 26.4759 19.4661 26.5626C19.4661 26.6326 19.4153 26.6929 19.2486 26.8039C19.1807 26.8559 19.1007 26.8896 19.016 26.9019C18.9314 26.9141 18.8451 26.9045 18.7652 26.8739L18.741 26.8691ZM19.2873 25.6309C19.3758 25.543 19.4566 25.4477 19.5289 25.3461C19.5689 25.2753 19.6222 25.213 19.686 25.1626C19.775 25.0692 19.8514 24.9645 19.9132 24.8513C19.9372 24.7927 19.9725 24.7394 20.0171 24.6944C20.0662 24.6395 20.1069 24.5777 20.138 24.5109C20.2008 24.4168 20.2612 24.3372 20.2685 24.3299C20.2779 24.325 20.2856 24.3172 20.2904 24.3077C20.2952 24.2981 20.2968 24.2873 20.2951 24.2768C20.3133 24.2259 20.3403 24.1785 20.3748 24.1368C20.4618 24.0427 20.4618 24.0258 20.4618 23.7458C20.4618 23.4658 20.4425 23.4417 20.3917 23.3813C20.3371 23.3225 20.2929 23.2548 20.2612 23.181C20.2348 23.13 20.1979 23.0851 20.1529 23.0494C20.1079 23.0136 20.0559 22.9877 20.0002 22.9734C19.9833 22.9734 19.964 22.9734 19.9567 22.9903C19.938 23.0251 19.9288 23.0643 19.9301 23.1038C19.909 23.2557 19.8385 23.3964 19.7295 23.5044C19.6369 23.6355 19.5561 23.7744 19.4878 23.9196C19.4105 24.0861 19.3332 24.2599 19.3066 24.3034C19.2776 24.3721 19.2628 24.446 19.2631 24.5206C19.2674 24.5743 19.2583 24.6282 19.2365 24.6775C19.1168 24.898 19.0157 25.1281 18.9344 25.3654C18.8964 25.5012 18.8785 25.6419 18.8812 25.783C18.8812 25.8699 18.8812 25.9302 18.9078 25.9398H18.9247C18.9682 25.9398 19.0287 25.8795 19.2728 25.6261" fill="#2B2B2B"/>
<path d="M21.3173 26.9488C21.2738 26.9488 21.2376 26.9295 21.2303 26.9126C21.1579 26.8488 21.0765 26.7959 20.9887 26.7557C20.9379 26.7388 20.8412 26.5819 20.6938 26.244C20.6536 26.1694 20.6297 26.0871 20.6237 26.0026V25.9061C20.6837 25.6179 20.777 25.3376 20.9017 25.0709C20.9524 24.9406 21.0322 24.7161 21.0829 24.5689C21.1337 24.4216 21.2062 24.1947 21.2569 24.0717C21.3114 23.9624 21.3583 23.8495 21.3971 23.7337C21.477 23.4969 21.5723 23.2655 21.6823 23.041L21.7596 22.8672C21.7596 22.8069 21.7862 22.7876 21.8201 22.7876H21.8636C21.9918 22.7968 22.1168 22.8321 22.2309 22.8914C22.2309 22.9083 22.2817 22.9179 22.3518 22.9179C22.4653 22.9179 22.4919 22.9445 22.5789 23.0386C22.6965 23.188 22.7739 23.365 22.8037 23.5527C22.7938 23.6096 22.7759 23.6649 22.7505 23.7168C22.7047 23.792 22.6697 23.8733 22.6466 23.9582L22.4557 24.4554C22.3617 24.664 22.2919 24.8827 22.2478 25.1071L22.2309 25.194C22.2309 25.2182 22.2478 25.2278 22.2744 25.2278C22.3518 25.2278 22.3856 25.194 22.4388 25.1071L22.5258 24.9768C22.5495 24.9332 22.5815 24.8947 22.62 24.8633C22.6458 24.8473 22.6647 24.8224 22.6732 24.7933C22.8509 24.524 23.0455 24.266 23.2556 24.021C23.2699 24.0078 23.2812 23.9917 23.2887 23.9738C23.2962 23.9559 23.2998 23.9366 23.2992 23.9172C23.3855 23.7497 23.5147 23.6081 23.6738 23.5068C23.7287 23.4943 23.7816 23.474 23.8309 23.4465C23.9189 23.4064 24.0127 23.3803 24.1088 23.3693H24.2055C24.2317 23.367 24.258 23.3724 24.2812 23.3849C24.3043 23.3973 24.3234 23.4162 24.336 23.4393C24.3867 23.4963 24.4579 23.5309 24.5342 23.5358C24.6212 23.5358 24.7009 23.5696 24.7082 23.5962C24.7541 23.6597 24.8041 23.7202 24.858 23.7772C24.9523 23.881 24.9692 23.9075 24.9692 24.0186V24.0982C24.9549 24.2417 24.9199 24.3823 24.8653 24.5158C24.8174 24.6163 24.7911 24.7256 24.7879 24.8368V24.9502C24.7879 25.0009 24.7638 25.0275 24.7009 25.0709C24.6405 25.1141 24.5672 25.1354 24.4931 25.1313C24.4421 25.1336 24.3912 25.1257 24.3434 25.1078C24.2957 25.09 24.252 25.0626 24.2151 25.0275C24.1699 24.9847 24.1106 24.9598 24.0484 24.9575C24.027 24.9582 24.0061 24.9516 23.989 24.9389C23.9719 24.9262 23.9596 24.9081 23.9541 24.8875C23.9362 24.8306 23.9128 24.7756 23.884 24.7233C23.7749 24.5604 23.7115 24.3712 23.7003 24.1754V24.1585C23.7003 24.0717 23.6834 24.0186 23.6496 24.0186C23.6158 24.0186 23.6061 24.0379 23.5698 24.0813L23.4152 24.2382C23.3267 24.3259 23.2503 24.4249 23.188 24.5327C23.0282 24.7858 22.8514 25.0277 22.6587 25.2568L22.5524 25.3775C22.5354 25.4112 22.475 25.4909 22.4315 25.5609C22.4003 25.6009 22.3743 25.6447 22.3542 25.6912L22.2043 25.865C22.1495 25.9225 22.0979 25.9829 22.0496 26.046C22.0015 26.1414 21.9396 26.2292 21.866 26.3067C21.8321 26.3067 21.7451 26.5167 21.7016 26.6712C21.6845 26.7414 21.6577 26.8088 21.6219 26.8715C21.6123 26.9027 21.5926 26.9298 21.5659 26.9486C21.5392 26.9674 21.5071 26.9768 21.4744 26.9753L21.3173 26.9488Z" fill="#2B2B2B"/>
<path d="M25.4743 27.0695C25.4214 27.0465 25.3664 27.0287 25.31 27.0164C25.2283 26.9936 25.1537 26.9508 25.0929 26.8917C25.0321 26.8327 24.9871 26.7594 24.9619 26.6785C24.9023 26.4873 24.8762 26.2873 24.8846 26.0872C24.8797 25.9026 24.9001 25.7183 24.945 25.5393L25.0151 25.2279C25.0243 25.1284 25.0504 25.0313 25.0924 24.9407C25.108 24.9042 25.1193 24.8662 25.1263 24.8272C25.1891 24.5274 25.2698 24.2316 25.368 23.9414L25.4477 23.6542C25.4795 23.53 25.5199 23.4083 25.5686 23.2897C25.629 23.1063 25.6894 22.9494 25.6894 22.9228C25.7082 22.8729 25.7351 22.8264 25.7692 22.7852C25.8199 22.7152 25.8562 22.6814 25.8997 22.6814C25.9359 22.6814 25.9794 22.6814 25.9963 22.6621H26.0302L26.1969 22.6959H26.3009C26.3308 22.6952 26.3604 22.7009 26.3879 22.7128C26.4046 22.7163 26.4219 22.7163 26.4386 22.7128C26.4594 22.7165 26.4807 22.7165 26.5015 22.7128C26.5162 22.702 26.5339 22.6961 26.5522 22.6959C26.5522 22.6959 26.5691 22.6959 26.5691 22.7128C26.5823 22.7231 26.5984 22.729 26.6151 22.7297H26.6392C26.6924 22.7297 26.7625 22.7732 26.9002 22.8866C26.9382 22.9403 26.9623 23.0024 26.9703 23.0676C26.98 23.1047 26.9857 23.1428 26.9872 23.1811C26.9876 23.2298 26.976 23.2779 26.9534 23.3211C26.9231 23.3986 26.9028 23.4798 26.893 23.5624C26.8882 23.657 26.8703 23.7504 26.8398 23.84C26.8146 23.8947 26.7998 23.9537 26.7963 24.0138V24.0307C26.7963 24.0573 26.7963 24.1007 26.7697 24.1104C26.7521 24.1322 26.7427 24.1595 26.7431 24.1876C26.7381 24.2444 26.7234 24.2999 26.6996 24.3517C26.6586 24.499 26.5087 25.0131 26.4749 25.17L26.3879 25.491C26.3611 25.5816 26.3433 25.6745 26.3347 25.7686C26.3347 25.8024 26.3347 25.812 26.354 25.812C26.371 25.812 26.4072 25.7517 26.4314 25.6913C26.4461 25.646 26.4699 25.6041 26.5015 25.5682C26.5908 25.4494 26.6715 25.3243 26.7431 25.1941C26.8172 25.0616 26.9047 24.9371 27.0042 24.8224C27.0108 24.8153 27.0159 24.8069 27.0192 24.7978C27.0226 24.7887 27.024 24.779 27.0235 24.7693C27.0359 24.7273 27.0529 24.6868 27.0743 24.6486C27.1391 24.5446 27.1972 24.4366 27.2483 24.3252C27.3076 24.2059 27.3746 24.0906 27.4489 23.98C27.4831 23.9422 27.5094 23.8979 27.5262 23.8497C27.5404 23.8107 27.5617 23.7747 27.589 23.7435C27.6043 23.7185 27.6261 23.6981 27.652 23.6845C27.678 23.6709 27.7072 23.6646 27.7365 23.6662C27.7725 23.6636 27.8075 23.6529 27.8389 23.6349C27.8703 23.617 27.8972 23.5922 27.9177 23.5624C28.1451 23.3822 28.4145 23.2626 28.7008 23.2149L28.928 23.198H29.0053H29.0681C29.1213 23.181 29.1767 23.1721 29.2325 23.1714C29.2728 23.17 29.313 23.177 29.3504 23.192C29.3879 23.2069 29.4218 23.2295 29.45 23.2583C29.4937 23.2863 29.5294 23.3249 29.554 23.3705C29.5785 23.4161 29.591 23.4672 29.5902 23.519C29.5837 23.6189 29.5659 23.7177 29.537 23.8135L29.4669 24.1273C29.4509 24.2105 29.425 24.2916 29.3896 24.3686C29.3461 24.4893 29.2929 24.61 29.2857 24.6631C29.2699 24.7477 29.2406 24.8292 29.1986 24.9045C29.168 24.9651 29.1444 25.0291 29.1286 25.0951C29.1148 25.1637 29.0945 25.2307 29.0681 25.2955C29.0418 25.3571 29.0208 25.4209 29.0053 25.4862C28.979 25.5638 28.9475 25.6396 28.911 25.713C28.8758 25.7896 28.8522 25.8709 28.841 25.9544V25.9713C28.841 25.9713 28.841 25.9713 28.8579 25.9713C28.8748 25.9713 28.9376 25.9086 29.0681 25.7444C29.4023 25.3501 29.7076 24.9322 29.9817 24.4941C30.013 24.4171 30.0535 24.3441 30.1025 24.2769C30.1726 24.1804 30.233 24.0766 30.25 24.05C30.281 24.019 30.3205 23.998 30.3636 23.9897C30.4302 23.9637 30.4875 23.9183 30.5279 23.8593C30.5593 23.8157 30.5949 23.7753 30.6342 23.7386C30.6963 23.6844 30.7515 23.6228 30.7986 23.5552C30.9557 23.338 30.9799 23.3307 31.4946 23.2438C31.5582 23.2388 31.622 23.2388 31.6856 23.2438C31.8017 23.233 31.9187 23.2539 32.0239 23.3042C32.0586 23.352 32.0855 23.4049 32.1037 23.4611C32.1206 23.5058 32.1296 23.5532 32.1303 23.6011C32.1274 23.6826 32.1152 23.7636 32.094 23.8424C32.0646 23.9719 32.0267 24.0993 31.9804 24.2238C31.9553 24.307 31.9351 24.3916 31.92 24.4772C31.889 24.6245 31.8486 24.7696 31.7992 24.9117C31.746 25.0855 31.6759 25.31 31.659 25.3944L31.5454 25.7951C31.5139 25.8819 31.4913 25.9717 31.4777 26.063C31.4777 26.0992 31.4777 26.1065 31.5116 26.1065C31.5357 26.1065 31.5551 26.0896 31.5551 26.0727C31.5551 26.0558 31.572 26.0389 31.5986 26.0292C31.6798 25.957 31.7527 25.8761 31.8161 25.7879C32.0023 25.5308 32.2083 25.2887 32.4324 25.0638C32.5244 24.9792 32.6056 24.8835 32.6741 24.7789L32.8819 24.4917C32.8869 24.5463 32.8869 24.6013 32.8819 24.6559C32.8809 24.714 32.866 24.7711 32.8384 24.8224C32.7367 24.9778 32.6236 25.1254 32.5 25.2641C32.2527 25.5046 32.0308 25.7699 31.8378 26.0558C31.8047 26.106 31.7599 26.1474 31.7073 26.1765C31.6807 26.1765 31.6541 26.1934 31.6469 26.2127C31.6173 26.2648 31.5789 26.3114 31.5333 26.3503C31.4882 26.3911 31.4527 26.4414 31.4294 26.4975C31.4294 26.524 31.3859 26.5747 31.3327 26.6182C31.288 26.6551 31.2496 26.6992 31.2191 26.7485C31.2022 26.8016 30.917 26.8789 30.7599 26.8789H30.7068C30.6467 26.861 30.5884 26.8375 30.5327 26.8089C30.3952 26.706 30.2774 26.5792 30.1847 26.4347C30.1847 26.4009 30.1581 26.3744 30.1412 26.3744C30.1074 26.3744 30.0905 26.2441 30.0905 26.1041C30.0844 25.9749 30.1016 25.8458 30.1412 25.7227C30.1637 25.6794 30.1761 25.6315 30.1775 25.5827C30.216 25.3683 30.2776 25.1587 30.3611 24.9576C30.4376 24.7745 30.4896 24.5822 30.5158 24.3855C30.5158 24.359 30.5158 24.3421 30.4917 24.3421C30.4675 24.3421 30.4216 24.3928 30.3611 24.5062C30.2717 24.6631 29.8633 25.2448 29.7328 25.4017C29.5234 25.6422 29.3403 25.9044 29.1866 26.1837C29.0887 26.39 28.9525 26.5759 28.7854 26.7316C28.7492 26.7241 28.7163 26.7055 28.6911 26.6785L28.6307 26.6085C28.5606 26.7123 28.5171 26.7389 28.5171 26.792L28.534 26.8427C28.534 26.8427 28.534 26.8427 28.5171 26.8427H28.1957H28.0652C28.0023 26.8427 27.9685 26.8427 27.9685 26.8258C27.9685 26.8089 27.925 26.792 27.8815 26.792H27.8476C27.7679 26.792 27.7075 26.7558 27.5866 26.6423C27.4658 26.5289 27.473 26.5313 27.4561 26.3382V26.2079C27.4756 25.9841 27.5193 25.7632 27.5866 25.5489C27.6301 25.3751 27.8911 24.6269 27.9685 24.4265C27.9855 24.3946 27.9946 24.359 27.9951 24.3228C27.9955 24.2838 28.0111 24.2466 28.0386 24.219C28.0821 24.1695 28.1099 24.1081 28.1183 24.0428C28.1183 24.0259 28.1183 24.0186 28.099 24.0186C27.988 24.1356 27.8973 24.2702 27.8307 24.4169C27.8058 24.4747 27.7667 24.5253 27.7171 24.5641C27.6524 24.624 27.5992 24.6952 27.56 24.7741C27.3811 25.0921 27.1834 25.3992 26.9679 25.6937C26.9042 25.7854 26.8469 25.8814 26.7963 25.981L26.7335 26.0848C26.685 26.1574 26.6414 26.2332 26.603 26.3116C26.516 26.4758 26.4555 26.582 26.429 26.582C26.4024 26.582 26.429 26.582 26.429 26.5627C26.4597 26.4556 26.5097 26.355 26.5764 26.2658C26.6042 26.2335 26.6248 26.1956 26.6368 26.1548C26.6368 26.1354 26.6368 26.1354 26.6199 26.1354C26.603 26.1354 26.5595 26.1885 26.5063 26.2754C26.4382 26.387 26.3631 26.4943 26.2815 26.5965C26.2117 26.6872 26.1533 26.7861 26.1075 26.8909L26.0809 26.9971C25.9031 27.0328 25.723 27.0562 25.542 27.0671C25.5154 27.0671 25.4888 27.0671 25.4791 27.0671" fill="#2B2B2B"/>
<path d="M22.3807 33.7135C22.3469 33.7135 22.197 33.6966 22.0496 33.6869C21.8079 33.6869 21.7813 33.6869 21.7113 33.6266C21.6412 33.5662 21.5638 33.5324 21.4696 33.4866C21.4177 33.4498 21.3684 33.4095 21.3221 33.3659C21.1304 33.1932 21.0141 32.9523 20.9983 32.6949V32.608C20.9983 31.9829 21.6943 31.295 21.6943 31.295H21.7378C21.7813 31.295 21.791 31.295 21.791 31.3312V31.3481C21.791 31.3649 21.791 31.3818 21.8079 31.3818C21.8248 31.3818 21.2061 32.0529 21.1892 32.5887V32.6683C21.1836 32.7412 21.1893 32.8145 21.2061 32.8856C21.2361 32.9312 21.2597 32.9808 21.2762 33.0328C21.3128 33.0982 21.3602 33.157 21.4164 33.2066C21.4438 33.2301 21.4758 33.2476 21.5103 33.258C21.5449 33.2684 21.5812 33.2714 21.617 33.2669H21.7548C21.9035 33.2742 22.0514 33.2408 22.1825 33.1704C22.4774 33.0159 22.6248 32.859 22.8786 32.4077C22.9595 32.2644 22.998 32.1012 22.9898 31.937V31.756C22.9858 31.5801 22.9623 31.4053 22.9197 31.2346C22.8858 31.0684 22.8656 30.8997 22.8593 30.7301V30.6698C22.9006 30.373 22.9819 30.0832 23.1009 29.8081C23.1218 29.7852 23.1389 29.7591 23.1517 29.7309C23.1517 29.6778 23.3789 29.504 23.4562 29.4895C23.6316 29.4557 23.8094 29.4356 23.9879 29.4292C24.1023 29.4331 24.2147 29.4593 24.319 29.5064C24.4049 29.5362 24.4806 29.5897 24.5375 29.6605C24.5944 29.7314 24.63 29.8169 24.6405 29.9071C24.6487 29.9751 24.6632 30.0421 24.684 30.1074C24.7005 30.1396 24.7096 30.1751 24.7105 30.2112C24.6983 30.2817 24.6805 30.3511 24.6574 30.4188C24.6405 30.4719 24.6235 30.4791 24.5438 30.4791H24.4568V30.2112C24.4712 30.0695 24.4343 29.9274 24.3529 29.8105C24.3258 29.7884 24.3071 29.7578 24.2997 29.7236C24.3 29.7191 24.2994 29.7146 24.2979 29.7103C24.2963 29.706 24.2938 29.7022 24.2906 29.6989C24.2874 29.6957 24.2835 29.6932 24.2792 29.6917C24.2749 29.6901 24.2704 29.6895 24.2658 29.6898C24.2138 29.6943 24.1646 29.7155 24.1257 29.7502C24.0863 29.778 24.0535 29.814 24.0293 29.8556C24.0051 29.8973 23.9902 29.9436 23.9855 29.9916L24.0048 30.146C23.9559 30.4216 23.9356 30.7015 23.9444 30.9812C23.9429 31.1085 23.9485 31.2358 23.9613 31.3625C24.0456 31.687 24.095 32.0196 24.1088 32.3546C24.1083 32.4185 24.1026 32.4822 24.0918 32.5452L24.0217 32.8059C23.9669 32.9877 23.8612 33.1502 23.7172 33.2742C23.5826 33.4188 23.4175 33.5318 23.2339 33.6049C23.1261 33.6614 23.0074 33.6943 22.8858 33.7014L22.504 33.7183C22.4575 33.7246 22.4103 33.7246 22.3638 33.7183" fill="#2B2B2B"/>
<path d="M25.7836 33.9669C25.6993 33.9595 25.6172 33.9357 25.542 33.8969C25.4587 33.8577 25.3826 33.8047 25.3172 33.74C25.3096 33.7244 25.2984 33.7108 25.2845 33.7003C25.2707 33.6899 25.2545 33.6828 25.2374 33.6796C25.1867 33.6796 25.0562 33.4793 24.8556 33.0883C24.7649 32.9229 24.7028 32.7433 24.6719 32.5573C24.6719 32.48 24.655 32.3835 24.655 32.2893C24.6537 31.9651 24.7127 31.6435 24.829 31.3408C25.0997 30.7591 25.1432 30.6456 25.1939 30.6022C25.2085 30.5923 25.2208 30.5795 25.2299 30.5645C25.2391 30.5495 25.245 30.5327 25.2471 30.5153C25.2581 30.4929 25.2728 30.4725 25.2906 30.4549C25.3289 30.4142 25.3607 30.3678 25.3849 30.3174C25.4757 30.181 25.582 30.0554 25.7015 29.9432C25.9093 29.7357 25.9625 29.6826 26.0229 29.6826L26.1172 29.6994C26.1365 29.6994 26.1438 29.6994 26.1438 29.6826L26.1268 29.6295C26.1268 29.5788 26.1873 29.5522 26.3105 29.5522H26.4483C26.6839 29.5595 26.9167 29.606 27.1371 29.6898C27.1611 29.7086 27.1912 29.7181 27.2217 29.7163C27.2784 29.7399 27.3295 29.7753 27.3715 29.8201C27.4441 29.8999 27.4897 30.0003 27.502 30.1074C27.5197 30.2313 27.5278 30.3563 27.5262 30.4815C27.5332 30.5627 27.525 30.6446 27.502 30.7229C27.459 30.7615 27.4208 30.8053 27.3884 30.8532C27.3449 30.9063 27.3014 30.9497 27.2845 30.9497C27.2624 30.8713 27.2534 30.7897 27.2579 30.7084C27.2579 30.4815 27.1902 30.2256 27.1202 30.2256C27.1008 30.2256 27.0501 30.2691 27.0162 30.3198C26.9699 30.3784 26.9198 30.434 26.8664 30.4863C26.8381 30.5117 26.8172 30.5442 26.806 30.5804C26.7782 30.6399 26.7433 30.6959 26.702 30.747C26.641 30.8183 26.5935 30.9001 26.5619 30.9884C26.5015 31.169 26.4134 31.3392 26.3009 31.4928C26.2211 31.5888 26.1649 31.702 26.1365 31.8235C26.1372 31.8315 26.1349 31.8394 26.1299 31.8457C26.125 31.8519 26.1178 31.8561 26.1099 31.8573C26.1099 31.8573 26.0326 31.9876 25.9625 32.1349C25.8658 32.3084 25.8096 32.5014 25.7982 32.6997C25.7788 32.9 25.7716 33.04 25.7716 33.1341C25.7716 33.2645 25.7885 33.3176 25.8151 33.3176C25.8924 33.3176 25.9891 33.2572 26.1534 33.1003C26.3 32.958 26.4622 32.8325 26.6368 32.7262C26.6873 32.6982 26.7337 32.6633 26.7746 32.6224C26.8456 32.545 26.9269 32.4775 27.0162 32.4221C27.1902 32.3087 28.128 31.5701 28.2247 31.4832C28.2593 31.4533 28.3008 31.4326 28.3455 31.4228C28.3648 31.4228 28.3817 31.4228 28.3817 31.3963C28.3817 31.3697 28.4252 31.3456 28.4687 31.319C28.4835 31.3082 28.5012 31.3023 28.5195 31.3021H28.563H28.6017C28.6718 31.3021 28.7056 31.3383 28.7056 31.3721C28.7047 31.3865 28.7003 31.4004 28.6927 31.4126C28.6851 31.4248 28.6746 31.435 28.6621 31.4421C28.5898 31.486 28.5253 31.5414 28.4712 31.6063C28.4712 31.6256 28.4277 31.6763 28.3842 31.7125C28.3407 31.7487 28.2875 31.7897 28.2875 31.8066C27.9847 32.1473 27.6619 32.4697 27.3208 32.7721C27.1863 32.8919 27.0589 33.0192 26.9389 33.1534C26.8934 33.2143 26.8406 33.2694 26.7818 33.3176C26.7818 33.3538 26.7045 33.3707 26.661 33.4141C26.4869 33.6048 26.4338 33.5276 26.4193 33.6048C26.3758 33.7786 26.1776 33.892 25.8634 33.9282L25.7836 33.9669Z" fill="#2B2B2B"/>
<path d="M30.3514 34.0612C30.2717 33.9309 30.2717 33.7667 30.2451 33.0788C30.2451 32.654 30.4457 32.2533 30.8638 31.2637C30.8638 31.2637 30.8469 31.2468 30.8372 31.2468C30.7865 31.2468 30.5061 31.5872 30.4892 31.5872C30.4191 31.5872 30.3321 31.6982 30.1412 31.8816C30.0521 31.9476 29.9759 32.0295 29.9164 32.123C29.7231 32.4006 29.3412 32.7578 29.2373 33.0185C29.1406 33.2188 29.0802 33.1923 29.0463 33.3757L28.9593 33.6533C28.9231 33.7909 28.8893 33.8947 28.4373 33.9405C28.3847 33.9399 28.3327 33.9286 28.2846 33.9075C28.2364 33.8863 28.193 33.8557 28.157 33.8174C28.0711 33.7667 28.0023 33.6917 27.9593 33.6019C27.9162 33.5121 27.9009 33.4115 27.9153 33.313V33.1223C27.9153 32.8544 28.0192 32.6395 28.1835 32.123C28.2471 31.8475 28.3403 31.5796 28.4615 31.3241C28.4615 31.2348 28.9231 30.1583 28.9231 30.1317C28.9231 30.1052 29.114 29.7503 29.1648 29.62C29.2155 29.4897 29.3654 29.2121 29.4065 29.0986C29.4643 28.9316 29.5371 28.77 29.624 28.6159C29.6715 28.508 29.7009 28.393 29.711 28.2756V28.0342H29.8101C30.0107 28.0342 30.2016 28.2514 30.2934 28.2514C30.3853 28.2514 30.6608 28.5725 30.6608 28.8862C30.6433 29.1447 30.5778 29.3976 30.4674 29.6321C30.4005 29.81 30.3488 29.9933 30.3128 30.18C30.2175 30.4861 30.1012 30.7853 29.9647 31.0755C29.8772 31.2588 29.8014 31.4474 29.7376 31.6403C29.683 31.7406 29.6446 31.849 29.624 31.9613C29.624 31.9782 29.624 31.9878 29.624 31.9878C29.624 31.9878 29.7714 31.8044 29.8318 31.8044C29.9034 31.7778 29.9668 31.7329 30.0155 31.6741L30.6922 31.0224C30.8324 30.8848 30.8856 30.9017 30.946 30.8148C30.97 30.7841 31.0003 30.7589 31.0349 30.741C31.0695 30.7231 31.1076 30.7128 31.1466 30.711C31.1973 30.711 31.2167 30.7713 31.3012 30.7713C31.3472 30.7713 31.381 30.7882 31.381 30.8148C31.381 30.8413 31.4946 30.9355 31.5719 30.9355H31.6154C31.7894 30.9355 32.0771 31.353 32.0771 31.5703C32.0771 31.7875 31.8934 32.0047 31.8934 32.053C31.8545 32.225 31.7936 32.3913 31.7121 32.5478C31.6493 32.6444 31.4511 33.1392 31.381 33.2261C31.3519 33.2636 31.3283 33.305 31.3109 33.3492C31.3109 33.3661 31.2577 33.4192 31.2167 33.4723C30.975 33.6629 30.8928 33.7667 30.8759 33.8271C30.859 33.8874 30.7285 34.0443 30.6753 34.0443H30.6511C30.5375 34.0443 30.5206 34.305 30.4505 34.305C30.3804 34.305 30.407 34.2277 30.3466 34.0877" fill="#2B2B2B"/>
<path d="M33.4475 33.6274C33.3961 33.6134 33.3435 33.6045 33.2904 33.6008C33.2625 33.6018 33.235 33.5951 33.2107 33.5815C33.1864 33.5678 33.1663 33.5478 33.1526 33.5236C33.1404 33.5033 33.1239 33.4859 33.1043 33.4726C33.0847 33.4592 33.0624 33.4503 33.039 33.4464C32.8855 33.3416 32.7601 33.2007 32.6741 33.036C32.6572 32.9926 32.6306 32.9588 32.6137 32.9588C32.5967 32.9588 32.5774 32.9322 32.5774 32.8985C32.5774 32.8647 32.5774 32.8381 32.5605 32.8381C32.4783 32.6594 32.4253 32.4687 32.4034 32.2733C32.3773 32.1235 32.3659 31.9715 32.3696 31.8195C32.3669 31.6575 32.3814 31.4957 32.4131 31.3368C32.5068 31.0401 32.6199 30.7499 32.7514 30.4679C32.7862 30.4091 32.8099 30.3445 32.8215 30.2772C32.8331 30.2404 32.8539 30.2072 32.8819 30.1806C32.9762 30.0681 33.0528 29.942 33.1091 29.8065C33.1355 29.747 33.1706 29.6917 33.213 29.6424C33.2255 29.6352 33.236 29.6251 33.2436 29.6129C33.2512 29.6006 33.2557 29.5867 33.2565 29.5724C33.2569 29.5688 33.2565 29.5652 33.2553 29.5618C33.2541 29.5584 33.2521 29.5553 33.2496 29.5528C33.247 29.5502 33.244 29.5483 33.2406 29.5471C33.2372 29.5459 33.2335 29.5455 33.23 29.5458H33.1937C33.1825 29.5464 33.1713 29.5446 33.1608 29.5404C33.1504 29.5363 33.141 29.5299 33.1333 29.5217C33.127 29.5163 33.1221 29.5097 33.1187 29.5021C33.1154 29.4946 33.1137 29.4865 33.1139 29.4783C33.1166 29.442 33.132 29.4078 33.1575 29.3817C33.2012 29.3242 33.2543 29.2744 33.3145 29.2345C33.358 29.2079 33.4015 29.1645 33.4015 29.1476C33.4015 29.1307 33.4451 29.0872 33.4982 29.0679C33.6499 28.9979 33.8145 28.9601 33.9816 28.9569C34.1052 28.9542 34.2278 28.9806 34.3393 29.0341C34.4039 29.0634 34.471 29.0869 34.5399 29.1041C34.7259 29.1699 34.8992 29.267 35.0522 29.3914C35.2939 29.6086 35.3737 29.7027 35.4099 29.8331C35.4232 29.8908 35.4435 29.9468 35.4704 29.9996L35.5646 30.2168C35.6206 30.3713 35.6445 30.5356 35.6347 30.6996C35.6347 30.9772 35.6347 31.0134 35.5477 31.1509C35.5203 31.1844 35.4997 31.223 35.4873 31.2644L35.5404 31.2378C35.4746 31.4317 35.3774 31.6135 35.2528 31.7761C35.1244 31.9393 35.0164 32.1176 34.9314 32.3071C34.8667 32.4054 34.7939 32.4983 34.7139 32.5847C34.6358 32.6584 34.5734 32.7471 34.5302 32.8454C34.4766 32.9353 34.4098 33.0166 34.332 33.0867C34.2528 33.1474 34.187 33.2239 34.1387 33.3112C34.1387 33.3812 34.0879 33.4415 33.9212 33.5526C33.8533 33.6045 33.7732 33.6382 33.6886 33.6505C33.604 33.6627 33.5176 33.6531 33.4378 33.6226L33.4475 33.6274ZM33.4378 28.4959C33.213 28.4524 33.1502 28.4355 33.0294 28.2883C32.9732 28.2329 32.9088 28.1865 32.8384 28.1507L32.8118 28.1242V28.0711C32.8118 28.0107 32.7683 27.9407 32.6813 27.8297C32.6378 27.7766 32.6112 27.7597 32.6112 27.7163L32.6451 27.5956C32.6583 27.5354 32.6639 27.4737 32.662 27.4121L32.7248 27.248C32.7563 27.1973 32.7769 27.1406 32.7853 27.0815C32.7982 26.9994 32.8185 26.9186 32.8457 26.8401C32.8892 26.7194 32.9158 26.676 32.9665 26.676L33.3073 26.7797C33.3943 26.7966 33.4281 26.8232 33.4281 26.8401C33.4281 26.857 33.4547 26.8835 33.5151 26.8835L33.5949 26.8666L33.6191 26.8835C33.6191 26.9004 33.6819 26.9439 33.7423 26.9704C33.8898 27.0501 33.9333 27.0911 34.0976 27.3445L34.2015 27.5087L34.0807 27.9262C34.0807 28.0059 34.0541 28.0904 34.0372 28.0904C34.0203 28.0904 34.0106 28.1362 34.0106 28.17C34.0086 28.207 33.9969 28.2428 33.9768 28.2738L33.9067 28.4211C33.8897 28.4814 33.8728 28.5079 33.8027 28.5079C33.7587 28.5075 33.7161 28.4921 33.6819 28.4645C33.6819 28.4476 33.6553 28.4307 33.6456 28.4307C33.636 28.4307 33.6191 28.4476 33.6191 28.4814C33.6188 28.4876 33.6172 28.4938 33.6145 28.4994C33.6117 28.505 33.6078 28.51 33.6031 28.5141C33.5983 28.5181 33.5928 28.5212 33.5868 28.523C33.5808 28.5249 33.5745 28.5255 33.5683 28.5248L33.4378 28.4959ZM33.9598 32.3795C34.0484 32.2916 34.1292 32.1963 34.2015 32.0947C34.2415 32.0239 34.2948 31.9616 34.3586 31.9113C34.4476 31.8178 34.524 31.7131 34.5858 31.5999C34.6109 31.5419 34.6461 31.4888 34.6897 31.443C34.7388 31.3881 34.7795 31.3263 34.8106 31.2596C34.8734 31.1654 34.9338 31.0858 34.9411 31.0761C34.9483 31.0665 34.9677 31.052 34.9677 31.0254C34.9862 30.9746 35.0132 30.9273 35.0474 30.8854C35.1344 30.7913 35.1344 30.7744 35.1344 30.4944C35.1344 30.2144 35.1151 30.1903 35.0643 30.13C35.0096 30.0711 34.9655 30.0034 34.9338 29.9296C34.9074 29.8786 34.8705 29.8338 34.8255 29.798C34.7805 29.7622 34.7285 29.7363 34.6728 29.722C34.6559 29.722 34.6366 29.722 34.6293 29.7389C34.6106 29.7738 34.6014 29.8129 34.6027 29.8524C34.5816 30.0043 34.5111 30.145 34.4021 30.253C34.3087 30.3836 34.2278 30.5226 34.1604 30.6682C34.0807 30.8348 34.0033 31.0085 33.9768 31.052C33.9477 31.1207 33.9329 31.1946 33.9333 31.2692C33.9376 31.3229 33.9285 31.3768 33.9067 31.4261C33.7902 31.6489 33.6916 31.8805 33.6118 32.1188C33.5738 32.2547 33.5559 32.3954 33.5586 32.5364C33.5586 32.6233 33.5586 32.6836 33.5852 32.6933H33.6021C33.6456 32.6933 33.7061 32.633 33.9502 32.3795H33.9598ZM35.3858 28.4959C35.1586 28.4524 35.0982 28.4355 34.9773 28.2883C34.9212 28.2329 34.8568 28.1865 34.7864 28.1507L34.7598 28.1242V28.0711C34.7453 27.978 34.6992 27.8928 34.6293 27.8297C34.5882 27.7766 34.5616 27.7597 34.5616 27.7163L34.5955 27.5956C34.6086 27.5354 34.6143 27.4737 34.6124 27.4121L34.6752 27.248C34.7067 27.1973 34.7273 27.1406 34.7356 27.0815C34.7474 26.9991 34.7676 26.9182 34.7961 26.8401C34.8396 26.7194 34.8662 26.676 34.9169 26.676L35.2577 26.7797C35.3447 26.7966 35.3785 26.8232 35.3785 26.8401C35.3785 26.857 35.4051 26.8835 35.4655 26.8835L35.5429 26.8666L35.5694 26.8835C35.5694 26.9004 35.6299 26.9439 35.6927 26.9704C35.8401 27.0501 35.8836 27.0911 36.048 27.3445L36.1519 27.5087L36.0311 27.9262C36.0311 28.0059 36.0045 28.0904 35.9876 28.0904C35.9706 28.0904 35.961 28.1362 35.961 28.17C35.9589 28.207 35.9473 28.2428 35.9271 28.2738L35.8571 28.4211C35.8401 28.4814 35.8232 28.5079 35.7531 28.5079C35.7085 28.5069 35.6653 28.4917 35.6299 28.4645C35.6299 28.4476 35.6057 28.4307 35.596 28.4307C35.5864 28.4307 35.5694 28.4476 35.5694 28.4814C35.5682 28.4938 35.5623 28.5052 35.5528 28.5133C35.5433 28.5214 35.5311 28.5255 35.5187 28.5248L35.3858 28.4959Z" fill="#2B2B2B"/>
<path d="M36.2751 33.757C36.2006 33.7387 36.1245 33.7274 36.0479 33.7232C35.9035 33.716 35.764 33.6691 35.6446 33.5878C35.5252 33.5065 35.4306 33.3938 35.3712 33.2622C35.3234 33.1909 35.2989 33.1066 35.3011 33.0209V32.8736C35.3078 32.7402 35.3338 32.6085 35.3784 32.4826C35.4189 32.3718 35.4535 32.259 35.4824 32.1447C35.5186 32.0385 35.5524 31.9178 35.5694 31.884C35.6103 31.7873 35.645 31.6882 35.6733 31.5871L35.8908 30.9982C35.9706 30.8147 36.0576 30.5879 36.0842 30.5154L36.2485 30.0568C36.3001 29.9384 36.3437 29.8166 36.379 29.6924C36.3779 29.6798 36.3806 29.6671 36.3866 29.656C36.3926 29.6448 36.4017 29.6357 36.4128 29.6296C36.4322 29.6296 36.4491 29.5958 36.4491 29.5524C36.4503 29.5175 36.4621 29.4838 36.4829 29.4558C36.5239 29.4163 36.556 29.3686 36.5772 29.3158C36.6473 29.1614 36.7343 29.0745 36.8044 29.0745C36.8196 29.0756 36.8342 29.0813 36.8463 29.0908C36.8583 29.1002 36.8673 29.113 36.872 29.1276C36.8799 29.1421 36.8913 29.1544 36.9053 29.1633C36.9193 29.1722 36.9353 29.1773 36.9518 29.1783C36.9941 29.1866 37.0329 29.2077 37.063 29.2386C37.0758 29.2539 37.0917 29.2666 37.1095 29.2757C37.1274 29.2848 37.1469 29.2902 37.1669 29.2917L37.2974 29.2748H37.3337C37.3568 29.2891 37.3838 29.2959 37.411 29.2941C37.5624 29.3578 37.6877 29.471 37.7663 29.6151L37.7856 29.702C37.7798 29.8047 37.7464 29.9039 37.6889 29.9893C37.6496 30.0656 37.6204 30.1468 37.6019 30.2306C37.5784 30.3228 37.546 30.4126 37.5052 30.4985C37.4617 30.5782 37.1766 31.3337 37.1766 31.3771C37.1616 31.4351 37.138 31.4904 37.1065 31.5413C36.9251 32.0041 36.7709 32.4772 36.6449 32.9581V32.975L36.6956 32.9484C36.7302 32.9208 36.7576 32.8852 36.7754 32.8447C36.9734 32.5185 37.1879 32.2027 37.4182 31.8985C37.4494 31.8676 37.4704 31.8281 37.4787 31.785C37.4822 31.7715 37.4888 31.759 37.4981 31.7486C37.5073 31.7381 37.5189 31.7299 37.5318 31.7247C37.553 31.7116 37.5705 31.6934 37.5826 31.6716C37.6459 31.5511 37.722 31.4378 37.8098 31.3337C37.851 31.2825 37.8859 31.2266 37.9137 31.1671C37.9843 31.053 38.0652 30.9456 38.1554 30.8461C38.2165 30.7805 38.2693 30.7075 38.3125 30.6289C38.4205 30.4835 38.5401 30.3471 38.6702 30.221C39.0013 29.8734 39.0351 29.8469 39.139 29.83C39.1928 29.8254 39.2468 29.8345 39.2961 29.8565C39.3707 29.8941 39.4547 29.9092 39.5378 29.9H39.7384C39.7514 29.8983 39.7645 29.8999 39.7768 29.9045C39.789 29.9091 39.7999 29.9167 39.8085 29.9265C39.813 29.9363 39.8201 29.9446 39.8291 29.9506C39.838 29.9566 39.8485 29.9599 39.8592 29.9603H39.8858C39.9462 29.9603 40.0333 30.0399 40.113 30.1775C40.1516 30.2435 40.1724 30.3183 40.1734 30.3948C40.1287 30.7305 40.0291 31.0567 39.8786 31.3602C39.8148 31.4982 39.7623 31.6411 39.7215 31.7875L39.6683 31.9178C39.6005 32.0309 39.5508 32.1539 39.5209 32.2823C39.6012 32.2378 39.6745 32.1817 39.7384 32.1157C39.8423 32.0216 40.3474 31.6209 40.3909 31.5871C40.5045 31.5075 40.6689 31.3602 40.7124 31.3458C40.7667 31.3205 40.8192 31.2915 40.8695 31.2589H40.8961C40.9203 31.2606 40.9434 31.27 40.9621 31.2856C40.9807 31.3012 40.994 31.3222 41 31.3458C41 31.3627 40.9734 31.3892 40.9565 31.3892C40.9396 31.3892 40.6689 31.7006 40.5553 31.8237C40.4417 31.9468 39.8955 32.4054 39.8302 32.4754C39.765 32.5454 39.6731 32.6491 39.62 32.7167C39.5008 32.8655 39.3672 33.0021 39.2212 33.1246C39.2019 33.1246 39.168 33.1608 39.1414 33.2043C39.1149 33.2477 39.0907 33.2912 39.0714 33.2912C39.0472 33.3171 39.0269 33.3464 39.0109 33.3781C38.9715 33.4518 38.9126 33.5133 38.8406 33.5559C38.7685 33.5985 38.6862 33.6205 38.6025 33.6195C38.5615 33.6228 38.5202 33.6171 38.4816 33.6026L38.2811 33.5326C38.1989 33.4868 38.1271 33.4246 38.0701 33.3498C38.0132 33.275 37.9723 33.1894 37.9499 33.0981C37.9235 32.999 37.9121 32.8965 37.9161 32.794C37.9148 32.5615 37.9591 32.3311 38.0466 32.1157C38.0835 32.0304 38.1297 31.9495 38.1844 31.8744C38.2058 31.8494 38.2207 31.8196 38.2279 31.7875C38.2516 31.7216 38.2807 31.6578 38.3149 31.5968C38.3584 31.5099 38.4019 31.4061 38.4188 31.3554C38.4357 31.3047 38.4551 31.2685 38.472 31.2613C38.4889 31.254 38.4986 31.2347 38.4986 31.2009C38.5307 31.1105 38.5712 31.0232 38.6194 30.9403C38.6958 30.7992 38.7457 30.6454 38.7668 30.4865C38.7668 30.4696 38.7668 30.4527 38.7499 30.4527C38.6639 30.5171 38.593 30.5995 38.5421 30.6941V30.7641C38.5421 30.781 38.5252 30.7882 38.4986 30.8075C38.2258 31.0873 37.9918 31.4023 37.8025 31.744C37.6454 32.0047 37.4714 32.2654 37.4279 32.3185C37.364 32.3945 37.3058 32.4752 37.2539 32.5598C37.2172 32.6286 37.1735 32.6933 37.1234 32.7529C37.1013 32.7696 37.0859 32.7935 37.0799 32.8205C37.0372 32.9002 36.9879 32.9761 36.9325 33.0474C36.8639 33.1365 36.8002 33.2291 36.7415 33.325C36.6279 33.5157 36.3669 33.7691 36.2582 33.7691L36.2751 33.757Z" fill="#2B2B2B"/>
</g>
<defs>
<clipPath id="clip0">
<rect width="41" height="48" fill="white"/>
</clipPath>
</defs>
</svg>
