<svg width="132" height="42" viewBox="0 0 132 42" fill="none" xmlns="http://www.w3.org/2000/svg">
<path d="M101.799 1.19605C64.5317 1.19605 -11.3116 5.9248 2.70687 25.5713C10.7701 36.8718 64.7063 42.8533 88.6647 40.4885C101.799 39.1921 110.945 36.7881 120.026 32.7295C135.502 25.8122 138.8 8.64462 101.799 3.77597C87.3161 1.87034 71.0096 0.466882 55.552 1.19605C26.6462 2.55962 22.7055 6.06206 20.0462 12.7421" fill="#F5F1ED"/>
<path d="M101.799 1.19605C64.5317 1.19605 -11.3116 5.9248 2.70687 25.5713C10.7701 36.8718 64.7063 42.8533 88.6647 40.4885C101.799 39.1921 110.945 36.7881 120.026 32.7295C135.502 25.8122 138.8 8.64462 101.799 3.77597C87.3161 1.87034 71.0096 0.466882 55.552 1.19605C26.6462 2.55962 22.7055 6.06206 20.0462 12.7421" stroke="#2C2B2B" stroke-width="0.833333" stroke-linecap="round"/>
<path d="M43.218 17.3601V26.0001H41.982V20.0781C41.982 19.9821 41.984 19.8781 41.988 19.7661C41.996 19.6501 42.006 19.5341 42.018 19.4181L39.24 24.5481C39.132 24.7601 38.966 24.8661 38.742 24.8661H38.544C38.316 24.8661 38.15 24.7601 38.046 24.5481L35.226 19.4061C35.238 19.5221 35.246 19.6381 35.25 19.7541C35.258 19.8701 35.262 19.9781 35.262 20.0781V26.0001H34.026V17.3601H35.076C35.2 17.3601 35.296 17.3721 35.364 17.3961C35.432 17.4161 35.494 17.4821 35.55 17.5941L38.322 22.6161C38.382 22.7321 38.438 22.8521 38.49 22.9761C38.546 23.0961 38.596 23.2201 38.64 23.3481C38.688 23.2201 38.738 23.0941 38.79 22.9701C38.846 22.8421 38.904 22.7201 38.964 22.6041L41.694 17.5941C41.75 17.4821 41.812 17.4161 41.88 17.3961C41.948 17.3721 42.044 17.3601 42.168 17.3601H43.218ZM48.8508 22.2501C48.8508 22.0341 48.8188 21.8341 48.7548 21.6501C48.6948 21.4621 48.6048 21.3001 48.4848 21.1641C48.3648 21.0241 48.2148 20.9161 48.0348 20.8401C47.8588 20.7601 47.6548 20.7201 47.4228 20.7201C46.9548 20.7201 46.5868 20.8541 46.3188 21.1221C46.0508 21.3901 45.8808 21.7661 45.8088 22.2501H48.8508ZM45.7728 23.0421C45.7888 23.3901 45.8428 23.6921 45.9348 23.9481C46.0268 24.2001 46.1488 24.4101 46.3008 24.5781C46.4568 24.7461 46.6408 24.8721 46.8528 24.9561C47.0688 25.0361 47.3088 25.0761 47.5728 25.0761C47.8248 25.0761 48.0428 25.0481 48.2268 24.9921C48.4108 24.9321 48.5708 24.8681 48.7068 24.8001C48.8428 24.7281 48.9588 24.6641 49.0548 24.6081C49.1508 24.5481 49.2388 24.5181 49.3188 24.5181C49.4228 24.5181 49.5028 24.5581 49.5588 24.6381L49.9248 25.1121C49.7728 25.2921 49.6008 25.4441 49.4088 25.5681C49.2168 25.6921 49.0128 25.7941 48.7968 25.8741C48.5808 25.9501 48.3588 26.0041 48.1308 26.0361C47.9028 26.0721 47.6808 26.0901 47.4648 26.0901C47.0408 26.0901 46.6468 26.0201 46.2828 25.8801C45.9228 25.7361 45.6088 25.5261 45.3408 25.2501C45.0768 24.9741 44.8688 24.6321 44.7168 24.2241C44.5688 23.8161 44.4948 23.3461 44.4948 22.8141C44.4948 22.3901 44.5608 21.9941 44.6928 21.6261C44.8288 21.2581 45.0208 20.9381 45.2688 20.6661C45.5208 20.3941 45.8248 20.1801 46.1808 20.0241C46.5408 19.8641 46.9468 19.7841 47.3988 19.7841C47.7748 19.7841 48.1228 19.8461 48.4428 19.9701C48.7628 20.0901 49.0388 20.2681 49.2708 20.5041C49.5028 20.7401 49.6828 21.0301 49.8108 21.3741C49.9428 21.7141 50.0088 22.1021 50.0088 22.5381C50.0088 22.7381 49.9868 22.8721 49.9428 22.9401C49.8988 23.0081 49.8188 23.0421 49.7028 23.0421H45.7728ZM52.5558 19.8801V26.0001H51.2658V19.8801H52.5558ZM52.7718 18.0321C52.7718 18.1481 52.7478 18.2581 52.6998 18.3621C52.6558 18.4661 52.5938 18.5581 52.5138 18.6381C52.4338 18.7141 52.3398 18.7761 52.2318 18.8241C52.1278 18.8681 52.0158 18.8901 51.8958 18.8901C51.7798 18.8901 51.6698 18.8681 51.5658 18.8241C51.4658 18.7761 51.3778 18.7141 51.3018 18.6381C51.2258 18.5581 51.1638 18.4661 51.1158 18.3621C51.0718 18.2581 51.0498 18.1481 51.0498 18.0321C51.0498 17.9121 51.0718 17.8001 51.1158 17.6961C51.1638 17.5921 51.2258 17.5021 51.3018 17.4261C51.3778 17.3461 51.4658 17.2841 51.5658 17.2401C51.6698 17.1921 51.7798 17.1681 51.8958 17.1681C52.0158 17.1681 52.1278 17.1921 52.2318 17.2401C52.3398 17.2841 52.4338 17.3461 52.5138 17.4261C52.5938 17.5021 52.6558 17.5921 52.6998 17.6961C52.7478 17.8001 52.7718 17.9121 52.7718 18.0321ZM55.4906 17.1201V26.0001H54.2006V17.1201H55.4906ZM61.0969 22.2501C61.0969 22.0341 61.0649 21.8341 61.0009 21.6501C60.9409 21.4621 60.8509 21.3001 60.7309 21.1641C60.6109 21.0241 60.4609 20.9161 60.2809 20.8401C60.1049 20.7601 59.9009 20.7201 59.6689 20.7201C59.2009 20.7201 58.8329 20.8541 58.5649 21.1221C58.2969 21.3901 58.1269 21.7661 58.0549 22.2501H61.0969ZM58.0189 23.0421C58.0349 23.3901 58.0889 23.6921 58.1809 23.9481C58.2729 24.2001 58.3949 24.4101 58.5469 24.5781C58.7029 24.7461 58.8869 24.8721 59.0989 24.9561C59.3149 25.0361 59.5549 25.0761 59.8189 25.0761C60.0709 25.0761 60.2889 25.0481 60.4729 24.9921C60.6569 24.9321 60.8169 24.8681 60.9529 24.8001C61.0889 24.7281 61.2049 24.6641 61.3009 24.6081C61.3969 24.5481 61.4849 24.5181 61.5649 24.5181C61.6689 24.5181 61.7489 24.5581 61.8049 24.6381L62.1709 25.1121C62.0189 25.2921 61.8469 25.4441 61.6549 25.5681C61.4629 25.6921 61.2589 25.7941 61.0429 25.8741C60.8269 25.9501 60.6049 26.0041 60.3769 26.0361C60.1489 26.0721 59.9269 26.0901 59.7109 26.0901C59.2869 26.0901 58.8929 26.0201 58.5289 25.8801C58.1689 25.7361 57.8549 25.5261 57.5869 25.2501C57.3229 24.9741 57.1149 24.6321 56.9629 24.2241C56.8149 23.8161 56.7409 23.3461 56.7409 22.8141C56.7409 22.3901 56.8069 21.9941 56.9389 21.6261C57.0749 21.2581 57.2669 20.9381 57.5149 20.6661C57.7669 20.3941 58.0709 20.1801 58.4269 20.0241C58.7869 19.8641 59.1929 19.7841 59.6449 19.7841C60.0209 19.7841 60.3689 19.8461 60.6889 19.9701C61.0089 20.0901 61.2849 20.2681 61.5169 20.5041C61.7489 20.7401 61.9289 21.0301 62.0569 21.3741C62.1889 21.7141 62.2549 22.1021 62.2549 22.5381C62.2549 22.7381 62.2329 22.8721 62.1889 22.9401C62.1449 23.0081 62.0649 23.0421 61.9489 23.0421H58.0189ZM64.6639 20.6901C64.7959 20.5541 64.9319 20.4321 65.0719 20.3241C65.2159 20.2121 65.3679 20.1161 65.5279 20.0361C65.6879 19.9561 65.8579 19.8941 66.0379 19.8501C66.2179 19.8061 66.4139 19.7841 66.6259 19.7841C66.9619 19.7841 67.2559 19.8401 67.5079 19.9521C67.7639 20.0641 67.9779 20.2221 68.1499 20.4261C68.3259 20.6301 68.4579 20.8761 68.5459 21.1641C68.6339 21.4481 68.6779 21.7621 68.6779 22.1061V26.0001H67.3939V22.1061C67.3939 21.6941 67.2979 21.3741 67.1059 21.1461C66.9179 20.9181 66.6299 20.8041 66.2419 20.8041C65.9539 20.8041 65.6859 20.8701 65.4379 21.0021C65.1939 21.1341 64.9639 21.3141 64.7479 21.5421V26.0001H63.4579V19.8801H64.2379C64.4139 19.8801 64.5259 19.9621 64.5739 20.1261L64.6639 20.6901ZM73.8384 20.9901C73.8064 21.0461 73.7704 21.0861 73.7304 21.1101C73.6904 21.1341 73.6404 21.1461 73.5804 21.1461C73.5124 21.1461 73.4384 21.1261 73.3584 21.0861C73.2784 21.0421 73.1844 20.9941 73.0764 20.9421C72.9684 20.8901 72.8404 20.8441 72.6924 20.8041C72.5484 20.7601 72.3784 20.7381 72.1824 20.7381C72.0224 20.7381 71.8764 20.7581 71.7444 20.7981C71.6164 20.8341 71.5064 20.8881 71.4144 20.9601C71.3264 21.0281 71.2584 21.1101 71.2104 21.2061C71.1624 21.2981 71.1384 21.3981 71.1384 21.5061C71.1384 21.6501 71.1824 21.7701 71.2704 21.8661C71.3584 21.9621 71.4744 22.0461 71.6184 22.1181C71.7624 22.1861 71.9264 22.2481 72.1104 22.3041C72.2944 22.3601 72.4824 22.4201 72.6744 22.4841C72.8664 22.5481 73.0544 22.6221 73.2384 22.7061C73.4224 22.7901 73.5864 22.8941 73.7304 23.0181C73.8744 23.1381 73.9904 23.2861 74.0784 23.4621C74.1664 23.6341 74.2104 23.8441 74.2104 24.0921C74.2104 24.3801 74.1584 24.6461 74.0544 24.8901C73.9504 25.1341 73.7984 25.3461 73.5984 25.5261C73.3984 25.7061 73.1484 25.8461 72.8484 25.9461C72.5524 26.0461 72.2124 26.0961 71.8284 26.0961C71.6164 26.0961 71.4104 26.0761 71.2104 26.0361C71.0144 26.0001 70.8264 25.9501 70.6464 25.8861C70.4704 25.8181 70.3044 25.7381 70.1484 25.6461C69.9964 25.5541 69.8604 25.4541 69.7404 25.3461L70.0404 24.8541C70.0764 24.7941 70.1204 24.7481 70.1724 24.7161C70.2284 24.6801 70.2964 24.6621 70.3764 24.6621C70.4604 24.6621 70.5424 24.6901 70.6224 24.7461C70.7064 24.7981 70.8024 24.8561 70.9104 24.9201C71.0224 24.9841 71.1564 25.0441 71.3124 25.1001C71.4684 25.1521 71.6624 25.1781 71.8944 25.1781C72.0864 25.1781 72.2524 25.1561 72.3924 25.1121C72.5324 25.0641 72.6484 25.0001 72.7404 24.9201C72.8324 24.8401 72.9004 24.7501 72.9444 24.6501C72.9884 24.5461 73.0104 24.4361 73.0104 24.3201C73.0104 24.1641 72.9664 24.0361 72.8784 23.9361C72.7904 23.8361 72.6724 23.7501 72.5244 23.6781C72.3804 23.6061 72.2144 23.5421 72.0264 23.4861C71.8424 23.4301 71.6544 23.3701 71.4624 23.3061C71.2704 23.2421 71.0804 23.1681 70.8924 23.0841C70.7084 23.0001 70.5424 22.8941 70.3944 22.7661C70.2504 22.6341 70.1344 22.4761 70.0464 22.2921C69.9584 22.1041 69.9144 21.8761 69.9144 21.6081C69.9144 21.3641 69.9624 21.1321 70.0584 20.9121C70.1584 20.6921 70.3024 20.4981 70.4904 20.3301C70.6824 20.1621 70.9164 20.0301 71.1924 19.9341C71.4724 19.8341 71.7944 19.7841 72.1584 19.7841C72.5704 19.7841 72.9444 19.8501 73.2804 19.9821C73.6164 20.1141 73.8984 20.2941 74.1264 20.5221L73.8384 20.9901ZM77.3847 26.0961C76.8767 26.0961 76.4847 25.9541 76.2087 25.6701C75.9367 25.3821 75.8007 24.9781 75.8007 24.4581V20.8941H75.1287C75.0567 20.8941 74.9947 20.8721 74.9427 20.8281C74.8907 20.7801 74.8647 20.7101 74.8647 20.6181V20.0961L75.8547 19.9521L76.1367 18.1821C76.1567 18.1141 76.1907 18.0601 76.2387 18.0201C76.2867 17.9761 76.3507 17.9541 76.4307 17.9541H77.0907V19.9641H78.7887V20.8941H77.0907V24.3681C77.0907 24.5881 77.1447 24.7561 77.2527 24.8721C77.3607 24.9881 77.5047 25.0461 77.6847 25.0461C77.7847 25.0461 77.8707 25.0341 77.9427 25.0101C78.0147 24.9821 78.0767 24.9541 78.1287 24.9261C78.1807 24.8941 78.2247 24.8661 78.2607 24.8421C78.3007 24.8141 78.3387 24.8001 78.3747 24.8001C78.4467 24.8001 78.5047 24.8401 78.5487 24.9201L78.9327 25.5501C78.7327 25.7261 78.4967 25.8621 78.2247 25.9581C77.9527 26.0501 77.6727 26.0961 77.3847 26.0961ZM83.7727 22.2501C83.7727 22.0341 83.7407 21.8341 83.6767 21.6501C83.6167 21.4621 83.5267 21.3001 83.4067 21.1641C83.2867 21.0241 83.1367 20.9161 82.9567 20.8401C82.7807 20.7601 82.5767 20.7201 82.3447 20.7201C81.8767 20.7201 81.5087 20.8541 81.2407 21.1221C80.9727 21.3901 80.8027 21.7661 80.7307 22.2501H83.7727ZM80.6947 23.0421C80.7107 23.3901 80.7647 23.6921 80.8567 23.9481C80.9487 24.2001 81.0707 24.4101 81.2227 24.5781C81.3787 24.7461 81.5627 24.8721 81.7747 24.9561C81.9907 25.0361 82.2307 25.0761 82.4947 25.0761C82.7467 25.0761 82.9647 25.0481 83.1487 24.9921C83.3327 24.9321 83.4927 24.8681 83.6287 24.8001C83.7647 24.7281 83.8807 24.6641 83.9767 24.6081C84.0727 24.5481 84.1607 24.5181 84.2407 24.5181C84.3447 24.5181 84.4247 24.5581 84.4807 24.6381L84.8467 25.1121C84.6947 25.2921 84.5227 25.4441 84.3307 25.5681C84.1387 25.6921 83.9347 25.7941 83.7187 25.8741C83.5027 25.9501 83.2807 26.0041 83.0527 26.0361C82.8247 26.0721 82.6027 26.0901 82.3867 26.0901C81.9627 26.0901 81.5687 26.0201 81.2047 25.8801C80.8447 25.7361 80.5307 25.5261 80.2627 25.2501C79.9987 24.9741 79.7907 24.6321 79.6387 24.2241C79.4907 23.8161 79.4167 23.3461 79.4167 22.8141C79.4167 22.3901 79.4827 21.9941 79.6147 21.6261C79.7507 21.2581 79.9427 20.9381 80.1907 20.6661C80.4427 20.3941 80.7467 20.1801 81.1027 20.0241C81.4627 19.8641 81.8687 19.7841 82.3207 19.7841C82.6967 19.7841 83.0447 19.8461 83.3647 19.9701C83.6847 20.0901 83.9607 20.2681 84.1927 20.5041C84.4247 20.7401 84.6047 21.0301 84.7327 21.3741C84.8647 21.7141 84.9307 22.1021 84.9307 22.5381C84.9307 22.7381 84.9087 22.8721 84.8647 22.9401C84.8207 23.0081 84.7407 23.0421 84.6247 23.0421H80.6947ZM87.4777 19.8801V26.0001H86.1877V19.8801H87.4777ZM87.6937 18.0321C87.6937 18.1481 87.6697 18.2581 87.6217 18.3621C87.5777 18.4661 87.5157 18.5581 87.4357 18.6381C87.3557 18.7141 87.2617 18.7761 87.1537 18.8241C87.0497 18.8681 86.9377 18.8901 86.8177 18.8901C86.7017 18.8901 86.5917 18.8681 86.4877 18.8241C86.3877 18.7761 86.2997 18.7141 86.2237 18.6381C86.1477 18.5581 86.0857 18.4661 86.0377 18.3621C85.9937 18.2581 85.9717 18.1481 85.9717 18.0321C85.9717 17.9121 85.9937 17.8001 86.0377 17.6961C86.0857 17.5921 86.1477 17.5021 86.2237 17.4261C86.2997 17.3461 86.3877 17.2841 86.4877 17.2401C86.5917 17.1921 86.7017 17.1681 86.8177 17.1681C86.9377 17.1681 87.0497 17.1921 87.1537 17.2401C87.2617 17.2841 87.3557 17.3461 87.4357 17.4261C87.5157 17.5021 87.5777 17.5921 87.6217 17.6961C87.6697 17.8001 87.6937 17.9121 87.6937 18.0321ZM90.3045 20.6901C90.4365 20.5541 90.5725 20.4321 90.7125 20.3241C90.8565 20.2121 91.0085 20.1161 91.1685 20.0361C91.3285 19.9561 91.4985 19.8941 91.6785 19.8501C91.8585 19.8061 92.0545 19.7841 92.2665 19.7841C92.6025 19.7841 92.8965 19.8401 93.1485 19.9521C93.4045 20.0641 93.6185 20.2221 93.7905 20.4261C93.9665 20.6301 94.0985 20.8761 94.1865 21.1641C94.2745 21.4481 94.3185 21.7621 94.3185 22.1061V26.0001H93.0345V22.1061C93.0345 21.6941 92.9385 21.3741 92.7465 21.1461C92.5585 20.9181 92.2705 20.8041 91.8825 20.8041C91.5945 20.8041 91.3265 20.8701 91.0785 21.0021C90.8345 21.1341 90.6045 21.3141 90.3885 21.5421V26.0001H89.0985V19.8801H89.8785C90.0545 19.8801 90.1665 19.9621 90.2145 20.1261L90.3045 20.6901ZM99.8391 22.2501C99.8391 22.0341 99.8071 21.8341 99.7431 21.6501C99.6831 21.4621 99.5931 21.3001 99.4731 21.1641C99.3531 21.0241 99.2031 20.9161 99.0231 20.8401C98.8471 20.7601 98.6431 20.7201 98.4111 20.7201C97.9431 20.7201 97.5751 20.8541 97.3071 21.1221C97.0391 21.3901 96.8691 21.7661 96.7971 22.2501H99.8391ZM96.7611 23.0421C96.7771 23.3901 96.8311 23.6921 96.9231 23.9481C97.0151 24.2001 97.1371 24.4101 97.2891 24.5781C97.4451 24.7461 97.6291 24.8721 97.8411 24.9561C98.0571 25.0361 98.2971 25.0761 98.5611 25.0761C98.8131 25.0761 99.0311 25.0481 99.2151 24.9921C99.3991 24.9321 99.5591 24.8681 99.6951 24.8001C99.8311 24.7281 99.9471 24.6641 100.043 24.6081C100.139 24.5481 100.227 24.5181 100.307 24.5181C100.411 24.5181 100.491 24.5581 100.547 24.6381L100.913 25.1121C100.761 25.2921 100.589 25.4441 100.397 25.5681C100.205 25.6921 100.001 25.7941 99.7851 25.8741C99.5691 25.9501 99.3471 26.0041 99.1191 26.0361C98.8911 26.0721 98.6691 26.0901 98.4531 26.0901C98.0291 26.0901 97.6351 26.0201 97.2711 25.8801C96.9111 25.7361 96.5971 25.5261 96.3291 25.2501C96.0651 24.9741 95.8571 24.6321 95.7051 24.2241C95.5571 23.8161 95.4831 23.3461 95.4831 22.8141C95.4831 22.3901 95.5491 21.9941 95.6811 21.6261C95.8171 21.2581 96.0091 20.9381 96.2571 20.6661C96.5091 20.3941 96.8131 20.1801 97.1691 20.0241C97.5291 19.8641 97.9351 19.7841 98.3871 19.7841C98.7631 19.7841 99.1111 19.8461 99.4311 19.9701C99.7511 20.0901 100.027 20.2681 100.259 20.5041C100.491 20.7401 100.671 21.0301 100.799 21.3741C100.931 21.7141 100.997 22.1021 100.997 22.5381C100.997 22.7381 100.975 22.8721 100.931 22.9401C100.887 23.0081 100.807 23.0421 100.691 23.0421H96.7611Z" fill="#2B2B2B"/>
</svg>
