<svg width="158" height="50" viewBox="0 0 158 50" fill="none" xmlns="http://www.w3.org/2000/svg">
<path d="M121.958 1.23526C77.2381 1.23526 -13.7739 6.90976 3.04823 30.4856C12.7242 44.0462 77.4475 51.224 106.198 48.3862C121.958 46.8306 132.934 43.9457 143.831 39.0753C162.402 30.7747 166.359 10.1735 121.958 4.33117C104.579 2.04441 85.0115 0.360258 66.4624 1.23526C31.7754 2.87155 27.0466 7.07447 23.8555 15.0905" fill="#1A1A1A"/>
<path d="M121.958 1.23526C77.2381 1.23526 -13.7739 6.90976 3.04823 30.4856C12.7242 44.0462 77.4475 51.224 106.198 48.3862C121.958 46.8306 132.934 43.9457 143.831 39.0753C162.402 30.7747 166.359 10.1735 121.958 4.33117C104.579 2.04441 85.0115 0.360258 66.4624 1.23526C31.7754 2.87155 27.0466 7.07447 23.8555 15.0905" stroke="#2C2B2B" stroke-linecap="round"/>
</svg>
