<svg width="28" height="24" viewBox="0 0 28 24" fill="none" xmlns="http://www.w3.org/2000/svg">
<g clip-path="url(#clip0)">
<path d="M26.4325 20.4738C27.1365 16.78 27.1302 12.4953 26.6403 8.68291C26.3027 6.05851 25.7927 3.127 23.7159 1.61476C22.2398 0.540523 9.1872 -0.045534 4.88376 0.876985C3.75028 1.12169 2.35358 1.26728 1.68987 2.23752C-0.384398 5.26079 0.497196 15.1821 0.955626 17.82C1.13194 18.827 1.37123 19.8461 1.90523 20.705C3.1508 22.7152 5.618 23.6965 7.90889 23.7063C15.5838 23.7418 25.7977 23.8042 26.4325 20.4738Z" fill="#DCA35B"/>
<path d="M22.6996 16.4293C22.6934 16.4265 22.6875 16.4232 22.6819 16.4195C22.5012 16.3274 22.3084 16.2594 22.1089 16.2176H22.1001C21.1694 15.9313 20.3633 15.3122 19.7626 14.5598C19.4263 14.1478 19.1554 13.6892 18.9591 13.1993C18.886 12.9876 18.8823 12.7576 18.9906 12.6181C19.1593 12.3856 19.4679 12.2351 19.7966 12.1189C20.1993 12.0046 20.5744 11.8132 20.8998 11.5561C20.9642 11.5008 21.0176 11.4344 21.0573 11.3603C21.069 11.3368 21.0782 11.3122 21.085 11.2869C21.112 11.1949 21.1049 11.0966 21.0648 11.0092C20.9787 10.8568 20.847 10.7335 20.687 10.6556C20.5883 10.6021 20.4791 10.5693 20.3665 10.5594C20.2539 10.5495 20.1404 10.5627 20.0334 10.5981C19.8453 10.6674 19.652 10.7227 19.4553 10.7633C19.4515 10.7628 19.4477 10.7628 19.444 10.7633C19.227 10.812 19.0009 10.8069 18.7865 10.7486C18.7865 10.7229 18.7865 10.6715 18.7752 10.6091C18.7613 10.2225 18.7954 9.82485 18.8016 9.41253C18.8412 8.77241 18.8244 8.13018 18.7513 7.49285C18.7513 7.49285 18.7513 7.49285 18.7513 7.48429C18.5435 6.39048 17.8206 5.44716 16.9024 4.82073C16.2297 4.37312 15.4482 4.10404 14.6355 4.04014C14.3659 4.01599 14.0951 4.00578 13.8244 4.00955C12.7363 4.00955 11.6116 4.2934 10.73 4.96388C10.0695 5.4664 9.54972 6.12237 9.21871 6.87132C8.90764 7.63478 8.9366 8.44841 8.97816 9.19597C9.00461 9.72574 9.06507 10.2384 9.01343 10.7253C9.01182 10.7373 9.00929 10.7492 9.00587 10.7608C8.74799 10.7985 8.48525 10.7911 8.23007 10.7388C8.04871 10.7082 7.85224 10.6372 7.63688 10.5785H7.62555C7.52541 10.5571 7.42169 10.5569 7.32148 10.578C7.22127 10.5991 7.12694 10.641 7.04495 10.7009H7.0374L7.02732 10.7082C6.93906 10.754 6.86386 10.8203 6.80847 10.9012C6.75307 10.9821 6.71922 11.0751 6.70995 11.1719C6.70813 11.1861 6.70813 11.2005 6.70995 11.2147C6.73797 11.3386 6.8086 11.4495 6.9102 11.5292C6.97547 11.5816 7.04358 11.6306 7.11422 11.676L7.12556 11.6846C7.52227 11.9415 7.96055 12.0516 8.3409 12.1972C8.60538 12.3098 8.83459 12.4835 8.88749 12.7037C8.95298 12.9827 8.83081 13.302 8.67213 13.6116C8.24156 14.4366 7.6056 15.144 6.82204 15.6695C6.40782 15.9434 5.94875 16.1469 5.46438 16.2715L5.44423 16.2788C5.34474 16.3155 5.11048 16.3388 4.96187 16.5541C4.95099 16.5695 4.9425 16.5864 4.93668 16.6043C4.91769 16.6669 4.91476 16.7331 4.92815 16.7971C4.94154 16.861 4.97085 16.9209 5.01351 16.9713C5.0717 17.0356 5.14176 17.0887 5.22005 17.1279H5.23013C5.63818 17.3543 6.08276 17.4521 6.48955 17.5525C6.75559 17.5947 7.0176 17.6581 7.27291 17.7421C7.28298 17.7592 7.30565 17.8314 7.35603 17.9501C7.42782 18.1667 7.46182 18.4224 7.54494 18.6903C7.5572 18.7274 7.57923 18.7606 7.60884 18.7868C7.63845 18.813 7.67461 18.8312 7.71371 18.8396C7.81498 18.8631 7.92132 18.8545 8.01723 18.8151H8.03864C8.71872 18.7013 9.39755 18.5998 10.021 18.7503C10.6746 18.9154 11.2426 19.3522 11.8824 19.7291C12.3081 19.9885 12.7992 20.2417 13.366 20.2601C13.786 20.2756 14.2066 20.2658 14.6254 20.2307H14.633C14.9855 20.1979 15.3251 20.0847 15.6241 19.9004C15.6286 19.8988 15.6328 19.8968 15.6367 19.8942C16.3093 19.5272 16.9075 19.077 17.5624 18.7931C17.7752 18.7197 18.0397 18.7234 18.3357 18.7038H18.3445C18.8874 18.6885 19.4307 18.7155 19.9691 18.7845C19.9879 18.787 20.007 18.787 20.0258 18.7845C20.0976 18.7738 20.1632 18.7387 20.2109 18.6854C20.238 18.6528 20.2574 18.6148 20.2676 18.5741C20.2827 18.5203 20.2978 18.4958 20.2676 18.5386C20.2758 18.525 20.2826 18.5107 20.2878 18.4958C20.386 18.1813 20.4402 17.8963 20.6001 17.7189C20.6948 17.6458 20.8145 17.6104 20.9351 17.6198H20.9653C21.4093 17.5495 21.8437 17.4304 22.26 17.2649H22.2726C22.4775 17.2039 22.6595 17.0861 22.7965 16.926C22.8512 16.8476 22.8717 16.7513 22.8535 16.6582C22.8354 16.5652 22.78 16.4828 22.6996 16.4293Z" fill="#191919"/>
<path d="M10.4163 5.0835C10.0738 5.5158 9.73162 5.94729 9.38989 6.37796C9.38989 6.37796 9.38989 6.38897 9.39745 6.37796L10.4214 5.08594L10.4163 5.0835Z" fill="#191919"/>
<path d="M9.18727 6.73535C8.96184 7.00276 8.83268 7.33449 8.81952 7.67989C8.81952 7.68846 8.83211 7.68846 8.83337 7.67989C8.85264 7.51345 8.88978 7.34942 8.9442 7.19049C9.00032 7.02816 9.08234 6.8754 9.18727 6.7378V6.73535Z" fill="#191919"/>
<path d="M9.01722 7.47061C8.93599 7.91822 8.93599 8.37619 9.01722 8.8238H9.0273C8.97804 8.37627 8.98142 7.92474 9.03737 7.47795C9.03737 7.46694 9.01848 7.46449 9.01596 7.47795L9.01722 7.47061Z" fill="#191919"/>
<path d="M9.04991 9.42018C9.01968 9.70648 8.98442 9.99278 8.95797 10.2766C8.95167 10.3476 8.94412 10.4173 8.93782 10.4883C8.93983 10.5589 8.93349 10.6295 8.91893 10.6987C8.90381 10.7465 8.87611 10.7305 8.83455 10.722C8.79299 10.7134 8.7678 10.711 8.73505 10.7036C8.66327 10.6877 8.59526 10.6645 8.52599 10.6449C8.51605 10.6425 8.50555 10.6436 8.49639 10.648C8.48723 10.6525 8.48001 10.66 8.47605 10.6692C8.47209 10.6783 8.47164 10.6886 8.4748 10.6981C8.47795 10.7075 8.4845 10.7156 8.49324 10.7208C8.56456 10.758 8.6415 10.784 8.7212 10.7978C8.78695 10.8168 8.85696 10.8168 8.92271 10.7978C8.94176 10.7899 8.95806 10.7768 8.96967 10.7601C8.98128 10.7434 8.98771 10.7238 8.9882 10.7036C8.99953 10.6229 8.99953 10.5397 9.00457 10.4589C9.02598 10.1115 9.03731 9.76276 9.05494 9.41406L9.04991 9.42018Z" fill="#191919"/>
<path d="M8.52849 12.382C8.61621 12.467 8.69316 12.5618 8.7577 12.6646C8.81875 12.7694 8.86734 12.8807 8.90254 12.9962C8.91009 13.0206 8.95417 13.0182 8.95165 12.9962C8.93877 12.8673 8.89891 12.7424 8.83453 12.6291C8.7722 12.5141 8.68651 12.4125 8.58264 12.3306C8.5436 12.3012 8.49071 12.3477 8.52723 12.3844L8.52849 12.382Z" fill="#191919"/>
<path d="M8.87863 13.1383C8.81501 13.4015 8.70646 13.6526 8.55747 13.881C8.52725 13.9275 8.60281 13.9703 8.6343 13.9238C8.78944 13.6904 8.89876 13.4312 8.95671 13.1591C8.96805 13.1102 8.89122 13.0881 8.87863 13.1383Z" fill="#191919"/>
<path d="M8.60547 13.826C8.402 14.1315 8.16695 14.416 7.90397 14.6751C7.64201 14.9601 7.38005 15.2489 7.14076 15.5523C7.12187 15.5768 7.16217 15.6062 7.18484 15.5854C7.47325 15.3052 7.7415 15.0042 8.00724 14.7032C8.25908 14.4479 8.46854 14.156 8.62814 13.8382C8.62814 13.8235 8.61428 13.8113 8.60547 13.826Z" fill="#191919"/>
<path d="M7.43536 15.3014C7.21496 15.4079 6.99834 15.518 6.78046 15.6318L6.46182 15.7982C6.35693 15.8363 6.26099 15.8946 6.17971 15.9695C6.17844 15.9718 6.1778 15.9745 6.17786 15.9772C6.17792 15.9798 6.17868 15.9825 6.18006 15.9848C6.18144 15.9871 6.1834 15.989 6.18577 15.9904C6.18813 15.9918 6.19081 15.9926 6.19357 15.9927C6.24691 15.9846 6.29795 15.9659 6.34344 15.9376L6.49709 15.8569L6.81446 15.688C7.03108 15.5743 7.24518 15.458 7.45676 15.3369C7.48195 15.3234 7.45677 15.2892 7.43536 15.3014Z" fill="#191919"/>
<path d="M6.22749 16.0515C6.22916 16.0515 6.23076 16.0509 6.23194 16.0497C6.23312 16.0485 6.23379 16.0469 6.23379 16.0453C6.23379 16.0436 6.23312 16.0421 6.23194 16.0409C6.23076 16.0397 6.22916 16.0391 6.22749 16.0391C6.22582 16.0391 6.22422 16.0397 6.22304 16.0409C6.22186 16.0421 6.22119 16.0436 6.22119 16.0453C6.22119 16.0469 6.22186 16.0485 6.22304 16.0497C6.22422 16.0509 6.22582 16.0515 6.22749 16.0515Z" fill="#191919"/>
<path d="M6.26022 17.5722L6.65694 17.675C6.78486 17.6987 6.90868 17.7399 7.02469 17.7974C7.21613 17.9087 7.2665 18.1448 7.36348 18.3247C7.37607 18.3479 7.41889 18.3381 7.41637 18.3112C7.41184 18.1993 7.38154 18.0897 7.32771 17.9906C7.27388 17.8916 7.19788 17.8054 7.1053 17.7386C6.98765 17.6768 6.85979 17.6354 6.72747 17.6163L6.27534 17.5135C6.26665 17.5111 6.25733 17.5121 6.24942 17.5163C6.24151 17.5206 6.23565 17.5277 6.23315 17.5361C6.23064 17.5446 6.23169 17.5536 6.23606 17.5613C6.24043 17.569 6.24776 17.5747 6.25645 17.5771L6.26022 17.5722Z" fill="#191919"/>
<path d="M7.3623 18.324C7.38755 18.476 7.4324 18.6244 7.4958 18.7656C7.50966 18.7962 7.56633 18.7828 7.56129 18.7485C7.53889 18.5959 7.49657 18.4466 7.43535 18.3044C7.43156 18.2965 7.42501 18.2902 7.41687 18.2865C7.40873 18.2829 7.39953 18.2822 7.39091 18.2846C7.38228 18.2869 7.3748 18.2922 7.36979 18.2994C7.36478 18.3066 7.36258 18.3153 7.36356 18.324H7.3623Z" fill="#191919"/>
<path d="M10.0097 18.7305C10.3157 18.9238 10.6394 19.0817 10.9492 19.2737C11.259 19.4658 11.5374 19.691 11.8447 19.8855C11.8711 19.9026 11.9013 19.8647 11.8787 19.8427C11.606 19.6022 11.3075 19.3909 10.9882 19.2126C10.6848 19.0128 10.3601 18.8455 10.0198 18.7134C10.0059 18.7134 9.99962 18.7268 10.0097 18.7342V18.7305Z" fill="#191919"/>
<path d="M11.6381 19.6702C11.9943 20.0153 12.4642 20.2276 12.9655 20.2697C12.9699 20.2682 12.9738 20.2654 12.9765 20.2617C12.9792 20.2579 12.9807 20.2535 12.9807 20.2489C12.9807 20.2443 12.9792 20.2399 12.9765 20.2361C12.9738 20.2324 12.9699 20.2296 12.9655 20.2281C12.4936 20.1313 12.0532 19.9242 11.6821 19.6249C11.6481 19.5968 11.599 19.6433 11.6318 19.6739L11.6381 19.6702Z" fill="#191919"/>
<path d="M13.1204 20.2883C13.1755 20.3084 13.2324 20.3236 13.2904 20.3338C13.3496 20.3437 13.4075 20.3535 13.4667 20.3585C13.585 20.3722 13.7042 20.3755 13.8231 20.3683C13.8609 20.3683 13.8773 20.3031 13.8332 20.2957C13.7161 20.2785 13.5977 20.2735 13.4806 20.2625C13.3626 20.25 13.244 20.2442 13.1254 20.2452C13.1204 20.2464 13.116 20.2492 13.1129 20.2531C13.1097 20.257 13.108 20.2618 13.108 20.2668C13.108 20.2717 13.1097 20.2766 13.1129 20.2805C13.116 20.2844 13.1204 20.2871 13.1254 20.2883H13.1204Z" fill="#191919"/>
<path d="M14.0347 20.4367C14.0849 20.418 14.1374 20.406 14.1909 20.401C14.2173 20.3991 14.2438 20.3991 14.2702 20.401C14.2979 20.401 14.3256 20.401 14.3533 20.401C14.3602 20.4008 14.3668 20.3982 14.3719 20.3937C14.377 20.3892 14.3803 20.3831 14.3812 20.3764C14.3821 20.3698 14.3805 20.363 14.3768 20.3574C14.3731 20.3517 14.3675 20.3475 14.3609 20.3456C14.3316 20.3359 14.3011 20.3305 14.2702 20.3296C14.2402 20.3296 14.2103 20.3321 14.1808 20.337C14.1225 20.345 14.0656 20.3612 14.012 20.385C13.9805 20.3985 14.0019 20.4514 14.0347 20.4391V20.4367Z" fill="#191919"/>
<path d="M14.8546 20.3653C15.0455 20.3051 15.2312 20.2302 15.41 20.1414C15.5964 20.0607 15.7878 19.9873 15.9641 19.8967C15.9677 19.8939 15.9703 19.89 15.9713 19.8856C15.9724 19.8812 15.972 19.8765 15.9702 19.8724C15.9683 19.8682 15.9651 19.8648 15.9611 19.8626C15.957 19.8603 15.9524 19.8595 15.9477 19.86C15.7531 19.9193 15.5622 19.9896 15.376 20.0705C15.1868 20.1356 15.0043 20.2175 14.8306 20.3152C14.8237 20.3185 14.8184 20.3243 14.8157 20.3314C14.8131 20.3384 14.8133 20.3462 14.8164 20.3531C14.8194 20.36 14.8251 20.3655 14.8322 20.3684C14.8393 20.3714 14.8473 20.3716 14.8546 20.369V20.3653Z" fill="#191919"/>
<path d="M16.658 19.2859C16.917 19.1423 17.1899 19.0239 17.4729 18.9324C17.7468 18.8676 18.0288 18.8416 18.3104 18.8553C18.5938 18.8553 18.8796 18.8724 19.163 18.8553C19.3078 18.8553 19.4514 18.821 19.5963 18.8222C19.7427 18.8394 19.8906 18.8394 20.037 18.8222C20.0431 18.8201 20.0484 18.8162 20.0521 18.811C20.0558 18.8059 20.0578 18.7998 20.0578 18.7935C20.0578 18.7872 20.0558 18.7811 20.0521 18.7759C20.0484 18.7708 20.0431 18.7669 20.037 18.7647C19.8906 18.7482 19.7427 18.7482 19.5963 18.7647C19.43 18.7647 19.2663 18.7305 19.1013 18.7256C18.8003 18.7146 18.4955 18.7158 18.1958 18.7256C17.9228 18.728 17.6517 18.7693 17.391 18.8479C17.1208 18.9458 16.8664 19.0805 16.6354 19.248C16.6307 19.2512 16.6275 19.2559 16.6263 19.2613C16.6251 19.2667 16.6261 19.2723 16.6289 19.277C16.6317 19.2818 16.6363 19.2853 16.6417 19.287C16.6471 19.2886 16.6529 19.2883 16.658 19.2859Z" fill="#191919"/>
<path d="M20.4212 18.4869C20.4376 18.3413 20.4803 18.1997 20.5472 18.0684C20.5622 18.0434 20.5795 18.0196 20.5988 17.9975C20.6171 17.9724 20.6369 17.9483 20.658 17.9253C20.7059 17.8872 20.7599 17.857 20.818 17.836C20.8209 17.8348 20.8235 17.8327 20.8253 17.8301C20.8271 17.8275 20.828 17.8244 20.828 17.8213C20.828 17.8182 20.8271 17.8151 20.8253 17.8125C20.8235 17.8099 20.8209 17.8078 20.818 17.8066C20.7491 17.8001 20.68 17.816 20.6215 17.8519C20.5913 17.8684 20.5623 17.8868 20.5346 17.9069C20.5062 17.9331 20.482 17.9632 20.4628 17.9963C20.3821 18.1441 20.3389 18.3085 20.3369 18.4759C20.3369 18.5211 20.4099 18.5309 20.4175 18.4869H20.4212Z" fill="#191919"/>
<path d="M21.0597 17.7439L21.1957 17.7169C21.2436 17.7071 21.2889 17.6912 21.3343 17.6777C21.424 17.6526 21.5116 17.6207 21.5962 17.5823C21.6005 17.5796 21.6038 17.5759 21.6056 17.5713C21.6075 17.5667 21.6078 17.5616 21.6066 17.5569C21.6053 17.5521 21.6025 17.548 21.5986 17.5448C21.5947 17.5417 21.5899 17.5399 21.5849 17.5396C21.4918 17.5486 21.3996 17.5644 21.3091 17.5872C21.2635 17.5956 21.2185 17.6067 21.1743 17.6203L21.037 17.6643C21.0274 17.6683 21.0196 17.6754 21.0151 17.6846C21.0106 17.6937 21.0096 17.7041 21.0124 17.7138C21.0151 17.7235 21.0215 17.7319 21.0302 17.7374C21.0389 17.743 21.0494 17.7453 21.0597 17.7439Z" fill="#191919"/>
<path d="M21.7134 17.6098C21.8608 17.529 22.0132 17.4507 22.1668 17.3797C22.3205 17.3088 22.4666 17.2574 22.6164 17.1962C22.7471 17.1514 22.8584 17.0652 22.9326 16.9515C22.9905 16.8512 23.0245 16.7166 22.9137 16.6395C22.9103 16.6379 22.9066 16.6371 22.9029 16.6372C22.8991 16.6373 22.8955 16.6383 22.8922 16.6402C22.889 16.642 22.8863 16.6445 22.8843 16.6476C22.8823 16.6507 22.8812 16.6542 22.8809 16.6579C22.891 16.7143 22.8885 16.7722 22.8738 16.8277C22.859 16.8832 22.8323 16.935 22.7953 16.9797C22.694 17.0643 22.575 17.1265 22.4464 17.162C22.1748 17.2601 21.9161 17.3891 21.6757 17.5461C21.6688 17.5517 21.6642 17.5595 21.6627 17.568C21.6612 17.5766 21.6629 17.5854 21.6674 17.5929C21.6719 17.6003 21.679 17.606 21.6875 17.6089C21.6959 17.6118 21.7051 17.6116 21.7134 17.6085V17.6098Z" fill="#191919"/>
<path d="M22.9287 16.5977C22.8986 16.534 22.8615 16.4736 22.8179 16.4178C22.7747 16.3575 22.7215 16.3046 22.6604 16.2612C22.5377 16.1732 22.387 16.1299 22.2348 16.1388C22.2202 16.1393 22.2064 16.1447 22.1955 16.1541C22.1847 16.1635 22.1776 16.1763 22.1756 16.1902C22.1732 16.2041 22.1763 16.2183 22.1842 16.2301C22.1922 16.2419 22.2044 16.2504 22.2184 16.2539C22.3469 16.2739 22.4708 16.3153 22.5849 16.3762C22.6419 16.4056 22.6962 16.4395 22.7473 16.4778C22.798 16.5205 22.8406 16.5714 22.8733 16.6282C22.8947 16.6637 22.9426 16.6282 22.9274 16.5977H22.9287Z" fill="#191919"/>
<path d="M21.1732 15.649C21.1407 15.6133 21.1062 15.5794 21.0699 15.5474C21.0328 15.515 20.9937 15.4847 20.9528 15.4569C20.9137 15.43 20.8734 15.4006 20.8268 15.3762L20.6933 15.3052C20.689 15.3028 20.6838 15.3021 20.679 15.3034C20.6741 15.3046 20.67 15.3077 20.6675 15.3119C20.665 15.3161 20.6643 15.3212 20.6656 15.3259C20.6669 15.3306 20.6701 15.3346 20.6744 15.337C20.7563 15.3908 20.8356 15.4471 20.9162 15.5022C20.9553 15.5279 20.9943 15.5548 21.0346 15.5793C21.0749 15.6037 21.1203 15.6294 21.1606 15.6551C21.1606 15.6551 21.1681 15.6551 21.1606 15.649H21.1732Z" fill="#191919"/>
<path d="M19.4226 14.0566C19.5939 14.2597 19.7651 14.4628 19.9402 14.6684C19.9402 14.6684 19.9515 14.6684 19.9465 14.661C19.7765 14.4579 19.6014 14.2585 19.4264 14.0579L19.4226 14.0566Z" fill="#191919"/>
<path d="M19.9742 14.6307C19.9164 14.5819 19.866 14.5255 19.8243 14.4631C19.7739 14.4019 19.7248 14.3395 19.677 14.2759C19.5938 14.1658 19.5145 14.0507 19.4351 13.9382C19.2802 13.7087 19.1393 13.4705 19.0132 13.2249C19.0044 13.209 18.9792 13.2249 18.988 13.2396C19.1147 13.494 19.2599 13.7393 19.4225 13.9737C19.4968 14.0815 19.5767 14.1857 19.6618 14.2857C19.7072 14.3407 19.7525 14.3958 19.8004 14.4496C19.8614 14.5071 19.9167 14.5702 19.9654 14.638C19.9654 14.6466 19.983 14.638 19.9742 14.6295V14.6307Z" fill="#191919"/>
<path d="M19.0333 12.8848C19.0383 12.8743 19.0447 12.8644 19.0522 12.8554C19.061 12.8444 19.0711 12.8334 19.0799 12.8212L19.0913 12.8065L19.0988 12.7992C19.1074 12.7896 19.1167 12.7806 19.1265 12.7722C19.1622 12.7391 19.2053 12.7144 19.2525 12.7001C19.2579 12.6984 19.2625 12.6949 19.2655 12.6901C19.2686 12.6854 19.2697 12.6798 19.2689 12.6744C19.2682 12.669 19.2656 12.664 19.2614 12.6603C19.2572 12.6567 19.2518 12.6548 19.2462 12.6548C19.1558 12.6646 19.073 12.7085 19.0157 12.7771C19.0037 12.7902 18.9946 12.8056 18.9893 12.8224C18.9893 12.8359 18.9792 12.8505 18.9754 12.864C18.9716 12.8775 19.0119 12.9129 19.0258 12.8848H19.0333Z" fill="#191919"/>
<path d="M19.3356 12.4903H19.3482C19.3595 12.4753 19.3731 12.4621 19.3885 12.4511L19.5295 12.3838C19.5749 12.3618 19.6202 12.341 19.6643 12.3165C19.7113 12.291 19.7567 12.2628 19.8003 12.2321C19.8179 12.2199 19.8079 12.1881 19.7839 12.1954C19.7124 12.2181 19.6426 12.2455 19.5749 12.2774L19.3759 12.3765C19.3305 12.3985 19.2499 12.4352 19.2726 12.4989C19.2953 12.5625 19.3583 12.571 19.3872 12.5221C19.3914 12.515 19.3925 12.5065 19.3902 12.4986C19.388 12.4907 19.3826 12.4839 19.3753 12.4799C19.3679 12.4758 19.3592 12.4748 19.3511 12.477C19.3429 12.4791 19.336 12.4844 19.3318 12.4915L19.3356 12.4903Z" fill="#191919"/>
<path d="M21.1138 11.4209C21.1597 11.3471 21.1839 11.2625 21.1839 11.1762C21.1839 11.09 21.1597 11.0054 21.1138 10.9315C21.0716 10.847 21.015 10.7701 20.9463 10.7039C20.8757 10.6265 20.7901 10.5633 20.6944 10.518C20.6849 10.5108 20.6729 10.5077 20.6609 10.5091C20.649 10.5106 20.6382 10.5167 20.6308 10.5259C20.6235 10.5352 20.6202 10.5469 20.6217 10.5585C20.6233 10.57 20.6295 10.5806 20.639 10.5877C20.7034 10.6452 20.7734 10.6964 20.8481 10.7406C20.9241 10.7925 20.9909 10.8562 21.0458 10.9291C21.095 10.9962 21.1225 11.0759 21.125 11.1583C21.1275 11.2406 21.1047 11.3218 21.0597 11.3915C21.0408 11.4197 21.0848 11.4417 21.1037 11.4172L21.1138 11.4209Z" fill="#191919"/>
<path d="M18.8406 10.6543C18.8406 10.6469 18.8406 10.6433 18.8494 10.6359C18.8507 10.627 18.8507 10.6179 18.8494 10.609V10.5454C18.8494 10.505 18.8494 10.4646 18.8494 10.423C18.8525 10.3406 18.8638 10.2586 18.8834 10.1783C18.8935 10.1367 18.8305 10.1061 18.8104 10.1477C18.7693 10.2317 18.7495 10.324 18.7525 10.4169C18.7534 10.4624 18.7602 10.5076 18.7726 10.5515C18.7779 10.5739 18.786 10.5957 18.7965 10.6163C18.8001 10.626 18.8052 10.6351 18.8117 10.6433C18.8117 10.6433 18.8268 10.6433 18.8305 10.6543C18.8312 10.6559 18.8323 10.6572 18.8338 10.6582C18.8352 10.6591 18.837 10.6596 18.8387 10.6596C18.8405 10.6596 18.8422 10.6591 18.8437 10.6582C18.8451 10.6572 18.8463 10.6559 18.8469 10.6543H18.8406Z" fill="#191919"/>
<path d="M18.7865 9.30339C19.0383 8.61435 19.0258 7.86018 18.7512 7.17939C18.6429 6.8622 18.5037 6.55576 18.3356 6.26422C18.1548 5.9574 17.9408 5.67028 17.6971 5.40777C17.687 5.39675 17.6656 5.40777 17.6757 5.42367C18.0699 5.96568 18.5031 6.52482 18.7172 7.16104C18.9477 7.85302 18.9665 8.59511 18.7714 9.29727C18.7714 9.29922 18.7722 9.30109 18.7736 9.30246C18.775 9.30384 18.7769 9.30461 18.7789 9.30461C18.7809 9.30461 18.7828 9.30384 18.7843 9.30246C18.7857 9.30109 18.7865 9.29922 18.7865 9.29727V9.30339Z" fill="#191919"/>
<path d="M14.109 3.94819C14.5732 3.97144 15.0339 4.03947 15.4843 4.15129C15.7072 4.20648 15.9253 4.27848 16.1367 4.36663C16.3199 4.43216 16.4847 4.53861 16.6178 4.6774C16.6354 4.6982 16.6669 4.6774 16.6556 4.65048C16.5657 4.51011 16.4287 4.40421 16.2677 4.35073C16.0367 4.25894 15.8004 4.1805 15.5599 4.11581C15.0878 3.98244 14.5981 3.91771 14.1065 3.92372C14.1032 3.92372 14.1 3.92501 14.0976 3.92731C14.0952 3.9296 14.0939 3.93271 14.0939 3.93596C14.0939 3.9392 14.0952 3.94232 14.0976 3.94461C14.1 3.9469 14.1032 3.94819 14.1065 3.94819H14.109Z" fill="#191919"/>
<path d="M18.367 23.6283C16.7625 23.6993 15.158 23.7935 13.5523 23.8217C11.9666 23.8498 10.3772 23.8351 8.79287 23.7544C7.92897 23.7322 7.07187 23.5994 6.2438 23.3592C6.14682 23.3286 6.10778 23.4742 6.20224 23.5072C6.91609 23.739 7.65943 23.8741 8.41126 23.9085C9.2047 23.9611 10.0019 23.977 10.8042 23.9905C12.4112 24.0158 14.0178 23.9901 15.624 23.9134C16.5434 23.8682 17.459 23.7911 18.3733 23.6846C18.4086 23.6846 18.4111 23.6271 18.3733 23.6283H18.367Z" fill="#DCA35B"/>
<path d="M25.5068 22.0527C24.6743 22.4198 23.8506 22.7868 22.9627 23.0254C22.1613 23.2271 21.3411 23.3501 20.5144 23.3925C20.2625 23.4084 20.0107 23.4194 19.7588 23.4279C19.488 23.4377 19.1883 23.4096 18.925 23.4695C18.9096 23.4744 18.8962 23.4839 18.8867 23.4967C18.8771 23.5094 18.872 23.5248 18.872 23.5405C18.872 23.5563 18.8771 23.5716 18.8867 23.5844C18.8962 23.5971 18.9096 23.6066 18.925 23.6115C19.1674 23.6365 19.4119 23.6365 19.6542 23.6115C19.891 23.6017 20.1265 23.5895 20.3633 23.5748C20.789 23.5466 21.2147 23.5087 21.6366 23.4524C22.4705 23.3439 23.2863 23.1305 24.0635 22.8174C24.5699 22.6171 25.0596 22.379 25.5282 22.1053C25.534 22.1019 25.5382 22.0964 25.5399 22.09C25.5415 22.0836 25.5405 22.0768 25.537 22.0711C25.5335 22.0654 25.5278 22.0613 25.5212 22.0597C25.5146 22.0581 25.5076 22.0591 25.5017 22.0625L25.5068 22.0527Z" fill="#DCA35B"/>
<path d="M27.1112 20.9512C27.0373 21.0415 26.9778 21.1422 26.9349 21.2498C26.8757 21.3522 26.8083 21.45 26.7334 21.5422C26.581 21.7282 26.4087 21.898 26.2195 22.0487C25.8417 22.3521 25.4072 22.5687 25.0218 22.8587C24.9878 22.8844 25.0218 22.948 25.0659 22.9321C25.5295 22.7347 25.9576 22.4666 26.3342 22.138C26.5211 21.9808 26.69 21.8044 26.8379 21.6119C26.9115 21.5155 26.978 21.4141 27.0369 21.3085C27.1097 21.2105 27.1532 21.0949 27.1629 20.9745C27.1629 20.9682 27.1611 20.9621 27.1576 20.9568C27.154 20.9516 27.149 20.9475 27.1431 20.945C27.1372 20.9425 27.1306 20.9418 27.1243 20.9429C27.118 20.944 27.1121 20.9469 27.1074 20.9512H27.1112Z" fill="#DCA35B"/>
<path d="M27.0546 22.0781C26.8451 22.3164 26.5961 22.519 26.3179 22.6776C26.3075 22.6836 26.3001 22.6934 26.2971 22.7047C26.2941 22.7161 26.296 22.7281 26.3021 22.7382C26.3083 22.7482 26.3184 22.7555 26.33 22.7584C26.3417 22.7612 26.3541 22.7595 26.3645 22.7535C26.6657 22.6073 26.9252 22.3913 27.1201 22.1246C27.1466 22.0891 27.0861 22.0438 27.0572 22.0781H27.0546Z" fill="#DCA35B"/>
<path d="M3.61435 23.1389C2.97505 22.5748 2.42655 21.9207 1.98718 21.1984C1.53505 20.4484 1.2756 19.647 1.00987 18.8236C0.990976 18.7673 0.883925 18.7734 0.897779 18.8383C1.00231 19.6947 1.40155 20.5414 1.85116 21.2755C2.29971 22.0104 2.88777 22.6561 3.58412 23.178C3.60679 23.1951 3.63576 23.1584 3.61435 23.1389Z" fill="#DCA35B"/>
<path d="M24.3809 2.19701C23.891 1.69048 23.2474 1.31976 22.5976 1.03102C21.9649 0.742846 21.2865 0.560827 20.5913 0.492676C20.5844 0.493562 20.578 0.496647 20.5731 0.501447C20.5682 0.506248 20.565 0.512493 20.5642 0.519206C20.5633 0.525918 20.5648 0.53272 20.5683 0.538546C20.5718 0.544372 20.5773 0.548894 20.5837 0.551404C21.2711 0.676943 21.9405 0.882334 22.5774 1.16315C23.2159 1.45068 23.7751 1.84464 24.3494 2.23372C24.3746 2.25085 24.3998 2.21536 24.3809 2.19579V2.19701Z" fill="#DCA35B"/>
<path d="M19.8809 0.508846C19.6605 0.410966 19.3859 0.402402 19.1466 0.373038C18.8847 0.34245 18.6215 0.315533 18.357 0.294734C17.8098 0.252737 17.2607 0.241299 16.7122 0.260476C16.7015 0.260476 16.6912 0.264601 16.6837 0.271943C16.6761 0.279286 16.6719 0.289244 16.6719 0.299628C16.6719 0.310012 16.6761 0.31997 16.6837 0.327313C16.6912 0.334655 16.7015 0.33878 16.7122 0.33878C17.2399 0.347344 17.7688 0.370591 18.2965 0.403625C18.5597 0.420754 18.8242 0.444001 19.0862 0.470918C19.3481 0.497835 19.6202 0.567574 19.8733 0.536987C19.8859 0.536987 19.8973 0.516187 19.8809 0.508846Z" fill="#DCA35B"/>
<path d="M16.1795 0.296093C15.7978 0.244066 15.4118 0.22931 15.0271 0.252047C14.3873 0.252047 13.7462 0.269176 13.1052 0.282634C11.706 0.311998 10.298 0.365832 8.89499 0.433125C8.43404 0.456371 7.97309 0.478394 7.50963 0.526111C7.48066 0.526111 7.4794 0.57138 7.50963 0.570157C8.53605 0.505311 9.56878 0.495523 10.5964 0.46983C11.9944 0.433125 13.3911 0.385408 14.7903 0.360938C15.2475 0.353597 15.7147 0.360938 16.1757 0.32301C16.1908 0.32301 16.1958 0.299763 16.1757 0.296093H16.1795Z" fill="#DCA35B"/>
<path d="M7.66214 0.000115352C6.3049 -0.00517379 4.95339 0.171451 3.64584 0.524997C3.59673 0.538455 3.61814 0.606971 3.66725 0.598407C4.32215 0.476057 4.97579 0.353707 5.63699 0.264391C6.29818 0.175076 6.98331 0.115124 7.66214 0.0661843C7.67115 0.0661843 7.6798 0.0627039 7.68618 0.0565088C7.69256 0.0503136 7.69614 0.0419111 7.69614 0.0331498C7.69614 0.0243886 7.69256 0.0159861 7.68618 0.00979093C7.6798 0.00359576 7.67115 0.000115352 7.66214 0.000115352Z" fill="#DCA35B"/>
<path d="M11.9403 0.993525C10.3119 0.851599 8.66583 0.885857 7.06258 1.25413C7.02228 1.26269 7.03991 1.31653 7.0777 1.31163C8.68346 1.08284 10.3131 0.931127 11.9403 1.01677C11.9567 1.01677 11.9554 0.994749 11.9403 0.993525Z" fill="#191919"/>
<path d="M1.45182 7.00621C1.28609 8.17137 1.22583 9.3484 1.27172 10.5238C1.27172 10.5372 1.29439 10.5372 1.29313 10.5238C1.25671 9.34909 1.31439 8.17343 1.46567 7.00744C1.46567 7.0001 1.45308 6.99887 1.45182 7.00744V7.00621Z" fill="#191919"/>
<path d="M1.27919 13.3777C1.28001 13.3777 1.28083 13.3775 1.2816 13.3772C1.28236 13.3769 1.28305 13.3764 1.28364 13.3759C1.28422 13.3753 1.28469 13.3746 1.285 13.3738C1.28532 13.3731 1.28548 13.3723 1.28548 13.3715C1.28548 13.3706 1.28532 13.3698 1.285 13.3691C1.28469 13.3683 1.28422 13.3676 1.28364 13.3671C1.28305 13.3665 1.28236 13.366 1.2816 13.3657C1.28083 13.3654 1.28001 13.3652 1.27919 13.3652C1.27752 13.3652 1.27591 13.3659 1.27473 13.3671C1.27355 13.3682 1.27289 13.3698 1.27289 13.3715C1.27289 13.3731 1.27355 13.3747 1.27473 13.3759C1.27591 13.377 1.27752 13.3777 1.27919 13.3777Z" fill="#191919"/>
<path d="M1.33719 13.231L1.32964 13.1001C1.32837 13.0947 1.32525 13.0899 1.32078 13.0864C1.31632 13.0829 1.31078 13.0811 1.30508 13.0811C1.29937 13.0811 1.29383 13.0829 1.28937 13.0864C1.28491 13.0899 1.28179 13.0947 1.28052 13.1001C1.2822 13.5404 1.30911 13.9804 1.36112 14.4178C1.39638 14.8574 1.43836 15.2963 1.48706 15.7343C1.56627 16.5946 1.69239 17.4502 1.86489 18.2975C1.86489 18.3085 1.88378 18.3049 1.88504 18.2975C1.89512 18.1911 1.91149 18.0858 1.92534 17.9806C1.92534 17.9806 1.91401 17.9721 1.91275 17.9806C1.89043 18.065 1.87901 18.1517 1.87874 18.2388C1.86504 18.1806 1.85787 18.1211 1.85733 18.0614L1.83466 17.8827C1.80821 17.665 1.78303 17.446 1.75406 17.2282C1.69235 16.762 1.62812 16.2946 1.58026 15.8273C1.5324 15.3599 1.48328 14.9109 1.44298 14.4521C1.40268 13.9932 1.3989 13.5442 1.33341 13.0976L1.28556 13.1099C1.29563 13.1527 1.30445 13.1955 1.31452 13.2383C1.31452 13.253 1.34223 13.2494 1.34097 13.2383L1.33719 13.231Z" fill="#191919"/>
<path d="M2.74023 8.14844C2.69237 9.12724 2.64451 10.106 2.61429 11.0922C2.61429 11.1081 2.63948 11.1081 2.64074 11.0922C2.68859 10.1134 2.71504 9.13458 2.74023 8.14844Z" fill="#191919"/>
<path d="M2.89008 13.658C2.91904 13.8488 2.94927 14.0397 2.97949 14.2293L2.89008 13.6567V13.658Z" fill="#191919"/>
<path d="M3.142 14.8911C3.21756 15.1615 3.29439 15.4319 3.37499 15.7011C3.37499 15.7011 3.3838 15.7011 3.38254 15.7011C3.3095 15.4295 3.23309 15.1587 3.15333 14.8887C3.15333 14.8887 3.14074 14.8887 3.142 14.8887V14.8911Z" fill="#191919"/>
<path d="M4.01603 15.1763L4.11049 15.421C4.11049 15.421 4.1256 15.421 4.12182 15.421L4.02359 15.1738C4.02359 15.1738 4.01351 15.1738 4.01603 15.1738V15.1763Z" fill="#191919"/>
<path d="M6.41644 1.38281C6.31659 1.38486 6.21713 1.39551 6.11921 1.41462C6.01594 1.43175 5.91141 1.44888 5.8094 1.46968C5.60411 1.5125 5.39883 1.55655 5.1948 1.60427C5.16583 1.61161 5.17843 1.65076 5.20739 1.64709C5.41142 1.61895 5.61545 1.58714 5.81947 1.55288C6.02427 1.528 6.22569 1.48164 6.42022 1.41462C6.43659 1.41462 6.43659 1.38281 6.42022 1.38281H6.41644Z" fill="#191919"/>
<path d="M4.43291 1.9302C4.43426 1.92962 4.43541 1.92866 4.43621 1.92744C4.43702 1.92623 4.43745 1.9248 4.43745 1.92335C4.43745 1.9219 4.43702 1.92047 4.43621 1.91926C4.43541 1.91804 4.43426 1.91708 4.43291 1.9165C4.43156 1.91708 4.43042 1.91804 4.42961 1.91926C4.4288 1.92047 4.42838 1.9219 4.42838 1.92335C4.42838 1.9248 4.4288 1.92623 4.42961 1.92744C4.43042 1.92866 4.43156 1.92962 4.43291 1.9302Z" fill="#191919"/>
<path d="M10.3207 0.705828C9.82196 0.699081 9.32326 0.719914 8.82699 0.768226C8.34589 0.815943 7.86605 0.824507 7.38747 0.910152C7.35095 0.917493 7.35976 0.977445 7.39755 0.974998C7.88494 0.934622 8.3673 0.844083 8.85596 0.819613L10.3207 0.743756C10.3244 0.742111 10.3276 0.739446 10.3298 0.736082C10.3321 0.732718 10.3333 0.728798 10.3333 0.724792C10.3333 0.720787 10.3321 0.716866 10.3298 0.713502C10.3276 0.710138 10.3244 0.707473 10.3207 0.705828Z" fill="#191919"/>
<path d="M4.09925 2.23242C3.72497 2.31659 3.35817 2.42951 3.00229 2.57011C2.64961 2.69824 2.31188 2.86229 1.99476 3.05951C1.99128 3.06108 1.98834 3.06359 1.98628 3.06673C1.98422 3.06987 1.98312 3.07352 1.98312 3.07725C1.98312 3.08097 1.98422 3.08462 1.98628 3.08777C1.98834 3.09091 1.99128 3.09341 1.99476 3.09499L2.10433 3.13169C2.11692 3.13169 2.127 3.11579 2.1144 3.10967L2.00861 3.0644V3.09866C2.34739 2.94205 2.67484 2.76831 3.01615 2.62517C3.36891 2.48307 3.72968 2.36052 4.09673 2.25812C4.09974 2.25812 4.10262 2.25696 4.10474 2.25489C4.10687 2.25283 4.10806 2.25002 4.10806 2.2471C4.10806 2.24418 4.10687 2.24138 4.10474 2.23932C4.10262 2.23725 4.09974 2.23609 4.09673 2.23609L4.09925 2.23242Z" fill="#191919"/>
<path d="M2.39892 3.042C2.32464 3.03956 2.25095 3.05556 2.18482 3.08849C2.14917 3.10223 2.11428 3.11775 2.08028 3.13498C2.04748 3.15052 2.01698 3.17027 1.98961 3.19371C1.95686 3.2243 1.93419 3.2867 1.98205 3.31606C1.98948 3.32213 1.99867 3.32579 2.00834 3.32653C2.01801 3.32728 2.02768 3.32507 2.036 3.32022C2.04432 3.31537 2.05088 3.30812 2.05475 3.29948C2.05863 3.29084 2.05963 3.28124 2.05761 3.27202C2.05663 3.26828 2.05476 3.26483 2.05214 3.26193C2.04953 3.25903 2.04625 3.25678 2.04256 3.25535C2.03888 3.25392 2.0349 3.25335 2.03095 3.2537C2.027 3.25404 2.02319 3.25529 2.01983 3.25733C1.93136 3.28864 1.84849 3.33322 1.77424 3.38947C1.7708 3.39354 1.76872 3.39853 1.7683 3.40379C1.76788 3.40904 1.76912 3.41429 1.77187 3.41883C1.77462 3.42336 1.77874 3.42697 1.78367 3.42916C1.7886 3.43135 1.7941 3.43202 1.79943 3.43107C1.8876 3.39967 1.97039 3.35553 2.04502 3.30016L2.00724 3.28547C2.01479 3.27813 2.01605 3.27569 2.00724 3.27813C2.00626 3.27494 2.00626 3.27154 2.00724 3.26835C2.01974 3.25727 2.03426 3.24855 2.05006 3.24265C2.0891 3.21941 2.1294 3.19861 2.1697 3.17658C2.24953 3.14218 2.32622 3.10125 2.39892 3.05423C2.40022 3.05347 2.4013 3.0524 2.40205 3.05111C2.4028 3.04982 2.40319 3.04837 2.40319 3.04689C2.40319 3.04541 2.4028 3.04396 2.40205 3.04267C2.4013 3.04139 2.40022 3.04031 2.39892 3.03955V3.042Z" fill="#191919"/>
<path d="M23.0899 1.79361C22.205 1.6525 21.3179 1.52403 20.4288 1.4082C20.4124 1.4082 20.4048 1.429 20.4212 1.43145C21.3095 1.56848 22.1987 1.69409 23.0887 1.80829C23.0975 1.80829 23.0987 1.79483 23.0887 1.79361H23.0899Z" fill="#191919"/>
<path d="M19.284 1.30646C18.7677 1.25477 18.2564 1.22769 17.7375 1.21784C17.2186 1.208 16.706 1.18584 16.1896 1.21784C16.1856 1.21784 16.1818 1.2194 16.179 1.22217C16.1761 1.22494 16.1745 1.2287 16.1745 1.23261C16.1745 1.23653 16.1761 1.24029 16.179 1.24306C16.1818 1.24583 16.1856 1.24738 16.1896 1.24738C16.7047 1.24738 17.2224 1.22154 17.7375 1.24738C18.2526 1.27323 18.7702 1.30892 19.284 1.352C19.3067 1.352 19.3054 1.31877 19.284 1.31631V1.30646Z" fill="#191919"/>
<path d="M15.211 1.28484C15.1934 1.28484 15.1745 1.28484 15.1569 1.28484C15.1288 1.2873 15.1005 1.28396 15.0738 1.27506C15.0471 1.26616 15.0227 1.25188 15.002 1.23315C14.9995 1.23201 14.9968 1.23166 14.9942 1.23215C14.9915 1.23264 14.9891 1.23394 14.9873 1.23587C14.9855 1.23779 14.9843 1.24024 14.984 1.24285C14.9837 1.24546 14.9843 1.2481 14.9856 1.25038C15.0163 1.27912 15.0534 1.30059 15.0939 1.31315C15.1134 1.3195 15.1338 1.32283 15.1544 1.323C15.1768 1.32282 15.1988 1.31733 15.2186 1.307C15.2299 1.307 15.2186 1.27992 15.211 1.28115V1.28484Z" fill="#191919"/>
<path d="M25.8114 21.4329C25.1565 21.6054 24.4991 21.773 23.8455 21.9541C23.8379 21.9541 23.8455 21.9676 23.8455 21.9651C24.5042 21.7999 25.1578 21.6201 25.8127 21.4451C25.8215 21.4451 25.8127 21.4304 25.8127 21.4329H25.8114Z" fill="#191919"/>
<path d="M21.9464 22.3201C21.5877 22.3902 21.2246 22.4371 20.8595 22.4604C20.8573 22.4612 20.8554 22.4626 20.854 22.4645C20.8527 22.4663 20.8519 22.4686 20.8519 22.4709C20.8519 22.4732 20.8527 22.4754 20.854 22.4773C20.8554 22.4792 20.8573 22.4806 20.8595 22.4813C21.2276 22.4706 21.5933 22.4207 21.9502 22.3324C21.959 22.3324 21.9502 22.3176 21.9502 22.3201H21.9464Z" fill="#191919"/>
<path d="M20.2085 22.4767C19.8823 22.4767 19.5573 22.4655 19.2312 22.4767C19.2281 22.4767 19.2253 22.4778 19.2231 22.4799C19.221 22.482 19.2198 22.4849 19.2198 22.4879C19.2198 22.4908 19.221 22.4937 19.2231 22.4958C19.2253 22.4979 19.2281 22.4991 19.2312 22.4991C19.5573 22.5078 19.8823 22.4991 20.2085 22.4991C20.2108 22.4991 20.213 22.4982 20.2147 22.4965C20.2163 22.4949 20.2173 22.4927 20.2173 22.4904C20.2173 22.488 20.2163 22.4858 20.2147 22.4842C20.213 22.4826 20.2108 22.4816 20.2085 22.4816V22.4767Z" fill="#191919"/>
<path d="M19.0107 22.4675C20.4389 22.547 21.949 22.5164 23.3003 22.0209L23.2739 21.9585C22.7493 22.2085 22.1895 22.3817 21.6127 22.4724C21.5875 22.4724 21.5976 22.5127 21.6228 22.5091C22.198 22.4033 22.7603 22.2393 23.3003 22.0197C23.3419 22.0038 23.3255 21.9401 23.2814 21.9548C22.5899 22.1692 21.8753 22.3059 21.1518 22.3622C20.4402 22.4271 19.7261 22.4185 19.0107 22.454V22.465V22.4675Z" fill="#191919"/>
<path d="M18.4176 22.8285C18.1836 22.7911 17.9478 22.7652 17.7111 22.751C17.696 22.751 17.6922 22.7756 17.7111 22.7768C17.9462 22.8094 18.1829 22.8304 18.4201 22.8396V22.8285H18.4176Z" fill="#191919"/>
<path d="M17.6015 22.7481C17.33 22.7679 17.0571 22.7542 16.7891 22.7075C16.769 22.7075 16.7589 22.7334 16.7803 22.7395C17.048 22.8098 17.3277 22.8245 17.6015 22.7826C17.6229 22.7826 17.6241 22.7457 17.6015 22.7481Z" fill="#191919"/>
<path d="M21.187 22.8877C20.395 23.001 19.593 23.0332 18.7941 22.9837C18.7878 22.9837 18.7878 22.9923 18.7941 22.9935C19.5932 23.0416 20.3952 23.0074 21.187 22.8914V22.8877Z" fill="#191919"/>
<path d="M22.5975 22.3691C21.9312 22.5883 21.237 22.7175 20.5346 22.7533C20.5144 22.7533 20.5144 22.7851 20.5346 22.7839C21.2398 22.7483 21.9356 22.6102 22.5987 22.374L22.5975 22.3691Z" fill="#191919"/>
<path d="M14.5598 23.1936C14.2487 23.1863 13.9301 23.2133 13.6253 23.222C13.3205 23.2306 12.9818 23.2367 12.6593 23.2392C12.0296 23.2392 11.3999 23.2158 10.7601 23.1998C10.7425 23.1998 10.7438 23.2232 10.7601 23.2244C11.3987 23.2896 12.0485 23.3044 12.6908 23.3081C13.3164 23.3301 13.9427 23.3021 14.5636 23.2244C14.5825 23.2244 14.5762 23.1949 14.5636 23.1936H14.5598Z" fill="#191919"/>
<path d="M9.23881 23.1784C9.30334 23.1768 9.36788 23.1813 9.4315 23.1919L9.44032 23.1282C9.13875 23.146 8.83636 23.146 8.53479 23.1282C8.22372 23.1038 7.91507 23.056 7.61164 22.9851C7.60941 22.9844 7.60706 22.9842 7.60475 22.9845C7.60243 22.9847 7.60019 22.9854 7.59814 22.9865C7.59609 22.9875 7.59429 22.989 7.59282 22.9908C7.59135 22.9925 7.59026 22.9945 7.5896 22.9967C7.58894 22.9989 7.58872 23.0012 7.58896 23.0034C7.58921 23.0057 7.58991 23.0078 7.59102 23.0098C7.59213 23.0118 7.59363 23.0136 7.59544 23.015C7.59725 23.0164 7.59933 23.0175 7.60156 23.0181C8.19844 23.1995 8.82781 23.2574 9.44913 23.1882C9.48944 23.1882 9.47306 23.1136 9.4315 23.1258C9.36826 23.1401 9.30371 23.1483 9.23881 23.1503C9.23716 23.1503 9.23552 23.1506 9.23399 23.1512C9.23246 23.1518 9.23107 23.1527 9.2299 23.1538C9.22874 23.155 9.22781 23.1563 9.22717 23.1578C9.22654 23.1593 9.22622 23.1609 9.22622 23.1625C9.22622 23.1641 9.22654 23.1657 9.22717 23.1672C9.22781 23.1687 9.22874 23.17 9.2299 23.1711C9.23107 23.1723 9.23246 23.1732 9.23399 23.1738C9.23552 23.1744 9.23716 23.1747 9.23881 23.1747V23.1784Z" fill="#191919"/>
<path d="M13.8546 22.1728C13.6454 22.1674 13.438 22.2131 13.2514 22.3057C13.2438 22.3057 13.2514 22.3205 13.2589 22.318C13.353 22.2768 13.4508 22.2443 13.5511 22.2208C13.6514 22.2008 13.7527 22.1865 13.8546 22.1777V22.1728Z" fill="#191919"/>
<path d="M4.52729 21.4609C4.14947 21.1958 3.76786 20.9352 3.38248 20.6791C3.34847 20.6571 3.31699 20.7097 3.34973 20.7317C3.72756 20.9899 4.1205 21.2407 4.51218 21.4878C4.52855 21.4989 4.54366 21.4732 4.52729 21.4609Z" fill="#191919"/>
<path d="M2.34232 19.8159C2.41225 20.0164 2.50787 20.2076 2.62694 20.3848C2.68272 20.4672 2.74371 20.546 2.80956 20.621L2.91535 20.7433C2.95313 20.7862 2.98336 20.8351 3.02114 20.8767C3.05893 20.9183 3.10804 20.8596 3.07404 20.8265C2.90906 20.6614 2.71636 20.5194 2.53753 20.3702C2.51738 20.3543 2.48841 20.3812 2.5073 20.3995C2.67606 20.5598 2.83853 20.7323 3.02114 20.8767L3.06648 20.8204C3.0194 20.7928 2.97399 20.7625 2.93047 20.7299C2.89377 20.6983 2.85887 20.6648 2.82593 20.6295C2.75395 20.5486 2.68748 20.4632 2.62694 20.3738C2.50887 20.2001 2.41367 20.0127 2.34358 19.8159H2.34232Z" fill="#191919"/>
<path d="M2.37366 20.3745L2.58398 20.4853L2.37366 20.3757V20.3745Z" fill="#191919"/>
<path d="M4.11547 21.5628L3.93159 21.4539C3.87114 21.4172 3.80565 21.3842 3.7452 21.3499C3.74253 21.3483 3.7393 21.3478 3.73623 21.3484C3.73316 21.3491 3.7305 21.351 3.72883 21.3536C3.72716 21.3562 3.72662 21.3593 3.72732 21.3623C3.72803 21.3653 3.72993 21.3679 3.7326 21.3695C3.7918 21.4086 3.85099 21.449 3.9127 21.4845L4.09658 21.5946C4.11673 21.6068 4.13562 21.575 4.11547 21.5628Z" fill="#191919"/>
<path d="M4.09797 21.5884C4.1642 21.648 4.23586 21.7017 4.31207 21.7487C4.35111 21.7731 4.38889 21.7964 4.42793 21.8172L4.48713 21.8478C4.50715 21.8604 4.52821 21.8715 4.5501 21.8808C4.58788 21.893 4.60425 21.8429 4.57529 21.8221C4.52743 21.789 4.48083 21.7572 4.43045 21.7279C4.41156 21.7156 4.39141 21.7426 4.40652 21.7572C4.44808 21.7976 4.4909 21.8355 4.53247 21.8722L4.57277 21.8221C4.55262 21.8135 4.53247 21.8135 4.51106 21.8062L4.44934 21.7829C4.40619 21.7672 4.36412 21.7488 4.3234 21.7279C4.24452 21.6852 4.16952 21.6361 4.09922 21.5811C4.09922 21.5811 4.08537 21.5811 4.09167 21.5884H4.09797Z" fill="#191919"/>
<path d="M4.73519 21.8603C4.88197 21.8537 5.02711 21.8929 5.14954 21.9723C5.15835 21.9785 5.16591 21.9649 5.15835 21.96C5.03592 21.8735 4.88573 21.8328 4.73519 21.8455C4.72511 21.8455 4.72511 21.8615 4.73519 21.8603Z" fill="#191919"/>
<path d="M9.61415 21.6749C9.08084 21.6503 8.552 21.5682 8.03735 21.4302C8.55102 21.5726 9.08038 21.6547 9.61415 21.6749Z" fill="#191919"/>
<path d="M6.99068 21.1387C6.8871 21.0568 6.75585 21.016 6.62292 21.0242C6.75537 21.0151 6.8864 21.0556 6.98942 21.1374L6.99068 21.1387Z" fill="#191919"/>
<path d="M7.98819 21.5648L7.41138 21.5112L7.98819 21.5635V21.5648Z" fill="#191919"/>
<path d="M24.2448 3.5359C24.504 3.78268 24.7361 4.05494 24.9375 4.3483C24.9375 4.3483 24.9526 4.3483 24.9475 4.34218C24.7436 4.04976 24.5094 3.77836 24.2486 3.53223C24.2486 3.53223 24.2423 3.53223 24.2486 3.53223L24.2448 3.5359Z" fill="#191919"/>
<path d="M23.6781 3.25099C24.0559 3.76363 24.4425 4.2775 24.8317 4.78648C24.8317 4.79382 24.8481 4.78648 24.843 4.78036C24.4652 4.26527 24.0735 3.75629 23.6869 3.24609C23.6869 3.24609 23.6743 3.24609 23.6781 3.24609V3.25099Z" fill="#191919"/>
<path d="M25.77 7.42701C25.7876 7.48117 25.8052 7.53655 25.8216 7.59194L25.7687 7.42578L25.77 7.42701Z" fill="#191919"/>
<path d="M26.3002 11.5396L26.3531 11.7586C26.3355 11.6864 26.3166 11.613 26.299 11.5396H26.3002Z" fill="#191919"/>
<path d="M26.3582 11.8146C26.2536 10.8918 26.0968 9.9752 25.8884 9.06909C25.8884 9.04829 25.8532 9.05685 25.8569 9.07765C26.0282 9.98916 26.2159 10.897 26.3519 11.8146H26.3582Z" fill="#191919"/>
<path d="M25.1428 7.20508C25.1781 7.29684 25.2134 7.3886 25.2474 7.48037C25.2121 7.3886 25.1768 7.29806 25.1428 7.2063V7.20508Z" fill="#191919"/>
<path d="M26.1894 14.8862L26.2423 15.2154L26.1894 14.8862Z" fill="#191919"/>
<path d="M26.1743 16.5378C26.2322 16.7005 26.2889 16.8632 26.3481 17.0272C26.3481 17.0333 26.362 17.0272 26.3594 17.0272C26.304 16.8632 26.2473 16.7005 26.1907 16.5378C26.1907 16.528 26.1705 16.5317 26.1743 16.5378Z" fill="#191919"/>
<path d="M26.4023 17.8548C26.4086 17.8548 26.4111 17.8928 26.4123 17.8977V17.9356L26.4262 18.0163L26.4526 18.1778L26.4123 17.9503L26.4035 17.8952C26.4023 17.8855 26.4023 17.8756 26.4035 17.8658C26.4029 17.8622 26.4029 17.8585 26.4035 17.8548C26.4035 17.8365 26.3821 17.8548 26.396 17.8548H26.4023Z" fill="#191919"/>
<path d="M25.7475 17.7778C25.764 18.1653 25.7586 18.5533 25.7311 18.9402C25.7571 18.5532 25.7617 18.1652 25.7449 17.7778H25.7475Z" fill="#191919"/>
<path d="M25.6441 19.3035C25.5189 19.648 25.3665 19.9826 25.1882 20.3043C25.1882 20.3043 25.1882 20.3104 25.1882 20.3043C25.3814 19.9896 25.5353 19.6536 25.6466 19.3035C25.6466 19.3035 25.6466 19.2974 25.6391 19.3035H25.6441Z" fill="#191919"/>
<path d="M26.2977 20.1597C26.2843 20.2287 26.2453 20.2905 26.1881 20.3334L26.2083 20.3444L26.2183 20.3126C26.2239 20.3034 26.2266 20.2927 26.2259 20.282C26.225 20.2808 26.2237 20.2797 26.2223 20.279C26.2209 20.2783 26.2193 20.2779 26.2177 20.2779C26.2161 20.2779 26.2145 20.2783 26.2131 20.279C26.2117 20.2797 26.2105 20.2808 26.2095 20.282C26.2007 20.2881 26.1995 20.3016 26.1957 20.3102L26.1856 20.342C26.1841 20.3446 26.1837 20.3476 26.1845 20.3505C26.1854 20.3534 26.1873 20.3558 26.19 20.3573C26.1927 20.3587 26.1958 20.3591 26.1988 20.3583C26.2017 20.3575 26.2042 20.3556 26.2057 20.353C26.2355 20.3311 26.2592 20.3026 26.275 20.2698C26.2915 20.2369 26.301 20.2011 26.3027 20.1646L26.2977 20.1597Z" fill="#191919"/>
<path d="M10.0499 3.09521H9.49072V3.10268H10.0499V3.09521Z" fill="#191919"/>
<path d="M6.77534 3.49719C6.40429 3.55989 6.04177 3.66332 5.69475 3.80551C5.68846 3.80551 5.69475 3.81775 5.69475 3.81652C5.87233 3.75657 6.04865 3.69417 6.22875 3.63912C6.40885 3.58406 6.5902 3.54246 6.77282 3.50453C6.77282 3.50453 6.77282 3.49597 6.77282 3.49719H6.77534Z" fill="#191919"/>
<path d="M10.3509 5.26732C10.3899 5.26478 10.429 5.26852 10.4668 5.2784C10.492 5.28701 10.5046 5.2464 10.4781 5.23901C10.2673 5.18299 10.0467 5.17083 9.83074 5.20332C9.82607 5.20332 9.82158 5.20513 9.81827 5.20836C9.81497 5.2116 9.81311 5.21598 9.81311 5.22055C9.81311 5.22512 9.81497 5.2295 9.81827 5.23273C9.82158 5.23596 9.82607 5.23778 9.83074 5.23778C9.93562 5.23224 10.0408 5.23224 10.1456 5.23778C10.2522 5.24416 10.3582 5.25731 10.463 5.27716V5.23901C10.4272 5.25032 10.3898 5.25613 10.3522 5.25624C10.3522 5.25624 10.3522 5.26486 10.3522 5.26609L10.3509 5.26732Z" fill="#191919"/>
<path d="M9.31315 5.35563L9.32701 5.34825L9.34464 5.33717C9.34918 5.3341 9.35433 5.332 9.35975 5.33101H9.36857H9.37487C9.38599 5.32797 9.39775 5.32797 9.40887 5.33101H9.41769L9.4391 5.35563L9.44791 5.32117L9.35472 5.34825H9.33582H9.31315C9.30113 5.34948 9.28953 5.35326 9.27915 5.35932C9.27158 5.36403 9.26478 5.36984 9.259 5.37655C9.25655 5.38044 9.25525 5.38491 9.25525 5.38948C9.25525 5.39404 9.25655 5.39852 9.259 5.4024C9.26101 5.40632 9.26406 5.40963 9.26782 5.41201C9.27159 5.41439 9.27593 5.41575 9.28041 5.41594C9.29002 5.41716 9.29976 5.41716 9.30938 5.41594C9.32071 5.41594 9.33582 5.41594 9.34212 5.40363H9.35094L9.37109 5.39502L9.46177 5.36548C9.46533 5.36454 9.46858 5.36271 9.47121 5.36018C9.47384 5.35765 9.47575 5.35449 9.47676 5.35103C9.47778 5.34756 9.47786 5.34389 9.477 5.34039C9.47613 5.33688 9.47436 5.33365 9.47184 5.33101C9.46072 5.31852 9.44665 5.30885 9.43086 5.30284C9.41506 5.29684 9.398 5.29468 9.38116 5.29655C9.36384 5.29769 9.34703 5.30275 9.33205 5.31132C9.3239 5.3158 9.31699 5.32213 9.3119 5.32978C9.30806 5.33755 9.30551 5.34585 9.30434 5.3544C9.30434 5.3544 9.30434 5.3704 9.31945 5.36425L9.31315 5.35563Z" fill="#191919"/>
<path d="M11.8105 18.6705C11.7967 18.6841 11.7551 18.6816 11.7362 18.6816C11.7136 18.6828 11.6909 18.6828 11.6682 18.6816C11.6263 18.6839 11.5842 18.6839 11.5423 18.6816C11.4957 18.6816 11.4491 18.6718 11.4025 18.6644C11.3817 18.6615 11.3611 18.6574 11.3408 18.6521C11.3181 18.6447 11.2954 18.6336 11.2728 18.625V18.6472C11.3987 18.6915 11.5473 18.7025 11.6758 18.7567C11.7073 18.769 11.7249 18.721 11.6984 18.705C11.6528 18.677 11.6018 18.6583 11.5486 18.65C11.4953 18.6418 11.4409 18.6441 11.3886 18.657C11.3827 18.6589 11.3776 18.6627 11.3742 18.6679C11.3709 18.6731 11.3696 18.6793 11.3705 18.6854C11.3714 18.6914 11.3745 18.697 11.3792 18.701C11.3839 18.7051 11.3899 18.7073 11.3962 18.7075C11.4918 18.7058 11.5868 18.7225 11.6758 18.7567L11.6846 18.7013C11.5461 18.6927 11.4126 18.6422 11.2753 18.625C11.2627 18.625 11.2589 18.6459 11.2753 18.6472L11.4113 18.6668C11.4529 18.6745 11.495 18.6799 11.5372 18.6828C11.5826 18.6828 11.6279 18.6828 11.6733 18.6828H11.7413C11.7627 18.6828 11.8042 18.6705 11.8219 18.6828C11.8395 18.6952 11.8319 18.6632 11.8219 18.673L11.8105 18.6705Z" fill="#191919"/>
<path d="M23.2248 8.7529C23.0384 8.7529 22.8469 8.74418 22.6656 8.7529C22.6612 8.75399 22.6574 8.75649 22.6547 8.75998C22.6519 8.76347 22.6504 8.76777 22.6504 8.77219C22.6504 8.77662 22.6519 8.78091 22.6547 8.78441C22.6574 8.7879 22.6612 8.79039 22.6656 8.79149C22.852 8.80145 23.0434 8.79149 23.2248 8.79149C23.2294 8.79035 23.2335 8.78771 23.2365 8.78399C23.2394 8.78027 23.241 8.77568 23.241 8.77095C23.241 8.76622 23.2394 8.76163 23.2365 8.75791C23.2335 8.75419 23.2294 8.75155 23.2248 8.75041V8.7529Z" fill="#191919"/>
<path d="M23.0106 8.99382L22.7588 8.94775L23.0169 8.99382H23.0106Z" fill="#191919"/>
<path d="M22.8808 9.03662H22.61C22.6081 9.03732 22.6064 9.03858 22.6052 9.04023C22.6041 9.04188 22.6034 9.04384 22.6034 9.04585C22.6034 9.04786 22.6041 9.04982 22.6052 9.05147C22.6064 9.05312 22.6081 9.05438 22.61 9.05508C22.6492 9.07963 22.693 9.09631 22.7388 9.10413C22.7846 9.11195 22.8316 9.11075 22.877 9.10062C22.8946 9.10062 22.8896 9.07231 22.877 9.07231C22.7359 9.07231 22.5936 9.08339 22.4526 9.09201C22.3115 9.10062 22.1705 9.11539 22.0294 9.1277C22.003 9.1277 22.0017 9.16955 22.0294 9.16709C22.173 9.1597 22.3178 9.15355 22.4614 9.14124C22.605 9.12893 22.7422 9.12278 22.8808 9.10062L22.8732 9.07231C22.8313 9.08586 22.7868 9.0898 22.7432 9.08382C22.6995 9.07785 22.6578 9.06212 22.6213 9.03785V9.05631H22.8921C22.8935 9.05574 22.8946 9.05479 22.8954 9.05359C22.8962 9.05239 22.8966 9.05098 22.8966 9.04954C22.8966 9.04811 22.8962 9.0467 22.8954 9.0455C22.8946 9.0443 22.8935 9.04335 22.8921 9.04278L22.8808 9.03662Z" fill="#191919"/>
<path d="M2.36499 5.704C2.4224 5.7358 2.47356 5.77723 2.51612 5.82635C2.56103 5.87727 2.5968 5.93517 2.62191 5.99764L2.63325 5.98663L2.48463 5.9487C2.43702 5.93443 2.38868 5.92259 2.3398 5.91322C2.30202 5.9071 2.2063 5.93891 2.25038 5.98785C2.25794 5.99641 2.27053 5.98785 2.26298 5.97561C2.25542 5.96338 2.28691 5.93891 2.30328 5.93524C2.33684 5.93487 2.37018 5.94068 2.40151 5.95237L2.62821 6.00375C2.62979 6.00433 2.63151 6.00444 2.63316 6.00409C2.63481 6.00374 2.63632 6.00294 2.63751 6.00178C2.63871 6.00062 2.63953 5.99915 2.63989 5.99755C2.64025 5.99595 2.64013 5.99428 2.63954 5.99274C2.61524 5.92868 2.57989 5.8691 2.53501 5.81656C2.48964 5.76469 2.43503 5.72118 2.37381 5.68809C2.37163 5.68696 2.36909 5.6867 2.36673 5.68739C2.36436 5.68808 2.36238 5.68965 2.36121 5.69176C2.36004 5.69387 2.35978 5.69634 2.36049 5.69864C2.3612 5.70093 2.36282 5.70286 2.36499 5.704Z" fill="#191919"/>
</g>
<defs>
<clipPath id="clip0">
<rect width="28" height="24" fill="white"/>
</clipPath>
</defs>
</svg>
