<svg width="27" height="24" viewBox="0 0 27 24" fill="none" xmlns="http://www.w3.org/2000/svg">
<g clip-path="url(#clip0)">
<path d="M26.0603 20.4738C26.7643 16.78 26.758 12.4953 26.2681 8.68291C25.9305 6.05851 25.4205 3.127 23.3437 1.61476C21.8677 0.540523 8.81501 -0.045534 4.51157 0.876985C3.37809 1.12169 1.98139 1.26728 1.31768 2.23752C-0.756591 5.26079 0.125004 15.1821 0.583433 17.82C0.759752 18.827 0.999042 19.8461 1.53304 20.705C2.7786 22.7152 5.24581 23.6965 7.5367 23.7063C15.2116 23.7418 25.4255 23.8042 26.0603 20.4738Z" fill="#DCA35B"/>
<path d="M21.2253 8.86542C21.2253 8.86542 21.0717 7.76427 20.5956 7.27487C19.9949 6.63742 19.3211 6.63375 19.0125 6.59705C16.7997 6.43555 13.4837 6.43555 13.4837 6.43555H13.4748C13.4748 6.43555 10.1563 6.43555 7.94473 6.59827C7.63617 6.63375 6.96364 6.63742 6.36164 7.27487C5.8881 7.76427 5.73193 8.86542 5.73193 8.86542C5.6331 9.72557 5.58013 10.5901 5.57324 11.4556V12.6693C5.58209 13.5369 5.63716 14.4035 5.73823 15.2655C5.73823 15.2655 5.89188 16.3667 6.36794 16.8561C6.96994 17.4935 7.76086 17.4678 8.11098 17.5388C9.3704 17.6612 13.4849 17.7003 13.4849 17.7003C13.4849 17.7003 16.8048 17.6942 19.0176 17.5339C19.3261 17.496 19.9999 17.4935 20.6007 16.8549C21.0742 16.3655 21.2304 15.2643 21.2304 15.2643C21.3292 14.4034 21.3822 13.538 21.3891 12.6717V11.4568C21.3805 10.5908 21.3258 9.72589 21.2253 8.86542ZM16.1196 11.9034L11.8502 14.1436V9.64601L13.7759 10.664L16.1196 11.9034Z" fill="#191919"/>
<path d="M6.17019 7.58112C5.83653 8.26991 5.60298 9.00038 5.47625 9.75161C5.3503 10.4698 5.27096 11.2528 5.38557 11.9772C5.38557 12.0016 5.42713 11.9955 5.42713 11.9772C5.42713 11.6101 5.40446 11.2431 5.42083 10.8674C5.43754 10.4823 5.4796 10.0985 5.54677 9.71857C5.68182 8.98998 5.89672 8.27752 6.18782 7.59335C6.18782 7.58234 6.17397 7.575 6.16893 7.58601L6.17019 7.58112Z" fill="#191919"/>
<path d="M5.56317 9.08742C5.49391 9.88636 5.46872 10.6878 5.44605 11.4891C5.42338 12.2905 5.40827 13.0907 5.44605 13.8909C5.44703 13.8942 5.44909 13.8971 5.45193 13.8992C5.45477 13.9013 5.45823 13.9024 5.46179 13.9024C5.46535 13.9024 5.46881 13.9013 5.47165 13.8992C5.47449 13.8971 5.47656 13.8942 5.47753 13.8909C5.52287 13.0907 5.52791 12.2893 5.54176 11.4891C5.55562 10.689 5.58332 9.88759 5.58081 9.08742C5.58081 9.07763 5.56569 9.07763 5.56443 9.08742H5.56317Z" fill="#191919"/>
<path d="M5.49774 12.4707C5.49774 12.9601 5.51285 13.4495 5.54056 13.9389C5.55316 14.1836 5.58968 14.4283 5.5796 14.673C5.56883 14.9022 5.58276 15.1318 5.62116 15.3582C5.62116 15.3863 5.6665 15.3765 5.66902 15.3582C5.68343 15.113 5.67203 14.867 5.63502 14.6241C5.60479 14.3904 5.62117 14.153 5.60857 13.9181C5.58464 13.4373 5.55316 12.9564 5.50908 12.4768H5.49774V12.4707Z" fill="#191919"/>
<path d="M11.9208 9.67248C11.9208 9.86701 11.9132 10.0615 11.9208 10.2573C11.9216 10.2598 11.9232 10.2619 11.9254 10.2634C11.9275 10.2649 11.9301 10.2657 11.9327 10.2657C11.9354 10.2657 11.938 10.2649 11.9401 10.2634C11.9423 10.2619 11.9439 10.2598 11.9447 10.2573C11.951 10.0615 11.9447 9.86701 11.9447 9.67248C11.9439 9.67003 11.9423 9.6679 11.9401 9.66639C11.938 9.66488 11.9354 9.66406 11.9327 9.66406C11.9301 9.66406 11.9275 9.66488 11.9254 9.66639C11.9232 9.6679 11.9216 9.67003 11.9208 9.67248Z" fill="#191919"/>
<path d="M11.8842 10.7152C11.8615 11.1716 11.8376 11.628 11.8376 12.0843C11.8376 12.5407 11.8376 12.9971 11.8288 13.4522H11.8628C11.8628 13.3874 11.8628 13.3225 11.8741 13.2564H11.8262C11.8405 13.3971 11.8272 13.539 11.7872 13.6749C11.7708 13.7263 11.8615 13.7434 11.8653 13.6847C11.8789 13.5423 11.8819 13.3992 11.8741 13.2564C11.8741 13.2283 11.8262 13.2271 11.8262 13.2564C11.8262 13.3225 11.8262 13.3874 11.8262 13.4522C11.8262 13.4566 11.828 13.4608 11.8312 13.4639C11.8344 13.467 11.8387 13.4687 11.8432 13.4687C11.8477 13.4687 11.8521 13.467 11.8553 13.4639C11.8584 13.4608 11.8602 13.4566 11.8602 13.4522C11.8602 12.9971 11.898 12.5407 11.9119 12.0843C11.9257 11.628 11.9232 11.1716 11.9207 10.7152C11.9197 10.7116 11.9175 10.7084 11.9144 10.7061C11.9113 10.7039 11.9076 10.7026 11.9037 10.7026C11.8998 10.7026 11.8961 10.7039 11.893 10.7061C11.8899 10.7084 11.8877 10.7116 11.8867 10.7152H11.8842Z" fill="#191919"/>
<path d="M13.5605 10.5552C13.9192 10.7338 14.2599 10.9448 14.5781 11.1853L14.6171 11.1204C14.493 11.1019 14.3775 11.0473 14.2859 10.9638L14.2343 11.0495C14.4131 11.1077 14.5768 11.2029 14.7141 11.3284L14.7821 11.2416L14.4925 11.0874L14.437 11.1792C14.626 11.277 14.8149 11.3761 15.0076 11.4618C15.0158 11.4656 15.0253 11.4662 15.0341 11.4636C15.0428 11.461 15.0502 11.4552 15.0548 11.4475C15.0594 11.4398 15.0609 11.4307 15.0589 11.422C15.0569 11.4133 15.0516 11.4057 15.0441 11.4006C14.8653 11.288 14.6789 11.1889 14.4925 11.0874C14.4799 11.0803 14.465 11.0782 14.451 11.0818C14.4369 11.0854 14.4249 11.0942 14.4175 11.1064C14.4102 11.1185 14.4081 11.133 14.4118 11.1467C14.4154 11.1603 14.4245 11.172 14.437 11.1792C14.5328 11.233 14.6285 11.2856 14.7255 11.337C14.7796 11.3651 14.8426 11.2942 14.7935 11.2501C14.6413 11.1132 14.4598 11.0109 14.262 10.9504C14.2003 10.9308 14.1763 11.0115 14.2217 11.0446C14.3329 11.1245 14.4627 11.1766 14.5995 11.1963C14.6087 11.1977 14.6181 11.1961 14.6262 11.1917C14.6343 11.1874 14.6407 11.1805 14.6444 11.1722C14.648 11.1639 14.6486 11.1546 14.6462 11.1459C14.6438 11.1372 14.6384 11.1295 14.631 11.1241C14.3093 10.8831 13.9608 10.6779 13.592 10.5123C13.5618 10.4989 13.534 10.5417 13.5643 10.5564L13.5605 10.5552Z" fill="#191919"/>
<path d="M15.9182 12.0281C15.4295 12.2557 14.9472 12.4955 14.4661 12.7402C13.985 12.9849 13.5026 13.2296 13.0391 13.4951C13.0215 13.5048 13.0391 13.5293 13.0555 13.5208C13.5416 13.2883 14.0139 13.0314 14.4938 12.7867C14.9736 12.542 15.4534 12.2973 15.932 12.0526C15.9471 12.044 15.932 12.022 15.9182 12.0293V12.0281Z" fill="#191919"/>
<path d="M14.762 12.622C14.3149 12.8189 13.8804 13.0343 13.4371 13.2472C12.9938 13.4601 12.5555 13.6632 12.1323 13.9066C12.1071 13.9213 12.1323 13.9556 12.155 13.9446C12.6071 13.7574 13.0366 13.5286 13.4749 13.3096C13.9131 13.0906 14.3464 12.8752 14.7733 12.6403C14.7847 12.6342 14.7733 12.6171 14.762 12.622Z" fill="#191919"/>
<path d="M11.9824 14.0708L12.1084 13.9889C12.1525 13.9607 12.1928 13.9314 12.2343 13.9008C12.2392 13.8977 12.2427 13.893 12.2441 13.8876C12.2455 13.8821 12.2447 13.8763 12.2419 13.8714C12.239 13.8667 12.2344 13.8634 12.2289 13.862C12.2235 13.8606 12.2178 13.8614 12.2129 13.8641C12.1688 13.891 12.1248 13.9167 12.087 13.946L11.961 14.0329C11.9584 14.0344 11.9562 14.0364 11.9544 14.0388C11.9526 14.0411 11.9513 14.0438 11.9506 14.0467C11.9499 14.0495 11.9498 14.0525 11.9503 14.0554C11.9508 14.0582 11.9519 14.061 11.9535 14.0635C11.9549 14.066 11.9568 14.0681 11.9592 14.0699C11.9615 14.0716 11.9641 14.0728 11.967 14.0735C11.9698 14.0742 11.9727 14.0743 11.9756 14.0739C11.9785 14.0734 11.9812 14.0724 11.9837 14.0708H11.9824Z" fill="#191919"/>
<path d="M14.7682 12.4246C14.0753 12.7513 13.4066 13.1246 12.767 13.5416C12.767 13.5416 12.767 13.549 12.767 13.5416C13.406 13.1239 14.0743 12.7503 14.767 12.4233L14.7682 12.4246Z" fill="#191919"/>
<path d="M21.1687 7.78775C21.2039 8.03979 21.2379 8.29183 21.2795 8.54387C21.2795 8.55366 21.2971 8.55121 21.2959 8.54387C21.2619 8.2906 21.2216 8.03856 21.1813 7.78652C21.1813 7.77796 21.1674 7.78652 21.1687 7.78652V7.78775Z" fill="#191919"/>
<path d="M21.4092 10.5728C21.389 11.0475 21.3827 11.521 21.3701 11.9957C21.3575 12.4704 21.3147 12.9451 21.3374 13.4174C21.3374 13.4321 21.3638 13.4382 21.3663 13.4174C21.4245 12.9538 21.4519 12.4871 21.4482 12.0202C21.4608 11.5308 21.4633 11.0524 21.4381 10.5691C21.4372 10.5661 21.4353 10.5634 21.4327 10.5615C21.4301 10.5596 21.4269 10.5586 21.4237 10.5586C21.4204 10.5586 21.4172 10.5596 21.4146 10.5615C21.412 10.5634 21.4101 10.5661 21.4092 10.5691V10.5728Z" fill="#191919"/>
<path d="M21.5351 12.2263C21.5264 13.1269 21.4578 14.026 21.3298 14.918C21.3298 14.9253 21.3399 14.9278 21.3412 14.918C21.4301 14.4845 21.4948 14.0467 21.5351 13.6064C21.5691 13.1476 21.5855 12.6876 21.5729 12.2263C21.572 12.2233 21.5701 12.2206 21.5675 12.2187C21.5648 12.2168 21.5617 12.2158 21.5584 12.2158C21.5552 12.2158 21.552 12.2168 21.5494 12.2187C21.5468 12.2206 21.5449 12.2233 21.5439 12.2263H21.5351Z" fill="#191919"/>
<path d="M20.3752 17.084C19.7593 17.3964 19.0886 17.594 18.3979 17.6664C18.3802 17.6664 18.3802 17.6945 18.3979 17.6933C19.0976 17.645 19.7768 17.4425 20.384 17.1011C20.3928 17.1011 20.384 17.0828 20.3752 17.0877V17.084Z" fill="#191919"/>
<path d="M19.3539 17.5904C19.1109 17.6199 18.8703 17.6581 18.6247 17.6778C18.3791 17.6975 18.1348 17.7085 17.8905 17.7122C17.8886 17.7129 17.8869 17.7142 17.8857 17.7158C17.8845 17.7175 17.8839 17.7195 17.8839 17.7215C17.8839 17.7235 17.8845 17.7254 17.8857 17.7271C17.8869 17.7287 17.8886 17.73 17.8905 17.7307C18.1405 17.7375 18.3907 17.7301 18.6398 17.7085C18.8808 17.691 19.1202 17.6572 19.3564 17.6076C19.3665 17.6076 19.364 17.5892 19.3564 17.5904H19.3539Z" fill="#191919"/>
<path d="M15.1701 17.7235C14.1399 17.7468 13.1147 17.8165 12.0845 17.7786C11.0362 17.7422 9.99127 17.6413 8.9561 17.4764C8.67777 17.4299 8.39943 17.3809 8.12236 17.3259C7.84529 17.2708 7.53421 17.1827 7.24077 17.1362C7.20676 17.1362 7.19291 17.1766 7.22565 17.1852C7.73418 17.3106 8.2503 17.405 8.77096 17.4678C9.27473 17.5437 9.77094 17.6109 10.2735 17.6636C11.3074 17.7725 12.3452 17.8104 13.3855 17.8202C13.9819 17.8298 14.5783 17.7983 15.1701 17.726V17.7235Z" fill="#191919"/>
<path d="M7.26338 17.2438C7.24967 17.223 7.2311 17.2056 7.20921 17.1932C7.18731 17.1808 7.16272 17.1737 7.13744 17.1724C7.13404 17.1726 7.13074 17.1736 7.12776 17.1752C7.12478 17.1769 7.12219 17.1791 7.12016 17.1818C7.11814 17.1844 7.11672 17.1875 7.11601 17.1908C7.11529 17.194 7.1153 17.1974 7.11603 17.2007C7.11905 17.2053 7.12158 17.2103 7.12359 17.2154C7.12359 17.2154 7.12359 17.2265 7.12359 17.2314L7.14122 17.2573C7.14857 17.2653 7.15658 17.2727 7.16515 17.2794C7.17224 17.2866 7.18029 17.2928 7.18908 17.2979C7.20721 17.3104 7.22841 17.3181 7.25052 17.32C7.27264 17.322 7.29489 17.3182 7.31502 17.309C7.32258 17.309 7.31502 17.293 7.30746 17.2967C7.29021 17.3039 7.27136 17.3068 7.25265 17.3051C7.23395 17.3034 7.21598 17.2971 7.20041 17.2868C7.18388 17.2779 7.17066 17.2641 7.16263 17.2474C7.15914 17.2394 7.15619 17.2312 7.15382 17.2228C7.15443 17.2192 7.15443 17.2154 7.15382 17.2117C7.15449 17.2085 7.15449 17.2052 7.15382 17.2019L7.13115 17.2179C7.15036 17.2167 7.16958 17.2201 7.18714 17.2279C7.20469 17.2356 7.22006 17.2474 7.2319 17.2622C7.23527 17.2649 7.2395 17.2664 7.24386 17.2664C7.24823 17.2664 7.25245 17.2649 7.25583 17.2622C7.25747 17.2607 7.25878 17.2589 7.25967 17.2569C7.26056 17.2549 7.26102 17.2527 7.26102 17.2505C7.26102 17.2483 7.26056 17.2462 7.25967 17.2441C7.25878 17.2421 7.25747 17.2403 7.25583 17.2388L7.26338 17.2438Z" fill="#191919"/>
<path d="M9.64233 6.48355C11.8249 6.28902 13.9999 6.28902 16.1913 6.34163C16.2115 6.34163 16.2115 6.31349 16.1913 6.31104C14.0176 6.16911 11.8123 6.27311 9.64233 6.47866V6.48355Z" fill="#191919"/>
<path d="M18.1346 6.43473C17.0881 6.3818 16.0415 6.35103 14.9937 6.36211C14.4748 6.36703 13.9567 6.37934 13.4395 6.39903C13.1801 6.40888 12.9211 6.42078 12.6625 6.43473C12.4097 6.43701 12.1574 6.45427 11.9068 6.48642C11.8778 6.48642 11.8867 6.53196 11.9068 6.53319C12.1738 6.54673 12.4471 6.51227 12.7141 6.49996C12.9811 6.48765 13.2179 6.47904 13.4597 6.47165C13.9786 6.45442 14.497 6.44334 15.0151 6.43842C16.0516 6.42857 17.0881 6.43842 18.1246 6.46919C18.1472 6.46919 18.1472 6.43596 18.1246 6.43473H18.1346Z" fill="#191919"/>
<path d="M17.9949 23.6283C16.3904 23.6993 14.7859 23.7935 13.1801 23.8217C11.5945 23.8498 10.0051 23.8351 8.42074 23.7544C7.55684 23.7322 6.69974 23.5994 5.87167 23.3592C5.77469 23.3286 5.73565 23.4742 5.83011 23.5072C6.54396 23.739 7.2873 23.8741 8.03913 23.9085C8.83257 23.9611 9.62978 23.977 10.432 23.9905C12.0391 24.0158 13.6457 23.9901 15.2518 23.9134C16.1712 23.8682 17.0868 23.7911 18.0012 23.6846C18.0364 23.6846 18.0389 23.6271 18.0012 23.6283H17.9949Z" fill="#DCA35B"/>
<path d="M25.1346 22.0527C24.3021 22.4198 23.4784 22.7868 22.5906 23.0254C21.7892 23.2271 20.9689 23.3501 20.1422 23.3925C19.8904 23.4084 19.6385 23.4194 19.3866 23.4279C19.1158 23.4377 18.8161 23.4096 18.5528 23.4695C18.5374 23.4744 18.524 23.4839 18.5145 23.4967C18.5049 23.5094 18.4998 23.5248 18.4998 23.5405C18.4998 23.5563 18.5049 23.5716 18.5145 23.5844C18.524 23.5971 18.5374 23.6066 18.5528 23.6115C18.7952 23.6365 19.0397 23.6365 19.2821 23.6115C19.5188 23.6017 19.7543 23.5895 19.9911 23.5748C20.4168 23.5466 20.8425 23.5087 21.2644 23.4524C22.0983 23.3439 22.9141 23.1305 23.6913 22.8174C24.1977 22.6171 24.6874 22.379 25.156 22.1053C25.1618 22.1019 25.166 22.0964 25.1677 22.09C25.1694 22.0836 25.1683 22.0768 25.1648 22.0711C25.1613 22.0654 25.1556 22.0613 25.149 22.0597C25.1424 22.0581 25.1354 22.0591 25.1295 22.0625L25.1346 22.0527Z" fill="#DCA35B"/>
<path d="M26.739 20.9512C26.6651 21.0415 26.6056 21.1422 26.5627 21.2498C26.5035 21.3522 26.4361 21.45 26.3612 21.5422C26.2088 21.7282 26.0366 21.898 25.8474 22.0487C25.4695 22.3521 25.035 22.5687 24.6496 22.8587C24.6156 22.8844 24.6496 22.948 24.6937 22.9321C25.1573 22.7347 25.5854 22.4666 25.962 22.138C26.1489 21.9808 26.3178 21.8044 26.4657 21.6119C26.5393 21.5155 26.6058 21.4141 26.6647 21.3085C26.7375 21.2105 26.781 21.0949 26.7907 20.9745C26.7907 20.9682 26.7889 20.9621 26.7854 20.9568C26.7818 20.9516 26.7768 20.9475 26.7709 20.945C26.765 20.9425 26.7584 20.9418 26.7521 20.9429C26.7458 20.944 26.7399 20.9469 26.7352 20.9512H26.739Z" fill="#DCA35B"/>
<path d="M26.6825 22.0781C26.4729 22.3164 26.2239 22.519 25.9457 22.6776C25.9353 22.6836 25.9279 22.6934 25.9249 22.7047C25.922 22.7161 25.9238 22.7281 25.9299 22.7382C25.9361 22.7482 25.9462 22.7555 25.9579 22.7584C25.9695 22.7612 25.9819 22.7595 25.9923 22.7535C26.2935 22.6073 26.553 22.3913 26.7479 22.1246C26.7744 22.0891 26.7139 22.0438 26.685 22.0781H26.6825Z" fill="#DCA35B"/>
<path d="M3.24216 23.1389C2.60286 22.5748 2.05436 21.9207 1.61499 21.1984C1.16285 20.4484 0.903412 19.647 0.637675 18.8236C0.618783 18.7673 0.511733 18.7734 0.525586 18.8383C0.630118 19.6947 1.02935 20.5414 1.47897 21.2755C1.92751 22.0104 2.51557 22.6561 3.21193 23.178C3.2346 23.1951 3.26357 23.1584 3.24216 23.1389Z" fill="#DCA35B"/>
<path d="M24.0087 2.19701C23.5188 1.69048 22.8753 1.31976 22.2254 1.03102C21.5927 0.742846 20.9144 0.560827 20.2191 0.492676C20.2122 0.493562 20.2058 0.496647 20.2009 0.501447C20.196 0.506248 20.1929 0.512493 20.192 0.519206C20.1912 0.525918 20.1926 0.53272 20.1961 0.538546C20.1997 0.544372 20.2051 0.548894 20.2116 0.551404C20.899 0.676943 21.5683 0.882334 22.2052 1.16315C22.8438 1.45068 23.4029 1.84464 23.9772 2.23372C24.0024 2.25085 24.0276 2.21536 24.0087 2.19579V2.19701Z" fill="#DCA35B"/>
<path d="M19.5087 0.508846C19.2883 0.410966 19.0137 0.402402 18.7744 0.373038C18.5125 0.34245 18.2493 0.315533 17.9848 0.294734C17.4376 0.252737 16.8885 0.241299 16.34 0.260476C16.3293 0.260476 16.319 0.264601 16.3115 0.271943C16.3039 0.279286 16.2997 0.289244 16.2997 0.299628C16.2997 0.310012 16.3039 0.31997 16.3115 0.327313C16.319 0.334655 16.3293 0.33878 16.34 0.33878C16.8677 0.347344 17.3966 0.370591 17.9243 0.403625C18.1876 0.420754 18.452 0.444001 18.714 0.470918C18.976 0.497835 19.248 0.567574 19.5011 0.536987C19.5137 0.536987 19.5251 0.516187 19.5087 0.508846Z" fill="#DCA35B"/>
<path d="M15.8072 0.296093C15.4256 0.244066 15.0395 0.22931 14.6549 0.252047C14.0151 0.252047 13.374 0.269176 12.733 0.282634C11.3338 0.311998 9.92573 0.365832 8.52274 0.433125C8.06179 0.456371 7.60084 0.478394 7.13737 0.526111C7.10841 0.526111 7.10715 0.57138 7.13737 0.570157C8.1638 0.505311 9.19653 0.495523 10.2242 0.46983C11.6222 0.433125 13.0189 0.385408 14.4181 0.360938C14.8753 0.353597 15.3425 0.360938 15.8034 0.32301C15.8186 0.32301 15.8236 0.299763 15.8034 0.296093H15.8072Z" fill="#DCA35B"/>
<path d="M7.28997 0.000115352C5.93273 -0.00517379 4.58123 0.171451 3.27368 0.524997C3.22456 0.538455 3.24597 0.606971 3.29509 0.598407C3.94999 0.476057 4.60363 0.353707 5.26483 0.264391C5.92602 0.175076 6.61115 0.115124 7.28997 0.0661843C7.29899 0.0661843 7.30764 0.0627039 7.31402 0.0565088C7.3204 0.0503136 7.32398 0.0419111 7.32398 0.0331498C7.32398 0.0243886 7.3204 0.0159861 7.31402 0.00979093C7.30764 0.00359576 7.29899 0.000115352 7.28997 0.000115352Z" fill="#DCA35B"/>
<path d="M11.5681 0.993525C9.9397 0.851599 8.29363 0.885857 6.69039 1.25413C6.65009 1.26269 6.66772 1.31653 6.7055 1.31163C8.31127 1.08284 9.94096 0.931127 11.5681 1.01677C11.5845 1.01677 11.5832 0.994749 11.5681 0.993525Z" fill="#191919"/>
<path d="M1.07963 7.00621C0.913901 8.17137 0.853638 9.3484 0.899531 10.5238C0.899531 10.5372 0.9222 10.5372 0.920941 10.5238C0.884513 9.34909 0.9422 8.17343 1.09348 7.00744C1.09348 7.0001 1.08089 6.99887 1.07963 7.00744V7.00621Z" fill="#191919"/>
<path d="M0.906993 13.3777C0.90782 13.3777 0.908639 13.3775 0.909403 13.3772C0.910167 13.3769 0.910861 13.3764 0.911446 13.3759C0.91203 13.3753 0.912494 13.3746 0.912811 13.3738C0.913127 13.3731 0.91329 13.3723 0.91329 13.3715C0.91329 13.3706 0.913127 13.3698 0.912811 13.3691C0.912494 13.3683 0.91203 13.3676 0.911446 13.3671C0.910861 13.3665 0.910167 13.366 0.909403 13.3657C0.908639 13.3654 0.90782 13.3652 0.906993 13.3652C0.905323 13.3652 0.903721 13.3659 0.90254 13.3671C0.901359 13.3682 0.900696 13.3698 0.900696 13.3715C0.900696 13.3731 0.901359 13.3747 0.90254 13.3759C0.903721 13.377 0.905323 13.3777 0.906993 13.3777Z" fill="#191919"/>
<path d="M0.964999 13.231L0.957443 13.1001C0.956174 13.0947 0.953054 13.0899 0.948592 13.0864C0.94413 13.0829 0.938592 13.0811 0.932884 13.0811C0.927176 13.0811 0.921638 13.0829 0.917176 13.0864C0.912714 13.0899 0.909593 13.0947 0.908325 13.1001C0.910008 13.5404 0.936917 13.9804 0.988928 14.4178C1.02419 14.8574 1.06617 15.2963 1.11487 15.7343C1.19408 16.5946 1.3202 17.4502 1.4927 18.2975C1.4927 18.3085 1.51159 18.3049 1.51285 18.2975C1.52292 18.1911 1.5393 18.0858 1.55315 17.9806C1.55315 17.9806 1.54181 17.9721 1.54055 17.9806C1.51824 18.065 1.50682 18.1517 1.50655 18.2388C1.49285 18.1806 1.48567 18.1211 1.48514 18.0614L1.46247 17.8827C1.43602 17.665 1.41083 17.446 1.38187 17.2282C1.32016 16.762 1.25593 16.2946 1.20807 15.8273C1.16021 15.3599 1.11109 14.9109 1.07079 14.4521C1.03049 13.9932 1.02671 13.5442 0.961221 13.0976L0.913363 13.1099C0.923438 13.1527 0.932254 13.1955 0.94233 13.2383C0.94233 13.253 0.970037 13.2494 0.968777 13.2383L0.964999 13.231Z" fill="#191919"/>
<path d="M2.36807 8.14893C2.32021 9.12773 2.27235 10.1065 2.24213 11.0927C2.24213 11.1086 2.26732 11.1086 2.26857 11.0927C2.31643 10.1139 2.34288 9.13507 2.36807 8.14893Z" fill="#191919"/>
<path d="M2.51788 13.658C2.54685 13.8488 2.57708 14.0397 2.6073 14.2293L2.51788 13.6567V13.658Z" fill="#191919"/>
<path d="M2.7698 14.8916C2.84537 15.162 2.92219 15.4324 3.0028 15.7016C3.0028 15.7016 3.01161 15.7016 3.01035 15.7016C2.93731 15.4299 2.8609 15.1591 2.78114 14.8892C2.78114 14.8892 2.76854 14.8892 2.7698 14.8892V14.8916Z" fill="#191919"/>
<path d="M3.64384 15.1763L3.73829 15.421C3.73829 15.421 3.75341 15.421 3.74963 15.421L3.65139 15.1738C3.65139 15.1738 3.64132 15.1738 3.64384 15.1738V15.1763Z" fill="#191919"/>
<path d="M6.04428 1.38281C5.94443 1.38486 5.84497 1.39551 5.74705 1.41462C5.64378 1.43175 5.53925 1.44888 5.43724 1.46968C5.23195 1.5125 5.02666 1.55655 4.82264 1.60427C4.79367 1.61161 4.80627 1.65076 4.83523 1.64709C5.03926 1.61895 5.24328 1.58714 5.44731 1.55288C5.65211 1.528 5.85353 1.48164 6.04805 1.41462C6.06443 1.41462 6.06443 1.38281 6.04805 1.38281H6.04428Z" fill="#191919"/>
<path d="M4.06075 1.9302C4.0621 1.92962 4.06325 1.92866 4.06405 1.92745C4.06486 1.92623 4.06529 1.92481 4.06529 1.92335C4.06529 1.9219 4.06486 1.92048 4.06405 1.91926C4.06325 1.91804 4.0621 1.91709 4.06075 1.9165C4.0594 1.91709 4.05825 1.91804 4.05745 1.91926C4.05664 1.92048 4.05621 1.9219 4.05621 1.92335C4.05621 1.92481 4.05664 1.92623 4.05745 1.92745C4.05825 1.92866 4.0594 1.92962 4.06075 1.9302Z" fill="#191919"/>
<path d="M9.94847 0.705828C9.44976 0.699081 8.95107 0.719914 8.4548 0.768226C7.9737 0.815943 7.49386 0.824507 7.01528 0.910152C6.97875 0.917493 6.98757 0.977445 7.02535 0.974998C7.51275 0.934622 7.99511 0.844083 8.48376 0.819613L9.94847 0.743756C9.95223 0.742111 9.95542 0.739446 9.95766 0.736082C9.9599 0.732718 9.96109 0.728798 9.96109 0.724792C9.96109 0.720787 9.9599 0.716866 9.95766 0.713502C9.95542 0.710138 9.95223 0.707473 9.94847 0.705828Z" fill="#191919"/>
<path d="M3.72703 2.23193C3.35275 2.3161 2.98594 2.42902 2.63007 2.56962C2.27739 2.69775 1.93966 2.8618 1.62253 3.05902C1.61906 3.06059 1.61612 3.0631 1.61406 3.06624C1.612 3.06939 1.6109 3.07303 1.6109 3.07676C1.6109 3.08049 1.612 3.08413 1.61406 3.08728C1.61612 3.09042 1.61906 3.09293 1.62253 3.0945L1.7321 3.13121C1.7447 3.13121 1.75477 3.1153 1.74218 3.10918L1.63639 3.06391V3.09817C1.97517 2.94156 2.30262 2.76783 2.64392 2.62468C2.99668 2.48258 3.35746 2.36003 3.72451 2.25763C3.72751 2.25763 3.7304 2.25647 3.73252 2.2544C3.73465 2.25234 3.73584 2.24954 3.73584 2.24662C3.73584 2.2437 3.73465 2.24089 3.73252 2.23883C3.7304 2.23676 3.72751 2.2356 3.72451 2.2356L3.72703 2.23193Z" fill="#191919"/>
<path d="M2.02676 3.042C1.95248 3.03956 1.87879 3.05556 1.81265 3.08849C1.77701 3.10223 1.74212 3.11775 1.70812 3.13498C1.67532 3.15052 1.64482 3.17027 1.61744 3.19371C1.5847 3.2243 1.56203 3.2867 1.60989 3.31606C1.61732 3.32213 1.62651 3.32579 1.63618 3.32653C1.64585 3.32728 1.65552 3.32507 1.66384 3.32022C1.67216 3.31537 1.67872 3.30812 1.68259 3.29948C1.68646 3.29084 1.68747 3.28124 1.68545 3.27202C1.68447 3.26828 1.6826 3.26483 1.67998 3.26193C1.67737 3.25903 1.67408 3.25678 1.6704 3.25535C1.66672 3.25392 1.66274 3.25335 1.65879 3.2537C1.65484 3.25404 1.65103 3.25529 1.64767 3.25733C1.5592 3.28864 1.47633 3.33322 1.40208 3.38947C1.39864 3.39354 1.39656 3.39853 1.39614 3.40379C1.39571 3.40904 1.39696 3.41429 1.39971 3.41883C1.40246 3.42336 1.40658 3.42697 1.41151 3.42916C1.41644 3.43135 1.42194 3.43202 1.42727 3.43107C1.51544 3.39967 1.59823 3.35553 1.67286 3.30016L1.63508 3.28547C1.64263 3.27813 1.64389 3.27569 1.63508 3.27813C1.6341 3.27494 1.6341 3.27154 1.63508 3.26835C1.64758 3.25727 1.6621 3.24855 1.6779 3.24265C1.71694 3.21941 1.75724 3.19861 1.79754 3.17658C1.87737 3.14218 1.95405 3.10125 2.02676 3.05423C2.02806 3.05347 2.02914 3.0524 2.02989 3.05111C2.03064 3.04982 2.03103 3.04837 2.03103 3.04689C2.03103 3.04541 2.03064 3.04396 2.02989 3.04267C2.02914 3.04139 2.02806 3.04031 2.02676 3.03955V3.042Z" fill="#191919"/>
<path d="M22.7177 1.79361C21.8327 1.6525 20.9457 1.52403 20.0565 1.4082C20.0402 1.4082 20.0326 1.429 20.049 1.43145C20.9373 1.56848 21.8265 1.69409 22.7164 1.80829C22.7253 1.80829 22.7265 1.79483 22.7164 1.79361H22.7177Z" fill="#191919"/>
<path d="M18.9118 1.30695C18.3955 1.25526 17.8841 1.22818 17.3652 1.21833C16.8464 1.20849 16.3338 1.18633 15.8174 1.21833C15.8134 1.21833 15.8096 1.21989 15.8067 1.22266C15.8039 1.22543 15.8023 1.22919 15.8023 1.2331C15.8023 1.23702 15.8039 1.24078 15.8067 1.24355C15.8096 1.24632 15.8134 1.24787 15.8174 1.24787C16.3325 1.24787 16.8501 1.22203 17.3652 1.24787C17.8804 1.27372 18.398 1.30941 18.9118 1.35249C18.9345 1.35249 18.9332 1.31926 18.9118 1.3168V1.30695Z" fill="#191919"/>
<path d="M14.8388 1.28484C14.8212 1.28484 14.8023 1.28484 14.7847 1.28484C14.7566 1.2873 14.7283 1.28396 14.7016 1.27506C14.6749 1.26616 14.6504 1.25188 14.6297 1.23315C14.6273 1.23201 14.6246 1.23166 14.6219 1.23215C14.6193 1.23264 14.6169 1.23394 14.6151 1.23587C14.6132 1.23779 14.6121 1.24024 14.6118 1.24285C14.6115 1.24546 14.612 1.2481 14.6134 1.25038C14.6441 1.27912 14.6811 1.30059 14.7217 1.31315C14.7412 1.3195 14.7616 1.32283 14.7821 1.323C14.8046 1.32282 14.8266 1.31733 14.8464 1.307C14.8577 1.307 14.8464 1.27992 14.8388 1.28115V1.28484Z" fill="#191919"/>
<path d="M25.4392 21.4324C24.7843 21.6049 24.1269 21.7725 23.4733 21.9536C23.4657 21.9536 23.4733 21.9671 23.4733 21.9646C24.1319 21.7995 24.7856 21.6196 25.4405 21.4446C25.4493 21.4446 25.4405 21.43 25.4405 21.4324H25.4392Z" fill="#191919"/>
<path d="M21.5742 22.3206C21.2155 22.3907 20.8524 22.4376 20.4873 22.4609C20.4851 22.4617 20.4832 22.4631 20.4818 22.4649C20.4805 22.4668 20.4797 22.4691 20.4797 22.4714C20.4797 22.4737 20.4805 22.4759 20.4818 22.4778C20.4832 22.4797 20.4851 22.4811 20.4873 22.4818C20.8554 22.4711 21.2211 22.4212 21.578 22.3329C21.5868 22.3329 21.578 22.3181 21.578 22.3206H21.5742Z" fill="#191919"/>
<path d="M19.8363 22.4767C19.5101 22.4767 19.1852 22.4655 18.859 22.4767C18.856 22.4767 18.8531 22.4778 18.851 22.4799C18.8488 22.482 18.8477 22.4849 18.8477 22.4879C18.8477 22.4908 18.8488 22.4937 18.851 22.4958C18.8531 22.4979 18.856 22.4991 18.859 22.4991C19.1852 22.5078 19.5101 22.4991 19.8363 22.4991C19.8386 22.4991 19.8409 22.4982 19.8425 22.4965C19.8442 22.4949 19.8451 22.4927 19.8451 22.4904C19.8451 22.488 19.8442 22.4858 19.8425 22.4842C19.8409 22.4826 19.8386 22.4816 19.8363 22.4816V22.4767Z" fill="#191919"/>
<path d="M18.6385 22.4675C20.0667 22.547 21.5768 22.5164 22.9281 22.0209L22.9017 21.9585C22.3771 22.2085 21.8173 22.3817 21.2405 22.4724C21.2153 22.4724 21.2254 22.5127 21.2506 22.5091C21.8258 22.4033 22.3881 22.2393 22.9281 22.0197C22.9697 22.0038 22.9533 21.9401 22.9092 21.9548C22.2177 22.1692 21.5031 22.3059 20.7796 22.3622C20.068 22.4271 19.3539 22.4185 18.6385 22.454V22.465V22.4675Z" fill="#191919"/>
<path d="M18.0454 22.8285C17.8114 22.791 17.5756 22.7651 17.3389 22.751C17.3238 22.751 17.32 22.7756 17.3389 22.7768C17.574 22.8094 17.8107 22.8304 18.048 22.8396V22.8285H18.0454Z" fill="#191919"/>
<path d="M17.2293 22.7481C16.9578 22.7679 16.6849 22.7542 16.4169 22.7075C16.3968 22.7075 16.3867 22.7334 16.4081 22.7395C16.6758 22.8098 16.9555 22.8245 17.2293 22.7826C17.2507 22.7826 17.2519 22.7457 17.2293 22.7481Z" fill="#191919"/>
<path d="M20.8148 22.8877C20.0228 23.001 19.2208 23.0332 18.4219 22.9837C18.4156 22.9837 18.4156 22.9923 18.4219 22.9935C19.221 23.0416 20.023 23.0074 20.8148 22.8914V22.8877Z" fill="#191919"/>
<path d="M22.2253 22.3691C21.559 22.5883 20.8649 22.7175 20.1624 22.7533C20.1422 22.7533 20.1422 22.7851 20.1624 22.7839C20.8677 22.7483 21.5635 22.6102 22.2266 22.374L22.2253 22.3691Z" fill="#191919"/>
<path d="M14.1876 23.1936C13.8765 23.1863 13.5579 23.2133 13.2531 23.222C12.9483 23.2306 12.6096 23.2367 12.2871 23.2392C11.6574 23.2392 11.0277 23.2158 10.3879 23.1998C10.3703 23.1998 10.3716 23.2232 10.3879 23.2244C11.0265 23.2896 11.6763 23.3044 12.3186 23.3081C12.9442 23.3301 13.5705 23.3021 14.1914 23.2244C14.2103 23.2244 14.204 23.1949 14.1914 23.1936H14.1876Z" fill="#191919"/>
<path d="M8.86668 23.1789C8.93121 23.1773 8.99574 23.1818 9.05937 23.1923L9.06819 23.1287C8.76662 23.1465 8.46423 23.1465 8.16266 23.1287C7.85159 23.1043 7.54294 23.0565 7.23951 22.9856C7.23727 22.9849 7.23493 22.9847 7.23262 22.985C7.2303 22.9852 7.22806 22.9859 7.22601 22.9869C7.22396 22.988 7.22215 22.9895 7.22069 22.9912C7.21922 22.993 7.21813 22.995 7.21747 22.9972C7.2168 22.9994 7.21659 23.0016 7.21683 23.0039C7.21708 23.0061 7.21777 23.0083 7.21888 23.0103C7.22 23.0123 7.2215 23.0141 7.22331 23.0155C7.22512 23.0169 7.2272 23.018 7.22943 23.0186C7.82631 23.2 8.45568 23.2579 9.077 23.1887C9.1173 23.1887 9.10093 23.114 9.05937 23.1263C8.99613 23.1406 8.93158 23.1488 8.86668 23.1507C8.86503 23.1507 8.86339 23.1511 8.86186 23.1517C8.86033 23.1523 8.85894 23.1532 8.85777 23.1543C8.8566 23.1555 8.85568 23.1568 8.85504 23.1583C8.85441 23.1598 8.85408 23.1614 8.85408 23.163C8.85408 23.1646 8.85441 23.1662 8.85504 23.1677C8.85568 23.1691 8.8566 23.1705 8.85777 23.1716C8.85894 23.1728 8.86033 23.1737 8.86186 23.1743C8.86339 23.1749 8.86503 23.1752 8.86668 23.1752V23.1789Z" fill="#191919"/>
<path d="M13.4824 22.1723C13.2732 22.1669 13.0658 22.2126 12.8792 22.3052C12.8716 22.3052 12.8792 22.32 12.8867 22.3175C12.9808 22.2763 13.0786 22.2438 13.1789 22.2203C13.2792 22.2004 13.3805 22.186 13.4824 22.1772V22.1723Z" fill="#191919"/>
<path d="M4.1551 21.4614C3.77727 21.1963 3.39567 20.9357 3.01029 20.6796C2.97628 20.6576 2.9448 20.7102 2.97754 20.7322C3.35537 20.9904 3.74831 21.2412 4.13999 21.4883C4.15636 21.4993 4.17147 21.4736 4.1551 21.4614Z" fill="#191919"/>
<path d="M1.97009 19.8159C2.04002 20.0164 2.13565 20.2076 2.25472 20.3848C2.3105 20.4672 2.37149 20.546 2.43734 20.621L2.54313 20.7433C2.58091 20.7862 2.61114 20.8351 2.64892 20.8767C2.6867 20.9183 2.73582 20.8596 2.70182 20.8265C2.53683 20.6614 2.34414 20.5194 2.1653 20.3702C2.14515 20.3543 2.11619 20.3812 2.13508 20.3995C2.30384 20.5598 2.4663 20.7323 2.64892 20.8767L2.69426 20.8204C2.64718 20.7928 2.60177 20.7625 2.55824 20.7299C2.52155 20.6983 2.48665 20.6648 2.45371 20.6295C2.38172 20.5486 2.31525 20.4632 2.25472 20.3738C2.13665 20.2001 2.04145 20.0127 1.97135 19.8159H1.97009Z" fill="#191919"/>
<path d="M2.00146 20.374L2.21179 20.4848L2.00146 20.3753V20.374Z" fill="#191919"/>
<path d="M3.74331 21.5628L3.55943 21.4539C3.49898 21.4172 3.43349 21.3842 3.37304 21.3499C3.37036 21.3483 3.36714 21.3478 3.36407 21.3484C3.361 21.3491 3.35833 21.351 3.35666 21.3536C3.35499 21.3562 3.35445 21.3593 3.35516 21.3623C3.35587 21.3653 3.35777 21.3679 3.36044 21.3695C3.42089 21.4086 3.47883 21.449 3.54054 21.4845L3.72442 21.5946C3.74457 21.6068 3.76346 21.575 3.74331 21.5628Z" fill="#191919"/>
<path d="M3.72577 21.5884C3.792 21.648 3.86366 21.7017 3.93987 21.7487C3.97892 21.7731 4.0167 21.7964 4.05574 21.8172L4.11493 21.8478C4.13496 21.8604 4.15602 21.8715 4.1779 21.8808C4.21569 21.893 4.23206 21.8429 4.20309 21.8221C4.15524 21.789 4.10864 21.7572 4.05826 21.7279C4.03937 21.7156 4.01922 21.7426 4.03433 21.7572C4.07589 21.7976 4.11871 21.8355 4.16027 21.8722L4.20057 21.8221C4.18042 21.8135 4.16027 21.8135 4.13886 21.8062L4.07715 21.7829C4.034 21.7672 3.99193 21.7488 3.95121 21.7279C3.87232 21.6852 3.79733 21.6361 3.72703 21.5811C3.72703 21.5811 3.71318 21.5811 3.71948 21.5884H3.72577Z" fill="#191919"/>
<path d="M4.36296 21.8603C4.50975 21.8537 4.65488 21.8929 4.77731 21.9723C4.78613 21.9785 4.79369 21.9649 4.78613 21.96C4.66369 21.8735 4.5135 21.8328 4.36296 21.8455C4.35289 21.8455 4.35289 21.8615 4.36296 21.8603Z" fill="#191919"/>
<path d="M9.24196 21.6749C8.70865 21.6503 8.1798 21.5682 7.66516 21.4302C8.17883 21.5726 8.70819 21.6547 9.24196 21.6749Z" fill="#191919"/>
<path d="M6.61848 21.1387C6.51491 21.0568 6.38366 21.016 6.25073 21.0242C6.38318 21.0151 6.51421 21.0556 6.61722 21.1374L6.61848 21.1387Z" fill="#191919"/>
<path d="M7.61594 21.5646L7.03912 21.5117L7.61594 21.5634V21.5646Z" fill="#191919"/>
<path d="M23.8726 3.5359C24.1318 3.78268 24.364 4.05494 24.5653 4.3483C24.5653 4.3483 24.5804 4.3483 24.5754 4.34218C24.3714 4.04976 24.1372 3.77836 23.8764 3.53223C23.8764 3.53223 23.8701 3.53223 23.8764 3.53223L23.8726 3.5359Z" fill="#191919"/>
<path d="M23.3059 3.25099C23.6837 3.76363 24.0704 4.2775 24.4595 4.78648C24.4595 4.79382 24.4759 4.78648 24.4708 4.78036C24.093 4.26527 23.7013 3.75629 23.3147 3.24609C23.3147 3.24609 23.3021 3.24609 23.3059 3.24609V3.25099Z" fill="#191919"/>
<path d="M25.3977 7.42701C25.4154 7.48117 25.433 7.53655 25.4494 7.59194L25.3965 7.42578L25.3977 7.42701Z" fill="#191919"/>
<path d="M25.928 11.5396L25.9809 11.7598C25.9633 11.6876 25.9444 11.6142 25.9268 11.5408L25.928 11.5396Z" fill="#191919"/>
<path d="M25.986 11.8146C25.8821 10.8917 25.7252 9.97508 25.5163 9.06909C25.5163 9.04829 25.481 9.05685 25.4848 9.07765C25.6561 9.98916 25.8437 10.897 25.9797 11.8146H25.986Z" fill="#191919"/>
<path d="M24.7706 7.20508C24.8059 7.29684 24.8412 7.3886 24.8752 7.48037C24.8399 7.3886 24.8046 7.29806 24.7706 7.2063V7.20508Z" fill="#191919"/>
<path d="M25.8172 14.8862L25.8701 15.2154L25.8172 14.8862Z" fill="#191919"/>
<path d="M25.8021 16.5378C25.86 16.7005 25.9167 16.8632 25.9759 17.0272C25.9759 17.0333 25.9898 17.0272 25.9872 17.0272C25.9318 16.8632 25.8752 16.7005 25.8185 16.5378C25.8185 16.528 25.7983 16.5317 25.8021 16.5378Z" fill="#191919"/>
<path d="M26.0301 17.8553C26.0364 17.8553 26.0389 17.8933 26.0401 17.8981V17.9361L26.054 18.0168L26.0804 18.1783L26.0401 17.9508L26.0313 17.8957C26.0301 17.8859 26.0301 17.8761 26.0313 17.8663C26.0307 17.8627 26.0307 17.859 26.0313 17.8553C26.0313 17.837 26.0099 17.8553 26.0238 17.8553H26.0301Z" fill="#191919"/>
<path d="M25.3753 17.7773C25.3919 18.1648 25.3864 18.5528 25.3589 18.9397C25.3849 18.5527 25.3895 18.1647 25.3727 17.7773H25.3753Z" fill="#191919"/>
<path d="M25.2719 19.3035C25.1467 19.648 24.9943 19.9826 24.816 20.3043C24.816 20.3043 24.816 20.3104 24.816 20.3043C25.0093 19.9896 25.1631 19.6536 25.2745 19.3035C25.2745 19.3035 25.2745 19.2974 25.2669 19.3035H25.2719Z" fill="#191919"/>
<path d="M25.9255 20.1597C25.9121 20.2287 25.8731 20.2905 25.8159 20.3334L25.836 20.3444L25.8461 20.3126C25.8517 20.3034 25.8543 20.2927 25.8537 20.282C25.8527 20.2808 25.8515 20.2797 25.8501 20.279C25.8487 20.2783 25.8471 20.2779 25.8455 20.2779C25.8439 20.2779 25.8423 20.2783 25.8409 20.279C25.8395 20.2797 25.8382 20.2808 25.8373 20.282C25.8285 20.2881 25.8272 20.3016 25.8235 20.3102L25.8134 20.342C25.8119 20.3446 25.8115 20.3476 25.8123 20.3505C25.8131 20.3534 25.8151 20.3558 25.8178 20.3573C25.8205 20.3587 25.8236 20.3591 25.8266 20.3583C25.8295 20.3575 25.832 20.3556 25.8335 20.353C25.8632 20.3311 25.887 20.3026 25.9028 20.2698C25.9193 20.2369 25.9288 20.2011 25.9305 20.1646L25.9255 20.1597Z" fill="#191919"/>
<path d="M9.67771 3.09521H9.11853V3.10269H9.67771V3.09521Z" fill="#191919"/>
<path d="M6.40314 3.49719C6.0321 3.55989 5.66958 3.66332 5.32256 3.80551C5.31626 3.80551 5.32256 3.81775 5.32256 3.81652C5.50014 3.75657 5.67646 3.69417 5.85656 3.63912C6.03665 3.58406 6.21801 3.54246 6.40063 3.50453C6.40063 3.50453 6.40063 3.49597 6.40063 3.49719H6.40314Z" fill="#191919"/>
<path d="M9.97875 5.26683C10.0177 5.26429 10.0569 5.26803 10.0946 5.27791C10.1198 5.28652 10.1324 5.24591 10.106 5.23852C9.8951 5.1825 9.67457 5.17034 9.45861 5.20283C9.45393 5.20283 9.44945 5.20464 9.44614 5.20788C9.44284 5.21111 9.44098 5.21549 9.44098 5.22006C9.44098 5.22463 9.44284 5.22901 9.44614 5.23224C9.44945 5.23548 9.45393 5.23729 9.45861 5.23729C9.56349 5.23175 9.66859 5.23175 9.77347 5.23729C9.88002 5.24367 9.98604 5.25682 10.0908 5.27668V5.23852C10.055 5.24983 10.0176 5.25564 9.98001 5.25575C9.98001 5.25575 9.98001 5.26437 9.98001 5.2656L9.97875 5.26683Z" fill="#191919"/>
<path d="M8.94096 5.35612L8.95482 5.34873L8.97245 5.33766C8.97698 5.33458 8.98213 5.33249 8.98756 5.3315H8.99638H9.00267C9.01379 5.32846 9.02556 5.32846 9.03668 5.3315H9.04549L9.0669 5.35612L9.07572 5.32166L8.98252 5.34873H8.96363H8.94096C8.92894 5.34997 8.91733 5.35375 8.90696 5.35981C8.89938 5.36452 8.89259 5.37033 8.88681 5.37704C8.88435 5.38093 8.88306 5.3854 8.88306 5.38997C8.88306 5.39453 8.88435 5.399 8.88681 5.40289C8.88882 5.4068 8.89187 5.41012 8.89563 5.4125C8.89939 5.41488 8.90374 5.41624 8.90822 5.41643C8.91783 5.41765 8.92757 5.41765 8.93718 5.41643C8.94852 5.41643 8.96363 5.41643 8.96993 5.40412H8.97875L8.9989 5.3955L9.08957 5.36597C9.09314 5.36502 9.09639 5.3632 9.09902 5.36067C9.10164 5.35814 9.10356 5.35498 9.10457 5.35152C9.10559 5.34805 9.10566 5.34438 9.1048 5.34088C9.10394 5.33737 9.10216 5.33414 9.09965 5.3315C9.08853 5.319 9.07446 5.30934 9.05866 5.30333C9.04287 5.29733 9.02581 5.29517 9.00897 5.29704C8.99165 5.29818 8.97483 5.30324 8.95985 5.31181C8.95171 5.31629 8.9448 5.32262 8.9397 5.33027C8.93586 5.33803 8.93331 5.34634 8.93215 5.35489C8.93215 5.35489 8.93215 5.37089 8.94726 5.36473L8.94096 5.35612Z" fill="#191919"/>
<path d="M11.4383 18.671C11.4245 18.6846 11.3829 18.6821 11.364 18.6821C11.3414 18.6833 11.3187 18.6833 11.296 18.6821C11.254 18.6844 11.212 18.6844 11.1701 18.6821C11.1235 18.6821 11.0769 18.6723 11.0303 18.6649C11.0095 18.662 10.9889 18.6578 10.9685 18.6526C10.9459 18.6452 10.9232 18.6341 10.9005 18.6255V18.6476C11.0265 18.692 11.1751 18.703 11.3036 18.7572C11.335 18.7695 11.3527 18.7215 11.3262 18.7055C11.2806 18.6775 11.2296 18.6588 11.1763 18.6505C11.1231 18.6423 11.0687 18.6446 11.0164 18.6575C11.0104 18.6594 11.0053 18.6632 11.002 18.6684C10.9987 18.6736 10.9974 18.6798 10.9983 18.6859C10.9992 18.6919 11.0023 18.6975 11.007 18.7015C11.0117 18.7056 11.0177 18.7078 11.024 18.708C11.1196 18.7063 11.2146 18.723 11.3036 18.7572L11.3124 18.7018C11.1738 18.6932 11.0403 18.6427 10.9031 18.6255C10.8905 18.6255 10.8867 18.6464 10.9031 18.6476L11.0391 18.6673C11.0807 18.675 11.1228 18.6804 11.165 18.6833C11.2104 18.6833 11.2557 18.6833 11.301 18.6833H11.369C11.3905 18.6833 11.432 18.671 11.4496 18.6833C11.4673 18.6956 11.4597 18.6636 11.4496 18.6735L11.4383 18.671Z" fill="#191919"/>
<path d="M22.8525 8.7529C22.6661 8.7529 22.4747 8.74418 22.2934 8.7529C22.289 8.75399 22.2852 8.75649 22.2824 8.75998C22.2797 8.76348 22.2782 8.76777 22.2782 8.7722C22.2782 8.77662 22.2797 8.78092 22.2824 8.78441C22.2852 8.78791 22.289 8.7904 22.2934 8.7915C22.4797 8.80146 22.6712 8.7915 22.8525 8.7915C22.8572 8.79036 22.8613 8.78772 22.8642 8.78399C22.8672 8.78027 22.8688 8.77568 22.8688 8.77095C22.8688 8.76622 22.8672 8.76163 22.8642 8.75791C22.8613 8.75419 22.8572 8.75155 22.8525 8.75041V8.7529Z" fill="#191919"/>
<path d="M22.6384 8.99382L22.3865 8.94775L22.6447 8.99382H22.6384Z" fill="#191919"/>
<path d="M22.5086 9.03662H22.2378C22.2359 9.03732 22.2342 9.03858 22.233 9.04023C22.2319 9.04188 22.2312 9.04384 22.2312 9.04585C22.2312 9.04786 22.2319 9.04982 22.233 9.05147C22.2342 9.05312 22.2359 9.05438 22.2378 9.05508C22.277 9.07963 22.3208 9.09631 22.3666 9.10413C22.4125 9.11195 22.4594 9.11075 22.5048 9.10062C22.5224 9.10062 22.5174 9.07231 22.5048 9.07231C22.3637 9.07231 22.2214 9.08339 22.0804 9.09201C21.9393 9.10062 21.7983 9.11539 21.6572 9.1277C21.6308 9.1277 21.6295 9.16955 21.6572 9.16709C21.8008 9.1597 21.9456 9.15355 22.0892 9.14124C22.2328 9.12893 22.37 9.12278 22.5086 9.10062L22.501 9.07231C22.4592 9.08586 22.4146 9.0898 22.371 9.08382C22.3273 9.07785 22.2856 9.06212 22.2491 9.03785V9.05631H22.5199C22.5213 9.05574 22.5224 9.05479 22.5232 9.05359C22.524 9.05239 22.5245 9.05098 22.5245 9.04954C22.5245 9.04811 22.524 9.0467 22.5232 9.0455C22.5224 9.0443 22.5213 9.04335 22.5199 9.04278L22.5086 9.03662Z" fill="#191919"/>
<path d="M1.9928 5.704C2.05021 5.7358 2.10137 5.77723 2.14393 5.82635C2.18884 5.87727 2.22461 5.93517 2.24972 5.99764L2.26105 5.98663L2.11244 5.9487C2.06483 5.93443 2.01649 5.92259 1.96761 5.91322C1.92983 5.9071 1.83411 5.93891 1.87819 5.98785C1.88575 5.99641 1.89834 5.98785 1.89078 5.97561C1.88323 5.96338 1.91471 5.93891 1.93109 5.93524C1.96465 5.93487 1.99798 5.94068 2.02932 5.95237L2.25602 6.00375C2.2576 6.00433 2.25932 6.00444 2.26097 6.00409C2.26262 6.00374 2.26413 6.00294 2.26532 6.00178C2.26651 6.00062 2.26734 5.99915 2.2677 5.99755C2.26806 5.99595 2.26794 5.99428 2.26735 5.99274C2.24304 5.92868 2.2077 5.8691 2.16282 5.81656C2.11745 5.76469 2.06284 5.72118 2.00161 5.68809C1.99944 5.68696 1.9969 5.6867 1.99453 5.68739C1.99217 5.68808 1.99019 5.68965 1.98902 5.69176C1.98785 5.69387 1.98759 5.69634 1.9883 5.69864C1.98901 5.70093 1.99063 5.70286 1.9928 5.704Z" fill="#191919"/>
</g>
<defs>
<clipPath id="clip0">
<rect width="27" height="24" fill="white"/>
</clipPath>
</defs>
</svg>
